<svg width="450" height="446" viewBox="0 0 450 446" fill="none" xmlns="http://www.w3.org/2000/svg">
<path d="M394.943 381.349C385.769 390.889 377.09 397.041 370.232 401.902C289.623 459.039 194.242 442.384 173.97 438.317C144.036 432.31 86.1737 420.701 44.3403 372.101C-18.9502 298.574 -9.09498 182.734 39.9975 106.267C48.9773 92.2797 96.4111 14.6475 192.82 2.19788C251.166 -5.33657 319.178 9.85949 368.431 50.6238C471.816 136.191 464.456 309.053 394.943 381.349Z" fill="url(#paint0_linear_293_3770)"/>
<path d="M184.162 408.81C181.342 357.997 162.498 311.645 95.5967 278.669C95.5967 278.669 85.2131 403.316 184.162 408.81Z" fill="#BDD0FB"/>
<path opacity="0.51" d="M165.79 386.752C165.655 386.752 165.519 386.7 165.414 386.599C127.574 349.667 103.932 295.486 103.698 294.943C103.58 294.67 103.705 294.353 103.978 294.235C104.25 294.117 104.568 294.242 104.686 294.516C104.919 295.057 128.481 349.048 166.166 385.828C166.379 386.036 166.383 386.377 166.176 386.589C166.07 386.697 165.93 386.752 165.79 386.752Z" fill="white"/>
<path d="M300.792 405.638C346.484 409.855 390.321 399.188 428.595 343.889C428.595 343.889 318.8 318.115 300.792 405.638Z" fill="#BDD0FB"/>
<path opacity="0.51" d="M326.717 390.711C326.594 390.711 326.47 390.669 326.369 390.583C326.142 390.39 326.114 390.051 326.307 389.824C339.966 373.723 362.331 363.492 378.687 357.745C396.385 351.526 411.062 349.069 411.208 349.046C411.505 348.993 411.779 349.196 411.826 349.489C411.875 349.782 411.677 350.059 411.383 350.108C410.802 350.204 352.988 360.038 327.128 390.52C327.021 390.646 326.869 390.711 326.717 390.711Z" fill="white"/>
<path d="M189.461 309.341L179.854 395.503H291.315L276.797 309.341H189.461Z" fill="url(#paint1_linear_293_3770)"/>
<path d="M2.22559 97.055V294.389C2.22559 310.623 15.1616 323.898 31.3897 324.316C103.466 326.175 355.553 330.681 424.165 329.67C435.957 329.496 445.51 320.059 445.85 308.271C447.173 262.427 449.322 152.189 441.37 101.01C439.696 90.2318 430.599 82.1724 419.697 81.8238C359.306 79.8918 92.0772 73.7573 23.4976 75.2975C11.6699 75.5627 2.22559 85.2242 2.22559 97.055Z" fill="url(#paint2_linear_293_3770)"/>
<path d="M14.6074 96.0943V283.576C14.6074 293.054 22.2156 300.776 31.6925 300.918L414.293 305.645C423.689 305.786 431.391 298.226 431.426 288.83L432.066 103.024C432.091 96.3048 426.738 90.7997 420.021 90.6361L28.3088 82.7226C20.7962 82.5397 14.6074 88.5798 14.6074 96.0943Z" fill="#91B3FA"/>
<path opacity="0.65" d="M434.306 313.336C434.303 313.336 434.3 313.336 434.297 313.336L14.5988 306.185C14.3013 306.18 14.0642 305.935 14.0694 305.638C14.0753 305.341 14.3454 305.104 14.6167 305.109L434.315 312.26C434.613 312.265 434.85 312.51 434.845 312.807C434.839 313.102 434.6 313.336 434.306 313.336Z" fill="white"/>
<path opacity="0.65" d="M228.597 322.07C225.892 322.07 223.691 319.87 223.691 317.165C223.691 314.46 225.892 312.26 228.597 312.26C231.301 312.26 233.502 314.46 233.502 317.165C233.502 319.87 231.301 322.07 228.597 322.07ZM228.597 313.336C226.485 313.336 224.768 315.054 224.768 317.165C224.768 319.276 226.486 320.994 228.597 320.994C230.708 320.994 232.425 319.276 232.425 317.165C232.425 315.054 230.708 313.336 228.597 313.336Z" fill="white"/>
<path d="M294.071 408.029C343.083 383.699 380.894 345.426 385.112 265.339C385.112 265.339 257.546 307.929 294.071 408.029Z" fill="#7D97F4"/>
<path opacity="0.51" d="M301.997 389.951C301.939 389.951 301.878 389.941 301.819 389.92C301.538 389.822 301.391 389.515 301.49 389.234C313.189 355.882 330.576 330.167 343.102 314.467C356.678 297.451 367.642 288.193 367.751 288.102C367.98 287.912 368.319 287.942 368.51 288.168C368.701 288.396 368.671 288.736 368.443 288.927C368.009 289.291 324.793 326.053 302.505 389.591C302.427 389.812 302.22 389.951 301.997 389.951Z" fill="white"/>
<path d="M315.323 413.132H152.191C147.76 413.132 144.432 409.977 145.288 406.588L147.382 398.31C148.011 395.82 150.75 393.992 154.003 393.891L311.267 388.983C314.666 388.878 317.675 390.682 318.416 393.269L322.189 406.454C323.17 409.88 319.826 413.132 315.323 413.132Z" fill="url(#paint3_linear_293_3770)"/>
<path d="M240.008 396.14C239.714 396.14 239.474 395.904 239.47 395.609C239.466 395.312 239.703 395.067 240 395.063L246.739 394.965C246.742 394.965 246.745 394.965 246.747 394.965C247.041 394.965 247.281 395.201 247.285 395.495C247.29 395.793 247.052 396.037 246.755 396.042L240.016 396.14C240.013 396.14 240.011 396.14 240.008 396.14Z" fill="white"/>
<path d="M151.328 408.574C151.3 408.574 151.271 408.572 151.243 408.568C150.949 408.521 150.749 408.245 150.796 407.951L151.757 401.931C152.274 398.692 155.03 396.306 158.309 396.258L229.787 395.213C229.789 395.213 229.792 395.213 229.794 395.213C230.088 395.213 230.329 395.449 230.333 395.743C230.337 396.041 230.099 396.285 229.802 396.289L158.325 397.334C155.57 397.375 153.255 399.379 152.82 402.1L151.859 408.121C151.817 408.386 151.588 408.574 151.328 408.574Z" fill="white"/>
<path d="M355.772 16.1965C358.212 16.3119 360.673 16.5354 363.088 16.8598C363.419 16.9043 363.743 16.875 364.044 16.7844C364.869 16.5356 365.515 15.8243 365.637 14.914C365.804 13.6731 364.933 12.5313 363.691 12.3644C361.149 12.0229 358.556 11.788 355.987 11.6664C354.736 11.6072 353.674 12.5733 353.615 13.8244C353.555 15.0749 354.522 16.137 355.772 16.1965Z" fill="url(#paint4_linear_293_3770)"/>
<path d="M292.243 36.7673C291.376 35.8629 289.941 35.8322 289.036 36.6992C287.183 38.4758 285.383 40.3547 283.688 42.2817C282.861 43.2221 282.953 44.6545 283.893 45.4822C284.504 46.0196 285.322 46.1686 286.048 45.9499C286.439 45.8317 286.804 45.6071 287.094 45.2773C288.704 43.4462 290.414 41.6621 292.175 39.9735C293.079 39.1066 293.109 37.6708 292.243 36.7673Z" fill="url(#paint5_linear_293_3770)"/>
<path d="M264.434 88.0147C263.195 87.8473 262.051 88.715 261.882 89.956C261.535 92.5011 261.296 95.0919 261.17 97.6557C261.108 98.9067 262.073 99.9704 263.323 100.033C263.59 100.046 263.848 100.012 264.09 99.9392C264.982 99.67 265.651 98.8632 265.7 97.8789C265.819 95.4438 266.047 92.9843 266.376 90.5675C266.544 89.3267 265.675 88.1836 264.434 88.0147Z" fill="url(#paint6_linear_293_3770)"/>
<path d="M279.205 51.6149C278.159 50.9247 276.752 51.214 276.064 52.2599C274.648 54.4063 273.308 56.6364 272.083 58.8868C271.484 59.9864 271.89 61.3636 272.991 61.9625C273.545 62.2645 274.169 62.3111 274.73 62.1421C275.281 61.9758 275.769 61.6008 276.066 61.0551C277.231 58.9162 278.503 56.7966 279.85 54.7568C280.539 53.7106 280.25 52.3044 279.205 51.6149Z" fill="url(#paint7_linear_293_3770)"/>
<path d="M336.563 17.453C338.968 17.0229 341.418 16.6901 343.845 16.4658C344 16.4516 344.15 16.4212 344.293 16.3779C345.304 16.073 345.995 15.0901 345.894 13.9984C345.779 12.7516 344.674 11.8339 343.426 11.9494C340.873 12.186 338.294 12.5362 335.764 12.9885C334.529 13.2038 333.711 14.3877 333.931 15.6204C334.152 16.8527 335.33 17.6733 336.563 17.453Z" fill="url(#paint8_linear_293_3770)"/>
<path d="M269.778 68.9831C268.605 68.5428 267.298 69.1351 266.856 70.3057C265.951 72.7086 265.139 75.1807 264.441 77.6532C264.102 78.8584 264.803 80.1114 266.009 80.451C266.44 80.5726 266.877 80.5611 267.277 80.4406C267.994 80.2242 268.588 79.6583 268.807 78.8844C269.468 76.5346 270.241 74.1866 271.1 71.9048C271.542 70.7327 270.949 69.4245 269.778 68.9831Z" fill="url(#paint9_linear_293_3770)"/>
<path d="M263.482 107.75C262.231 107.867 261.315 108.966 261.428 110.213C261.659 112.763 262.003 115.341 262.451 117.874C262.67 119.107 263.847 119.93 265.08 119.711C265.17 119.695 265.257 119.674 265.342 119.649C266.427 119.322 267.121 118.227 266.918 117.084C266.492 114.676 266.164 112.228 265.945 109.804C265.832 108.558 264.73 107.637 263.482 107.75Z" fill="url(#paint10_linear_293_3770)"/>
<path d="M300.66 32.6764C300.894 32.6057 301.121 32.4947 301.332 32.3435C303.308 30.9171 305.371 29.5594 307.463 28.3086C308.538 27.6652 308.888 26.2725 308.246 25.198C307.602 24.1226 306.212 23.7784 305.135 24.4161C302.932 25.7338 300.76 27.1635 298.678 28.6656C297.663 29.3984 297.433 30.8156 298.166 31.8316C298.747 32.6372 299.759 32.948 300.66 32.6764Z" fill="url(#paint11_linear_293_3770)"/>
<path d="M317.872 23.0002C317.949 22.9771 318.026 22.9495 318.102 22.9181C320.346 21.9709 322.661 21.1079 324.984 20.3538C326.175 19.9675 326.827 18.6884 326.44 17.4968C326.059 16.3213 324.808 15.6708 323.63 16.026C323.614 16.0306 323.599 16.0353 323.584 16.0409C321.139 16.8339 318.701 17.7421 316.339 18.7387C315.185 19.2264 314.644 20.5562 315.131 21.7104C315.586 22.7878 316.777 23.3306 317.872 23.0002Z" fill="url(#paint12_linear_293_3770)"/>
<path d="M269.786 128.635C269.407 127.457 268.145 126.774 266.965 127.13C266.951 127.134 266.937 127.139 266.923 127.143C265.724 127.505 265.086 128.836 265.47 130.028C266.261 132.478 267.184 134.987 268.176 137.349C268.629 138.429 269.816 138.955 270.913 138.624C270.988 138.601 271.053 138.538 271.127 138.507C272.282 138.022 272.828 136.699 272.343 135.545C271.401 133.301 270.537 130.963 269.786 128.635Z" fill="url(#paint13_linear_293_3770)"/>
<path d="M381.073 18.8538C381.46 17.6636 380.809 16.3835 379.618 15.996C378.448 15.6152 377.251 15.2525 376.06 14.9179C374.854 14.5768 373.602 15.2809 373.263 16.487C372.924 17.6922 373.627 18.9447 374.832 19.2834C375.965 19.6024 377.103 19.9466 378.214 20.3089C378.671 20.4578 379.141 20.4528 379.569 20.3239C380.256 20.1169 380.834 19.5882 381.073 18.8538Z" fill="url(#paint14_linear_293_3770)"/>
<path d="M343.24 187.807C340.851 187.573 338.443 187.233 336.084 186.799C334.852 186.571 333.67 187.385 333.443 188.618C333.216 189.849 334.03 191.031 335.262 191.258C337.746 191.716 340.282 192.074 342.798 192.321C343.102 192.35 343.397 192.319 343.673 192.236C344.527 191.979 345.183 191.227 345.276 190.285C345.398 189.039 344.487 187.929 343.24 187.807Z" fill="url(#paint15_linear_293_3770)"/>
<path d="M436.803 68.4901C437.297 69.5062 438.448 69.9878 439.496 69.6718C439.61 69.6373 439.723 69.594 439.834 69.5402C440.96 68.9933 441.431 67.6367 440.884 66.5099C440.347 65.4025 439.776 64.2875 439.191 63.1967C438.598 62.0938 437.227 61.6776 436.12 62.2726C435.016 62.8652 434.603 64.24 435.195 65.3437C435.752 66.3794 436.293 67.4383 436.803 68.4901Z" fill="url(#paint16_linear_293_3770)"/>
<path d="M447.108 95.4459C445.865 95.5672 444.949 96.6754 445.07 97.9222C445.303 100.313 445.436 102.74 445.466 105.136C445.482 106.388 446.51 107.391 447.762 107.375C447.98 107.372 448.19 107.339 448.389 107.279C449.332 106.994 450.014 106.113 450.001 105.078C449.969 102.556 449.829 100.001 449.585 97.4839C449.463 96.2371 448.354 95.3243 447.108 95.4459Z" fill="url(#paint17_linear_293_3770)"/>
<path d="M447.338 114.895C446.097 114.739 444.962 115.62 444.806 116.862C444.507 119.242 444.101 121.639 443.601 123.989C443.34 125.214 444.121 126.418 445.346 126.679C445.734 126.761 446.118 126.739 446.472 126.633C447.238 126.401 447.858 125.771 448.037 124.933C448.563 122.459 448.99 119.934 449.305 117.428C449.461 116.185 448.581 115.051 447.338 114.895Z" fill="url(#paint18_linear_293_3770)"/>
<path d="M432.029 152.284C430.743 154.308 429.354 156.304 427.901 158.217C427.144 159.214 427.338 160.637 428.336 161.395C428.937 161.851 429.692 161.961 430.364 161.759C430.806 161.625 431.212 161.356 431.513 160.96C433.042 158.947 434.503 156.846 435.857 154.716C436.529 153.659 436.217 152.258 435.16 151.586C434.101 150.913 432.7 151.226 432.029 152.284Z" fill="url(#paint19_linear_293_3770)"/>
<path d="M405.406 178.876C403.375 180.16 401.267 181.371 399.141 182.475C398.03 183.052 397.596 184.421 398.174 185.533C398.685 186.516 399.815 186.968 400.838 186.659C400.972 186.619 401.103 186.566 401.231 186.5C403.47 185.337 405.69 184.062 407.829 182.71C408.888 182.041 409.204 180.641 408.534 179.581C407.866 178.523 406.466 178.209 405.406 178.876Z" fill="url(#paint20_linear_293_3770)"/>
<path d="M420.183 167.058C418.483 168.756 416.693 170.401 414.863 171.945C413.906 172.753 413.784 174.184 414.592 175.141C415.194 175.854 416.142 176.103 416.981 175.85C417.269 175.763 417.544 175.617 417.788 175.411C419.715 173.786 421.599 172.054 423.389 170.265C424.274 169.38 424.275 167.945 423.39 167.059C422.505 166.172 421.069 166.172 420.183 167.058Z" fill="url(#paint21_linear_293_3770)"/>
<path d="M443.282 133.916C442.102 133.49 440.804 134.101 440.378 135.279C439.565 137.534 438.643 139.784 437.641 141.969C437.118 143.108 437.618 144.454 438.756 144.976C439.279 145.216 439.845 145.24 440.356 145.086C440.957 144.905 441.481 144.476 441.763 143.861C442.818 141.561 443.787 139.192 444.644 136.819C445.07 135.641 444.46 134.342 443.282 133.916Z" fill="url(#paint22_linear_293_3770)"/>
<path d="M369.943 191.532C367.557 191.828 365.133 192.027 362.738 192.123C361.487 192.168 360.512 193.227 360.561 194.478C360.611 195.729 361.666 196.704 362.917 196.654C365.439 196.554 367.991 196.344 370.502 196.032C370.632 196.016 370.759 195.989 370.88 195.953C371.918 195.639 372.611 194.615 372.473 193.502C372.318 192.26 371.186 191.378 369.943 191.532Z" fill="url(#paint23_linear_293_3770)"/>
<path d="M388.379 187.158C386.133 187.958 383.817 188.674 381.471 189.297C380.266 189.612 379.54 190.86 379.861 192.07C380.182 193.281 381.424 194.002 382.635 193.681C383.651 193.411 384.659 193.126 385.658 192.825C387.083 192.395 388.511 191.926 389.9 191.431C391.08 191.012 391.696 189.714 391.276 188.534C390.856 187.354 389.561 186.74 388.379 187.158Z" fill="url(#paint24_linear_293_3770)"/>
<path d="M445.506 77.9743C445.118 76.784 443.846 76.1046 442.648 76.5205C441.457 76.9075 440.805 78.1874 441.193 79.3787C441.39 79.9827 441.581 80.5912 441.765 81.2027C442.275 82.8921 442.739 84.6199 443.146 86.3406C443.434 87.5593 444.655 88.3139 445.874 88.0259C445.92 88.0149 445.965 88.0031 446.01 87.9896C447.148 87.6462 447.837 86.4707 447.559 85.2979C447.132 83.4885 446.643 81.6697 446.107 79.8931C445.913 79.2493 445.713 78.6105 445.506 77.9743Z" fill="url(#paint25_linear_293_3770)"/>
<path d="M324.658 183.865C323.552 183.498 322.431 183.102 321.329 182.686C320.156 182.243 318.849 182.835 318.407 184.007C317.964 185.178 318.556 186.487 319.728 186.929C320.888 187.367 322.067 187.785 323.233 188.171C323.693 188.323 324.167 188.319 324.599 188.189C325.281 187.983 325.857 187.459 326.098 186.73C326.492 185.541 325.847 184.258 324.658 183.865Z" fill="url(#paint26_linear_293_3770)"/>
<path d="M425.946 83.3332L413.181 81.5334C410.739 76.0963 407.478 71.176 403.592 66.8773L387.115 70.0438L374.523 83.6965L385.639 107.765L357.506 106.825L341.061 119.069L343.294 140.675L326.001 137.322L320.114 143.161L316.792 155.583C316.675 156.019 316.848 156.482 317.223 156.735L330.051 165.387C330.426 165.64 330.92 165.627 331.281 165.355L341.586 157.596C347.217 159.737 353.23 160.996 359.425 161.232L365.876 172.393C366.102 172.785 366.552 172.989 366.996 172.903L382.184 169.951C382.628 169.864 382.968 169.506 383.032 169.058L384.831 156.293C390.487 153.753 395.59 150.334 400.009 146.24L412.471 149.573C412.907 149.69 413.37 149.516 413.623 149.142L422.275 136.314C422.528 135.939 422.515 135.445 422.243 135.084L414.485 124.778C416.626 119.147 417.884 113.134 418.12 106.939L429.281 100.489C429.673 100.262 429.878 99.8128 429.791 99.369L426.839 84.18C426.752 83.7365 426.394 83.3961 425.946 83.3332Z" fill="url(#paint27_linear_293_3770)"/>
<path d="M366.697 115.531C361.239 118.098 354.812 116.141 351.625 111.211L348.713 113.382C352.496 119.04 359.588 121.6 366.108 119.633C366.827 119.416 367.541 119.144 368.241 118.815C372.962 116.596 376.046 112.291 376.919 107.513L373.238 107.382C372.448 110.837 370.146 113.911 366.697 115.531Z" fill="url(#paint28_linear_293_3770)"/>
<path d="M398.382 93.3331C395.949 85.2724 390.963 78.3105 384.05 73.3672L382.81 74.7118C389.49 79.4283 394.307 86.111 396.646 93.8606C397.005 95.0497 397.306 96.2644 397.546 97.5002C398.916 104.548 398.145 111.524 395.689 117.754C391.273 128.956 381.409 137.749 368.738 140.211C366.187 140.707 363.587 140.933 361.009 140.88C360.509 140.871 360.094 141.267 360.084 141.768C360.082 141.866 360.096 141.961 360.122 142.05C360.233 142.416 360.57 142.686 360.973 142.694C361.126 142.696 361.279 142.614 361.433 142.615C361.511 142.616 361.59 142.531 361.669 142.531C361.697 142.531 361.724 142.531 361.752 142.531C363.789 142.531 365.834 142.451 367.857 142.125C368.267 142.059 368.676 142.028 369.084 141.949C370.38 141.697 371.653 141.403 372.899 141.027C381.302 138.493 388.518 133.2 393.492 125.826C399.204 117.357 401.276 107.176 399.327 97.1481C399.074 95.8511 398.759 94.5814 398.382 93.3331Z" fill="url(#paint29_linear_293_3770)"/>
<path d="M330.116 130.856L327.989 110.269L344.433 98.0252L371.843 98.9413C372.175 98.9524 372.403 98.6096 372.263 98.308L361.451 74.8969L374.043 61.2442L390.519 58.0777C390.363 57.9052 390.213 57.7269 390.055 57.5562L393.388 45.0943C393.505 44.6577 393.332 44.1951 392.957 43.9423L380.129 35.2899C379.754 35.0369 379.26 35.0498 378.899 35.3217L368.594 43.0806C362.963 40.9395 356.95 39.6811 350.755 39.445L344.304 28.2836C344.078 27.8922 343.628 27.6873 343.184 27.7735L327.996 30.7262C327.552 30.8125 327.212 31.171 327.149 31.6187L325.349 44.3838C319.693 46.9233 314.59 50.3427 310.171 54.4373L297.71 51.1043C297.273 50.9872 296.81 51.1606 296.557 51.5354L287.905 64.3633C287.652 64.7381 287.665 65.2319 287.937 65.593L295.695 75.8986C293.554 81.5295 292.296 87.5425 292.06 93.7373L280.899 100.188C280.507 100.414 280.302 100.864 280.389 101.308L283.341 116.496C283.428 116.94 283.786 117.281 284.234 117.344L296.999 119.144C299.538 124.799 302.958 129.902 307.052 134.321L307.042 134.361L312.928 128.522L329.215 131.68C329.716 131.778 330.169 131.364 330.116 130.856Z" fill="url(#paint30_linear_293_3770)"/>
<path d="M338.553 102.411C338.265 101.965 337.993 101.504 337.761 101.01C334.965 95.0594 337.531 87.942 343.482 85.1459C344.022 84.8924 344.573 84.6817 345.134 84.5126C347.568 83.7784 350.164 83.8429 352.599 84.7211C355.596 85.8018 357.992 87.9842 359.347 90.8676C360.522 93.3698 360.74 96.0756 360.166 98.5824L363.848 98.7129C364.41 95.6365 364.059 92.3642 362.63 89.3241C360.864 85.564 357.738 82.7169 353.83 81.3078C349.923 79.8984 345.7 80.0944 341.94 81.8624C334.178 85.5099 330.83 94.7911 334.478 102.554C334.815 103.272 335.213 103.942 335.641 104.583L338.553 102.411Z" fill="url(#paint31_linear_293_3770)"/>
<path d="M370.1 63.947C361.632 58.2346 351.446 56.1618 341.418 58.1112C320.725 62.1342 307.151 82.2486 311.175 102.95C311.424 104.225 311.736 105.484 312.109 106.72C313.726 112.079 316.499 117.025 320.244 121.192C320.579 121.566 321.151 121.594 321.525 121.26C321.795 121.018 321.885 120.649 321.787 120.324C321.75 120.2 321.686 120.082 321.593 119.98C318.026 116.01 315.386 111.3 313.846 106.196C313.49 105.018 313.193 103.819 312.956 102.603C309.123 82.8862 322.039 63.729 341.765 59.8924C351.316 58.0356 361.019 60.0097 369.086 65.451C369.307 65.6005 369.521 65.7581 369.739 65.9117L370.979 64.5672C370.688 64.3588 370.398 64.1482 370.1 63.947Z" fill="url(#paint32_linear_293_3770)"/>
<path d="M101.995 94.619C119.414 77.2001 119.414 48.9586 101.995 31.5397C84.576 14.1208 56.3345 14.1208 38.9156 31.5397C21.4967 48.9586 21.4967 77.2001 38.9156 94.619C56.3344 112.038 84.576 112.038 101.995 94.619Z" fill="white"/>
<path d="M70.457 106.2C94.2721 106.2 113.578 86.8945 113.578 63.0794C113.578 39.2642 94.2721 19.9583 70.457 19.9583C46.6419 19.9583 27.3359 39.2642 27.3359 63.0794C27.3359 86.8945 46.6419 106.2 70.457 106.2Z" fill="url(#paint33_linear_293_3770)"/>
<path opacity="0.7" d="M106.015 45.6223C106.084 45.6223 106.154 45.6068 106.22 45.5732C106.444 45.4597 106.534 45.1857 106.421 44.9614C99.5265 31.3029 85.7461 22.8179 70.4571 22.8179C68.0188 22.8179 65.5753 23.0376 63.1944 23.4719C62.9469 23.5168 62.7827 23.7539 62.8278 24.0017C62.8728 24.2496 63.1091 24.415 63.3578 24.3679C65.6849 23.9439 68.0734 23.7291 70.4571 23.7291C85.4002 23.7291 98.8691 32.0222 105.608 45.3716C105.688 45.5305 105.848 45.6223 106.015 45.6223Z" fill="white"/>
<path d="M95.3218 89.8257C109.575 75.5729 109.575 52.4647 95.3218 38.2119C81.0691 23.9592 57.9609 23.9592 43.7082 38.2119C29.4555 52.4647 29.4555 75.5729 43.7082 89.8256C57.9609 104.078 81.0691 104.078 95.3218 89.8257Z" fill="white"/>
<path d="M71.7781 71.1157L67.6477 71.017C66.4964 70.9895 65.5441 70.0051 65.4838 68.8463L63.9717 39.7474C63.9404 39.1476 64.1562 38.6532 64.5677 38.2475C64.9788 37.8421 65.5491 37.7116 66.1446 37.753L73.2579 38.2484C73.8407 38.2891 74.3973 38.4824 74.7973 38.938C75.197 39.3929 75.4059 39.9388 75.3757 40.5251L73.9046 69.094C73.8458 70.2363 72.9126 71.1428 71.7781 71.1157Z" fill="url(#paint34_linear_293_3770)"/>
<path d="M65.403 78.2236C66.4342 77.2387 67.8854 76.7621 69.7513 76.7918C71.6748 76.8225 73.1328 77.3296 74.131 78.311C75.1266 79.2898 75.6233 80.7199 75.6233 82.6037C75.6233 84.4199 75.1157 85.8252 74.0977 86.8217C73.0773 87.8211 71.63 88.3217 69.7512 88.3217C67.9077 88.3217 66.4624 87.8052 65.4198 86.7695C64.3744 85.731 63.8506 84.3103 63.8506 82.5097C63.8507 80.6408 64.3689 79.2113 65.403 78.2236Z" fill="url(#paint35_linear_293_3770)"/>
<path d="M233.279 43.6491L118.137 237.116C115.609 241.363 118.913 246.56 124.169 246.603L352.417 248.482C357.692 248.525 361.095 243.349 358.611 239.059L245.506 43.714C242.906 39.2231 235.936 39.1861 233.279 43.6491Z" fill="url(#paint36_linear_293_3770)"/>
<path d="M233.861 55.2065L129.289 230.913C126.993 234.77 129.994 239.49 134.767 239.529L342.061 241.235C346.852 241.274 349.943 236.573 347.687 232.677L244.965 55.2654C242.604 51.1869 236.273 51.1532 233.861 55.2065Z" fill="url(#paint37_linear_293_3770)"/>
<path d="M215.888 175.605L210.778 175.672V184.795L201.963 184.942V175.787L183.547 176.026V169.481L202.46 140.768L210.778 140.777V168.446L215.888 168.395V175.605ZM201.963 168.535V161.041C201.963 159.793 202.011 157.98 202.109 155.602C202.206 153.225 202.285 151.845 202.343 151.462L202.109 151.463C201.386 153.118 200.516 154.733 199.499 156.31L191.607 168.64L201.963 168.535Z" fill="url(#paint38_linear_293_3770)"/>
<path d="M249.582 162.483C249.582 170.051 248.402 175.667 246.04 179.339C243.673 183.018 240.019 184.902 235.066 184.986C230.246 185.068 226.599 183.235 224.137 179.481C221.669 175.721 220.434 170.128 220.434 162.711C220.434 154.973 221.635 149.267 224.036 145.598C226.432 141.936 230.112 140.111 235.066 140.117C239.867 140.124 243.484 142.03 245.927 145.831C248.365 149.624 249.582 155.173 249.582 162.483ZM229.263 162.642C229.263 168.001 229.706 171.836 230.594 174.145C231.481 176.453 232.972 177.591 235.066 177.562C237.118 177.534 238.597 176.343 239.507 173.989C240.416 171.638 240.871 167.826 240.871 162.551C240.871 157.218 240.412 153.387 239.493 151.06C238.574 148.731 237.099 147.567 235.066 147.57C232.992 147.574 231.505 148.746 230.609 151.087C229.711 153.431 229.263 157.283 229.263 162.642Z" fill="url(#paint39_linear_293_3770)"/>
<path d="M284.618 174.712L279.79 174.775V183.643L271.458 183.783V174.883L254.061 175.109V168.749L271.929 140.843L279.79 140.851V167.75L284.618 167.701V174.712ZM271.458 167.834V160.55C271.458 159.336 271.504 157.574 271.597 155.263C271.689 152.952 271.763 151.611 271.818 151.238L271.597 151.239C270.914 152.848 270.092 154.418 269.131 155.951L261.675 167.933L271.458 167.834Z" fill="url(#paint40_linear_293_3770)"/>
<path d="M195.997 223.385L182.396 223.821V199.524L195.997 199.219V203.418L187.421 203.624V208.948L195.402 208.739V212.939L187.421 213.161V219.414L195.997 219.154V223.385Z" fill="url(#paint41_linear_293_3770)"/>
<path d="M206.654 213.81V223.044L201.706 223.202V199.092L208.5 198.94C211.655 198.869 213.985 199.411 215.494 200.563C217 201.714 217.753 203.496 217.753 205.91C217.753 207.319 217.379 208.582 216.632 209.7C215.884 210.818 214.824 211.708 213.452 212.37C216.932 217.661 219.194 221.069 220.245 222.608L214.814 222.782L209.279 213.736L206.654 213.81ZM206.654 209.663L208.245 209.621C209.803 209.579 210.952 209.28 211.692 208.724C212.432 208.168 212.803 207.316 212.803 206.166C212.803 205.028 212.424 204.227 211.669 203.764C210.912 203.3 209.74 203.088 208.15 203.126L206.654 203.162L206.654 209.663Z" fill="url(#paint42_linear_293_3770)"/>
<path d="M228.804 213.183V222.333L223.944 222.489V198.594L230.618 198.445C233.717 198.376 236.006 198.913 237.487 200.055C238.967 201.196 239.707 202.962 239.707 205.355C239.707 206.751 239.34 208.003 238.605 209.111C237.87 210.22 236.829 211.102 235.482 211.757C238.9 217.001 241.122 220.381 242.154 221.906L236.819 222.077L231.383 213.109L228.804 213.183ZM228.804 209.072L230.367 209.031C231.898 208.99 233.026 208.693 233.754 208.143C234.48 207.592 234.844 206.747 234.844 205.608C234.844 204.48 234.472 203.686 233.73 203.227C232.987 202.767 231.835 202.556 230.274 202.594L228.804 202.629V209.072Z" fill="url(#paint43_linear_293_3770)"/>
<path d="M266.093 209.363C266.093 213.251 265.183 216.266 263.359 218.411C261.532 220.56 258.91 221.691 255.486 221.801C252.052 221.911 249.409 220.945 247.561 218.899C245.711 216.851 244.785 213.854 244.785 209.91C244.785 205.967 245.714 202.932 247.569 200.81C249.421 198.69 252.072 197.594 255.516 197.517C258.95 197.441 261.571 198.424 263.382 200.463C265.19 202.499 266.093 205.465 266.093 209.363ZM249.793 209.806C249.793 212.448 250.27 214.423 251.223 215.732C252.175 217.039 253.596 217.663 255.486 217.606C259.266 217.491 261.152 214.788 261.152 209.497C261.152 204.196 259.276 201.59 255.516 201.68C253.627 201.725 252.2 202.43 251.238 203.795C250.275 205.161 249.793 207.165 249.793 209.806Z" fill="url(#paint44_linear_293_3770)"/>
<path d="M276.131 211.842V220.817L271.457 220.966V197.532L277.876 197.388C280.858 197.321 283.059 197.849 284.485 198.97C285.908 200.09 286.62 201.823 286.62 204.17C286.62 205.539 286.267 206.767 285.56 207.853C284.853 208.94 283.852 209.805 282.555 210.447C285.844 215.592 287.982 218.908 288.974 220.405L283.842 220.569L278.612 211.771L276.131 211.842ZM276.131 207.81L277.635 207.77C279.107 207.731 280.193 207.441 280.892 206.901C281.592 206.361 281.941 205.533 281.941 204.416C281.941 203.309 281.584 202.53 280.87 202.08C280.155 201.629 279.047 201.421 277.545 201.457L276.131 201.491L276.131 207.81Z" fill="url(#paint45_linear_293_3770)"/>
<path d="M97.0109 425.892C97.0109 425.892 95.8651 432.379 95.3031 438.801C95.0836 441.311 97.0184 443.49 99.5357 443.595C108.087 443.951 126.38 444.643 132.944 444.351C133.931 444.307 134.576 443.296 134.211 442.378C133.905 441.609 133.315 440.988 132.563 440.642L102.347 426.755L97.0109 425.892Z" fill="url(#paint46_linear_293_3770)"/>
<path d="M96.0723 422.08L96.9929 429.84C96.9929 429.84 102.286 432.304 105.901 429.529L103.709 420.882L96.0723 422.08Z" fill="url(#paint47_linear_293_3770)"/>
<path d="M96.7633 276.196C96.3657 278.223 94.6287 377.318 105.221 421.726C105.394 422.45 105.027 423.197 104.337 423.479C102.712 424.143 99.5274 425.104 95.7104 425.232C94.5284 425.272 93.4685 424.504 93.135 423.369C90.107 413.066 75.5982 361.443 73.7056 312.13C71.5907 257.026 73.7056 310.253 73.7056 310.253L74.9459 276.192L96.7633 276.196Z" fill="url(#paint48_linear_293_3770)"/>
<path d="M62.2517 429.276C62.2517 429.276 60.4276 432.551 58.6617 441.254C58.3428 442.826 59.4408 444.33 61.0368 444.487C63.8606 444.764 68.2078 445.121 71.69 445.097C73.2953 445.086 74.5481 443.689 74.3545 442.095C73.9689 438.919 72.7671 433.707 69.055 429.645L62.2517 429.276Z" fill="url(#paint49_linear_293_3770)"/>
<path d="M60.6494 419.296L62.8006 431.03C62.8006 431.03 64.9277 432.612 69.1354 431.465L68.1086 418.84L60.6494 419.296Z" fill="url(#paint50_linear_293_3770)"/>
<path d="M54.838 279.237C46.1747 331.521 56.7172 408.46 60.2727 423.519C60.4904 424.441 61.2346 425.147 62.169 425.302C63.7561 425.565 66.3691 425.78 68.945 425.032C69.8327 424.774 70.4562 423.974 70.4924 423.05C70.9694 410.875 70.1109 336.135 78.1829 306.597C78.592 305.1 79.5062 303.794 80.771 302.895L96.4386 291.757L97.6397 273.753L54.838 279.237Z" fill="url(#paint51_linear_293_3770)"/>
<path d="M131.969 204.709C130.652 214.075 129.262 216.227 128.181 216.283C124.743 216.461 125.436 195.344 112.862 184.662C104.92 177.915 94.071 177.359 85.5596 178.146C89.5308 192.389 93.5022 206.632 97.4735 220.875C99.2078 225.13 106.769 242.341 123.877 247.565C127.36 248.628 132.543 250.211 137.365 248.139C146.882 244.049 151.345 227.286 147.09 206.296C145.089 205.553 142.32 204.762 131.969 204.709Z" fill="url(#paint52_linear_293_3770)"/>
<path d="M128.938 168.184L130.512 177.085C133.041 187.972 133.282 197.047 131.969 204.709C134.143 204.799 136.424 204.952 138.801 205.186C141.732 205.475 144.5 205.857 147.09 206.296C145.722 195.224 138.354 176.838 138.354 176.838C133.91 170.424 133.381 174.598 128.938 168.184Z" fill="url(#paint53_linear_293_3770)"/>
<path d="M146.936 149.428C145.152 149.381 143.444 150.147 142.293 151.511L131.063 164.817C131.063 164.817 129.019 164.4 128.828 160.486C128.636 156.571 124.479 156.1 124.479 156.1C124.479 156.1 125.078 161.559 126.219 169.638C126.872 174.259 129.604 177.631 131.823 179.674L138.319 177.438C144.279 168.919 147.978 159.53 150.034 149.509L146.936 149.428Z" fill="url(#paint54_linear_293_3770)"/>
<path d="M41.0938 185.63C41.8424 185.434 46.9573 180.149 47.7262 180.002C60.3332 177.6 91.8005 169.125 112.862 184.662C112.914 185.11 112.948 185.469 112.968 185.765C113.173 186.043 113.453 186.508 113.837 187.252C115.826 191.107 118.212 194.853 120.945 198.353C120.343 198.949 119.844 199.65 119.48 200.43C114.419 211.27 95.2353 254.564 98.6069 281.039C98.7809 282.406 97.8505 283.666 96.4851 283.855C89.0383 284.885 66.8601 287.397 55.4022 282.665C54.7353 282.39 54.3089 281.736 54.3192 281.014C54.3945 275.702 54.1699 252.649 45.7181 224.859C45.4032 223.823 45.1463 222.771 44.9407 221.709C44.8365 221.923 44.7387 222.135 44.6378 222.348L41.0938 185.63Z" fill="url(#paint55_linear_293_3770)"/>
<path d="M60.3335 177.6C36.8231 179.319 31.91 192.754 15.6621 184.539L18.5392 209.699C24.5641 216.353 33.6604 220.884 45.1226 222.582L60.3335 177.6Z" fill="url(#paint56_linear_293_3770)"/>
<path d="M76.3972 154.845C72.3688 162.876 70.6872 171.055 70.1826 178.669C71.0491 178.992 82.6115 187.013 90.351 179.249C88.6965 173.921 88.9702 165.899 89.3911 157.671L76.3972 154.845Z" fill="url(#paint57_linear_293_3770)"/>
<path d="M97.3714 133.733C97.5928 134.092 103.371 161.342 103.371 161.342L87.7416 164.31L78.4277 139.297C78.4277 139.297 93.6633 127.733 97.3714 133.733Z" fill="url(#paint58_linear_293_3770)"/>
<path d="M84.3949 141.521C83.9767 142.093 83.8462 142.822 84.0409 143.504L87.8567 156.859C87.9147 157.062 87.997 157.253 88.1088 157.432C88.7252 158.417 90.9397 161.395 93.9251 158.95C96.4695 156.866 98.8366 154.985 100.958 154.517C102.197 154.243 103.415 155.054 103.673 156.296C104.206 158.855 105.176 164.039 105.391 168.767C105.445 169.952 104.567 170.973 103.39 171.118C100.284 171.502 94.1951 172.07 89.0989 171.43C88.2617 171.325 87.5539 170.77 87.2501 169.983C85.9127 166.519 82.1247 156.827 80.6343 154.255C79.2497 151.866 75.572 151.64 73.8796 151.671C73.2372 151.682 72.6241 151.429 72.1784 150.966C70.8416 149.578 68.7009 146.441 72.332 143.075C73.2348 142.238 73.2718 140.811 72.4536 139.891C70.9877 138.243 69.6457 135.527 72.4405 132.461C75.2698 129.358 78.6832 129.926 80.8746 130.811C81.8441 131.203 83.003 130.95 83.638 130.119C83.9205 129.75 84.3538 129.486 85.0176 129.527C86.2696 129.605 87.3404 128.728 87.4263 127.477C87.5736 125.331 88.5849 122.763 92.3203 121.846C99.1715 120.165 102.967 126.916 103.085 131.788C103.204 136.66 95.6728 138.06 91.3308 137.467C88.1415 137.031 85.5473 139.943 84.3949 141.521Z" fill="url(#paint59_linear_293_3770)"/>
<path d="M82.9754 159.322C82.9754 159.322 81.521 150.695 78.0461 150.069C74.571 149.442 70.9884 152.11 74.1794 157.046C78.1486 163.185 82.9754 159.322 82.9754 159.322Z" fill="url(#paint60_linear_293_3770)"/>
<path d="M77.2464 128.285C77.8525 128.261 78.5105 128.318 79.236 128.472C80.888 128.822 83.0889 129.671 82.5157 131.26C81.6548 133.646 77.1887 131.417 74.8106 135.264C72.7152 138.654 74.4304 142.336 73.789 145.989C73.477 147.767 72.335 150.406 70.7473 151.444C70.0373 151.908 64.43 152.796 64.1233 151.801C64.1233 151.801 62.5652 146.744 62.5647 146.743C61.1629 142.193 66.5491 134.612 69.3271 131.547C71.4735 129.179 74.3821 128.403 77.2464 128.285Z" fill="url(#paint61_linear_293_3770)"/>
<path d="M71.9316 146.544L66.5679 151.009C56.2826 155.384 48.8101 160.539 43.3948 166.116C41.434 162.427 38.2598 158.163 33.1992 154.837C43.5667 149.73 51.2845 147.608 51.2845 147.608C72.2079 139.194 71.9316 146.544 71.9316 146.544Z" fill="url(#paint62_linear_293_3770)"/>
<path d="M43.3946 166.116C26.4853 183.529 31.4264 174.68 31.292 189.523C31.2419 195.057 26.4394 216.187 26.4394 216.187C-25.2737 193.847 17.882 163.353 33.199 154.837C38.2596 158.163 41.4338 162.427 43.3946 166.116Z" fill="url(#paint63_linear_293_3770)"/>
<defs>
<linearGradient id="paint0_linear_293_3770" x1="502.781" y1="576.364" x2="106.342" y2="84.0127" gradientUnits="userSpaceOnUse">
<stop stop-color="#DAE3FE"/>
<stop offset="1" stop-color="#E9EFFD"/>
</linearGradient>
<linearGradient id="paint1_linear_293_3770" x1="258.301" y1="314.107" x2="335.819" y2="148.306" gradientUnits="userSpaceOnUse">
<stop stop-color="#09005D"/>
<stop offset="1" stop-color="#1A0F91"/>
</linearGradient>
<linearGradient id="paint2_linear_293_3770" x1="224.686" y1="14.7452" x2="224.686" y2="190.237" gradientUnits="userSpaceOnUse">
<stop stop-color="#09005D"/>
<stop offset="1" stop-color="#1A0F91"/>
</linearGradient>
<linearGradient id="paint3_linear_293_3770" x1="273.573" y1="601.957" x2="246.657" y2="470.608" gradientUnits="userSpaceOnUse">
<stop stop-color="#09005D"/>
<stop offset="1" stop-color="#1A0F91"/>
</linearGradient>
<linearGradient id="paint4_linear_293_3770" x1="364.944" y1="-45.4675" x2="338.035" y2="257.329" gradientUnits="userSpaceOnUse">
<stop stop-color="#4042E2"/>
<stop offset="1" stop-color="#4F52FF"/>
</linearGradient>
<linearGradient id="paint5_linear_293_3770" x1="296.23" y1="-51.5735" x2="269.322" y2="251.215" gradientUnits="userSpaceOnUse">
<stop stop-color="#4042E2"/>
<stop offset="1" stop-color="#4F52FF"/>
</linearGradient>
<linearGradient id="paint6_linear_293_3770" x1="276.839" y1="-53.2983" x2="249.931" y2="249.493" gradientUnits="userSpaceOnUse">
<stop stop-color="#4042E2"/>
<stop offset="1" stop-color="#4F52FF"/>
</linearGradient>
<linearGradient id="paint7_linear_293_3770" x1="285.724" y1="-52.5075" x2="258.816" y2="250.282" gradientUnits="userSpaceOnUse">
<stop stop-color="#4042E2"/>
<stop offset="1" stop-color="#4F52FF"/>
</linearGradient>
<linearGradient id="paint8_linear_293_3770" x1="345.402" y1="-47.2022" x2="318.494" y2="255.582" gradientUnits="userSpaceOnUse">
<stop stop-color="#4042E2"/>
<stop offset="1" stop-color="#4F52FF"/>
</linearGradient>
<linearGradient id="paint9_linear_293_3770" x1="279.156" y1="-53.092" x2="252.248" y2="249.699" gradientUnits="userSpaceOnUse">
<stop stop-color="#4042E2"/>
<stop offset="1" stop-color="#4F52FF"/>
</linearGradient>
<linearGradient id="paint10_linear_293_3770" x1="279.013" y1="-53.1056" x2="252.105" y2="249.687" gradientUnits="userSpaceOnUse">
<stop stop-color="#4042E2"/>
<stop offset="1" stop-color="#4F52FF"/>
</linearGradient>
<linearGradient id="paint11_linear_293_3770" x1="310.152" y1="-50.3358" x2="283.244" y2="252.452" gradientUnits="userSpaceOnUse">
<stop stop-color="#4042E2"/>
<stop offset="1" stop-color="#4F52FF"/>
</linearGradient>
<linearGradient id="paint12_linear_293_3770" x1="326.827" y1="-48.8533" x2="299.92" y2="253.933" gradientUnits="userSpaceOnUse">
<stop stop-color="#4042E2"/>
<stop offset="1" stop-color="#4F52FF"/>
</linearGradient>
<linearGradient id="paint13_linear_293_3770" x1="285.415" y1="-52.5369" x2="258.507" y2="250.256" gradientUnits="userSpaceOnUse">
<stop stop-color="#4042E2"/>
<stop offset="1" stop-color="#4F52FF"/>
</linearGradient>
<linearGradient id="paint14_linear_293_3770" x1="382.648" y1="-43.8935" x2="355.74" y2="258.902" gradientUnits="userSpaceOnUse">
<stop stop-color="#4042E2"/>
<stop offset="1" stop-color="#4F52FF"/>
</linearGradient>
<linearGradient id="paint15_linear_293_3770" x1="360.268" y1="-45.8895" x2="333.359" y2="256.911" gradientUnits="userSpaceOnUse">
<stop stop-color="#4042E2"/>
<stop offset="1" stop-color="#4F52FF"/>
</linearGradient>
<linearGradient id="paint16_linear_293_3770" x1="446.974" y1="-34.8902" x2="420.066" y2="267.902" gradientUnits="userSpaceOnUse">
<stop stop-color="#4042E2"/>
<stop offset="1" stop-color="#4F52FF"/>
</linearGradient>
<linearGradient id="paint17_linear_293_3770" x1="459.543" y1="-33.7732" x2="432.635" y2="269.019" gradientUnits="userSpaceOnUse">
<stop stop-color="#4042E2"/>
<stop offset="1" stop-color="#4F52FF"/>
</linearGradient>
<linearGradient id="paint18_linear_293_3770" x1="460.169" y1="-33.717" x2="433.261" y2="269.073" gradientUnits="userSpaceOnUse">
<stop stop-color="#4042E2"/>
<stop offset="1" stop-color="#4F52FF"/>
</linearGradient>
<linearGradient id="paint19_linear_293_3770" x1="448.823" y1="-34.7244" x2="421.915" y2="268.065" gradientUnits="userSpaceOnUse">
<stop stop-color="#4042E2"/>
<stop offset="1" stop-color="#4F52FF"/>
</linearGradient>
<linearGradient id="paint20_linear_293_3770" x1="422.923" y1="-37.0248" x2="396.015" y2="265.762" gradientUnits="userSpaceOnUse">
<stop stop-color="#4042E2"/>
<stop offset="1" stop-color="#4F52FF"/>
</linearGradient>
<linearGradient id="paint21_linear_293_3770" x1="437.443" y1="-35.7355" x2="410.535" y2="267.053" gradientUnits="userSpaceOnUse">
<stop stop-color="#4042E2"/>
<stop offset="1" stop-color="#4F52FF"/>
</linearGradient>
<linearGradient id="paint22_linear_293_3770" x1="456.527" y1="-34.0402" x2="429.619" y2="268.751" gradientUnits="userSpaceOnUse">
<stop stop-color="#4042E2"/>
<stop offset="1" stop-color="#4F52FF"/>
</linearGradient>
<linearGradient id="paint23_linear_293_3770" x1="387.344" y1="-40.1845" x2="360.436" y2="262.599" gradientUnits="userSpaceOnUse">
<stop stop-color="#4042E2"/>
<stop offset="1" stop-color="#4F52FF"/>
</linearGradient>
<linearGradient id="paint24_linear_293_3770" x1="405.94" y1="-38.5331" x2="379.033" y2="264.253" gradientUnits="userSpaceOnUse">
<stop stop-color="#4042E2"/>
<stop offset="1" stop-color="#4F52FF"/>
</linearGradient>
<linearGradient id="paint25_linear_293_3770" x1="454.7" y1="-34.2039" x2="427.791" y2="268.589" gradientUnits="userSpaceOnUse">
<stop stop-color="#4042E2"/>
<stop offset="1" stop-color="#4F52FF"/>
</linearGradient>
<linearGradient id="paint26_linear_293_3770" x1="342.928" y1="-47.4268" x2="316.02" y2="255.369" gradientUnits="userSpaceOnUse">
<stop stop-color="#4042E2"/>
<stop offset="1" stop-color="#4F52FF"/>
</linearGradient>
<linearGradient id="paint27_linear_293_3770" x1="227.142" y1="586.52" x2="273.887" y2="441.562" gradientUnits="userSpaceOnUse">
<stop stop-color="#09005D"/>
<stop offset="1" stop-color="#1A0F91"/>
</linearGradient>
<linearGradient id="paint28_linear_293_3770" x1="348.713" y1="113.836" x2="376.92" y2="113.836" gradientUnits="userSpaceOnUse">
<stop stop-color="#4042E2"/>
<stop offset="1" stop-color="#4F52FF"/>
</linearGradient>
<linearGradient id="paint29_linear_293_3770" x1="360.084" y1="108.03" x2="400.041" y2="108.03" gradientUnits="userSpaceOnUse">
<stop stop-color="#4042E2"/>
<stop offset="1" stop-color="#4F52FF"/>
</linearGradient>
<linearGradient id="paint30_linear_293_3770" x1="175.197" y1="569.77" x2="221.942" y2="424.812" gradientUnits="userSpaceOnUse">
<stop stop-color="#09005D"/>
<stop offset="1" stop-color="#1A0F91"/>
</linearGradient>
<linearGradient id="paint31_linear_293_3770" x1="333.002" y1="92.4797" x2="364.103" y2="92.4797" gradientUnits="userSpaceOnUse">
<stop stop-color="#4042E2"/>
<stop offset="1" stop-color="#4F52FF"/>
</linearGradient>
<linearGradient id="paint32_linear_293_3770" x1="310.469" y1="89.4451" x2="370.979" y2="89.4451" gradientUnits="userSpaceOnUse">
<stop stop-color="#4042E2"/>
<stop offset="1" stop-color="#4F52FF"/>
</linearGradient>
<linearGradient id="paint33_linear_293_3770" x1="98.3208" y1="-45.3327" x2="57.8779" y2="112.021" gradientUnits="userSpaceOnUse">
<stop stop-color="#FE7062"/>
<stop offset="1" stop-color="#FF928E"/>
</linearGradient>
<linearGradient id="paint34_linear_293_3770" x1="213.389" y1="-120.277" x2="150.291" y2="-43.9939" gradientUnits="userSpaceOnUse">
<stop stop-color="#E1473D"/>
<stop offset="1" stop-color="#E9605A"/>
</linearGradient>
<linearGradient id="paint35_linear_293_3770" x1="227.701" y1="-108.437" x2="164.603" y2="-32.1541" gradientUnits="userSpaceOnUse">
<stop stop-color="#E1473D"/>
<stop offset="1" stop-color="#E9605A"/>
</linearGradient>
<linearGradient id="paint36_linear_293_3770" x1="203.954" y1="46.4636" x2="243.092" y2="267.934" gradientUnits="userSpaceOnUse">
<stop stop-color="#09005D"/>
<stop offset="1" stop-color="#1A0F91"/>
</linearGradient>
<linearGradient id="paint37_linear_293_3770" x1="307.089" y1="75.6403" x2="104.567" y2="544.688" gradientUnits="userSpaceOnUse">
<stop stop-color="#FE7062"/>
<stop offset="1" stop-color="#FF928E"/>
</linearGradient>
<linearGradient id="paint38_linear_293_3770" x1="181.176" y1="217.629" x2="284.601" y2="-33.8587" gradientUnits="userSpaceOnUse">
<stop stop-color="#09005D"/>
<stop offset="1" stop-color="#1A0F91"/>
</linearGradient>
<linearGradient id="paint39_linear_293_3770" x1="207.835" y1="228.592" x2="311.261" y2="-22.8949" gradientUnits="userSpaceOnUse">
<stop stop-color="#09005D"/>
<stop offset="1" stop-color="#1A0F91"/>
</linearGradient>
<linearGradient id="paint40_linear_293_3770" x1="240.44" y1="242.002" x2="343.866" y2="-9.48593" gradientUnits="userSpaceOnUse">
<stop stop-color="#09005D"/>
<stop offset="1" stop-color="#1A0F91"/>
</linearGradient>
<linearGradient id="paint41_linear_293_3770" x1="185.865" y1="219.557" x2="289.29" y2="-31.9305" gradientUnits="userSpaceOnUse">
<stop stop-color="#09005D"/>
<stop offset="1" stop-color="#1A0F91"/>
</linearGradient>
<linearGradient id="paint42_linear_293_3770" x1="204.28" y1="227.13" x2="307.706" y2="-24.3577" gradientUnits="userSpaceOnUse">
<stop stop-color="#09005D"/>
<stop offset="1" stop-color="#1A0F91"/>
</linearGradient>
<linearGradient id="paint43_linear_293_3770" x1="222.95" y1="234.808" x2="326.376" y2="-16.68" gradientUnits="userSpaceOnUse">
<stop stop-color="#09005D"/>
<stop offset="1" stop-color="#1A0F91"/>
</linearGradient>
<linearGradient id="paint44_linear_293_3770" x1="241.883" y1="242.595" x2="345.307" y2="-8.88811" gradientUnits="userSpaceOnUse">
<stop stop-color="#09005D"/>
<stop offset="1" stop-color="#1A0F91"/>
</linearGradient>
<linearGradient id="paint45_linear_293_3770" x1="262.842" y1="251.214" x2="366.268" y2="-0.274378" gradientUnits="userSpaceOnUse">
<stop stop-color="#09005D"/>
<stop offset="1" stop-color="#1A0F91"/>
</linearGradient>
<linearGradient id="paint46_linear_293_3770" x1="131.988" y1="416.926" x2="21.337" y2="537.283" gradientUnits="userSpaceOnUse">
<stop stop-color="#09005D"/>
<stop offset="1" stop-color="#1A0F91"/>
</linearGradient>
<linearGradient id="paint47_linear_293_3770" x1="96.0723" y1="425.865" x2="105.901" y2="425.865" gradientUnits="userSpaceOnUse">
<stop stop-color="#FEBBBA"/>
<stop offset="1" stop-color="#FF928E"/>
</linearGradient>
<linearGradient id="paint48_linear_293_3770" x1="-485.963" y1="1024.6" x2="-380.018" y2="900.423" gradientUnits="userSpaceOnUse">
<stop stop-color="#020039"/>
<stop offset="1" stop-color="#090056"/>
</linearGradient>
<linearGradient id="paint49_linear_293_3770" x1="107.164" y1="394.105" x2="-3.48636" y2="514.463" gradientUnits="userSpaceOnUse">
<stop stop-color="#09005D"/>
<stop offset="1" stop-color="#1A0F91"/>
</linearGradient>
<linearGradient id="paint50_linear_293_3770" x1="60.6495" y1="425.361" x2="69.1355" y2="425.361" gradientUnits="userSpaceOnUse">
<stop stop-color="#FEBBBA"/>
<stop offset="1" stop-color="#FF928E"/>
</linearGradient>
<linearGradient id="paint51_linear_293_3770" x1="-500.816" y1="1011.92" x2="-394.871" y2="887.752" gradientUnits="userSpaceOnUse">
<stop stop-color="#020039"/>
<stop offset="1" stop-color="#090056"/>
</linearGradient>
<linearGradient id="paint52_linear_293_3770" x1="131.293" y1="164.405" x2="93.0723" y2="272.068" gradientUnits="userSpaceOnUse">
<stop stop-color="#4F52FF"/>
<stop offset="1" stop-color="#4042E2"/>
</linearGradient>
<linearGradient id="paint53_linear_293_3770" x1="95.8135" y1="131.843" x2="195.213" y2="280.711" gradientUnits="userSpaceOnUse">
<stop stop-color="#FEBBBA"/>
<stop offset="1" stop-color="#FF928E"/>
</linearGradient>
<linearGradient id="paint54_linear_293_3770" x1="111.653" y1="121.266" x2="211.052" y2="270.134" gradientUnits="userSpaceOnUse">
<stop stop-color="#FEBBBA"/>
<stop offset="1" stop-color="#FF928E"/>
</linearGradient>
<linearGradient id="paint55_linear_293_3770" x1="98.589" y1="152.795" x2="60.3682" y2="260.459" gradientUnits="userSpaceOnUse">
<stop stop-color="#4F52FF"/>
<stop offset="1" stop-color="#4042E2"/>
</linearGradient>
<linearGradient id="paint56_linear_293_3770" x1="54.0299" y1="136.977" x2="15.8092" y2="244.64" gradientUnits="userSpaceOnUse">
<stop stop-color="#4F52FF"/>
<stop offset="1" stop-color="#4042E2"/>
</linearGradient>
<linearGradient id="paint57_linear_293_3770" x1="91.247" y1="152.268" x2="51.707" y2="226.491" gradientUnits="userSpaceOnUse">
<stop stop-color="#FEBBBA"/>
<stop offset="1" stop-color="#FF928E"/>
</linearGradient>
<linearGradient id="paint58_linear_293_3770" x1="37.6124" y1="141.758" x2="114.091" y2="150.93" gradientUnits="userSpaceOnUse">
<stop stop-color="#FEBBBA"/>
<stop offset="1" stop-color="#FF928E"/>
</linearGradient>
<linearGradient id="paint59_linear_293_3770" x1="76.7108" y1="158.655" x2="109.183" y2="138.586" gradientUnits="userSpaceOnUse">
<stop stop-color="#09005D"/>
<stop offset="1" stop-color="#1A0F91"/>
</linearGradient>
<linearGradient id="paint60_linear_293_3770" x1="36.5927" y1="150.251" x2="113.072" y2="159.424" gradientUnits="userSpaceOnUse">
<stop stop-color="#FEBBBA"/>
<stop offset="1" stop-color="#FF928E"/>
</linearGradient>
<linearGradient id="paint61_linear_293_3770" x1="81.5298" y1="133.548" x2="19.8252" y2="175.381" gradientUnits="userSpaceOnUse">
<stop stop-color="#FEBBBA"/>
<stop offset="1" stop-color="#FF928E"/>
</linearGradient>
<linearGradient id="paint62_linear_293_3770" x1="80.2963" y1="132.304" x2="16.1062" y2="175.823" gradientUnits="userSpaceOnUse">
<stop stop-color="#FEBBBA"/>
<stop offset="1" stop-color="#FF928E"/>
</linearGradient>
<linearGradient id="paint63_linear_293_3770" x1="39.0228" y1="131.649" x2="0.802079" y2="239.313" gradientUnits="userSpaceOnUse">
<stop stop-color="#4F52FF"/>
<stop offset="1" stop-color="#4042E2"/>
</linearGradient>
</defs>
</svg>
