<svg width="464" height="340" viewBox="0 0 464 340" fill="none" xmlns="http://www.w3.org/2000/svg">
<path d="M201.062 72.7768C185.435 16.0878 115.014 -2.17416 74.6559 40.1928C74.0759 40.8008 73.4979 41.4198 72.9189 42.0488C15.0599 104.944 42.393 259.936 163.143 299.22C283.893 338.504 409.489 266.768 416.545 202.641C423.601 138.514 367.893 118.364 281.44 136.296C232.596 146.426 210.79 108.067 201.062 72.7768Z" fill="#BBE2F2"/>
<path d="M301.51 82.4731C285.354 85.1031 280.877 99.4171 293.351 109.571C297.474 112.927 303.362 115.716 311.75 117.107C343.704 122.408 360.661 108.27 347.852 89.9401C339.947 78.6271 317.52 79.8671 301.51 82.4731Z" fill="#BBE2F2"/>
<path d="M43.9099 197.017C33.8659 184.092 19.1559 187.014 16.2129 202.827C15.2399 208.054 15.6109 214.558 18.4049 222.589C29.0489 253.181 49.5789 261.3 59.5399 241.279C65.6889 228.922 53.8639 209.825 43.9099 197.017Z" fill="#BBE2F2"/>
<path d="M427.933 210.093C426.445 217.884 432.878 223.403 440.168 220.4C442.577 219.408 445.008 217.495 447.17 214.131C455.406 201.318 451.235 190.328 439.767 191.456C432.689 192.153 429.408 202.372 427.933 210.093Z" fill="#BBE2F2"/>
<path d="M387.09 127.876C394.855 129.497 400.482 123.158 397.604 115.819C396.653 113.393 394.781 110.93 391.456 108.711C378.786 100.258 367.725 104.241 368.658 115.727C369.234 122.815 379.395 126.27 387.09 127.876Z" fill="#BBE2F2"/>
<path d="M198.364 44.5016C204.512 49.5136 212.425 46.4766 213.248 38.6356C213.52 36.0446 212.992 32.9966 211.06 29.4956C203.701 16.1596 192.049 14.6066 187.591 25.2326C184.84 31.7916 192.272 39.5346 198.364 44.5016Z" fill="#BBE2F2"/>
<path d="M447.184 249.068C459.513 236.674 468.902 222.667 459.562 220.484C450.213 218.298 434.512 242.707 431.776 264.924L429.038 272.259C431.315 256.103 425.779 236.423 417.673 235.612C409.619 234.806 414.494 247.571 420.891 258.488C425.76 266.798 427.044 273.354 427.364 276.742L414.432 311.385C417.964 285.79 409.194 254.737 396.369 253.454C383.59 252.176 391.325 272.43 401.474 289.752C409.144 302.842 411.209 313.195 411.736 318.605L409.158 325.513C410.286 326.148 411.417 326.776 412.552 327.397L427.937 286.181C430.905 283.965 435.412 281.287 441.829 279.116C453.815 275.061 465.862 268.613 459.25 263.944C453.512 259.892 440.022 267.691 430.73 278.698L436.051 264.444C438.45 260.318 441.863 254.417 447.184 249.068Z" fill="#1C31B5"/>
<path d="M58.5469 87.3708C60.1459 72.4018 58.9009 57.9338 51.4509 61.5018C43.9939 65.0738 46.6079 89.9298 56.7459 106.325L58.8609 112.727C51.6809 100.65 37.3549 90.4178 31.4749 94.2418C25.6319 98.0418 35.7869 103.987 45.9669 107.87C53.7169 110.826 58.1119 114.537 60.1539 116.64L70.1439 146.877C58.7189 127.784 36.0899 111.658 26.7859 117.709C17.5149 123.739 33.6269 133.172 49.7809 139.334C61.9879 143.99 68.9559 149.83 72.2259 153.179L74.2179 159.208C75.3179 159.027 76.4159 158.839 77.5129 158.644L65.6279 122.671C66.4269 119.583 68.0099 115.355 71.1489 110.438C77.0129 101.254 81.6269 90.4298 74.6699 90.8578C68.6319 91.2298 63.7769 103.74 63.4699 116.14L59.3599 103.7C58.7459 99.6338 57.8569 93.8318 58.5469 87.3708Z" fill="#1C31B5"/>
<path d="M363.959 290.241C364.116 291.089 364.297 292.015 364.509 292.999V293.001C366.729 303.323 372.179 320.219 384.442 323.542C384.442 323.542 377.767 288.738 401.557 279.673C425.347 270.608 422.716 261.977 421.356 246.614C419.996 231.251 414.739 228.322 431.246 213.931C447.753 199.54 444.596 178.105 444.596 178.105C444.596 178.105 428.974 202.579 412.289 203.147C395.604 203.715 392.681 217.959 393.393 228.552C394.104 239.144 379.934 240.342 372.266 246.486C364.598 252.63 363.154 284.894 363.154 284.894C363.154 284.894 363.366 287.004 363.959 290.241Z" fill="#009CF8"/>
<path d="M363.959 290.241C364.116 291.089 364.297 292.015 364.509 292.999C366.22 287.82 368.626 283.47 370.879 280.132C376.215 272.225 383.731 265.73 390.49 263.181C401.252 259.126 406.508 248.57 407.526 228.953C408.116 217.567 420.029 210.841 420.151 210.775C420.499 210.582 420.626 210.142 420.433 209.794C420.24 209.444 419.8 209.317 419.452 209.51C418.932 209.797 406.715 216.681 406.083 228.877C405.1 247.841 400.133 258.005 389.981 261.831C382.849 264.518 375.26 271.057 369.681 279.322C367.709 282.244 365.622 285.922 363.959 290.241Z" fill="#006BDE"/>
<path d="M100.633 323.353H117.35C108.317 321.86 85.922 312.246 83.925 292.967C81.396 268.548 72.7 268.853 58.049 266.3C43.397 263.746 39.361 267.916 30.058 248.958C20.755 230.001 0 227.611 0 227.611C0 227.611 18.917 248.252 15.297 263.938C11.677 279.625 24.221 285.889 34.267 287.861C44.313 289.832 41.905 303.332 45.722 312.004C47.464 315.961 54.595 320.063 61.833 323.353H100.633Z" fill="#006BDE"/>
<path d="M64.4241 299.315C65.1541 306.628 69.3591 315.325 75.6721 322.578C75.8941 322.833 76.1251 323.092 76.3611 323.352H78.2631C77.7191 322.779 77.2031 322.213 76.7241 321.662C70.6851 314.724 66.5021 306.107 65.8081 299.176C64.7061 288.141 56.1791 280.619 38.1551 274.792C27.6931 271.411 24.3891 258.64 24.3591 258.509C24.2661 258.137 23.8871 257.909 23.5151 258.002C23.1411 258.095 22.9131 258.473 23.0061 258.845C23.1441 259.401 26.5201 272.495 37.7251 276.117C55.1481 281.751 63.3831 288.905 64.4241 299.315Z" fill="#1C31B5"/>
<path d="M109.649 278.034C109.295 279.22 108.894 280.512 108.441 281.884L108.44 281.887C103.687 296.271 93.9369 320.497 75.9319 323.352C75.9319 323.352 90.1819 273.767 57.6369 257.178C25.0919 240.589 30.1719 228.681 34.4739 206.974C38.7749 185.267 46.7249 181.896 25.3889 158.829C4.05293 135.762 11.8519 105.669 11.8519 105.669C11.8519 105.669 30.3759 142.984 54.0909 146.359C77.8069 149.734 79.7859 170.504 77.1429 185.506C74.4999 200.508 94.5309 204.394 104.525 214.338C114.519 224.281 111.62 270.53 111.62 270.53C111.62 270.53 110.993 273.506 109.649 278.034Z" fill="#009CF8"/>
<path d="M109.649 278.034C109.295 279.22 108.894 280.512 108.441 281.884C106.797 274.233 104.032 267.657 101.332 262.549C94.9348 250.449 85.2118 240.028 75.9618 235.353C61.2318 227.914 55.3578 212.047 56.9198 183.906C57.8288 167.572 41.8688 156.145 41.7038 156.034C41.2368 155.705 41.1228 155.058 41.4518 154.591C41.7818 154.121 42.4288 154.007 42.8958 154.336C43.5928 154.825 59.9628 166.524 58.9908 184.02C57.4788 211.224 63.0008 226.487 76.8948 233.507C86.6558 238.437 96.4778 248.932 103.166 261.58C105.529 266.049 107.942 271.616 109.649 278.034Z" fill="#006BDE"/>
<path d="M122.558 311.692C122.613 315.462 122.681 319.385 122.764 323.352H159.124C159.193 319.009 159.246 314.847 159.286 310.942C159.395 300.359 159.408 291.65 159.399 286.237C159.395 282.397 159.379 280.22 159.379 280.22L122.303 279.827C122.303 279.827 122.303 283.03 122.331 288.269C122.355 294.091 122.42 302.427 122.558 311.692Z" fill="#18315B"/>
<path d="M122.331 288.268C122.355 294.091 122.42 302.427 122.558 311.692C133.98 312.564 146.501 312.572 159.286 310.942C159.396 300.359 159.408 291.65 159.4 286.237L122.331 288.268Z" fill="#000B29"/>
<path d="M76.735 303.332C76.776 309.259 76.846 316.048 76.964 323.353H113.327C113.417 319.076 113.489 314.85 113.548 310.813C113.674 302.148 113.739 294.347 113.771 288.739C113.799 283.22 113.799 279.827 113.799 279.827L76.706 280.22C76.706 280.22 76.678 284.153 76.686 290.77C76.687 294.269 76.703 298.515 76.735 303.332Z" fill="#18315B"/>
<path d="M76.687 290.77C76.687 294.269 76.703 298.514 76.736 303.332C84.12 305.509 97.338 308.895 113.549 310.813C113.675 302.148 113.74 294.347 113.772 288.739L76.687 290.77Z" fill="#000B29"/>
<path d="M137.641 84.7532C137.641 84.7532 143.484 79.1262 143.465 73.5692C143.445 68.0122 139.668 69.6542 137.641 64.4762C135.614 59.2982 129.591 56.1402 126.288 56.7722C122.985 57.4042 116.011 44.5212 106.553 46.7942C97.0943 49.0672 97.9173 61.1922 93.8433 62.9602C89.7693 64.7282 90.9053 71.9272 93.0533 73.5692C95.2003 75.2112 96.1093 81.8092 97.3173 81.6602C98.5243 81.5112 137.641 84.7532 137.641 84.7532Z" fill="#18315B"/>
<path d="M98.3162 84.6202C98.3162 84.6202 94.6422 79.7222 91.9112 83.7722C89.1792 87.8222 93.0412 99.7842 99.7292 96.8642L98.3162 84.6202Z" fill="#F97853"/>
<path d="M98.269 93.1681C98.022 93.1681 97.795 93.0051 97.725 92.7551C96.689 89.0621 92.862 87.5651 92.824 87.5501C92.533 87.4391 92.386 87.1131 92.497 86.8211C92.607 86.5291 92.934 86.3821 93.225 86.4931C93.404 86.5601 97.62 88.1971 98.814 92.4501C98.898 92.7511 98.723 93.0621 98.423 93.1471C98.371 93.1611 98.319 93.1681 98.269 93.1681Z" fill="#EA5143"/>
<path d="M94.4073 91.3069C94.3023 91.3069 94.1963 91.2779 94.1023 91.2169C93.8403 91.0479 93.7643 90.6979 93.9333 90.4359C93.9613 90.3919 94.6383 89.3599 96.0543 88.7259C96.3373 88.5979 96.6733 88.7259 96.8003 89.0109C96.9273 89.2959 96.8003 89.6299 96.5153 89.7569C95.4203 90.2469 94.8883 91.0399 94.8833 91.0469C94.7743 91.2159 94.5923 91.3069 94.4073 91.3069Z" fill="#EA5143"/>
<path d="M136.174 84.6202C136.174 84.6202 139.847 79.7222 142.579 83.7722C145.31 87.8222 141.449 99.7842 134.761 96.8642L136.174 84.6202Z" fill="#F97853"/>
<path d="M136.221 93.1681C136.468 93.1681 136.695 93.0051 136.765 92.7551C137.801 89.0621 141.627 87.5651 141.666 87.5501C141.957 87.4391 142.104 87.1131 141.993 86.8211C141.882 86.5291 141.556 86.3821 141.265 86.4931C141.086 86.5601 136.87 88.1971 135.676 92.4501C135.592 92.7511 135.767 93.0621 136.068 93.1471C136.119 93.1611 136.171 93.1681 136.221 93.1681Z" fill="#EA5143"/>
<path d="M140.083 91.3069C140.188 91.3069 140.294 91.2779 140.388 91.2169C140.651 91.0479 140.726 90.6979 140.557 90.4359C140.529 90.3919 139.852 89.3599 138.436 88.7259C138.153 88.5979 137.817 88.7259 137.689 89.0109C137.562 89.2959 137.689 89.6299 137.974 89.7569C139.069 90.2469 139.601 91.0399 139.606 91.0469C139.716 91.2159 139.897 91.3069 140.083 91.3069Z" fill="#EA5143"/>
<path d="M126.288 107.011V118.907C126.288 118.907 122.74 124.966 117.943 125.378C113.15 125.796 108.891 120.162 108.891 120.162V107.848L126.288 107.011Z" fill="#FFA681"/>
<path d="M126.288 107.011V112.29C123.069 115.863 117.351 116.755 108.89 115.506V107.848L126.288 107.011Z" fill="#F97853"/>
<path d="M138.83 76.4591C138.61 81.0821 138.169 86.8631 137.287 91.4861C137.067 92.6391 136.818 93.7241 136.541 94.6961C134.037 103.461 127.776 118.494 110.245 112.232C102.502 109.469 98.914 100.845 97.314 92.0731C96.229 86.1161 96.065 80.0981 96.144 75.7971C96.229 71.4061 98.625 67.3931 102.445 65.2291C112.793 59.3631 123.712 61.5501 130.9 64.3131C135.891 66.2301 139.084 71.1301 138.83 76.4591Z" fill="#FFA681"/>
<path d="M97.3154 92.0731C97.3154 92.0731 99.0164 102.208 100.623 105.903C102.233 109.597 106.622 110.294 108.27 113.416C110.621 117.868 114.205 121.397 120.1 119.247C125.005 117.458 124.783 114.95 127.531 113.01C132.239 109.686 134.572 106.028 134.762 102.997C134.951 99.9661 137.289 91.4861 137.289 91.4861L134.762 91.3081C134.762 91.3081 133.322 94.2901 131.204 97.5751C129.078 92.9071 118.837 96.3021 118.837 96.3021L116.882 96.9351L114.874 96.3021C114.874 96.3021 104.511 93.0511 102.465 97.9461C101.211 96.0291 100.192 93.8731 99.7294 91.5881L97.3154 92.0731ZM116.881 98.5141C128.627 96.4981 126.528 103.375 126.452 103.622V103.626C126.448 103.63 126.448 103.63 126.448 103.63C125.652 104.388 124.841 105.024 124.034 105.46C119.483 107.919 118.991 107.548 117.195 107.627C115.369 107.714 112.849 107.172 110.292 105.744C109.496 105.297 108.307 104.433 107.003 103.243C107.003 103.243 105.158 96.9341 116.881 98.5141Z" fill="#18315B"/>
<path d="M109.822 86.172C109.822 87.442 109.168 88.471 108.36 88.471C107.553 88.471 106.898 87.442 106.898 86.172C106.898 84.902 107.553 83.873 108.36 83.873C109.167 83.873 109.822 84.902 109.822 86.172Z" fill="#18315B"/>
<path d="M127.2 86.172C127.2 87.442 126.545 88.471 125.738 88.471C124.931 88.471 124.276 87.442 124.276 86.172C124.276 84.902 124.93 83.873 125.738 83.873C126.545 83.873 127.2 84.902 127.2 86.172Z" fill="#18315B"/>
<path d="M131.492 78.6014C131.492 78.6014 125.451 76.2144 120.8 78.2234L121.265 80.8104C121.265 80.8104 128.091 80.2334 131.531 81.6264C131.84 80.6304 131.885 79.6244 131.492 78.6014Z" fill="#18315B"/>
<path d="M102.771 78.6133C102.771 78.6133 108.856 76.2083 113.541 78.2323L113.072 80.8383C113.072 80.8383 106.195 80.2563 102.73 81.6603C102.421 80.6573 102.375 79.6433 102.771 78.6133Z" fill="#18315B"/>
<path d="M117.441 95.8094C118.394 95.8094 119.34 95.4384 119.487 95.3784C119.776 95.2604 119.914 94.9304 119.796 94.6424C119.679 94.3534 119.348 94.2144 119.06 94.3324C118.55 94.5394 117.324 94.8644 116.793 94.5464C116.69 94.4854 116.551 94.3634 116.515 94.0204C116.311 92.0464 116.851 85.4314 116.857 85.3654C116.883 85.0544 116.651 84.7814 116.34 84.7564C116.028 84.7304 115.756 84.9624 115.731 85.2734C115.708 85.5494 115.177 92.0604 115.392 94.1374C115.473 94.9194 115.883 95.3194 116.214 95.5174C116.574 95.7324 117.009 95.8094 117.441 95.8094Z" fill="#F97853"/>
<path d="M110.237 99.645C110.666 101.804 112.092 105.775 116.896 105.775C121.712 105.775 123.062 102.146 123.526 99.645H110.237Z" fill="white"/>
<path d="M138.83 76.4592C138.61 81.0822 138.169 86.8632 137.287 91.4862L134.761 91.3072C134.761 91.3072 135.373 87.4042 135.656 84.8602C135.939 82.3172 136.419 77.5632 134.248 76.9702C132.083 76.3822 133.354 70.9592 130.342 68.6082C127.33 66.2512 120.638 64.1772 116.196 66.9132C111.754 69.6432 106.701 68.1342 104.656 68.6082C102.605 69.0772 99.8244 71.9032 100.576 74.5422C101.333 77.1752 99.0734 78.7812 98.5254 81.5102C97.9774 84.2402 99.7294 91.5862 99.7294 91.5862L97.3164 92.0722C96.2314 86.1152 96.0674 80.0972 96.1464 75.7962C96.2314 71.4052 98.6274 67.3922 102.447 65.2282C112.795 59.3622 123.714 61.5492 130.902 64.3122C135.891 66.2302 139.084 71.1302 138.83 76.4592Z" fill="#18315B"/>
<path d="M167.062 298.096C155.627 300.992 144.192 302.865 132.749 303.727C132.23 303.765 131.716 303.803 131.197 303.838C129.624 303.944 128.051 304.032 126.479 304.1C118.696 304.435 110.911 304.304 103.125 303.704C101.555 303.583 99.987 303.444 98.417 303.283C97.916 303.235 97.414 303.182 96.91 303.124C87.615 302.116 78.322 300.437 69.019 298.096C68.926 289.527 69.032 262.435 69.558 233.055C69.619 229.524 69.687 225.96 69.765 222.391C70.589 183.67 72.179 144.365 75.04 140.428C77.782 136.66 86.047 131.871 93.948 127.551C94.419 127.294 94.891 127.037 95.359 126.782C97.136 125.817 98.872 124.882 100.506 123.994C104.007 122.089 107.026 120.395 108.891 119.087V120.163C108.891 120.163 113.145 125.794 117.939 125.378C122.309 125.003 125.636 119.954 126.201 119.049C128.263 120.501 131.965 122.502 136.257 124.77C137.452 125.403 138.687 126.05 139.947 126.718C140.411 126.962 140.877 127.209 141.346 127.459C150.084 132.094 159.505 137.319 162.333 141.203C162.545 141.49 162.746 141.972 162.938 142.632C164.612 148.298 165.65 167.1 166.282 189.869C166.285 189.95 166.287 190.033 166.29 190.116C166.318 191.036 166.34 191.963 166.363 192.896C166.368 193.017 166.37 193.141 166.373 193.264C166.58 201.251 166.736 209.659 166.857 218.108C166.867 218.778 166.88 219.449 166.887 220.119C166.89 220.457 166.895 220.789 166.897 221.127C166.925 222.79 166.942 224.454 166.958 226.11C166.976 227.332 166.991 228.552 167.001 229.775C167.317 260.313 167.188 289.118 167.062 298.096Z" fill="#006BDE"/>
<path d="M166.364 192.897C163.612 188.403 160.658 183.816 157.875 179.758C157.867 179.748 157.86 179.738 157.855 179.728C156.686 178.024 155.549 176.416 154.468 174.947C154.45 174.919 154.433 174.894 154.413 174.871C154.075 174.41 153.74 173.961 153.412 173.525C153.359 173.449 153.319 173.371 153.294 173.288L153.291 173.285C153.203 172.99 153.301 172.663 153.561 172.466C153.896 172.211 154.373 172.277 154.625 172.612C157.967 177.04 162.242 183.407 166.284 189.869C166.287 189.95 166.289 190.033 166.292 190.116C166.319 191.037 166.341 191.965 166.364 192.897Z" fill="#264CBE"/>
<path d="M162.451 140.579C162.451 140.579 179.696 172.173 190.208 188.186C190.208 188.186 196.186 182.694 203.961 175.347C212.391 167.381 223.92 154.068 223.92 154.068L230.3 161.634C230.3 161.634 204.396 208.249 192.778 214.108C181.159 219.967 159.749 178.5 159.749 178.5L162.451 140.579Z" fill="#006BDE"/>
<path d="M89.435 265.099C89.425 265.099 89.416 265.099 89.407 265.099C88.977 265.084 88.64 264.722 88.655 264.291C89.559 238.776 76.329 230.51 76.195 230.43C75.827 230.208 75.706 229.729 75.927 229.36C76.148 228.991 76.625 228.87 76.995 229.09C77.142 229.177 80.64 231.302 84.027 236.747C87.119 241.717 90.703 250.54 90.213 264.346C90.199 264.767 89.853 265.099 89.435 265.099Z" fill="#264CBE"/>
<path d="M145.878 241.061C145.475 241.061 145.133 240.751 145.101 240.342C144.682 234.969 146.452 231.05 148.693 226.088C149.349 224.636 150.026 223.136 150.72 221.453C155.069 210.906 152.883 198.847 152.861 198.726C152.782 198.303 153.06 197.895 153.484 197.816C153.908 197.736 154.315 198.016 154.394 198.439C154.49 198.95 156.685 211.077 152.162 222.048C151.458 223.755 150.775 225.267 150.114 226.731C147.881 231.675 146.268 235.247 146.656 240.222C146.689 240.651 146.368 241.027 145.939 241.06C145.919 241.06 145.899 241.061 145.878 241.061Z" fill="#264CBE"/>
<path d="M100.506 123.994C100.839 126.506 101.328 129.765 101.862 133.466C102.025 134.565 102.188 135.705 102.355 136.876C102.897 140.699 103.458 144.859 103.935 149.065C104.064 150.194 104.185 151.327 104.299 152.456C104.72 156.62 105.038 160.757 105.152 164.603C105.19 165.766 105.205 166.903 105.198 168.006C105.19 170.942 105.027 173.64 104.671 175.948C104.443 177.407 104.243 178.831 104.065 180.226C103.917 181.382 103.785 182.518 103.667 183.636C103.212 187.975 102.985 192.014 102.921 195.821C102.902 196.977 102.898 198.11 102.91 199.22C102.944 203.543 103.19 207.571 103.546 211.405C103.652 212.553 103.769 213.682 103.891 214.796C104.357 218.987 104.925 222.976 105.46 226.921C105.615 228.05 105.767 229.175 105.915 230.301C106.146 232.104 106.366 233.908 106.555 235.723C106.756 237.648 106.885 239.898 106.945 242.395C106.975 243.486 106.99 244.627 106.994 245.805C107.009 249.537 106.914 253.671 106.74 257.994C106.695 259.123 106.645 260.267 106.589 261.423C106.396 265.439 106.142 269.569 105.858 273.646C105.775 274.794 105.691 275.935 105.604 277.071C105.289 281.315 104.941 285.449 104.588 289.294C104.482 290.461 104.376 291.602 104.27 292.708C103.864 296.94 103.471 300.703 103.126 303.704C110.912 304.303 118.699 304.435 126.481 304.098C126.663 300.904 127.159 295.751 127.648 289.685C127.739 288.575 127.826 287.431 127.913 286.264C128.205 282.407 128.47 278.285 128.644 274.124C128.693 272.984 128.735 271.839 128.765 270.699C128.883 266.546 128.886 262.42 128.708 258.552C128.655 257.377 128.587 256.229 128.496 255.112C128.405 253.968 128.295 252.854 128.163 251.778C127.788 248.739 127.644 245.822 127.663 242.935C127.667 241.791 127.697 240.654 127.75 239.514C127.928 235.558 128.36 231.595 128.86 227.386C128.993 226.268 129.133 225.131 129.273 223.972C129.724 220.229 130.194 216.258 130.565 211.912C130.663 210.798 130.751 209.658 130.834 208.491C131.092 204.763 131.266 200.758 131.293 196.393C131.3 195.268 131.297 194.12 131.282 192.945C131.24 189.167 131.081 185.125 130.774 180.771C130.747 180.385 130.721 179.994 130.691 179.6C130.634 178.838 130.585 178.069 130.551 177.3C130.35 173.329 130.403 169.245 130.627 165.172C130.688 164.028 130.763 162.884 130.851 161.739C131.165 157.662 131.624 153.623 132.154 149.751C132.309 148.599 132.472 147.459 132.639 146.337C133.276 142.093 133.961 138.1 134.59 134.531C134.799 133.357 134.999 132.227 135.189 131.151C135.617 128.741 135.988 126.593 136.261 124.774C131.968 122.504 128.266 120.504 126.205 119.053C125.64 119.959 122.314 125.005 117.941 125.381C113.148 125.798 108.893 120.167 108.893 120.167V119.091C107.026 120.395 104.007 122.089 100.506 123.994Z" fill="white"/>
<path d="M101.862 133.467C102.025 134.566 102.188 135.706 102.355 136.877C106.656 136.975 111.706 136.331 117.791 134.926C124.308 133.426 130.056 133.687 134.587 134.528C134.796 133.354 134.996 132.224 135.186 131.148C130.276 130.242 124.081 129.981 117.026 131.606C111.02 132.99 106.018 133.626 101.862 133.467Z" fill="#E3E3E3"/>
<path d="M103.935 149.067C104.064 150.196 104.185 151.329 104.299 152.458C108.16 152.356 112.601 151.711 117.792 150.51C123.184 149.267 128.056 149.237 132.152 149.748C132.307 148.596 132.47 147.456 132.637 146.334C128.196 145.785 122.911 145.83 117.027 147.187C111.986 148.351 107.652 148.987 103.935 149.067Z" fill="#E3E3E3"/>
<path d="M105.151 164.605C105.189 165.768 105.204 166.905 105.197 168.008C108.846 167.837 112.999 167.201 117.791 166.094C122.527 165.003 126.862 164.847 130.624 165.17C130.685 164.026 130.76 162.882 130.848 161.737C126.801 161.404 122.137 161.593 117.026 162.771C112.528 163.81 108.591 164.428 105.151 164.605Z" fill="#E3E3E3"/>
<path d="M103.666 183.636C107.675 183.591 112.312 182.939 117.791 181.677C122.588 180.571 126.975 180.427 130.772 180.768C130.745 180.382 130.719 179.991 130.689 179.597C130.632 178.835 130.583 178.066 130.549 177.297C126.571 176.998 122.013 177.202 117.026 178.354C112.044 179.506 107.754 180.135 104.064 180.226C103.916 181.382 103.783 182.519 103.666 183.636Z" fill="#E3E3E3"/>
<path d="M102.908 199.22C107.087 199.254 111.964 198.606 117.791 197.261C122.819 196.102 127.385 195.992 131.291 196.39C131.298 195.265 131.295 194.117 131.28 192.942C127.135 192.559 122.323 192.718 117.026 193.938C111.521 195.207 106.86 195.848 102.92 195.821C102.9 196.977 102.896 198.11 102.908 199.22Z" fill="#E3E3E3"/>
<path d="M103.544 211.407C103.65 212.555 103.767 213.683 103.889 214.797C107.845 214.733 112.414 214.086 117.791 212.847C122.508 211.76 126.824 211.593 130.564 211.911C130.662 210.797 130.75 209.656 130.833 208.489C126.786 208.156 122.13 208.346 117.026 209.524C111.812 210.725 107.349 211.365 103.544 211.407Z" fill="#E3E3E3"/>
<path d="M105.458 226.921C105.613 228.05 105.765 229.175 105.913 230.301C109.388 230.085 113.305 229.464 117.791 228.429C121.807 227.501 125.532 227.247 128.859 227.383C128.992 226.265 129.132 225.128 129.272 223.969C125.604 223.802 121.486 224.075 117.026 225.106C112.657 226.111 108.822 226.724 105.458 226.921Z" fill="#E3E3E3"/>
<path d="M106.943 242.395C106.973 243.486 106.988 244.627 106.992 245.805C110.194 245.536 113.767 244.941 117.79 244.009C121.333 243.194 124.648 242.899 127.66 242.933C127.664 241.789 127.694 240.652 127.747 239.512C124.477 239.478 120.878 239.8 117.024 240.69C113.29 241.551 109.94 242.123 106.943 242.395Z" fill="#E3E3E3"/>
<path d="M106.587 261.424C109.891 261.17 113.593 260.56 117.791 259.594C121.743 258.685 125.415 258.423 128.707 258.552C128.654 257.377 128.586 256.229 128.495 255.112C125.028 255.013 121.175 255.317 117.026 256.271C113.203 257.154 109.789 257.734 106.739 257.995C106.693 259.125 106.644 260.269 106.587 261.424Z" fill="#E3E3E3"/>
<path d="M105.602 277.072C109.152 276.871 113.172 276.242 117.791 275.178C121.72 274.272 125.369 274.007 128.643 274.125C128.692 272.985 128.734 271.84 128.764 270.7C125.229 270.579 121.285 270.874 117.026 271.856C112.832 272.826 109.126 273.428 105.856 273.648C105.772 274.795 105.689 275.935 105.602 277.072Z" fill="#E3E3E3"/>
<path d="M104.268 292.709C108.137 292.611 112.585 291.963 117.791 290.761C121.326 289.946 124.638 289.647 127.646 289.685C127.737 288.575 127.824 287.431 127.911 286.264C124.596 286.215 120.943 286.533 117.025 287.438C112.278 288.533 108.155 289.158 104.586 289.295C104.48 290.462 104.374 291.603 104.268 292.709Z" fill="#E3E3E3"/>
<path d="M131.196 303.837C131.715 303.803 132.23 303.765 132.749 303.727C135.818 285.684 134.049 259.199 133.389 251.083C132.707 242.656 134.018 231.82 136.985 221.362C139.289 213.239 137.875 194.404 136.742 179.271C136.424 175.024 136.121 171.011 135.943 167.715C135.363 157.06 139.22 137.343 141.346 127.461C140.876 127.211 140.41 126.965 139.948 126.718C137.819 136.501 133.821 156.666 134.427 167.798C134.609 171.11 134.912 175.13 135.23 179.385C136.355 194.401 137.757 213.084 135.529 220.946C132.513 231.574 131.183 242.604 131.88 251.204C132.537 259.332 134.318 285.983 131.196 303.837Z" fill="#264CBE"/>
<path d="M99.7588 230.422C101.563 241.516 100.994 248.723 100.335 257.062C100.123 259.76 99.9028 262.545 99.7478 265.621C99.2668 275.275 97.6338 294.716 96.9098 303.124C97.4138 303.181 97.9138 303.234 98.4178 303.283C99.1418 294.875 100.779 275.385 101.263 265.697C101.415 262.643 101.634 259.866 101.847 257.183C102.51 248.745 103.086 241.455 101.252 230.179C100.862 227.758 100.445 225.303 100.032 222.859C97.9898 210.768 95.8748 198.265 96.8758 192.275C97.1178 190.812 97.4288 189.153 97.7628 187.395C99.1188 180.166 100.813 171.171 100.279 163.365C99.7478 155.628 96.5768 134.679 95.3608 126.783C94.8908 127.037 94.4218 127.295 93.9478 127.552C95.2168 135.808 98.2518 155.954 98.7668 163.467C99.2858 171.079 97.6148 179.972 96.2738 187.114C95.9398 188.88 95.6258 190.547 95.3798 192.024C94.3418 198.265 96.3798 210.332 98.5398 223.112C98.9518 225.554 99.3648 228.005 99.7588 230.422Z" fill="#264CBE"/>
<path d="M69.9351 153.295C69.9351 153.295 54.4981 204.774 50.6751 223.12C46.8521 241.466 46.5561 279.605 46.5561 279.605C46.5561 279.605 39.8071 293.615 39.6481 299.849C39.4781 306.495 42.9671 311.784 42.5691 316.133C42.1711 320.483 47.4661 318.121 45.9701 309.311C44.4741 300.501 48.7181 292.522 50.5501 292.778C52.3821 293.034 49.0341 302.397 50.6611 305.771C52.2871 309.145 54.3931 302.591 56.4861 298.614C58.6601 294.484 58.5321 285.474 57.5431 279.042C56.5541 272.61 68.2131 233.542 68.2691 222.222L83.0331 172.333C83.0331 172.333 78.1561 151.507 69.9351 153.295Z" fill="#FFA681"/>
<path d="M84.9254 171.08C84.4024 174.388 82.5723 180.067 80.2084 187.213V187.217C80.0074 187.819 79.8023 188.433 79.5984 189.058C79.5873 189.084 79.5754 189.115 79.5684 189.145C78.9774 190.922 78.3594 192.782 77.7234 194.707C77.7193 194.718 77.7164 194.73 77.7123 194.741C75.0943 202.69 72.1954 211.784 69.7634 221.127C68.9264 224.325 68.1454 227.557 67.4524 230.777C66.5654 234.888 65.8153 238.988 65.2663 243C63.2924 257.455 59.5183 275.763 59.5183 275.763C53.9823 278.036 45.3284 275.036 45.3284 275.036C45.3284 275.036 45.1044 248.669 46.3404 238.423C47.8674 225.756 49.8114 216.739 52.2204 206.387C58.8514 177.898 70.5214 150.023 73.7224 142.63C73.9764 142.039 74.1774 141.58 74.3174 141.262H77.0723C82.4934 144.709 86.3394 162.168 84.9254 171.08Z" fill="#006BDE"/>
<path d="M44.877 269.758L45.311 275.825C45.311 275.825 53.539 278.499 59.707 276.616L61.338 271.204C55.399 271.518 49.912 271.372 44.877 269.758Z" fill="#009CF8"/>
<path d="M80.2081 187.213V187.217C80.2081 187.304 80.1931 187.391 80.1631 187.478C79.9771 187.99 79.7881 188.516 79.5981 189.058C79.5871 189.084 79.5751 189.115 79.5681 189.145C78.9621 190.865 78.3441 192.737 77.7231 194.707C77.7191 194.718 77.7161 194.73 77.7121 194.741C74.4881 204.986 71.2101 217.876 69.7021 226.11C69.7171 224.454 69.7361 222.791 69.7631 221.128C68.9261 224.326 68.1451 227.558 67.4521 230.778C67.7631 227.758 68.6271 223.234 69.8051 218.108C72.1851 207.734 75.8371 194.885 78.7391 186.959C78.8831 186.565 79.3191 186.364 79.7132 186.508C80.0191 186.622 80.2081 186.906 80.2081 187.213Z" fill="#264CBE"/>
<path d="M356.347 323.353H392.812C392.691 320.824 392.571 318.399 392.455 316.11C391.819 303.624 391.279 295.122 391.279 295.122L361.624 296.439L359.165 296.55L354.803 296.745C354.803 296.745 355.224 304.347 355.879 315.485C356.023 317.948 356.18 320.587 356.347 323.353Z" fill="#18315B"/>
<path d="M359.164 296.55L354.802 296.745C354.802 296.745 355.223 304.347 355.878 315.485C367.272 316.435 379.712 316.822 392.454 316.109C391.818 303.623 391.278 295.121 391.278 295.121L361.623 296.438L359.164 296.55Z" fill="#000B29"/>
<path d="M363.135 323.353C362.468 311.796 361.922 301.922 361.622 296.44L359.163 296.551C359.462 302.008 360.006 311.836 360.671 323.353H363.135Z" fill="#000B29"/>
<path d="M345.649 323.353C345.837 320.222 346.013 317.253 346.174 314.516C346.802 303.907 347.196 296.745 347.196 296.745L342.462 296.534L340.007 296.423L310.716 295.121C310.716 295.121 310.394 300.188 309.954 308.242C309.721 312.534 309.454 317.678 309.184 323.352H345.649V323.353Z" fill="#18315B"/>
<path d="M309.953 308.242C317.904 310.111 330.723 312.735 346.173 314.515C346.801 303.906 347.195 296.744 347.195 296.744L342.461 296.533L340.006 296.422L310.715 295.12C310.715 295.12 310.394 300.188 309.953 308.242Z" fill="#000B29"/>
<path d="M340.954 323.353C341.619 311.824 342.163 301.988 342.461 296.535L340.006 296.424C339.706 301.903 339.159 311.784 338.492 323.353H340.954Z" fill="#000B29"/>
<path d="M396.573 300.805C389.145 302.849 381.718 304.392 374.29 305.427C371.707 305.79 369.126 306.092 366.545 306.329C363.064 306.652 359.584 306.868 356.106 306.977C350.352 307.153 344.598 307.027 338.841 306.601C327.713 305.787 316.588 303.844 305.458 300.804C305.355 290.428 305.511 253.217 306.29 217.326C306.328 215.715 306.363 214.105 306.403 212.502C306.408 212.162 306.418 211.821 306.426 211.481C306.434 211.11 306.444 210.74 306.454 210.372C306.479 209.233 306.509 208.099 306.537 206.97C306.595 204.664 306.655 202.378 306.721 200.115C306.761 198.762 306.802 197.416 306.842 196.082C306.849 195.805 306.86 195.53 306.867 195.255C306.895 194.375 306.922 193.501 306.95 192.631C306.95 192.631 306.95 192.631 306.95 192.628C306.96 192.358 306.968 192.089 306.978 191.819C307.003 191.017 307.031 190.221 307.056 189.432C307.081 188.759 307.104 188.096 307.127 187.431C307.989 163.22 309.249 144.123 311.054 141.431C314.114 136.867 324.536 130.808 332.918 125.875C335.905 124.121 339.471 122.296 341.512 120.943C344.489 123.34 346.649 125.505 351.062 125.356C355.999 125.187 357.217 122.218 359.1 119.672C360.249 120.418 363.168 122.812 364.685 123.702C365.983 124.468 367.389 125.28 368.856 126.124C371.124 127.422 373.536 128.801 375.926 130.207C379.467 132.291 382.958 134.441 385.854 136.495C388.745 138.549 391.041 140.512 392.178 142.214C393.816 144.674 394.877 160.6 395.56 181.56C395.588 182.293 395.608 183.037 395.636 183.785C395.639 183.876 395.639 183.966 395.639 184.06C395.667 184.821 395.69 185.603 395.707 186.384C395.775 188.743 395.838 191.153 395.904 193.602C395.917 194.119 395.929 194.64 395.937 195.16C395.947 195.551 395.96 195.944 395.962 196.329C395.985 197.337 396.007 198.348 396.03 199.368C396.035 199.572 396.038 199.776 396.043 199.981C396.099 202.67 396.151 205.397 396.199 208.147C396.214 208.951 396.227 209.758 396.239 210.564C396.86 248.301 396.716 289.655 396.573 300.805Z" fill="#006BDE"/>
<path d="M396.237 210.568L384.475 222.499L373.516 211.389L362.56 222.499L351.561 211.344L340.557 222.499L329.485 211.271L318.41 222.499L306.453 210.373C306.478 209.234 306.508 208.1 306.536 206.971C306.594 204.665 306.654 202.379 306.72 200.116L318.41 188.26L329.485 199.491L340.557 188.26L351.561 199.415L362.56 188.26L373.516 199.37L384.475 188.26L396.041 199.985C396.097 202.674 396.149 205.401 396.197 208.151C396.212 208.955 396.225 209.761 396.237 210.568Z" fill="#264CBE"/>
<path d="M375.934 272.064H375.931C360.181 271.995 346.738 264.828 338.234 258.828C329.037 252.339 323.463 245.764 323.408 245.698C323.139 245.378 323.18 244.9 323.5 244.63C323.821 244.361 324.299 244.402 324.568 244.722C324.622 244.786 330.095 251.236 339.143 257.614C347.462 263.478 360.599 270.481 375.938 270.549C376.356 270.551 376.694 270.892 376.693 271.31C376.69 271.727 376.351 272.064 375.934 272.064Z" fill="#264CBE"/>
<path d="M366.11 262.749C352.7 260.113 340.83 249.843 340.291 249.372C339.976 249.096 339.944 248.618 340.219 248.303C340.495 247.988 340.973 247.957 341.288 248.231C341.427 248.353 355.396 260.432 369.631 261.731C370.054 261.766 370.355 262.138 370.317 262.554C370.279 262.971 369.91 263.277 369.494 263.239C368.359 263.136 367.229 262.969 366.11 262.749Z" fill="#264CBE"/>
<path d="M339.253 146.201C338.896 146.201 338.578 145.948 338.509 145.584C338.431 145.173 338.701 144.776 339.112 144.698C358.314 141.054 364.101 128.702 364.158 128.577C364.33 128.196 364.779 128.026 365.161 128.199C365.542 128.371 365.712 128.82 365.539 129.202C365.296 129.739 359.363 142.399 339.395 146.188C339.348 146.196 339.3 146.201 339.253 146.201Z" fill="#264CBE"/>
<path d="M315.824 179.451V179.456C315.806 179.539 315.768 179.622 315.721 179.698C315.434 180.159 315.134 180.636 314.834 181.122C314.819 181.15 314.801 181.172 314.789 181.203C313.829 182.756 312.828 184.452 311.797 186.244C311.794 186.257 311.789 186.264 311.779 186.274C310.168 189.094 308.5 192.152 306.867 195.257C306.895 194.377 306.922 193.503 306.95 192.633C306.95 192.633 306.95 192.633 306.95 192.63C306.96 192.36 306.968 192.091 306.978 191.821C309.612 186.931 312.238 182.357 314.441 178.889C314.668 178.534 315.134 178.433 315.489 178.655C315.764 178.834 315.89 179.151 315.824 179.451Z" fill="#264CBE"/>
<path d="M412.583 151.365C412.583 151.365 437.138 143.473 444.404 127.36C446.506 122.693 429.192 75.3145 429.192 75.3145L420.835 75.7185C420.835 75.7185 423.217 92.1575 424.66 101.465C425.847 109.118 427.765 118.263 428.412 121.274C428.553 121.927 428.632 122.29 428.632 122.29C428.222 122.361 427.811 122.44 427.393 122.523C415.921 124.853 401.273 132.326 401.273 132.326L412.583 151.365Z" fill="#FFA681"/>
<path d="M434.8 126.832C435.149 127.086 435.648 127.01 435.898 126.659C436.162 126.303 436.082 125.81 435.725 125.561C433.939 124.263 431.243 122.74 428.412 121.275C428.553 121.928 428.632 122.291 428.632 122.291C428.222 122.362 427.811 122.441 427.393 122.524C430.275 124.005 433.034 125.547 434.8 126.832Z" fill="#F97853"/>
<path d="M375.012 129.689C375.012 129.689 367.585 147.119 386.494 156.823C399.58 163.539 429.39 146.005 429.39 146.005L418.762 123.44C418.762 123.44 391.487 134.691 375.012 129.689Z" fill="#006BDE"/>
<path d="M424.914 48.6762C424.174 49.1952 424.325 52.3962 424.651 55.4112C424.547 55.4262 424.44 55.4442 424.333 55.4632C423.454 51.4392 421.704 44.5952 420.208 45.9012C419.228 46.7562 420.54 52.6582 421.434 56.1872C421.249 56.2442 421.064 56.3022 420.879 56.3622C419.752 52.1722 417.322 44.1012 415.705 45.6702C414.626 46.7172 416.697 53.8242 417.847 57.4492C417.686 57.5122 417.53 57.5732 417.376 57.6342C416.276 54.1172 413.926 47.4642 412.316 49.0272C410.858 50.4422 415.035 60.5002 415.035 60.5002L416.13 64.4482C416.13 64.4482 414.829 65.0102 412.797 62.7122C410.765 60.4142 408.337 60.0102 410.024 63.3342C411.931 67.0912 414.753 69.7852 415.995 72.4432C417.238 75.1012 421.146 75.9802 421.146 75.9802L428.993 75.6012C428.993 75.6012 430.515 62.3382 427.588 56.0162C427.086 52.2602 426.202 47.7732 424.914 48.6762Z" fill="#FFA681"/>
<path d="M327.824 79.263C327.824 92.629 336.052 101.839 349.413 101.839C362.779 101.839 372.097 91.938 372.097 78.571C372.097 74.885 371.496 71.443 370.339 68.397C370.271 68.216 370.203 68.034 370.129 67.858C369.987 67.512 369.84 67.166 369.681 66.832C369.448 66.316 369.188 65.811 368.915 65.324C365.433 59.063 359.195 55.082 350.814 55.082C334.788 55.083 327.824 65.897 327.824 79.263Z" fill="#18315B"/>
<path d="M330.825 85.0182C330.825 85.0182 327.112 80.0672 324.351 84.1612C321.59 88.2552 325.494 100.347 332.253 97.3952L330.825 85.0182Z" fill="#F97853"/>
<path d="M330.777 93.6593C330.527 93.6593 330.298 93.4944 330.227 93.2424C329.179 89.5094 325.312 87.9964 325.273 87.9814C324.979 87.8684 324.83 87.5394 324.942 87.2444C325.054 86.9494 325.383 86.8014 325.678 86.9124C325.859 86.9804 330.121 88.6343 331.327 92.9333C331.412 93.2373 331.235 93.5523 330.931 93.6373C330.88 93.6523 330.828 93.6593 330.777 93.6593Z" fill="#EA5143"/>
<path d="M326.873 91.7781C326.767 91.7781 326.66 91.7491 326.564 91.6871C326.299 91.5161 326.222 91.1631 326.393 90.8971C326.422 90.8531 327.106 89.8091 328.537 89.1691C328.824 89.0391 329.163 89.1691 329.292 89.4571C329.421 89.7451 329.292 90.0831 329.004 90.2111C327.897 90.7061 327.359 91.5081 327.354 91.5161C327.245 91.6861 327.061 91.7781 326.873 91.7781Z" fill="#EA5143"/>
<path d="M369.092 85.0182C369.092 85.0182 372.805 80.0672 375.566 84.1612C378.327 88.2552 374.423 100.347 367.663 97.3952L369.092 85.0182Z" fill="#F97853"/>
<path d="M369.14 93.6593C369.389 93.6593 369.619 93.4944 369.69 93.2424C370.738 89.5094 374.605 87.9964 374.644 87.9814C374.938 87.8684 375.087 87.5394 374.975 87.2444C374.863 86.9494 374.534 86.8014 374.239 86.9124C374.058 86.9804 369.796 88.6343 368.589 92.9333C368.504 93.2373 368.681 93.5523 368.985 93.6373C369.037 93.6523 369.089 93.6593 369.14 93.6593Z" fill="#EA5143"/>
<path d="M373.044 91.7781C373.15 91.7781 373.257 91.7491 373.353 91.6871C373.618 91.5161 373.695 91.1631 373.524 90.8971C373.496 90.8531 372.811 89.8091 371.38 89.1691C371.094 89.0391 370.754 89.1691 370.625 89.4571C370.496 89.7451 370.625 90.0831 370.913 90.2111C372.02 90.7061 372.558 91.5081 372.563 91.5161C372.672 91.6861 372.856 91.7781 373.044 91.7781Z" fill="#EA5143"/>
<path d="M359.099 107.651V119.676C359.099 119.676 355.513 125.8 350.663 126.217C345.818 126.64 341.513 120.944 341.513 120.944V108.496L359.099 107.651Z" fill="#FFA681"/>
<path d="M359.099 107.651V112.987C355.845 116.598 350.065 117.5 341.513 116.237V108.496L359.099 107.651Z" fill="#F97853"/>
<path d="M371.777 76.7689C371.554 81.4419 371.108 87.2859 370.217 91.9589C369.994 93.1239 369.743 94.2209 369.463 95.2039C366.932 104.064 360.603 119.26 342.882 112.93C335.056 110.136 331.428 101.419 329.812 92.5529C328.715 86.5319 328.549 80.4479 328.63 76.1009C328.716 71.6629 331.138 67.6059 335 65.4179C345.46 59.4879 356.497 61.6989 363.763 64.4929C368.806 66.4289 372.034 71.3819 371.777 76.7689Z" fill="#FFA681"/>
<path d="M342.36 86.5872C342.36 87.8712 341.698 88.9112 340.882 88.9112C340.066 88.9112 339.404 87.8712 339.404 86.5872C339.404 85.3032 340.066 84.2632 340.882 84.2632C341.699 84.2632 342.36 85.3042 342.36 86.5872Z" fill="#18315B"/>
<path d="M359.777 86.5398C359.777 87.8238 359.116 88.8638 358.299 88.8638C357.483 88.8638 356.821 87.8238 356.821 86.5398C356.821 85.2558 357.483 84.2158 358.299 84.2158C359.115 84.2148 359.777 85.2558 359.777 86.5398Z" fill="#18315B"/>
<path d="M363.116 78.5522C363.116 78.5522 358.454 76.7092 354.864 78.2602L355.223 80.2562C355.223 80.2562 360.492 79.8102 363.146 80.8862C363.384 80.1192 363.419 79.3422 363.116 78.5522Z" fill="#18315B"/>
<path d="M335.952 78.5522C335.952 78.5522 340.614 76.7092 344.204 78.2602L343.845 80.2562C343.845 80.2562 338.577 79.8102 335.922 80.8862C335.684 80.1192 335.649 79.3422 335.952 78.5522Z" fill="#18315B"/>
<path d="M350.157 96.328C351.121 96.328 352.076 95.953 352.225 95.892C352.517 95.773 352.656 95.44 352.537 95.147C352.418 94.855 352.084 94.715 351.793 94.834C351.277 95.043 350.038 95.372 349.501 95.051C349.398 94.989 349.256 94.866 349.22 94.519C349.014 92.524 349.56 85.837 349.565 85.77C349.591 85.456 349.357 85.18 349.043 85.154C348.727 85.127 348.453 85.362 348.427 85.676C348.404 85.955 347.867 92.537 348.084 94.636C348.166 95.426 348.581 95.831 348.915 96.031C349.281 96.251 349.72 96.328 350.157 96.328Z" fill="#F97853"/>
<path d="M342.486 99.229C343.436 102.525 346.135 105.813 349.854 105.859C353.569 105.814 356.269 102.525 357.218 99.229H342.486Z" fill="white"/>
<path d="M349.536 109.439C351.015 109.439 352.268 108.69 352.321 108.658C352.591 108.495 352.677 108.143 352.514 107.873C352.351 107.603 351.999 107.517 351.729 107.68C351.72 107.686 350.688 108.295 349.536 108.295C348.479 108.295 347.467 107.689 347.457 107.682C347.189 107.517 346.837 107.599 346.671 107.868C346.505 108.136 346.588 108.488 346.857 108.654C346.908 108.688 348.14 109.439 349.536 109.439Z" fill="#F97853"/>
<path d="M371.173 85.1189H368.584C368.87 82.5199 369.28 77.9419 367.146 77.2859C360.4 75.2139 369.142 70.4469 366.097 68.0699C363.052 65.6879 355.473 66.7089 350.202 66.5379C344.899 66.3659 336.376 66.4409 334.308 66.9209C332.234 67.3949 333.371 70.8379 334.131 73.5059C334.897 76.1679 331.589 79.1159 331.035 81.8759C330.876 82.6679 330.909 83.8439 331.036 85.1189H328.878C328.622 81.7609 328.584 78.6349 328.63 76.0999C328.716 71.6619 331.138 67.6049 335 65.4169C345.46 59.4869 356.497 61.6979 363.763 64.4919C368.807 66.4279 372.035 71.3809 371.778 76.7679C371.655 79.3289 371.465 82.2409 371.173 85.1189Z" fill="#18315B"/>
<path d="M340.622 93.3168C337.056 93.3168 334.155 90.4158 334.155 86.8498C334.155 83.2838 337.056 80.3828 340.622 80.3828C344.188 80.3828 347.089 83.2838 347.089 86.8498C347.089 90.4158 344.188 93.3168 340.622 93.3168ZM340.622 81.3908C337.612 81.3908 335.163 83.8398 335.163 86.8498C335.163 89.8598 337.612 92.3088 340.622 92.3088C343.632 92.3088 346.081 89.8598 346.081 86.8498C346.081 83.8398 343.632 81.3908 340.622 81.3908Z" fill="white"/>
<path d="M358.299 93.3168C354.733 93.3168 351.833 90.4158 351.833 86.8498C351.833 83.2838 354.733 80.3828 358.299 80.3828C361.865 80.3828 364.767 83.2838 364.767 86.8498C364.767 90.4158 361.865 93.3168 358.299 93.3168ZM358.299 81.3908C355.289 81.3908 352.841 83.8398 352.841 86.8498C352.841 89.8598 355.289 92.3088 358.299 92.3088C361.309 92.3088 363.759 89.8598 363.759 86.8498C363.759 83.8398 361.309 81.3908 358.299 81.3908Z" fill="white"/>
<path d="M335.248 84.767C335.12 84.767 334.991 84.718 334.893 84.621C334.864 84.592 331.926 81.742 328.072 82.641C327.802 82.705 327.53 82.536 327.467 82.265C327.404 81.994 327.572 81.723 327.843 81.66C332.25 80.632 335.468 83.772 335.603 83.907C335.8 84.103 335.801 84.423 335.605 84.62C335.507 84.718 335.377 84.767 335.248 84.767Z" fill="white"/>
<path d="M363.792 84.767C363.628 84.767 363.466 84.686 363.369 84.538C363.217 84.305 363.282 83.993 363.515 83.841C363.708 83.715 368.284 80.763 372.178 81.404C372.453 81.449 372.639 81.709 372.593 81.983C372.548 82.257 372.29 82.443 372.014 82.398C368.509 81.821 364.111 84.655 364.066 84.684C363.982 84.741 363.887 84.767 363.792 84.767Z" fill="white"/>
<path d="M352.187 85.3979C352.176 85.3819 350.978 83.7629 349.403 83.7629C347.844 83.7629 346.761 85.3799 346.751 85.3959L345.907 84.8449C345.963 84.7599 347.292 82.7549 349.403 82.7549C351.498 82.7549 352.944 84.7249 353.004 84.8089L352.187 85.3979Z" fill="white"/>
<path d="M313.695 178.501C313.695 178.501 306.882 191.693 298.86 202.142C296.493 205.224 294.023 208.067 291.589 210.263C287.645 213.824 283.799 215.687 280.666 214.106C269.047 208.249 243.145 161.634 243.145 161.634L249.524 154.068C249.524 154.068 261.052 167.381 269.483 175.348C277.258 182.695 283.237 188.187 283.237 188.187C284.313 186.549 285.46 184.754 286.652 182.854C287.92 180.838 289.235 178.703 290.574 176.508C300.282 160.569 311.055 141.434 311.055 141.434L313.695 178.501Z" fill="#FFA681"/>
<path d="M298.86 202.142C296.493 205.224 294.023 208.067 291.589 210.263L286.652 182.854C287.92 180.838 289.235 178.703 290.574 176.508L298.86 202.142Z" fill="#F97853"/>
<path d="M311.053 141.434L287.769 178.054L295.584 210.263L314.852 178.889C314.852 178.889 317.188 157.425 311.053 141.434Z" fill="#006BDE"/>
<path d="M281.776 323.353C280.113 314.137 278.474 303.743 276.984 293.65C276.657 291.418 276.338 289.205 276.022 287.021C274.827 278.664 273.76 270.762 272.903 264.204C272.576 261.713 272.283 259.413 272.016 257.361C271.185 250.815 270.697 246.749 270.697 246.749L233.928 248.139L197.046 246.749C197.046 246.749 196.095 254.794 194.573 266.458C194.295 268.581 193.998 270.82 193.686 273.158C192.867 279.279 191.931 286.039 190.924 292.961C190.909 293.062 190.894 293.164 190.879 293.265C190.563 295.422 190.244 297.594 189.913 299.766C189.909 299.796 189.906 299.822 189.898 299.852V299.856C189.109 305.105 188.282 310.347 187.441 315.39C187.095 317.472 186.746 319.516 186.392 321.507C186.283 322.128 186.173 322.741 186.064 323.351H281.776V323.353Z" fill="#006BDE"/>
<path d="M205.522 257.793C205.522 259.707 203.971 261.259 202.057 261.259C200.143 261.259 198.591 259.707 198.591 257.793C198.591 255.879 200.143 254.328 202.057 254.328C203.971 254.328 205.522 255.879 205.522 257.793Z" fill="#264CBE"/>
<path d="M214.122 271.219C214.122 273.133 212.57 274.684 210.657 274.684C208.743 274.684 207.191 273.132 207.191 271.219C207.191 269.305 208.743 267.754 210.657 267.754C212.57 267.753 214.122 269.305 214.122 271.219Z" fill="#264CBE"/>
<path d="M231.041 264.288C231.041 266.202 229.489 267.753 227.576 267.753C225.662 267.753 224.111 266.201 224.111 264.288C224.111 262.374 225.662 260.823 227.576 260.823C229.49 260.823 231.041 262.374 231.041 264.288Z" fill="#264CBE"/>
<path d="M204.338 285.477C204.338 287.391 202.786 288.943 200.873 288.943C198.959 288.943 197.408 287.391 197.408 285.477C197.408 283.563 198.959 282.012 200.873 282.012C202.786 282.012 204.338 283.563 204.338 285.477Z" fill="#264CBE"/>
<path d="M225.48 283.995C225.48 285.909 223.929 287.46 222.015 287.46C220.101 287.46 218.55 285.909 218.55 283.995C218.55 282.081 220.102 280.53 222.015 280.53C223.928 280.53 225.48 282.081 225.48 283.995Z" fill="#264CBE"/>
<path d="M196.829 269.709C196.829 271.513 195.454 272.997 193.688 273.159C194 270.822 194.297 268.582 194.575 266.459C195.894 266.951 196.829 268.217 196.829 269.709Z" fill="#264CBE"/>
<path d="M259.933 304.355C259.933 306.269 258.382 307.82 256.468 307.82C254.554 307.82 253.002 306.268 253.002 304.355C253.002 302.441 254.554 300.889 256.468 300.889C258.381 300.889 259.933 302.441 259.933 304.355Z" fill="#264CBE"/>
<path d="M258.296 285.477C258.296 287.391 256.744 288.943 254.831 288.943C252.917 288.943 251.366 287.391 251.366 285.477C251.366 283.563 252.918 282.012 254.831 282.012C256.744 282.012 258.296 283.563 258.296 285.477Z" fill="#264CBE"/>
<path d="M276.984 293.649C276.567 293.826 276.105 293.923 275.624 293.923C273.711 293.923 272.159 292.371 272.159 290.458C272.159 288.545 273.711 286.994 275.624 286.994C275.759 286.994 275.891 287.001 276.022 287.02C276.338 289.204 276.657 291.417 276.984 293.649Z" fill="#264CBE"/>
<path d="M261.761 318.19C261.761 320.104 260.209 321.655 258.296 321.655C256.382 321.655 254.831 320.104 254.831 318.19C254.831 316.276 256.382 314.724 258.296 314.724C260.209 314.724 261.761 316.276 261.761 318.19Z" fill="#264CBE"/>
<path d="M276.584 312.658C276.584 314.572 275.032 316.123 273.118 316.123C271.204 316.123 269.653 314.571 269.653 312.658C269.653 310.744 271.204 309.193 273.118 309.193C275.033 309.192 276.584 310.744 276.584 312.658Z" fill="#264CBE"/>
<path d="M245.74 323.353C245.117 322.442 244.072 321.843 242.884 321.843C241.696 321.843 240.651 322.442 240.028 323.353H245.74Z" fill="#264CBE"/>
<path d="M202.057 307.369C202.057 309.283 200.505 310.834 198.591 310.834C196.677 310.834 195.126 309.283 195.126 307.369C195.126 305.455 196.677 303.903 198.591 303.903C200.506 303.903 202.057 305.455 202.057 307.369Z" fill="#264CBE"/>
<path d="M192.914 296.422C192.914 298.181 191.603 299.635 189.9 299.853C189.908 299.823 189.911 299.797 189.915 299.767C190.246 297.595 190.565 295.423 190.881 293.266C192.079 293.815 192.914 295.021 192.914 296.422Z" fill="#264CBE"/>
<path d="M188.863 318.187C188.863 319.754 187.822 321.077 186.394 321.509C186.747 319.518 187.097 317.473 187.443 315.392C188.303 316.022 188.863 317.041 188.863 318.187Z" fill="#264CBE"/>
<path d="M210.657 319.654C210.657 321.568 209.105 323.12 207.191 323.12C205.277 323.12 203.726 321.568 203.726 319.654C203.726 317.74 205.278 316.189 207.191 316.189C209.105 316.188 210.657 317.74 210.657 319.654Z" fill="#264CBE"/>
<path d="M228.945 316.94C228.945 318.854 227.393 320.406 225.48 320.406C223.567 320.406 222.015 318.854 222.015 316.94C222.015 315.026 223.566 313.475 225.48 313.475C227.394 313.475 228.945 315.026 228.945 316.94Z" fill="#264CBE"/>
<path d="M215.898 299.901C215.898 301.815 214.346 303.367 212.432 303.367C210.518 303.367 208.967 301.815 208.967 299.901C208.967 297.987 210.518 296.436 212.432 296.436C214.346 296.436 215.898 297.988 215.898 299.901Z" fill="#264CBE"/>
<path d="M234.507 296.436C234.507 298.35 232.956 299.901 231.042 299.901C229.128 299.901 227.577 298.35 227.577 296.436C227.577 294.522 229.129 292.971 231.042 292.971C232.955 292.971 234.507 294.522 234.507 296.436Z" fill="#264CBE"/>
<path d="M242.884 278.15C242.884 280.064 241.333 281.615 239.419 281.615C237.505 281.615 235.953 280.063 235.953 278.15C235.953 276.236 237.505 274.684 239.419 274.684C241.332 274.684 242.884 276.236 242.884 278.15Z" fill="#264CBE"/>
<path d="M272.903 264.204C272.663 264.26 272.415 264.287 272.159 264.287C270.242 264.287 268.694 262.735 268.694 260.822C268.694 258.958 270.167 257.433 272.016 257.361C272.283 259.413 272.577 261.713 272.903 264.204Z" fill="#264CBE"/>
<path d="M254.83 264.288C254.83 266.202 253.278 267.753 251.365 267.753C249.451 267.753 247.9 266.201 247.9 264.288C247.9 262.374 249.451 260.823 251.365 260.823C253.279 260.823 254.83 262.374 254.83 264.288Z" fill="#264CBE"/>
<path d="M267.523 276.638C267.523 278.552 265.972 280.103 264.058 280.103C262.144 280.103 260.593 278.551 260.593 276.638C260.593 274.724 262.145 273.172 264.058 273.172C265.971 273.172 267.523 274.724 267.523 276.638Z" fill="#264CBE"/>
<path d="M246.349 307.369C246.349 309.283 244.797 310.834 242.884 310.834C240.97 310.834 239.419 309.283 239.419 307.369C239.419 305.455 240.97 303.903 242.884 303.903C244.798 303.903 246.349 305.455 246.349 307.369Z" fill="#264CBE"/>
<path d="M272.934 247.659C253.537 260.322 217.922 259.33 195.541 247.659C197.679 234.342 200.494 221.009 199.889 203.285C199.821 201.342 199.739 199.411 199.641 197.498C199.555 195.833 199.457 194.18 199.352 192.545C197.42 163.058 192.389 138.949 194.861 135.834C195.94 134.47 197.739 132.997 199.96 131.49C200.832 130.896 201.764 130.295 202.748 129.694C205.07 128.277 207.652 126.849 210.244 125.459C216.395 122.175 222.64 119.127 225.771 117.046C228.875 118.399 231.347 119.139 234.012 119.124C234.083 119.124 234.162 119.124 234.241 119.116C234.313 119.124 234.391 119.124 234.463 119.124C237.127 119.139 239.6 118.399 242.707 117.046C245.612 118.978 251.079 121.672 256.659 124.61C260.759 126.771 264.918 129.063 268.157 131.287C270.276 132.741 272.009 134.169 273.068 135.507C274.293 137.051 273.778 143.823 272.73 153.856C271.693 163.727 270.141 176.763 269.202 191.091C268.943 195.07 268.729 199.147 268.586 203.285C267.985 221.01 270.796 234.342 272.934 247.659Z" fill="#009CF8"/>
<path d="M261.072 232.932H261.069C245.449 232.863 232.117 225.756 223.683 219.805C214.562 213.37 209.034 206.849 208.979 206.783C208.712 206.466 208.753 205.991 209.07 205.724C209.388 205.457 209.862 205.498 210.129 205.815C210.183 205.879 215.61 212.276 224.583 218.6C232.833 224.415 245.862 231.361 261.074 231.428C261.489 231.43 261.824 231.768 261.822 232.183C261.822 232.598 261.485 232.932 261.072 232.932Z" fill="#006BDE"/>
<path d="M250.731 223.839C237.432 221.225 225.659 211.039 225.125 210.571C224.813 210.297 224.781 209.823 225.054 209.511C225.327 209.198 225.802 209.168 226.115 209.44C226.253 209.561 240.107 221.54 254.224 222.829C254.644 222.863 254.942 223.233 254.904 223.645C254.866 224.058 254.501 224.363 254.087 224.325C252.961 224.222 251.84 224.057 250.731 223.839Z" fill="#006BDE"/>
<path d="M231.041 155.032C230.687 155.032 230.372 154.781 230.303 154.42C230.226 154.012 230.494 153.619 230.901 153.541C249.944 149.927 255.684 137.676 255.74 137.553C255.911 137.175 256.356 137.007 256.735 137.178C257.113 137.349 257.281 137.794 257.11 138.172C256.869 138.705 250.985 151.26 231.182 155.017C231.134 155.027 231.087 155.032 231.041 155.032Z" fill="#006BDE"/>
<path d="M256.658 124.611C252.878 133.233 243.586 142.161 231.502 140.073C219.8 138.05 214.25 131.861 210.245 125.459C216.397 122.174 222.643 119.13 225.771 117.047C228.875 118.398 231.348 119.138 234.01 119.126C234.082 119.126 234.163 119.126 234.239 119.118C234.311 119.126 234.392 119.126 234.464 119.126C237.126 119.138 239.599 118.398 242.708 117.047C245.612 118.977 251.081 121.671 256.658 124.611Z" fill="#FFA681"/>
<path d="M246.556 117.678C246.222 117.674 245.957 117.942 245.954 118.272C245.95 118.757 245.752 130.153 235.522 131.036C226.033 131.861 222.105 122.777 220.892 119.009C220.821 118.788 220.616 118.64 220.384 118.64H220.272C219.907 118.64 219.649 118.996 219.764 119.342C221.059 123.23 225.195 132.619 234.862 132.274C235.113 132.265 235.367 132.249 235.625 132.227C246.947 131.25 247.149 118.409 247.15 118.279C247.152 117.949 246.886 117.68 246.556 117.678Z" fill="white"/>
<path d="M253.788 57.1021C253.788 57.1021 262.931 71.2641 261.929 86.0151C260.927 100.766 263.277 117.794 250.077 117.046C236.878 116.298 213.334 122.338 205.851 110.849C198.368 99.3611 253.788 57.1021 253.788 57.1021Z" fill="#18315B"/>
<path d="M257.176 83.1418C257.176 83.1418 259.549 104.524 249.403 110.411C239.257 116.298 231.914 109.725 231.914 109.725C231.914 109.725 253.301 79.9218 257.176 83.1418Z" fill="#000B29"/>
<path d="M215.032 83.043C215.032 83.043 211.389 78.186 208.68 82.202C205.971 86.219 209.801 98.082 216.433 95.186L215.032 83.043Z" fill="#F97853"/>
<path d="M214.984 91.5199C214.739 91.5199 214.514 91.3579 214.444 91.1109C213.416 87.4479 209.622 85.9639 209.583 85.9489C209.294 85.8389 209.149 85.5149 209.258 85.2259C209.368 84.9369 209.691 84.7909 209.98 84.8999C210.157 84.9669 214.339 86.5899 215.523 90.8079C215.606 91.1059 215.433 91.4149 215.135 91.4989C215.085 91.5129 215.034 91.5199 214.984 91.5199Z" fill="#EA5143"/>
<path d="M211.154 89.6752C211.05 89.6752 210.945 89.6462 210.851 89.5862C210.591 89.4182 210.516 89.0722 210.683 88.8112C210.711 88.7682 211.382 87.7442 212.787 87.1152C213.068 86.9882 213.401 87.1152 213.527 87.3982C213.653 87.6802 213.527 88.0122 213.244 88.1382C212.158 88.6242 211.63 89.4102 211.625 89.4182C211.519 89.5852 211.339 89.6752 211.154 89.6752Z" fill="#EA5143"/>
<path d="M252.577 83.043C252.577 83.043 256.22 78.186 258.929 82.202C261.638 86.219 257.808 98.082 251.176 95.186L252.577 83.043Z" fill="#F97853"/>
<path d="M252.623 91.5199C252.868 91.5199 253.093 91.3579 253.163 91.1109C254.191 87.4479 257.985 85.9639 258.024 85.9489C258.313 85.8389 258.458 85.5149 258.349 85.2259C258.239 84.9369 257.916 84.7909 257.627 84.8999C257.45 84.9669 253.268 86.5899 252.084 90.8079C252.001 91.1059 252.174 91.4149 252.472 91.4989C252.523 91.5129 252.574 91.5199 252.623 91.5199Z" fill="#EA5143"/>
<path d="M256.454 89.6752C256.558 89.6752 256.663 89.6462 256.757 89.5862C257.017 89.4182 257.092 89.0722 256.925 88.8112C256.897 88.7682 256.226 87.7442 254.821 87.1152C254.54 86.9882 254.207 87.1152 254.081 87.3982C253.955 87.6802 254.081 88.0122 254.364 88.1382C255.45 88.6242 255.978 89.4102 255.983 89.4182C256.089 89.5852 256.27 89.6752 256.454 89.6752Z" fill="#EA5143"/>
<path d="M242.772 105.249V117.047C242.772 117.047 239.253 123.055 234.495 123.465C229.742 123.88 225.518 118.292 225.518 118.292V106.079L242.772 105.249Z" fill="#FFA681"/>
<path d="M242.772 105.249V110.484C239.579 114.027 233.911 115.282 225.519 114.044L225.518 106.079L242.772 105.249Z" fill="#F97853"/>
<path d="M255.21 74.949C254.991 79.534 254.554 85.267 253.68 89.852C253.461 90.995 253.215 92.071 252.94 93.036C250.457 101.729 244.247 116.638 226.861 110.428C219.182 107.687 215.623 99.134 214.037 90.436C212.961 84.528 212.798 78.559 212.877 74.294C212.961 69.939 215.337 65.96 219.126 63.813C229.388 57.995 240.217 60.164 247.346 62.905C252.295 64.805 255.462 69.664 255.21 74.949Z" fill="#FFA681"/>
<path d="M226.148 83.7351C226.148 84.9941 225.499 86.0161 224.698 86.0161C223.897 86.0161 223.248 84.9951 223.248 83.7351C223.248 82.4761 223.897 81.4551 224.698 81.4551C225.498 81.4551 226.148 82.4761 226.148 83.7351Z" fill="#18315B"/>
<path d="M244.049 83.7351C244.049 84.9941 243.4 86.0161 242.599 86.0161C241.798 86.0161 241.149 84.9951 241.149 83.7351C241.149 82.4761 241.798 81.4551 242.599 81.4551C243.4 81.4551 244.049 82.4761 244.049 83.7351Z" fill="#18315B"/>
<path d="M221.826 76.9461C223.03 76.6061 225.462 76.0241 228.028 76.0171C228.703 76.0151 229.22 76.6151 229.101 77.2801L229.098 77.2971C229.003 77.8281 228.528 78.2031 227.989 78.1781C226.243 78.0971 221.661 78.3421 219.497 79.2191C219.453 78.8431 219.675 78.4311 219.99 78.0661C220.468 77.5111 221.122 77.1451 221.826 76.9461Z" fill="#18315B"/>
<path d="M245.251 76.993C244.046 76.653 241.615 76.071 239.049 76.064C238.374 76.062 237.857 76.662 237.976 77.327L237.979 77.344C238.074 77.875 238.549 78.25 239.087 78.225C240.833 78.144 245.415 78.389 247.579 79.266C247.623 78.89 247.401 78.478 247.086 78.112C246.609 77.557 245.954 77.191 245.251 76.993Z" fill="#18315B"/>
<path d="M233.999 94.1392C233.57 94.1392 233.139 94.0632 232.78 93.8482C232.453 93.6522 232.045 93.2552 231.965 92.4802C231.752 90.4202 232.279 83.9632 232.302 83.6892C232.327 83.3802 232.598 83.1512 232.907 83.1762C233.216 83.2012 233.445 83.4722 233.42 83.7812C233.414 83.8472 232.879 90.4082 233.081 92.3652C233.116 92.7052 233.255 92.8262 233.357 92.8872C233.883 93.2022 235.099 92.8802 235.605 92.6752C235.891 92.5572 236.219 92.6962 236.335 92.9822C236.452 93.2682 236.315 93.5952 236.028 93.7122C235.882 93.7712 234.945 94.1392 233.999 94.1392Z" fill="#F97853"/>
<path d="M226.88 97.6782C227.304 99.8102 228.712 103.732 233.456 103.732C238.212 103.732 239.546 100.148 240.004 97.6782H226.88Z" fill="white"/>
<path d="M233.389 107.003C232.02 107.003 230.811 106.266 230.76 106.234C230.497 106.071 230.415 105.726 230.578 105.463C230.74 105.2 231.085 105.119 231.348 105.28C231.358 105.286 232.344 105.882 233.389 105.882C234.519 105.882 235.532 105.283 235.542 105.277C235.808 105.118 236.151 105.203 236.311 105.468C236.471 105.732 236.386 106.076 236.122 106.236C236.069 106.268 234.839 107.003 233.389 107.003Z" fill="#F97853"/>
<path d="M257.468 74.036C257.288 74.547 256.788 74.874 256.119 75.069C256.168 76.305 256.038 77.792 255.916 79.217C255.224 87.318 253.181 88.74 252.719 86.737C252.415 85.407 252.433 77.778 252.58 75.29C250.979 75.185 249.611 74.918 249.611 74.918L247.732 67.053L247.074 74.82C244.256 75.801 237.68 74.23 237.68 74.23L235.474 66.478L234.11 73.937C229.883 75.996 224.599 74.625 224.599 74.625L223.385 66.58L220.582 74.625C220.582 74.625 211.564 77.86 211.466 74.625C211.406 72.742 212.785 67.44 213.95 63.333C215.22 58.854 218.162 55.07 222.142 52.936C233.328 46.931 245.158 50.125 249.216 52.549C257.821 57.686 257.468 74.036 257.468 74.036Z" fill="#18315B"/>
<path d="M216.433 57.7012C216.433 57.7012 209.009 66.5312 206.566 82.3022C204.123 98.0732 200.741 109.725 210.245 114.933C220.531 120.569 219.64 109.01 219.492 105.868C219.344 102.726 210.595 94.1392 216.433 69.9532C218.318 62.1452 216.433 57.7012 216.433 57.7012Z" fill="#18315B"/>
<path d="M214.698 90.291C214.698 90.291 214.698 90.299 214.698 90.31C214.702 90.427 214.709 91.054 214.754 92.035C214.777 92.644 214.814 93.384 214.87 94.226C215.22 99.539 216.253 108.716 219.289 111.898C220.488 113.157 222.799 113.788 225.519 114.044V109.869C222.652 108.509 220.416 106.273 218.684 103.522C217.613 101.203 215.768 97.574 214.904 91.866L214.698 90.291Z" fill="#000B29"/>
<path d="M255.345 95.4531C255.345 96.1781 254.757 96.7661 254.032 96.7661C253.307 96.7661 252.719 96.1781 252.719 95.4531C252.719 94.7281 253.307 94.1401 254.032 94.1401C254.757 94.1401 255.345 94.7271 255.345 95.4531Z" fill="white"/>
<path d="M282.105 194.374C278.386 205.022 261.728 204.247 242.756 198.426C242.729 198.418 242.701 198.408 242.674 198.401C242.614 198.384 242.557 198.364 242.497 198.346L239.887 197.514C239.527 197.397 239.165 197.277 238.805 197.154C236.76 196.469 234.701 195.729 232.633 194.944C225.854 192.369 219.023 189.317 212.581 186.063L212.626 185.951L214.566 180.912L215.228 179.197C215.228 179.197 250.4 183.029 268.084 179.332C268.384 179.269 268.676 179.207 268.964 179.14C268.894 178.748 268.872 178.347 268.762 177.973C259.392 146.073 269.639 139.957 273.069 135.508C273.069 135.506 289.127 174.272 282.105 194.374Z" fill="#009CF8"/>
<path d="M276.374 184.501C276.269 184.551 276.157 184.576 276.046 184.576C275.769 184.576 275.501 184.421 275.371 184.156C274.031 181.411 269.482 179.779 268.085 179.332C268.385 179.269 268.677 179.207 268.965 179.14C268.895 178.748 268.828 178.358 268.763 177.973C270.54 178.56 275.182 180.35 276.719 183.5C276.901 183.868 276.746 184.318 276.374 184.501Z" fill="#006BDE"/>
<path d="M227.112 183.164C219.934 183.164 214.105 182.751 213.597 182.714C213.184 182.684 212.874 182.325 212.904 181.912C212.934 181.499 213.293 181.192 213.707 181.219C213.972 181.238 240.355 183.104 250.757 178.885C251.14 178.73 251.578 178.914 251.734 179.298C251.889 179.682 251.705 180.119 251.321 180.275C245.562 182.61 235.431 183.164 227.112 183.164Z" fill="#006BDE"/>
<path d="M239.887 197.513C239.89 197.513 239.89 197.513 239.89 197.513C245.909 195.853 251.381 194.236 254.54 193.224C258.927 191.817 262.556 187.383 264.206 183.613C264.371 183.233 264.813 183.061 265.193 183.228C265.573 183.393 265.745 183.835 265.58 184.215C263.795 188.292 259.831 193.101 254.997 194.653C252.704 195.388 249.202 196.438 245.155 197.593C243.43 198.087 241.596 198.059 239.887 197.513Z" fill="#006BDE"/>
<path d="M256.112 192.357C201.756 210.664 185.034 198.683 185.034 198.683C181.375 165.591 194.86 135.833 194.86 135.833C198.844 142.402 203.349 153.868 203.349 153.868L204.539 179.234L204.449 179.939L204.406 180.271L204.181 182.006L204.176 182.041C204.291 182.066 204.408 182.091 204.526 182.116C220.968 185.585 251.038 181.709 251.038 181.709L256.112 192.357Z" fill="#009CF8"/>
<path d="M204.526 182.116C201.591 184.576 198.804 187.41 196.32 190.667C196.07 190.997 195.598 191.062 195.268 190.81C194.938 190.56 194.876 190.09 195.123 189.76C195.126 189.76 195.126 189.757 195.126 189.757C197.918 186.09 201.082 182.951 204.407 180.271L204.182 182.006L204.177 182.041C204.291 182.066 204.408 182.091 204.526 182.116Z" fill="#006BDE"/>
<path d="M251.038 181.709C251.038 181.709 257.056 168.039 266.205 169.256L268.964 179.14C263.956 181.267 263.223 189.854 256.113 192.357L251.038 181.709Z" fill="#FFA681"/>
<path d="M215.23 179.197C215.23 179.197 211.43 170.277 201.428 167.688C191.426 165.098 185.054 169.812 184.383 171.59C183.712 173.369 188.155 171.669 188.155 171.669C188.155 171.669 185.261 172.488 183.601 175.208C181.941 177.928 187.642 174.993 187.642 174.993C187.642 174.993 183.554 176.785 183.034 178.446C182.514 180.107 187.906 177.301 188.919 177.354C188.919 177.354 184.104 179.268 184.137 180.982C184.17 182.696 189.668 179.901 193.773 180.122C197.879 180.343 204.174 182.044 204.174 182.044C207.534 182.683 210.745 183.157 213.65 183.291L215.23 179.197Z" fill="#FFA681"/>
<path d="M311.81 40.5027C308.108 40.5027 305.096 37.4907 305.096 33.7887C305.096 30.0867 308.108 27.0747 311.81 27.0747C315.512 27.0747 318.524 30.0867 318.524 33.7887C318.524 37.4907 315.512 40.5027 311.81 40.5027ZM311.81 29.1817C309.269 29.1817 307.202 31.2487 307.202 33.7897C307.202 36.3307 309.269 38.3967 311.81 38.3967C314.351 38.3967 316.417 36.3297 316.417 33.7897C316.418 31.2487 314.351 29.1817 311.81 29.1817Z" fill="#006BDE"/>
<path d="M370.385 29.0969C366.683 29.0969 363.671 26.0849 363.671 22.3829C363.671 18.6809 366.683 15.6689 370.385 15.6689C374.087 15.6689 377.099 18.6809 377.099 22.3829C377.099 26.0849 374.087 29.0969 370.385 29.0969ZM370.385 17.7759C367.844 17.7759 365.777 19.8429 365.777 22.3839C365.777 24.9249 367.844 26.9919 370.385 26.9919C372.925 26.9919 374.992 24.9249 374.992 22.3839C374.993 19.8419 372.926 17.7759 370.385 17.7759Z" fill="#009CF8"/>
<path d="M378.68 50.9141C378.099 50.9141 377.627 50.4431 377.627 49.8611V45.2171C377.627 44.6351 378.099 44.1641 378.68 44.1641C379.262 44.1641 379.733 44.6351 379.733 45.2171V49.8611C379.733 50.4421 379.262 50.9141 378.68 50.9141Z" fill="#006BDE"/>
<path d="M378.68 59.041C378.099 59.041 377.627 58.57 377.627 57.988V53.344C377.627 52.762 378.099 52.291 378.68 52.291C379.262 52.291 379.733 52.762 379.733 53.344V57.988C379.733 58.57 379.262 59.041 378.68 59.041Z" fill="#006BDE"/>
<path d="M385.2 52.6548H381.028C380.446 52.6548 379.975 52.1838 379.975 51.6018C379.975 51.0198 380.447 50.5488 381.028 50.5488H385.2C385.781 50.5488 386.253 51.0198 386.253 51.6018C386.253 52.1838 385.782 52.6548 385.2 52.6548Z" fill="#006BDE"/>
<path d="M376.333 52.6548H372.161C371.58 52.6548 371.108 52.1838 371.108 51.6018C371.108 51.0198 371.58 50.5488 372.161 50.5488H376.333C376.915 50.5488 377.386 51.0198 377.386 51.6018C377.386 52.1838 376.915 52.6548 376.333 52.6548Z" fill="#006BDE"/>
<path d="M343.218 22.7788C342.636 22.7788 342.165 22.3068 342.165 21.7258V17.0818C342.165 16.4998 342.637 16.0288 343.218 16.0288C343.799 16.0288 344.271 16.4998 344.271 17.0818V21.7258C344.271 22.3068 343.8 22.7788 343.218 22.7788Z" fill="#1C31B5"/>
<path d="M343.218 30.9058C342.636 30.9058 342.165 30.4348 342.165 29.8528V25.2088C342.165 24.6268 342.637 24.1558 343.218 24.1558C343.799 24.1558 344.271 24.6268 344.271 25.2088V29.8528C344.271 30.4348 343.8 30.9058 343.218 30.9058Z" fill="#1C31B5"/>
<path d="M349.737 24.521H345.565C344.984 24.521 344.512 24.049 344.512 23.468C344.512 22.886 344.984 22.415 345.565 22.415H349.737C350.319 22.415 350.79 22.886 350.79 23.468C350.79 24.049 350.319 24.521 349.737 24.521Z" fill="#1C31B5"/>
<path d="M340.871 24.521H336.699C336.117 24.521 335.646 24.049 335.646 23.468C335.646 22.886 336.118 22.415 336.699 22.415H340.871C341.453 22.415 341.924 22.886 341.924 23.468C341.925 24.049 341.453 24.521 340.871 24.521Z" fill="#1C31B5"/>
<path d="M71.8433 16.754C71.8433 13.052 74.8553 10.04 78.5573 10.04C82.2593 10.04 85.2713 13.052 85.2713 16.754C85.2713 20.456 82.2593 23.468 78.5573 23.468C74.8553 23.467 71.8433 20.456 71.8433 16.754ZM73.9503 16.754C73.9503 19.295 76.0173 21.361 78.5573 21.361C81.0983 21.361 83.1643 19.294 83.1643 16.754C83.1643 14.213 81.0973 12.146 78.5573 12.146C76.0173 12.146 73.9503 14.213 73.9503 16.754Z" fill="#006BDE"/>
<path d="M44.8818 42.3439C44.8818 38.6419 47.8938 35.6299 51.5958 35.6299C55.2978 35.6299 58.3098 38.6419 58.3098 42.3439C58.3098 46.0459 55.2978 49.0579 51.5958 49.0579C47.8928 49.0579 44.8818 46.0459 44.8818 42.3439ZM46.9878 42.3439C46.9878 44.8849 49.0548 46.9509 51.5958 46.9509C54.1368 46.9509 56.2028 44.8839 56.2028 42.3439C56.2028 39.8029 54.1358 37.7359 51.5958 37.7359C49.0548 37.7359 46.9878 39.8029 46.9878 42.3439Z" fill="#009CF8"/>
<path d="M30.9231 51.7651C31.5051 51.7651 31.9761 51.2941 31.9761 50.7121V46.0681C31.9761 45.4861 31.5041 45.0151 30.9231 45.0151C30.3421 45.0151 29.8701 45.4861 29.8701 46.0681V50.7121C29.8701 51.2941 30.3421 51.7651 30.9231 51.7651Z" fill="#006BDE"/>
<path d="M30.9231 59.8931C31.5051 59.8931 31.9761 59.4221 31.9761 58.8401V54.1961C31.9761 53.6141 31.5041 53.1431 30.9231 53.1431C30.3421 53.1431 29.8701 53.6141 29.8701 54.1961V58.8401C29.8701 59.4211 30.3421 59.8931 30.9231 59.8931Z" fill="#006BDE"/>
<path d="M24.4041 53.5074H28.5761C29.1581 53.5074 29.6291 53.0354 29.6291 52.4544C29.6291 51.8724 29.1571 51.4014 28.5761 51.4014H24.4041C23.8231 51.4014 23.3511 51.8724 23.3511 52.4544C23.3511 53.0354 23.8231 53.5074 24.4041 53.5074Z" fill="#006BDE"/>
<path d="M33.2703 53.5074H37.4423C38.0243 53.5074 38.4953 53.0354 38.4953 52.4544C38.4953 51.8724 38.0233 51.4014 37.4423 51.4014H33.2703C32.6883 51.4014 32.2173 51.8724 32.2173 52.4544C32.2173 53.0354 32.6893 53.5074 33.2703 53.5074Z" fill="#006BDE"/>
<path d="M55.1902 16.0649C55.7712 16.0649 56.2432 15.5939 56.2432 15.0119V10.3679C56.2432 9.78594 55.7712 9.31494 55.1902 9.31494C54.6092 9.31494 54.1372 9.78594 54.1372 10.3679V15.0119C54.1372 15.5939 54.6082 16.0649 55.1902 16.0649Z" fill="#1C31B5"/>
<path d="M55.1902 24.1929C55.7712 24.1929 56.2432 23.7219 56.2432 23.1399V18.4959C56.2432 17.9139 55.7712 17.4429 55.1902 17.4429C54.6092 17.4429 54.1372 17.9149 54.1372 18.4959V23.1399C54.1372 23.7209 54.6082 24.1929 55.1902 24.1929Z" fill="#1C31B5"/>
<path d="M48.6712 17.8072H52.8432C53.4242 17.8072 53.8962 17.3362 53.8962 16.7542C53.8962 16.1722 53.4242 15.7012 52.8432 15.7012H48.6712C48.0892 15.7012 47.6182 16.1732 47.6182 16.7542C47.6182 17.3352 48.0892 17.8072 48.6712 17.8072Z" fill="#1C31B5"/>
<path d="M57.5374 17.8072H61.7094C62.2914 17.8072 62.7624 17.3362 62.7624 16.7542C62.7624 16.1722 62.2904 15.7012 61.7094 15.7012H57.5374C56.9554 15.7012 56.4844 16.1732 56.4844 16.7542C56.4844 17.3352 56.9554 17.8072 57.5374 17.8072Z" fill="#1C31B5"/>
<path d="M255.965 17.2361C255.843 17.2491 255.717 17.2321 255.596 17.1811C254.318 16.6421 253.569 16.39 253.561 16.387C253.169 16.256 252.958 15.833 253.088 15.441C253.219 15.049 253.642 14.838 254.034 14.968C254.066 14.979 254.839 15.238 256.177 15.802C256.557 15.963 256.736 16.4011 256.575 16.7821C256.466 17.0431 256.227 17.2081 255.965 17.2361Z" fill="#BBE2F2"/>
<path d="M294.074 57.3452C294.583 58.7022 295.059 60.1012 295.49 61.5042C295.597 61.8512 295.934 62.0652 296.283 62.0282C296.33 62.0232 296.378 62.0132 296.425 61.9992C296.82 61.8782 297.041 61.4592 296.92 61.0652C296.48 59.6332 295.994 58.2052 295.475 56.8212C295.33 56.4352 294.901 56.2392 294.513 56.3832C294.125 56.5272 293.929 56.9582 294.074 57.3452Z" fill="#BBE2F2"/>
<path d="M296.655 65.74C296.998 67.145 297.307 68.591 297.576 70.039C297.648 70.425 298.005 70.687 298.389 70.646C298.408 70.644 298.428 70.641 298.447 70.638C298.853 70.562 299.121 70.172 299.046 69.766C298.773 68.291 298.457 66.817 298.108 65.385C298.01 64.984 297.605 64.738 297.204 64.836C296.803 64.934 296.558 65.339 296.655 65.74Z" fill="#BBE2F2"/>
<path d="M299.809 88.322C300.18 88.283 300.471 87.972 300.477 87.59C300.5 86.09 300.489 84.584 300.445 83.115C300.433 82.702 300.088 82.378 299.675 82.39C299.257 82.405 298.938 82.747 298.95 83.16C298.994 84.606 299.004 86.089 298.982 87.567C298.976 87.98 299.305 88.32 299.718 88.326C299.749 88.327 299.779 88.325 299.809 88.322Z" fill="#BBE2F2"/>
<path d="M298.903 73.5453C298.493 73.5983 298.204 73.9733 298.258 74.3833C298.346 75.0593 298.426 75.7423 298.497 76.4133C298.579 77.1873 298.652 77.9783 298.713 78.7623C298.745 79.1743 299.105 79.4813 299.517 79.4493C299.524 79.4483 299.53 79.4483 299.537 79.4473C299.938 79.4053 300.235 79.0503 300.204 78.6453C300.141 77.8483 300.068 77.0443 299.985 76.2563C299.913 75.5733 299.831 74.8783 299.742 74.1903C299.69 73.7873 299.325 73.5003 298.923 73.5433C298.916 73.5443 298.909 73.5443 298.903 73.5453Z" fill="#BBE2F2"/>
<path d="M292.406 53.2819C292.541 53.5849 292.854 53.7529 293.167 53.7199C293.243 53.7119 293.32 53.6919 293.394 53.6589C293.771 53.4899 293.94 53.0479 293.771 52.6709C293.162 51.3089 292.502 49.9509 291.81 48.6359C291.618 48.2699 291.166 48.1299 290.8 48.3219C290.435 48.5139 290.294 48.9659 290.486 49.3319C291.164 50.6199 291.809 51.9479 292.406 53.2819Z" fill="#BBE2F2"/>
<path d="M259.568 19.0401C260.852 19.6961 262.148 20.4101 263.42 21.1631C263.564 21.2481 263.725 21.2801 263.879 21.2631C264.106 21.2391 264.319 21.1121 264.445 20.9001C264.655 20.5451 264.538 20.0861 264.183 19.8761C262.885 19.1071 261.561 18.3781 260.25 17.7081C259.883 17.5211 259.432 17.6661 259.244 18.0341C259.055 18.4011 259.2 18.8511 259.568 19.0401Z" fill="#BBE2F2"/>
<path d="M270.712 26.081C270.87 26.202 271.061 26.25 271.244 26.23C271.441 26.209 271.63 26.11 271.76 25.94C272.011 25.612 271.948 25.142 271.619 24.892C270.435 23.988 269.209 23.108 267.975 22.275C267.632 22.044 267.168 22.134 266.937 22.477C266.706 22.819 266.796 23.284 267.139 23.515C268.349 24.331 269.551 25.195 270.712 26.081Z" fill="#BBE2F2"/>
<path d="M283.277 38.3238C283.442 38.5308 283.695 38.6258 283.94 38.5998C284.077 38.5848 284.212 38.5328 284.328 38.4398C284.65 38.1818 284.703 37.7109 284.444 37.3889C283.515 36.2289 282.535 35.0798 281.531 33.9758C281.254 33.6698 280.781 33.6468 280.475 33.9248C280.169 34.2028 280.147 34.6758 280.425 34.9808C281.407 36.0628 282.367 37.1878 283.277 38.3238Z" fill="#BBE2F2"/>
<path d="M277.37 31.8219C277.536 31.9829 277.757 32.0519 277.971 32.0299C278.139 32.0119 278.301 31.9379 278.428 31.8079C278.716 31.5119 278.709 31.0389 278.414 30.7509C277.351 29.7159 276.237 28.6969 275.104 27.7199C274.791 27.4499 274.319 27.4859 274.05 27.7979C273.78 28.1109 273.815 28.5829 274.128 28.8519C275.237 29.8089 276.328 30.8079 277.37 31.8219Z" fill="#BBE2F2"/>
<path d="M288.32 45.5121C288.476 45.7671 288.759 45.8961 289.037 45.8661C289.144 45.8551 289.25 45.8201 289.348 45.7611C289.7 45.5461 289.812 45.0851 289.596 44.7331C288.82 43.4621 287.993 42.1991 287.138 40.9791C286.901 40.6411 286.435 40.5591 286.096 40.7961C285.758 41.0331 285.676 41.5001 285.913 41.8381C286.75 43.0321 287.56 44.2681 288.32 45.5121Z" fill="#BBE2F2"/>
<path d="M255.95 12.12L259.223 0L219.125 0.343994L255.95 12.12Z" fill="#009CF8"/>
<path d="M219.125 0.342773L254.004 15.0458L254.096 15.0858L255.597 17.5708L255.95 12.1198L219.125 0.342773Z" fill="#006BDE"/>
<path d="M255.597 17.5709L252.346 17.0589L254.096 15.0859L255.597 17.5709Z" fill="#006BDE"/>
<path d="M249.708 13.2348L254.097 15.0848L245.058 25.2698L219.125 0.34375L249.708 13.2348Z" fill="#009CF8"/>
<path d="M440.33 330.984V331.715C440.33 335.929 436.912 339.347 432.696 339.347H36.7482C32.5312 339.347 29.1162 335.929 29.1162 331.715V330.984C29.1162 326.77 32.5312 323.352 36.7482 323.352H432.696C436.913 323.353 440.33 326.77 440.33 330.984Z" fill="#1C31B5"/>
<path d="M440.33 330.984V331.349H29.1162V330.984C29.1162 326.77 32.5312 323.352 36.7482 323.352H432.696C436.913 323.353 440.33 326.77 440.33 330.984Z" fill="#006BDE"/>
<path d="M295.319 299.343H170.933C167.961 299.343 165.552 296.934 165.552 293.962V228.885C165.552 225.913 167.961 223.504 170.933 223.504H295.318C298.29 223.504 300.699 225.913 300.699 228.885V293.962C300.7 296.934 298.29 299.343 295.319 299.343Z" fill="#18315B"/>
<path d="M243.592 299.257H222.661V323.118H243.592V299.257Z" fill="#000B29"/>
<path d="M232.892 272.741C238.629 272.741 243.28 268.09 243.28 262.353C243.28 256.616 238.629 251.965 232.892 251.965C227.155 251.965 222.504 256.616 222.504 262.353C222.504 268.09 227.155 272.741 232.892 272.741Z" fill="#1D567E"/>
<path d="M259.785 323.117H205.797V321.298C205.797 317.628 208.772 314.652 212.442 314.652H253.139C256.809 314.652 259.784 317.627 259.784 321.298V323.117H259.785Z" fill="#18315B"/>
</svg>
