<svg width="80" height="80" viewBox="0 0 80 80" fill="none" xmlns="http://www.w3.org/2000/svg">
<g clip-path="url(#clip0_544_911)">
<path d="M3.74977 40.7812C17.8263 40.7812 31.9029 40.7812 46.406 40.7812C47.1357 46.8011 47.1357 46.8011 47.2263 48.5938C47.2349 48.7532 47.2349 48.7532 47.2437 48.9159C47.4225 52.2634 47.4173 55.6084 47.2263 58.9551C47.2206 59.0594 47.2148 59.1638 47.2089 59.2713C47.1351 60.5545 47.0024 61.8168 46.8107 63.0878C46.7742 63.3441 46.7378 63.6005 46.7016 63.8569C46.6319 64.3491 46.5503 64.8371 46.4614 65.3261C46.3583 65.9786 46.3054 66.5302 46.406 67.1875C46.8899 67.8078 47.4648 68.1776 48.1248 68.5938C49.4358 69.8062 50.2332 71.3138 50.3513 73.0859C50.3352 74.0338 50.0745 74.8437 49.5115 75.6055C48.4994 76.3536 47.2487 76.5069 46.0252 76.6504C45.8657 76.6696 45.7062 76.6888 45.5418 76.7086C44.1337 76.8679 42.7227 76.9672 41.3084 77.0508C41.1091 77.0626 40.9098 77.0744 40.7045 77.0865C40.1371 77.1173 39.5698 77.1449 39.0021 77.1696C38.7199 77.182 38.4377 77.1948 38.1556 77.2081C34.2488 77.3867 30.3393 77.373 26.4294 77.3727C25.6574 77.3727 24.8854 77.3738 24.1134 77.3759C20.0864 77.3869 16.0654 77.3678 12.0414 77.1997C11.886 77.1932 11.7305 77.1868 11.5704 77.1801C2.3284 76.7856 2.3284 76.7856 0.624765 75.625C-0.0796236 74.7289 -0.124139 73.581 -0.0869048 72.4847C0.196553 70.4906 1.45999 69.1648 2.86697 67.8435C3.19204 67.6074 3.53 67.4808 3.90602 67.3438C3.88872 67.2269 3.87142 67.1101 3.8536 66.9898C2.7895 59.7343 2.55213 52.465 3.19312 45.1562C3.20272 45.0447 3.21233 44.9332 3.22222 44.8184C3.25042 44.4947 3.27981 44.1712 3.3097 43.8477C3.33521 43.5703 3.33521 43.5703 3.36124 43.2874C3.46234 42.4481 3.61079 41.6151 3.74977 40.7812ZM18.6912 48.1641C17.487 49.6323 16.9686 51.1464 17.0832 53.0272C17.1943 55.0334 17.1943 55.0334 16.7228 55.8392C16.3231 56.2161 15.9046 56.5416 15.4685 56.875C13.9446 58.6985 13.0073 60.8553 13.0698 63.2483C13.2192 64.6129 13.7763 65.9291 14.8386 66.8207C16.3226 67.8893 17.8635 68.1615 19.6561 67.9065C21.6678 67.4873 23.5786 66.4843 24.9998 65C25.1738 65.0641 25.3478 65.1281 25.5271 65.1941C28.3346 66.198 30.9506 66.6777 33.7827 65.3961C35.3159 64.5522 36.2758 63.2571 36.8174 61.6113C37.0501 60.8002 37.1155 60.0404 37.1091 59.1992C37.1081 59.0569 37.1071 58.9146 37.1061 58.7679C37.0213 55.5835 35.3934 52.9045 33.281 50.625C33.1652 50.4965 33.0494 50.368 32.9301 50.2356C30.6327 47.7992 27.3132 46.1549 23.9548 46.0547C21.9743 46.0794 20.0723 46.7001 18.6912 48.1641Z" fill="#D97706"/>
<path d="M6.61854 27.9468C6.78136 27.9463 6.94418 27.9458 7.11194 27.9454C7.65743 27.944 8.20292 27.9438 8.74842 27.9435C9.1396 27.9428 9.53078 27.942 9.92196 27.9412C10.9847 27.9391 12.0475 27.9381 13.1103 27.9374C13.7746 27.937 14.4388 27.9363 15.1031 27.9356C16.944 27.9337 18.7849 27.9321 20.6258 27.9316C20.8024 27.9315 20.8024 27.9315 20.9825 27.9315C21.1595 27.9314 21.1595 27.9314 21.3401 27.9314C21.5792 27.9313 21.8183 27.9312 22.0574 27.9312C22.176 27.9311 22.2946 27.9311 22.4168 27.9311C24.3373 27.9304 26.2577 27.9277 28.1782 27.9241C30.1522 27.9204 32.1262 27.9184 34.1003 27.9182C35.2077 27.9181 36.315 27.9172 37.4224 27.9144C38.4646 27.9117 39.5067 27.9115 40.5489 27.9128C40.9306 27.9129 41.3123 27.9123 41.694 27.9107C42.2167 27.9087 42.7394 27.9097 43.2621 27.9113C43.4117 27.91 43.5612 27.9088 43.7153 27.9075C45.3935 27.9196 46.9943 28.2439 48.2811 29.375C49.3999 30.56 49.775 31.8192 49.7557 33.4179C49.7544 33.5559 49.7531 33.694 49.7518 33.8362C49.7075 35.5414 49.1852 36.6207 47.9686 37.8125C46.8615 38.8628 45.6672 38.9754 44.2127 38.9668C44.0423 38.9676 43.8718 38.9685 43.6962 38.9693C43.1268 38.9716 42.5575 38.9705 41.9881 38.9693C41.5792 38.9702 41.1703 38.9713 40.7614 38.9726C39.767 38.9753 38.7726 38.9754 37.7782 38.9746C36.9697 38.974 36.1613 38.9742 35.3528 38.975C35.18 38.9752 35.18 38.9752 35.0037 38.9754C34.7696 38.9756 34.5355 38.9759 34.3015 38.9761C32.1081 38.9782 29.9147 38.9774 27.7213 38.9756C25.7162 38.974 23.7111 38.9761 21.706 38.9798C19.6453 38.9836 17.5845 38.9851 15.5238 38.9841C14.3676 38.9835 13.2114 38.9839 12.0552 38.9866C10.9681 38.9892 9.88092 38.9884 8.79374 38.9855C8.39497 38.9849 7.9962 38.9854 7.59743 38.987C7.05261 38.9891 6.50793 38.9873 5.96312 38.9845C5.72705 38.9868 5.72705 38.9868 5.48622 38.9891C3.97195 38.9733 2.64792 38.4133 1.56237 37.3437C0.351454 35.7435 0.152677 34.1549 0.312366 32.1875C0.568233 30.9033 1.18185 29.9004 2.18737 29.0625C3.66324 28.1425 4.91522 27.9452 6.61854 27.9468Z" fill="#D97706"/>
<path d="M79.0625 3.90626C79.8325 4.65392 80.0623 5.35001 80.0977 6.41603C80.0372 7.75147 79.6048 8.53303 78.75 9.53126C72.5403 15.0389 61.9919 15.7631 54.166 17.1937C53.6755 17.2835 53.1851 17.3734 52.6947 17.4634C52.5764 17.4851 52.458 17.5067 52.3361 17.5291C50.6996 17.8295 49.0707 18.1528 47.4489 18.5259C47.3184 18.5557 47.1878 18.5855 47.0533 18.6162C46.9422 18.6422 46.8312 18.6682 46.7167 18.695C46.4062 18.75 46.4062 18.75 45.7812 18.75C45.7867 18.58 45.7921 18.41 45.7977 18.2349C45.8553 15.7162 45.2312 13.9222 44.0625 11.7188C43.9578 11.5107 43.8535 11.3024 43.75 11.0938C43.8947 11.0492 44.0394 11.0047 44.1884 10.9588C47.1593 10.0422 50.1135 9.08747 53.0469 8.05665C53.1868 8.00755 53.3266 7.95845 53.4708 7.90787C54.1744 7.66081 54.8778 7.41331 55.5812 7.16554C74.6486 0.450003 74.6486 0.450004 79.0625 3.90626Z" fill="#D97706"/>
<path d="M31.5625 16.0937C32.8086 17.1532 33.9674 18.3172 35.121 19.4756C35.3634 19.7188 35.6066 19.9612 35.8499 20.2035C36.5933 20.9464 37.316 21.6974 37.9995 22.4965C38.6052 23.1755 39.2643 23.8048 39.9121 24.4433C40.1955 24.7227 40.4785 25.0024 40.7611 25.2825C40.8851 25.4047 41.009 25.5268 41.1367 25.6526C41.4062 25.9374 41.4062 25.9374 41.4062 26.0937C30.6297 26.0937 19.8531 26.0937 8.75 26.0937C9.80286 24.8653 9.80286 24.8653 10.39 24.2876C10.516 24.1629 10.642 24.0381 10.7718 23.9095C11.0314 23.654 11.291 23.3984 11.5506 23.1429C12.1082 22.5907 12.6585 22.0405 13.1689 21.444C13.9121 20.5797 14.7132 19.7714 15.5148 18.9617C15.6978 18.776 15.88 18.5896 16.0614 18.4023C20.2526 14.0743 26.2918 12.4635 31.5625 16.0937ZM26.5625 18.1249C26.3677 18.5776 26.3677 18.5776 26.4062 19.0624C26.6307 19.4562 26.6307 19.4562 27.0312 19.6874C27.5067 19.7916 27.5067 19.7916 27.9688 19.6874C28.3288 19.3633 28.4211 19.1446 28.5156 18.6718C28.4681 18.2428 28.4681 18.2428 28.0664 17.9198C27.4246 17.5072 27.1497 17.6732 26.5625 18.1249ZM20 19.3749C19.8052 19.8276 19.8052 19.8276 19.8438 20.3124C20.0583 20.7093 20.0583 20.7093 20.4688 20.9374C21.0223 21.0416 21.0223 21.0416 21.5625 20.9374C21.9335 20.6142 22.0136 20.4008 22.1094 19.9218C22.0615 19.4946 22.0615 19.4946 21.6699 19.1698C20.9897 18.7427 20.6044 18.8978 20 19.3749ZM16.0938 21.8749C15.8989 22.3276 15.8989 22.3276 15.9375 22.8124C16.162 23.2062 16.162 23.2062 16.5625 23.4374C17.0379 23.5416 17.0379 23.5416 17.5 23.4374C17.8675 23.1066 17.956 22.8998 18.0273 22.412C17.9976 22.0281 17.9976 22.0281 17.7734 21.7577C17.1166 21.2886 16.7159 21.3537 16.0938 21.8749ZM30 22.3437C29.8052 22.7963 29.8052 22.7963 29.8438 23.2812C30.0583 23.678 30.0583 23.678 30.4688 23.9062C31.0223 24.0103 31.0223 24.0103 31.5625 23.9062C31.9335 23.583 32.0136 23.3696 32.1094 22.8905C32.0615 22.4633 32.0615 22.4633 31.6699 22.1386C30.9897 21.7115 30.6044 21.8665 30 22.3437ZM22.5 22.6562C22.3052 23.1088 22.3052 23.1088 22.3438 23.5937C22.5682 23.9874 22.5682 23.9874 22.9688 24.2187C23.4442 24.3229 23.4442 24.3229 23.9062 24.2187C24.2663 23.8946 24.3586 23.6759 24.4531 23.203C24.4056 22.7741 24.4056 22.7741 24.0039 22.4511C23.3621 22.0385 23.0872 22.2045 22.5 22.6562Z" fill="#D97706"/>
<path d="M37.6562 9.53132C37.9167 9.6138 37.9167 9.6138 38.1824 9.69794C39.3437 10.1043 40.2811 10.6546 41.25 11.4063C41.3886 11.4998 41.5271 11.5932 41.6699 11.6895C43.0701 13.014 43.902 14.8104 44.0625 16.7188C44.0881 19.218 43.2199 21.2727 41.5625 23.1251C40.8811 23.059 40.5626 22.613 40.1404 22.1265C39.9731 21.9399 39.8054 21.7537 39.6373 21.5678C39.5457 21.4664 39.454 21.3651 39.3596 21.2606C38.4569 20.2791 37.5105 19.3379 36.5712 18.3916C36.3177 18.1355 36.0651 17.8786 35.8133 17.6208C32.1477 13.8697 28.6747 12.2969 23.4375 12.1876C25.009 10.8563 26.9418 10.0784 28.9062 9.53132C29.0779 9.48137 29.2495 9.43142 29.4263 9.37995C31.9915 8.74742 35.1323 8.71086 37.6562 9.53132Z" fill="#D97706"/>
<path d="M19.3748 50.9375C19.8754 51.4069 20.2845 51.8895 20.6931 52.4414C22.3821 54.5636 24.9466 55.8957 27.2306 57.2803C29.6962 58.7825 32.0899 60.3802 33.281 63.125C32.6458 63.8223 31.8305 64.0718 30.9019 64.1302C30.6728 64.1339 30.4437 64.134 30.2146 64.1309C30.0924 64.1296 29.9702 64.1283 29.8444 64.1269C27.2535 64.0527 25.2336 62.8651 23.281 61.25C23.1423 61.1455 23.1423 61.1455 23.0009 61.0388C21.1479 59.5887 19.4068 56.7356 19.0623 54.375C18.9905 53.1845 18.934 52.0683 19.3748 50.9375Z" fill="#D97706"/>
<path d="M29.8206 50.1428C30.2111 50.444 30.575 50.7594 30.9375 51.0937C31.0785 51.2204 31.2195 51.3471 31.3648 51.4776C33.1048 53.1192 34.8701 55.5122 35.0202 57.9898C35.0205 58.1655 35.0205 58.1655 35.0208 58.3447C35.021 58.4738 35.0212 58.6029 35.0214 58.7359C35.0208 58.8695 35.0202 59.003 35.0196 59.1406C35.0202 59.2741 35.0208 59.4077 35.0214 59.5453C35.0212 59.6744 35.021 59.8035 35.0208 59.9365C35.0206 60.0536 35.0204 60.1708 35.0202 60.2914C34.9998 60.6286 34.9362 60.9257 34.8438 61.25C34.2371 61.0161 34.0059 60.6813 33.6524 60.1465C31.8468 57.6094 28.9075 56.0909 26.2725 54.5424C25.2566 53.9371 24.3467 53.2546 23.4375 52.5C23.2457 52.3499 23.0537 52.2001 22.8614 52.0508C22.0419 51.3439 21.3737 50.3639 20.9375 49.375C20.9278 49.0527 20.9278 49.0527 21.0938 48.75C23.9792 47.2518 27.3019 48.4522 29.8206 50.1428Z" fill="#D97706"/>
<path d="M17.8125 57.3438C18.2507 57.731 18.489 58.1567 18.7597 58.6719C19.0027 59.1319 19.2423 59.5667 19.5312 60C19.4229 61.4111 18.0072 62.8092 17.0312 63.75C15.9962 64.5312 15.9962 64.5312 15.4687 64.5312C14.9307 63.3648 14.9971 62.0445 15.4004 60.8398C15.9564 59.4939 16.7316 58.3191 17.8125 57.3438Z" fill="#D97706"/>
<path d="M20.9375 61.875C21.7488 62.4692 22.5244 63.0877 23.2812 63.75C22.0728 65.0717 20.5091 65.8407 18.7061 65.976C18.3018 65.9765 17.9031 65.9666 17.5 65.9375C17.5 65.8344 17.5 65.7313 17.5 65.625C17.6987 65.4639 17.9055 65.3126 18.1152 65.166C19.2814 64.2868 20.1698 63.1099 20.9375 61.875Z" fill="#D97706"/>
</g>
<defs>
<clipPath id="clip0_544_911">
<rect width="80" height="80" fill="white"/>
</clipPath>
</defs>
</svg>
