<svg width="80" height="80" viewBox="0 0 80 80" fill="none" xmlns="http://www.w3.org/2000/svg">
<path d="M53.5938 11.7188C54.2443 11.947 54.8632 12.2308 55.4839 12.5285C55.9076 12.7317 56.334 12.9289 56.7602 13.1267C56.9833 13.2304 57.2063 13.3343 57.4292 13.4386C58.4995 13.9387 59.5802 14.4135 60.6639 14.8838C60.9761 15.0193 61.288 15.1555 61.5998 15.2918C62.5179 15.6933 63.4364 16.0936 64.3564 16.4905C64.6518 16.6182 64.9468 16.7466 65.2416 16.8753C65.6033 17.033 65.9656 17.1896 66.3284 17.3448C66.4899 17.4156 66.6513 17.4863 66.8177 17.5592C66.9577 17.6198 67.0977 17.6803 67.242 17.7427C68.2305 18.2821 68.7358 18.8679 69.203 19.8829C69.2553 19.9921 69.3077 20.1013 69.3616 20.2138C69.5254 20.5579 69.6852 20.9036 69.8438 21.25C69.8937 21.3582 69.9435 21.4664 69.9948 21.5779C70.3491 22.3508 70.693 23.128 71.0353 23.9063C71.1429 24.1498 71.2506 24.3933 71.3583 24.6368C72.1857 26.5087 73.0072 28.3833 73.8256 30.2591C73.8682 30.3569 73.9109 30.4546 73.9548 30.5553C74.0752 30.8314 74.1952 31.1076 74.3153 31.3838C74.551 31.9196 74.7953 32.451 75.0463 32.9798C75.2526 33.545 75.2668 34.0999 75.1563 34.6875C74.9122 35.1563 74.9122 35.1563 74.5313 35.4688C73.9845 35.586 73.9845 35.586 73.4376 35.625C72.8323 35.7062 72.586 35.9665 72.1803 36.4118C72.061 36.5382 71.9418 36.6646 71.8189 36.7948C71.5707 37.0623 71.3241 37.3312 71.0792 37.6017C70.0516 38.6819 70.0516 38.6819 69.3043 38.7104C68.7501 38.5938 68.7501 38.5938 68.4376 38.125C68.4203 37.5588 68.4806 37.1805 68.8277 36.7231C69.1333 36.3996 69.4494 36.094 69.7755 35.7911C69.8866 35.6842 69.9977 35.5774 70.1121 35.4673C70.3852 35.2052 70.6611 34.9461 70.9376 34.6875C70.4735 34.4813 70.0095 34.275 69.5313 34.0625C69.3761 34.2202 69.2209 34.3779 69.061 34.5403C68.4825 35.1274 67.9023 35.7129 67.3217 36.298C67.0711 36.5509 66.8209 36.8043 66.5711 37.0582C66.2111 37.4239 65.8496 37.788 65.4878 38.1519C65.3772 38.2649 65.2667 38.3779 65.1527 38.4943C64.0758 39.5715 63.1563 40.1572 61.6084 40.1923C61.1051 40.1417 60.6407 39.986 60.1563 39.8438C60.1568 39.9721 60.1572 40.1005 60.1577 40.2327C60.168 43.3588 60.1758 46.4848 60.1806 49.6108C60.183 51.1226 60.1863 52.6343 60.1917 54.146C60.1964 55.464 60.1994 56.7819 60.2005 58.0999C60.2011 58.7974 60.2025 59.495 60.2059 60.1925C60.2091 60.8498 60.2101 61.507 60.2094 62.1643C60.2095 62.4049 60.2104 62.6454 60.2122 62.8859C60.2338 65.9132 60.2338 65.9132 59.1993 67.0801C59.0779 67.2242 59.0779 67.2242 58.954 67.3713C57.7829 68.2982 56.5988 68.3717 55.1486 68.3617C54.8451 68.3633 54.8451 68.3633 54.5354 68.365C53.9768 68.3679 53.4183 68.3669 52.8598 68.3653C52.2562 68.3642 51.6526 68.3667 51.049 68.3687C49.8677 68.3721 48.6865 68.3721 47.5052 68.3708C46.5448 68.3698 45.5845 68.37 44.6241 68.371C44.4873 68.3712 44.3505 68.3713 44.2095 68.3714C43.9315 68.3717 43.6535 68.372 43.3756 68.3723C40.7704 68.3749 38.1652 68.3735 35.5601 68.3709C33.1782 68.3686 30.7964 68.3709 28.4145 68.3754C25.9669 68.38 23.5193 68.3817 21.0717 68.3802C20.7947 68.3801 20.5177 68.3799 20.2407 68.3797C20.1045 68.3797 19.9682 68.3796 19.8278 68.3795C18.869 68.3792 17.9103 68.3807 16.9516 68.383C15.7825 68.3857 14.6135 68.3857 13.4444 68.3822C12.8483 68.3804 12.2523 68.3799 11.6562 68.3828C11.0091 68.386 10.3622 68.383 9.71518 68.3794C9.52797 68.3813 9.34076 68.3831 9.14787 68.3851C7.84958 68.3706 6.76304 68.1255 5.79061 67.2166C4.94144 66.2984 4.79752 65.4604 4.80206 64.2464C4.80136 64.1075 4.80065 63.9686 4.79992 63.8255C4.79794 63.3601 4.7982 62.8948 4.79845 62.4294C4.79752 62.0957 4.79646 61.762 4.79527 61.4283C4.79251 60.5218 4.79178 59.6153 4.79158 58.7088C4.79129 57.952 4.79013 57.1952 4.78903 56.4384C4.78648 54.6529 4.78572 52.8673 4.78594 51.0817C4.78613 49.2399 4.78283 47.3982 4.7779 45.5564C4.77381 43.975 4.77213 42.3937 4.77233 40.8123C4.77241 39.8679 4.77153 38.9235 4.76822 37.9791C4.76519 37.0907 4.76517 36.2023 4.76744 35.3139C4.76777 34.9882 4.76703 34.6624 4.76514 34.3366C4.76273 33.8913 4.76418 33.4461 4.76659 33.0008C4.76498 32.8724 4.76337 32.744 4.76172 32.6118C4.77388 31.5906 5.06903 30.7869 5.73069 30.0019C5.81508 29.9336 5.89948 29.8653 5.98643 29.795C6.06961 29.7247 6.1528 29.6544 6.2385 29.582C7.11649 29.0214 7.81544 28.8478 8.85626 28.8531C8.97072 28.853 9.08518 28.8529 9.20311 28.8529C9.57766 28.8532 9.9521 28.8568 10.3266 28.8605C10.5878 28.8614 10.849 28.8621 11.1102 28.8625C11.7947 28.8643 12.4793 28.8689 13.1638 28.8741C13.8635 28.8789 14.5632 28.881 15.2629 28.8834C16.6336 28.8884 18.0044 28.8964 19.3751 28.9063C19.3702 28.6358 19.3702 28.6358 19.3652 28.3598C19.3538 27.6834 19.3467 27.0069 19.3408 26.3304C19.3376 26.039 19.3334 25.7476 19.3279 25.4562C19.2856 23.1315 19.4082 21.2962 21.0938 19.5313C22.6331 18.0977 24.4224 17.7888 26.4596 17.7898C26.6729 17.7891 26.6729 17.7891 26.8904 17.7883C27.3582 17.7868 27.8258 17.7865 28.2936 17.7863C28.6207 17.7858 28.9478 17.7853 29.2749 17.7847C29.96 17.7838 30.6451 17.7835 31.3301 17.7836C32.2045 17.7836 33.0788 17.7815 33.9532 17.7788C34.6288 17.777 35.3044 17.7767 35.98 17.7768C36.3022 17.7766 36.6244 17.7759 36.9466 17.7747C41.8824 17.7579 41.8824 17.7579 43.8771 19.5508C44.7283 20.4657 45.4905 21.8745 45.4866 23.1413C45.4866 23.2696 45.4866 23.3978 45.4865 23.5299C45.4857 23.6676 45.4849 23.8053 45.4841 23.9472C45.4838 24.1595 45.4838 24.1595 45.4834 24.3761C45.4826 24.8282 45.4806 25.2803 45.4786 25.7325C45.4778 26.039 45.4771 26.3455 45.4765 26.652C45.4749 27.4034 45.4718 28.1548 45.4688 28.9063C46.397 28.8547 47.3251 28.8032 48.2813 28.75C47.9816 28.286 47.9816 28.286 47.6759 27.8125C46.9263 26.6079 46.6463 25.721 46.7842 24.2957C47.2561 22.2749 49.4436 20.6926 50.8692 19.2774C51.0586 19.0888 51.2479 18.9002 51.4372 18.7116C51.8952 18.2552 52.3538 17.7994 52.8126 17.3438C52.3664 16.1673 51.9083 15.0088 51.3783 13.8678C51.2227 13.3457 51.2664 13.023 51.4063 12.5C51.9983 11.6491 52.6171 11.5597 53.5938 11.7188ZM53.2927 19.651C53.1967 19.7455 53.1008 19.8399 53.0019 19.9373C52.8457 20.0925 52.8457 20.0925 52.6863 20.2509C52.5264 20.4094 52.5264 20.4094 52.3634 20.5711C52.1374 20.7956 51.9116 21.0204 51.686 21.2454C51.3411 21.5887 50.9946 21.9304 50.648 22.2721C50.4289 22.4902 50.2099 22.7084 49.9909 22.9267C49.8871 23.0286 49.7832 23.1305 49.6763 23.2355C48.9745 23.9376 48.9746 23.9376 48.5938 24.8438C48.7686 27.8763 52.6791 31.8097 54.8438 33.75C56.5243 35.206 58.31 36.5617 60.2247 37.6954C60.3243 37.7571 60.424 37.8188 60.5266 37.8824C60.6234 37.9375 60.7201 37.9926 60.8198 38.0494C60.9031 38.0982 60.9863 38.1469 61.0721 38.1972C61.6287 38.3372 62.1183 38.3011 62.6563 38.125C63.1052 37.8221 63.4649 37.4518 63.838 37.0612C63.9437 36.9547 64.0495 36.8481 64.1584 36.7383C64.3803 36.5138 64.6008 36.288 64.8201 36.061C65.1571 35.7121 65.4978 35.3673 65.8393 35.0229C66.0546 34.8041 66.2697 34.5851 66.4845 34.3659C66.5865 34.262 66.6885 34.1582 66.7937 34.0512C66.9331 33.9065 66.9331 33.9065 67.0753 33.7589C67.1987 33.6316 67.1987 33.6316 67.3246 33.5017C67.5325 33.2875 67.5325 33.2875 67.5001 32.9688C66.8785 32.6865 66.2568 32.4047 65.6349 32.1231C65.4138 32.023 65.1928 31.9227 64.9718 31.8224C63.8435 31.3105 62.715 30.8017 61.573 30.3211C61.4116 30.2529 61.2501 30.1847 61.0838 30.1144C60.787 29.9898 60.4894 29.8669 60.1911 29.7459C58.4571 29.0167 57.7831 28.1099 57.0313 26.4063C56.9208 26.1599 56.8102 25.9136 56.6996 25.6672C56.3883 24.9699 56.0815 24.2707 55.7762 23.5707C55.5847 23.1317 55.3926 22.693 55.2003 22.2544C55.0774 21.9735 54.9545 21.6927 54.8316 21.4118C54.7747 21.2816 54.7177 21.1514 54.659 21.0172C54.3991 20.421 54.1427 19.8248 53.9063 19.2188C53.6304 19.2188 53.4809 19.4651 53.2927 19.651ZM25.4688 24.0625C25.4688 25.661 25.4688 27.2594 25.4688 28.9063C30.0579 28.9063 34.647 28.9063 39.3751 28.9063C39.3751 27.3079 39.3751 25.7094 39.3751 24.0625C34.786 24.0625 30.197 24.0625 25.4688 24.0625ZM7.1876 31.25C6.50474 32.1768 6.53639 33.1424 6.53086 34.2475C6.52997 34.3869 6.52908 34.5262 6.52816 34.6698C6.52669 34.9649 6.52567 35.26 6.52506 35.5551C6.52356 35.9995 6.51871 36.4438 6.51377 36.8882C6.49876 39.4175 6.62025 41.5047 8.41929 43.4418C9.79886 44.7627 11.4151 45.0276 13.2521 45.0098C13.3901 45.0091 13.5282 45.0084 13.6704 45.0077C14.0095 45.0058 14.3486 45.003 14.6876 45C14.7018 44.7375 14.7018 44.7375 14.7163 44.4697C14.7295 44.2395 14.7427 44.0094 14.756 43.7793C14.7621 43.664 14.7682 43.5487 14.7746 43.4299C14.8038 42.9327 14.8419 42.506 15.0001 42.0313C15.9597 41.6044 16.9369 41.6662 17.9681 41.6695C18.2908 41.67 18.6133 41.6663 18.936 41.6623C19.2431 41.6622 19.2431 41.6622 19.5564 41.662C19.7427 41.6616 19.929 41.6611 20.121 41.6606C20.6762 41.7247 20.9636 41.8521 21.4063 42.1875C21.7188 42.6563 21.7188 42.6563 21.8751 45C28.836 45 35.797 45 42.9688 45C43.0204 44.2266 43.072 43.4532 43.1251 42.6563C44.2063 41.5751 44.8411 41.6855 46.2949 41.6813C46.6087 41.6797 46.9224 41.6749 47.2361 41.67C47.4354 41.6692 47.6347 41.6684 47.8401 41.6675C48.022 41.6661 48.2039 41.6646 48.3914 41.6631C48.9725 41.726 49.3468 41.8843 49.8438 42.1875C50.1897 42.773 50.2134 43.363 50.254 44.0332C50.2657 44.2147 50.2774 44.3962 50.2894 44.5832C50.2971 44.7207 50.3047 44.8583 50.3126 45C52.5605 45.0675 54.7416 45.1188 56.5071 43.5169C57.8273 42.1198 58.115 40.4334 58.2813 38.5938C58.0318 38.4234 58.0318 38.4234 57.7772 38.2496C55.8429 36.9154 54.0631 35.4809 52.3829 33.8379C52.3075 33.7653 52.2322 33.6927 52.1545 33.6179C52.0792 33.5425 52.0039 33.4671 51.9264 33.3893C51.8475 33.3108 51.7686 33.2323 51.6873 33.1514C51.4063 32.8125 51.4063 32.8125 51.1547 32.3203C50.7496 31.5691 50.3102 30.9253 49.4637 30.6639C48.2637 30.4706 47.0459 30.522 45.8349 30.5433C45.4233 30.5431 45.0118 30.5421 44.6003 30.5401C43.6008 30.5371 42.6017 30.5448 41.6023 30.5561C40.438 30.5688 39.2737 30.5704 38.1094 30.5714C36.0321 30.5736 33.9551 30.5851 31.878 30.6023C29.8629 30.619 27.848 30.63 25.8329 30.6344C25.7087 30.6346 25.5844 30.6349 25.4564 30.6352C24.9571 30.6362 24.4577 30.6373 23.9583 30.6383C21.9206 30.6427 19.8829 30.6515 17.8452 30.661C17.3809 30.6631 16.9166 30.6651 16.4524 30.6669C15.1296 30.6721 13.8069 30.6797 12.4842 30.6911C12.0831 30.6942 11.6821 30.6966 11.281 30.6981C10.7347 30.7003 10.1884 30.7054 9.64202 30.7113C9.48243 30.7113 9.32284 30.7113 9.15841 30.7113C8.09581 30.7259 8.09581 30.7259 7.1876 31.25ZM16.4063 43.4375C16.4063 44.8813 16.4063 46.325 16.4063 47.8125C17.5923 47.8125 18.7782 47.8125 20.0001 47.8125C20.0001 46.3688 20.0001 44.925 20.0001 43.4375C18.8142 43.4375 17.6282 43.4375 16.4063 43.4375ZM44.8438 43.4375C44.8438 44.8813 44.8438 46.325 44.8438 47.8125C46.0298 47.8125 47.2157 47.8125 48.4376 47.8125C48.4376 46.3688 48.4376 44.925 48.4376 43.4375C47.2517 43.4375 46.0657 43.4375 44.8438 43.4375ZM6.5626 44.2188C6.55529 46.828 6.54978 49.4371 6.54641 52.0463C6.5448 53.2578 6.5426 54.4693 6.53902 55.6809C6.53591 56.737 6.53389 57.7932 6.5332 58.8494C6.53279 59.4085 6.53184 59.9675 6.52956 60.5265C6.52703 61.1512 6.52698 61.7759 6.52712 62.4006C6.526 62.5851 6.52488 62.7697 6.52372 62.9598C6.51177 64.5594 6.51177 64.5594 7.26572 65.918C7.81187 66.3822 8.06576 66.4259 8.76847 66.4273C9.02408 66.4283 9.02407 66.4283 9.28484 66.4294C9.47359 66.4293 9.66233 66.4293 9.85679 66.4293C10.0561 66.4299 10.2554 66.4304 10.4608 66.431C11.0159 66.4326 11.571 66.4332 12.1261 66.4336C12.724 66.4342 13.322 66.4357 13.92 66.4371C15.365 66.4401 16.81 66.4417 18.255 66.4431C18.9351 66.4438 19.6152 66.4446 20.2953 66.4455C22.5554 66.4481 24.8155 66.4504 27.0757 66.4515C27.6624 66.4518 28.2492 66.4521 28.8359 66.4524C28.9818 66.4525 29.1276 66.4526 29.2779 66.4526C31.641 66.4539 34.0042 66.4579 36.3674 66.463C38.7923 66.4681 41.2173 66.471 43.6422 66.4715C45.0042 66.4718 46.3663 66.4732 47.7283 66.4771C48.8881 66.4805 50.0479 66.4818 51.2078 66.4803C51.7997 66.4796 52.3915 66.4799 52.9834 66.4829C53.6249 66.4861 54.2663 66.4846 54.9078 66.4825C55.1888 66.4851 55.1888 66.4851 55.4755 66.4877C56.4534 66.4801 57.08 66.4589 57.8126 65.7813C58.4202 64.813 58.3447 63.8143 58.3346 62.6987C58.3347 62.4013 58.3347 62.4013 58.3348 62.0979C58.3349 61.5569 58.3322 61.0159 58.3289 60.475C58.3259 59.9086 58.3257 59.3422 58.3251 58.7758C58.3237 57.7045 58.3198 56.6332 58.3151 55.5619C58.3099 54.3418 58.3073 53.1216 58.3049 51.9015C58.3 49.3927 58.2918 46.8839 58.2813 44.375C58.1974 44.439 58.1134 44.503 58.0269 44.5689C57.9158 44.653 57.8046 44.7371 57.6901 44.8238C57.5804 44.9071 57.4706 44.9904 57.3575 45.0762C55.1923 46.6448 52.8874 46.7674 50.3126 46.875C50.3086 46.977 50.3045 47.0789 50.3004 47.1839C50.2407 48.1041 50.1313 48.666 49.5313 49.375C49.0668 49.6073 48.5918 49.5567 48.0824 49.5575C47.9699 49.5581 47.8573 49.5586 47.7414 49.5591C47.5031 49.5599 47.2649 49.5603 47.0266 49.5602C46.6628 49.5606 46.299 49.5634 45.9352 49.5664C45.7036 49.5668 45.4721 49.5672 45.2406 49.5673C45.132 49.5684 45.0234 49.5696 44.9115 49.5707C44.3471 49.5681 43.8988 49.5633 43.4376 49.2188C43.1251 48.5938 43.1251 48.5938 42.9688 46.875C36.0079 46.875 29.047 46.875 21.8751 46.875C21.8235 47.4938 21.772 48.1125 21.7188 48.75C21.2501 49.375 21.2501 49.375 20.7813 49.5313C20.0499 49.5742 19.3185 49.5802 18.5859 49.586C18.3443 49.5886 18.1028 49.5928 17.8613 49.5988C17.5117 49.6074 17.1625 49.6108 16.8128 49.6131C16.7056 49.6166 16.5983 49.6202 16.4877 49.6238C15.888 49.6212 15.6418 49.5446 15.1671 49.166C14.7812 48.6694 14.7374 48.3861 14.7169 47.7637C14.7094 47.5967 14.702 47.4298 14.6943 47.2577C14.6921 47.1314 14.6899 47.0052 14.6876 46.875C14.4987 46.8692 14.3097 46.8634 14.1151 46.8573C11.5801 46.763 9.06448 46.6073 7.16807 44.7071C7.08388 44.614 6.99968 44.521 6.91294 44.4251C6.84889 44.357 6.78484 44.2889 6.71885 44.2188C6.66729 44.2188 6.61572 44.2188 6.5626 44.2188Z" fill="#4F46E5"/>
<path d="M23.7388 36.8343C23.8976 36.8332 24.0564 36.8321 24.2201 36.8309C24.4812 36.8315 24.4812 36.8315 24.7477 36.8321C24.9312 36.8313 25.1146 36.8305 25.3037 36.8297C25.807 36.8279 26.3102 36.8275 26.8135 36.8279C27.2337 36.8281 27.6538 36.8273 28.074 36.8266C29.0651 36.8248 30.0563 36.8248 31.0475 36.8257C32.0701 36.8266 33.0926 36.8247 34.1152 36.8214C34.9931 36.8186 35.871 36.8177 36.749 36.8182C37.2733 36.8185 37.7977 36.8181 38.322 36.8159C38.9067 36.814 39.4914 36.815 40.0761 36.8169C40.2499 36.8157 40.4237 36.8145 40.6027 36.8132C40.762 36.8143 40.9213 36.8154 41.0854 36.8166C41.2927 36.8165 41.2927 36.8165 41.5043 36.8165C41.9575 36.888 42.1728 37.0255 42.5001 37.3438C42.5713 37.832 42.608 38.1335 42.3104 38.5412C41.9393 38.8189 41.7099 38.809 41.2485 38.8095C41.006 38.8115 41.006 38.8115 40.7586 38.8136C40.5813 38.8126 40.404 38.8117 40.2214 38.8107C40.0346 38.8115 39.8478 38.8123 39.6554 38.8132C39.1431 38.8149 38.6308 38.8145 38.1184 38.813C37.5825 38.8118 37.0466 38.8129 36.5107 38.8136C35.6107 38.8145 34.7106 38.8134 33.8106 38.8111C32.7698 38.8086 31.729 38.8094 30.6881 38.812C29.7948 38.8141 28.9015 38.8144 28.0081 38.8132C27.4744 38.8125 26.9408 38.8124 26.4071 38.8139C25.8122 38.8151 25.2175 38.8133 24.6226 38.8107C24.4453 38.8116 24.268 38.8126 24.0854 38.8136C23.9237 38.8122 23.762 38.8109 23.5954 38.8095C23.3844 38.8093 23.3844 38.8093 23.1691 38.809C22.8126 38.75 22.8126 38.75 22.5281 38.5467C22.3439 38.2813 22.3439 38.2813 22.3634 37.7246C22.5732 36.9005 22.9623 36.8361 23.7388 36.8343Z" fill="#4F46E5"/>
</svg>
