<svg width="49" height="49" viewBox="0 0 49 49" fill="none" xmlns="http://www.w3.org/2000/svg">
<path d="M21.0608 1.48655C21.1423 1.48606 21.2237 1.48556 21.3077 1.48505C21.5795 1.48364 21.8513 1.48357 22.1231 1.4835C22.3185 1.48278 22.5139 1.48199 22.7093 1.48112C23.2394 1.47905 23.7695 1.47821 24.2996 1.47773C24.6312 1.47739 24.9628 1.4768 25.2944 1.47613C26.4526 1.47381 27.6107 1.47258 28.7688 1.47224C29.8462 1.4719 30.9236 1.46908 32.0011 1.46511C32.9276 1.46183 33.8542 1.46037 34.7807 1.46031C35.3334 1.46023 35.8861 1.45942 36.4388 1.45672C36.9592 1.45423 37.4796 1.45404 38 1.45555C38.1901 1.45572 38.3803 1.45509 38.5704 1.45358C40.1975 1.44142 41.4401 1.66655 42.6472 2.84514C43.4341 3.67447 43.8861 4.63715 43.8854 5.79137C43.8856 5.85758 43.8858 5.92378 43.886 5.99198C43.8865 6.21321 43.8857 6.4344 43.8848 6.65563C43.8849 6.81607 43.8851 6.97651 43.8853 7.13694C43.8858 7.57735 43.885 8.01775 43.8841 8.45816C43.8832 8.93326 43.8835 9.40836 43.8837 9.88345C43.8838 10.7064 43.8832 11.5294 43.8821 12.3524C43.8806 13.5423 43.8801 14.7322 43.8798 15.9221C43.8794 17.8526 43.8782 19.7832 43.8764 21.7137C43.8746 23.589 43.8733 25.4644 43.8725 27.3397C43.8724 27.4553 43.8724 27.5709 43.8723 27.69C43.8721 28.2699 43.8719 28.8498 43.8716 29.4297C43.8697 34.2406 43.8663 39.0515 43.8621 43.8625C43.9221 43.8605 43.9822 43.8585 44.044 43.8565C44.3182 43.8486 44.5923 43.8437 44.8665 43.8388C44.9609 43.8357 45.0554 43.8325 45.1527 43.8292C45.735 43.8215 46.0662 43.8518 46.509 44.2406C46.852 44.6016 46.9164 44.8912 46.9344 45.375C46.9164 45.8587 46.852 46.1483 46.509 46.5093C46.0734 46.858 45.7394 46.9421 45.1945 46.9351C45.1206 46.9356 45.0467 46.9361 44.9705 46.9367C44.7225 46.9381 44.4746 46.9368 44.2266 46.9355C44.0471 46.9359 43.8677 46.9365 43.6882 46.9373C43.1948 46.9389 42.7014 46.9381 42.208 46.9369C41.676 46.936 41.144 46.9374 40.612 46.9384C39.5696 46.9401 38.5273 46.9397 37.485 46.9386C36.638 46.9378 35.7911 46.9377 34.9441 46.9381C34.8237 46.9381 34.7032 46.9382 34.5791 46.9382C34.3344 46.9384 34.0898 46.9385 33.8451 46.9386C31.6152 46.9397 29.3853 46.9386 27.1554 46.9366C25.1194 46.9348 23.0835 46.935 21.0476 46.9368C18.7605 46.9388 16.4735 46.9396 14.1865 46.9384C13.9427 46.9383 13.6989 46.9382 13.4551 46.9381C13.3352 46.938 13.2152 46.938 13.0916 46.9379C12.2455 46.9376 11.3993 46.9381 10.5532 46.939C9.52231 46.9401 8.49144 46.9398 7.46057 46.9378C6.93438 46.9368 6.40821 46.9364 5.88202 46.9376C5.40061 46.9388 4.91924 46.9381 4.43784 46.9361C4.26342 46.9357 4.08899 46.9359 3.91457 46.9368C3.67792 46.938 3.44139 46.9368 3.20474 46.9351C3.13663 46.9359 3.06852 46.9368 2.99834 46.9377C2.52333 46.9306 2.25804 46.8038 1.89023 46.5093C1.54724 46.1483 1.4828 45.8587 1.46484 45.375C1.4828 44.8912 1.54724 44.6016 1.89023 44.2406C2.4069 43.7869 2.86529 43.8164 3.53271 43.8388C3.62935 43.8405 3.72598 43.8422 3.82554 43.844C4.06282 43.8484 4.29992 43.8546 4.53711 43.8625C4.53693 43.797 4.53675 43.7315 4.53657 43.664C4.52598 39.7786 4.51787 35.8932 4.51297 32.0078C4.51238 31.5409 4.51177 31.074 4.51115 30.6071C4.51102 30.5141 4.5109 30.4212 4.51077 30.3254C4.50872 28.8219 4.50499 27.3185 4.50064 25.815C4.49622 24.2714 4.4936 22.7278 4.49264 21.1842C4.49199 20.2323 4.48995 19.2805 4.4861 18.3286C4.4836 17.6752 4.48285 17.0218 4.48346 16.3683C4.48376 15.9918 4.48331 15.6152 4.48077 15.2387C4.47845 14.893 4.47836 14.5475 4.47997 14.2019C4.48026 14.0194 4.47824 13.8369 4.4761 13.6545C4.48751 12.3043 4.93509 11.2472 5.86978 10.2898C6.76538 9.44005 7.76208 9.04273 8.98541 9.0535C9.06849 9.05348 9.15157 9.05345 9.23716 9.05342C9.50978 9.05355 9.78238 9.05502 10.055 9.05651C10.2448 9.05686 10.4346 9.05713 10.6244 9.05732C11.1225 9.05804 11.6206 9.05989 12.1186 9.06199C12.6275 9.06393 13.1363 9.06479 13.6452 9.06574C14.6425 9.06776 15.6398 9.07099 16.6371 9.07497C16.6346 8.96163 16.6322 8.84828 16.6296 8.73151C16.621 8.30481 16.6156 7.87812 16.6111 7.45137C16.6088 7.26783 16.6056 7.0843 16.6015 6.9008C16.5707 5.4976 16.6241 4.24167 17.588 3.12172C18.5777 2.09017 19.6133 1.48215 21.0608 1.48655ZM20.0461 5.08102C19.6998 5.62671 19.6385 6.13865 19.6436 6.77631C19.6439 6.84251 19.6442 6.90872 19.6445 6.97693C19.6455 7.18592 19.6479 7.39486 19.6503 7.60383C19.6512 7.74655 19.6521 7.88927 19.6529 8.03199C19.6549 8.37966 19.6582 8.72731 19.6621 9.07497C19.7658 9.0751 19.8694 9.07524 19.9762 9.07538C20.9579 9.07696 21.9397 9.08102 22.9214 9.08745C23.426 9.09068 23.9305 9.09307 24.4352 9.09345C24.9231 9.09386 25.4109 9.09657 25.8988 9.10082C26.084 9.10203 26.2692 9.10245 26.4544 9.10202C28.0698 9.09912 29.324 9.31067 30.5262 10.4811C31.4034 11.4128 31.6963 12.4536 31.6939 13.7013C31.6945 13.8046 31.695 13.9078 31.6956 14.0142C31.6972 14.3597 31.6974 14.7051 31.6977 15.0505C31.6986 15.2984 31.6996 15.5462 31.7006 15.794C31.7027 16.3273 31.7041 16.8606 31.7051 17.3939C31.7065 18.165 31.7089 18.936 31.7115 19.7071C31.7158 20.9582 31.7193 22.2092 31.7222 23.4603C31.7251 24.6754 31.7283 25.8905 31.7321 27.1056C31.7323 27.1805 31.7326 27.2554 31.7328 27.3327C31.734 27.7086 31.7352 28.0845 31.7363 28.4605C31.7461 31.5778 31.7544 34.6951 31.7621 37.8125C34.7569 37.8125 37.7516 37.8125 40.8371 37.8125C40.8434 33.7806 40.8486 29.7487 40.8516 25.7168C40.8519 25.2408 40.8523 24.7648 40.8527 24.2888C40.8528 24.194 40.8528 24.0993 40.8529 24.0016C40.8541 22.4673 40.8564 20.9329 40.859 19.3985C40.8616 17.8241 40.8632 16.2496 40.8638 14.6752C40.8642 13.7037 40.8654 12.7322 40.8677 11.7607C40.8692 11.0945 40.8697 10.4283 40.8693 9.76206C40.8691 9.37771 40.8694 8.99337 40.8709 8.60902C40.8723 8.25685 40.8724 7.9047 40.8714 7.55253C40.8712 7.36539 40.8724 7.17825 40.8737 6.99111C40.8723 5.95929 40.8723 5.95929 40.433 5.04997C39.9025 4.56122 39.2509 4.50921 38.5617 4.51282C38.4876 4.51246 38.4136 4.5121 38.3372 4.51173C38.0904 4.51076 37.8437 4.51113 37.5969 4.5115C37.4193 4.51109 37.2418 4.5106 37.0643 4.51004C36.583 4.50878 36.1018 4.50872 35.6205 4.50896C35.2183 4.50906 34.8162 4.5086 34.414 4.50815C33.465 4.5071 32.5159 4.50706 31.5669 4.50763C30.5888 4.5082 29.6107 4.50703 28.6326 4.50502C27.792 4.50335 26.9513 4.50279 26.1107 4.5031C25.609 4.50327 25.1073 4.50302 24.6056 4.50171C24.1337 4.50051 23.6618 4.5007 23.1899 4.50193C23.0171 4.50216 22.8443 4.5019 22.6715 4.50112C21.2456 4.43532 21.2456 4.43532 20.0461 5.08102ZM7.94614 12.6435C7.50061 13.3456 7.53552 14.031 7.53937 14.8404C7.53921 14.9645 7.53905 15.0886 7.53889 15.2165C7.53846 15.5599 7.53922 15.9033 7.54017 16.2467C7.54098 16.6174 7.54071 16.9881 7.54056 17.3588C7.54046 18.0007 7.54106 18.6427 7.54212 19.2846C7.54366 20.2127 7.54415 21.1408 7.54439 22.069C7.5448 23.5748 7.54606 25.0807 7.54785 26.5866C7.54958 28.0493 7.55092 29.5119 7.55172 30.9746C7.55177 31.0648 7.55182 31.155 7.55187 31.2479C7.55212 31.7003 7.55236 32.1528 7.5526 32.6052C7.55455 36.3576 7.55794 40.11 7.56211 43.8625C9.05948 43.8625 10.5569 43.8625 12.0996 43.8625C12.0996 41.1173 12.0996 38.3721 12.0996 35.5437C11.85 35.4813 11.6005 35.4189 11.3434 35.3547C11.0129 35.1391 10.827 34.963 10.6816 34.5984C10.6186 34.072 10.6125 33.6101 10.8412 33.1273C11.1298 32.823 11.3734 32.635 11.7957 32.5773C11.8921 32.5771 11.9885 32.5768 12.0879 32.5766C12.1991 32.5757 12.3102 32.5747 12.4248 32.5738C12.546 32.5742 12.6671 32.5746 12.792 32.5751C12.9215 32.5745 13.051 32.5739 13.1806 32.5731C13.5317 32.5714 13.8829 32.5715 14.2341 32.572C14.5275 32.5723 14.8209 32.5718 15.1143 32.5712C15.8066 32.5699 16.4989 32.57 17.1913 32.5711C17.905 32.5722 18.6186 32.5708 19.3323 32.5683C19.9456 32.5662 20.5589 32.5656 21.1722 32.5661C21.5382 32.5665 21.9043 32.5662 22.2703 32.5646C22.6146 32.5631 22.9588 32.5635 23.3031 32.5653C23.4893 32.5658 23.6755 32.5645 23.8616 32.563C24.883 32.5716 24.883 32.5716 25.334 32.9914C25.7174 33.4851 25.6907 33.9985 25.6176 34.5984C25.4155 35.0251 25.1967 35.2547 24.7668 35.4492C24.5796 35.4804 24.3925 35.5116 24.1996 35.5437C24.1996 38.2889 24.1996 41.0341 24.1996 43.8625C25.697 43.8625 27.1944 43.8625 28.7371 43.8625C28.7435 40.0233 28.7486 36.1841 28.7516 32.3449C28.7519 31.8916 28.7523 31.4383 28.7527 30.985C28.7528 30.8948 28.7528 30.8045 28.7529 30.7115C28.7541 29.2505 28.7564 27.7895 28.759 26.3285C28.7616 24.8293 28.7632 23.33 28.7638 21.8308C28.7642 20.9057 28.7654 19.9807 28.7677 19.0556C28.7692 18.4212 28.7697 17.7868 28.7693 17.1524C28.7691 16.7864 28.7694 16.4205 28.7709 16.0545C28.7726 15.6574 28.772 15.2603 28.7712 14.8632C28.772 14.748 28.7729 14.6327 28.7737 14.514C28.7703 13.8581 28.7646 13.1474 28.333 12.6122C27.8021 12.1239 27.151 12.0717 26.4617 12.0753C26.3876 12.075 26.3136 12.0746 26.2372 12.0742C25.9904 12.0733 25.7437 12.0736 25.4969 12.074C25.3193 12.0736 25.1418 12.0731 24.9643 12.0725C24.483 12.0713 24.0018 12.0712 23.5205 12.0715C23.1183 12.0716 22.7162 12.0711 22.314 12.0706C21.365 12.0696 20.4159 12.0696 19.4669 12.0701C18.4888 12.0707 17.5107 12.0695 16.5326 12.0675C15.692 12.0659 14.8513 12.0653 14.0107 12.0656C13.509 12.0658 13.0073 12.0655 12.5056 12.0642C12.0337 12.063 11.5618 12.0632 11.0899 12.0644C10.9171 12.0647 10.7443 12.0644 10.5715 12.0636C9.1456 11.9978 9.1456 11.9978 7.94614 12.6435ZM15.1246 35.5437C15.1246 38.2889 15.1246 41.0341 15.1246 43.8625C17.1211 43.8625 19.1176 43.8625 21.1746 43.8625C21.1746 41.1173 21.1746 38.3721 21.1746 35.5437C19.1781 35.5437 17.1816 35.5437 15.1246 35.5437ZM31.7621 40.8375C31.7621 41.8357 31.7621 42.834 31.7621 43.8625C34.7569 43.8625 37.7516 43.8625 40.8371 43.8625C40.8371 42.8642 40.8371 41.866 40.8371 40.8375C37.8424 40.8375 34.8476 40.8375 31.7621 40.8375Z" fill="#60A5FA"/>
<path d="M36.3004 31.7154C36.4193 31.714 36.5383 31.7125 36.6608 31.711C37.736 31.7156 37.736 31.7156 38.191 32.1408C38.534 32.5019 38.5984 32.7915 38.6164 33.2752C38.5935 33.8917 38.425 34.1908 37.9761 34.6105C37.4865 34.928 36.8602 34.8419 36.3004 34.835C36.1815 34.8364 36.0625 34.8379 35.94 34.8394C34.8647 34.8348 34.8647 34.8348 34.4098 34.4096C34.0668 34.0485 34.0023 33.7589 33.9844 33.2752C34.0073 32.6587 34.1757 32.3596 34.6247 31.9399C35.1143 31.6224 35.7405 31.7086 36.3004 31.7154Z" fill="#60A5FA"/>
<path d="M36.3004 25.6651C36.4193 25.6637 36.5383 25.6622 36.6608 25.6607C37.736 25.6653 37.736 25.6653 38.191 26.0905C38.534 26.4516 38.5984 26.7412 38.6164 27.2249C38.5935 27.8414 38.425 28.1405 37.9761 28.5602C37.4865 28.8777 36.8602 28.7916 36.3004 28.7847C36.1815 28.7861 36.0625 28.7876 35.94 28.7891C34.8647 28.7846 34.8647 28.7846 34.4098 28.3593C34.0668 27.9982 34.0023 27.7086 33.9844 27.2249C34.0073 26.6084 34.1757 26.3093 34.6247 25.8897C35.1143 25.5721 35.7405 25.6583 36.3004 25.6651Z" fill="#60A5FA"/>
<path d="M36.3004 19.6153C36.4193 19.6139 36.5383 19.6124 36.6608 19.6109C37.736 19.6155 37.736 19.6155 38.191 20.0407C38.534 20.4018 38.5984 20.6914 38.6164 21.1751C38.5935 21.7916 38.425 22.0907 37.9761 22.5104C37.4865 22.8279 36.8602 22.7418 36.3004 22.7349C36.1815 22.7363 36.0625 22.7378 35.94 22.7393C34.8647 22.7347 34.8647 22.7347 34.4098 22.3095C34.0668 21.9484 34.0023 21.6588 33.9844 21.1751C34.0073 20.5586 34.1757 20.2595 34.6247 19.8399C35.1143 19.5223 35.7405 19.6085 36.3004 19.6153Z" fill="#60A5FA"/>
<path d="M36.3004 13.565C36.4193 13.5636 36.5383 13.5621 36.6608 13.5606C37.736 13.5652 37.736 13.5652 38.191 13.9904C38.534 14.3515 38.5984 14.6411 38.6164 15.1248C38.5935 15.7413 38.425 16.0404 37.9761 16.4601C37.4865 16.7776 36.8602 16.6915 36.3004 16.6846C36.1815 16.686 36.0625 16.6875 35.94 16.689C34.8647 16.6845 34.8647 16.6845 34.4098 16.2592C34.0668 15.8981 34.0023 15.6085 33.9844 15.1248C34.0073 14.5083 34.1757 14.2092 34.6247 13.7896C35.1143 13.472 35.7405 13.5582 36.3004 13.565Z" fill="#60A5FA"/>
<path d="M18.126 26.4393C18.2529 26.4352 18.2529 26.4352 18.3823 26.431C18.9228 26.4258 19.2354 26.4821 19.6621 26.8469C19.9781 27.1971 20.1218 27.4343 20.1584 27.9104C20.1282 28.3641 20.0371 28.7343 19.7127 29.0699C19.1865 29.5176 18.8375 29.5163 18.1733 29.5234C18.0887 29.5261 18.0041 29.5288 17.917 29.5317C17.3769 29.5369 17.0627 29.4815 16.6371 29.1157C16.2967 28.7109 16.1406 28.3224 16.1645 27.7923C16.2776 27.2038 16.5325 26.9023 17.0153 26.5634C17.356 26.393 17.7507 26.4433 18.126 26.4393Z" fill="#60A5FA"/>
<path d="M18.126 20.389C18.2529 20.3849 18.2529 20.3849 18.3823 20.3807C18.9228 20.3755 19.2354 20.4318 19.6621 20.7967C19.9781 21.1468 20.1218 21.384 20.1584 21.8601C20.1282 22.3138 20.0371 22.684 19.7127 23.0196C19.1865 23.4673 18.8375 23.466 18.1733 23.4731C18.0887 23.4758 18.0041 23.4786 17.917 23.4814C17.3769 23.4866 17.0627 23.4312 16.6371 23.0654C16.2967 22.6606 16.1406 22.2721 16.1645 21.742C16.2776 21.1535 16.5325 20.852 17.0153 20.5131C17.356 20.3427 17.7507 20.393 18.126 20.389Z" fill="#60A5FA"/>
<path d="M18.126 14.3392C18.2529 14.3351 18.2529 14.3351 18.3823 14.3309C18.9228 14.3257 19.2354 14.382 19.6621 14.7469C19.9781 15.097 20.1218 15.3342 20.1584 15.8103C20.1282 16.264 20.0371 16.6342 19.7127 16.9698C19.1865 17.4175 18.8375 17.4162 18.1733 17.4233C18.0887 17.426 18.0041 17.4288 17.917 17.4316C17.3769 17.4368 17.0627 17.3814 16.6371 17.0156C16.2967 16.6108 16.1406 16.2223 16.1645 15.6922C16.2776 15.1037 16.5325 14.8022 17.0153 14.4633C17.356 14.2929 17.7507 14.3432 18.126 14.3392Z" fill="#60A5FA"/>
<path d="M24.554 26.4393C24.6809 26.4352 24.6809 26.4352 24.8103 26.431C25.3512 26.4258 25.6627 26.4827 26.0902 26.8469C26.4332 27.208 26.4976 27.4976 26.5156 27.9813C26.4976 28.4651 26.4332 28.7547 26.0902 29.1157C25.5918 29.5368 25.195 29.5493 24.5718 29.5352C24.4881 29.5358 24.4044 29.5365 24.3183 29.5372C23.7661 29.5318 23.4218 29.4643 23.0135 29.0684C22.6294 28.5896 22.53 28.2124 22.5925 27.6032C22.9343 26.6349 23.6249 26.4492 24.554 26.4393Z" fill="#60A5FA"/>
<path d="M11.7221 26.4214C11.8049 26.42 11.8878 26.4185 11.9732 26.417C12.5038 26.4202 12.8154 26.4927 13.2346 26.8468C13.6206 27.2746 13.7371 27.5833 13.7275 28.1651C13.6713 28.7032 13.3433 29.0559 12.951 29.3992C12.548 29.5335 12.162 29.5187 11.7398 29.5232C11.6136 29.5273 11.6136 29.5273 11.4848 29.5315C10.9455 29.5367 10.636 29.4783 10.2096 29.1156C9.86658 28.7545 9.80214 28.4649 9.78418 27.9812C9.80214 27.4975 9.86658 27.2079 10.2096 26.8468C10.7061 26.4287 11.1012 26.4105 11.7221 26.4214Z" fill="#60A5FA"/>
<path d="M24.554 20.389C24.6809 20.3849 24.6809 20.3849 24.8103 20.3807C25.3512 20.3755 25.6627 20.4325 26.0902 20.7967C26.4332 21.1577 26.4976 21.4473 26.5156 21.931C26.4976 22.4148 26.4332 22.7044 26.0902 23.0654C25.5918 23.4865 25.195 23.499 24.5718 23.4849C24.4881 23.4856 24.4044 23.4862 24.3183 23.4869C23.7661 23.4815 23.4218 23.4141 23.0135 23.0181C22.6294 22.5393 22.53 22.1621 22.5925 21.5529C22.9343 20.5846 23.6249 20.3989 24.554 20.389Z" fill="#60A5FA"/>
<path d="M11.7221 20.3716C11.8049 20.3702 11.8878 20.3687 11.9732 20.3672C12.5038 20.3704 12.8154 20.4429 13.2346 20.797C13.6206 21.2248 13.7371 21.5335 13.7275 22.1153C13.6713 22.6534 13.3433 23.0061 12.951 23.3494C12.548 23.4837 12.162 23.4689 11.7398 23.4734C11.6136 23.4775 11.6136 23.4775 11.4848 23.4817C10.9455 23.4869 10.636 23.4285 10.2096 23.0658C9.86658 22.7047 9.80214 22.4151 9.78418 21.9314C9.80214 21.4476 9.86658 21.1581 10.2096 20.797C10.7061 20.3789 11.1012 20.3607 11.7221 20.3716Z" fill="#60A5FA"/>
<path d="M24.554 14.3392C24.6809 14.3351 24.6809 14.3351 24.8103 14.3309C25.3512 14.3257 25.6627 14.3826 26.0902 14.7468C26.4332 15.1079 26.4976 15.3975 26.5156 15.8812C26.4976 16.365 26.4332 16.6546 26.0902 17.0156C25.5918 17.4367 25.195 17.4492 24.5718 17.4351C24.4881 17.4358 24.4044 17.4364 24.3183 17.4371C23.7661 17.4317 23.4218 17.3642 23.0135 16.9683C22.6294 16.4895 22.53 16.1123 22.5925 15.5031C22.9343 14.5348 23.6249 14.3491 24.554 14.3392Z" fill="#60A5FA"/>
<path d="M11.7221 14.3213C11.8049 14.3199 11.8878 14.3184 11.9732 14.3169C12.5038 14.3201 12.8154 14.3926 13.2346 14.7467C13.6206 15.1745 13.7371 15.4832 13.7275 16.065C13.6713 16.6031 13.3433 16.9558 12.951 17.2991C12.548 17.4334 12.162 17.4186 11.7398 17.4231C11.6136 17.4272 11.6136 17.4272 11.4848 17.4314C10.9455 17.4366 10.636 17.3782 10.2096 17.0155C9.86658 16.6544 9.80214 16.3648 9.78418 15.8811C9.80214 15.3974 9.86658 15.1078 10.2096 14.7467C10.7061 14.3286 11.1012 14.3104 11.7221 14.3213Z" fill="#60A5FA"/>
</svg>
