<svg width="119" height="119" viewBox="0 0 119 119" fill="none" xmlns="http://www.w3.org/2000/svg">
<path d="M82.977 29.6236C83.8272 32.3457 83.7475 35.3248 83.883 38.156C83.9053 38.6066 83.9276 39.0573 83.95 39.508C84.0227 40.9768 84.0933 42.4456 84.1637 43.9145C84.1882 44.4224 84.2127 44.9304 84.2373 45.4383C84.3522 47.8229 84.4663 50.2075 84.5791 52.5922C84.7091 55.3383 84.8424 58.0843 84.9785 60.8301C85.0837 62.9583 85.1859 65.0867 85.2858 67.2152C85.3454 68.4841 85.4064 69.753 85.4706 71.0218C85.5308 72.2143 85.5872 73.4069 85.6408 74.5998C85.6611 75.0362 85.6827 75.4725 85.7058 75.9087C85.963 80.8043 85.963 80.8043 84.6209 82.8963C83.1782 84.4459 81.9642 85.4178 79.8148 85.6057C77.8318 85.6181 76.4475 84.9777 74.92 83.7127C74.546 83.4079 74.546 83.4079 74.1644 83.0969C73.9014 82.8815 73.6383 82.666 73.3674 82.4441C67.4469 77.6934 60.6775 74.0602 53.202 72.4693C52.5832 72.3114 52.5832 72.3114 52.1673 71.9326C52.1013 72.1207 52.0354 72.3089 51.9675 72.5027C50.6911 76.0443 48.5647 78.6435 45.1951 80.4222C44.3871 80.7224 43.5875 80.9675 42.7531 81.1825C42.1029 81.3522 41.5031 81.5712 40.8793 81.8182C40.902 82.2044 40.902 82.2044 40.9251 82.5983C40.98 83.5573 41.0322 84.5164 41.0826 85.4757C41.1049 85.8901 41.1283 86.3044 41.1528 86.7187C41.1879 87.3157 41.2191 87.9128 41.2496 88.5101C41.2695 88.8689 41.2894 89.2278 41.3098 89.5975C41.2825 90.7455 41.0729 91.551 40.3898 92.4745C38.9864 93.8009 37.7531 93.9273 35.8715 93.9998C35.6352 94.0293 35.3988 94.0588 35.1554 94.0892C33.3101 94.2909 31.9599 93.9418 30.4417 92.859C28.512 91.1114 28.2293 89.2935 27.9687 86.8012C27.8355 85.8317 27.6902 84.8641 27.547 83.8961C27.4709 83.3663 27.3951 82.8364 27.3197 82.3066C27.1623 81.2045 27.0035 80.1027 26.8435 79.0011C26.8041 78.7296 26.7647 78.4581 26.7242 78.1783C26.6494 77.663 26.5745 77.1477 26.4993 76.6324C26.2744 75.0781 26.0715 73.5225 25.8829 71.9633C24.9653 71.6859 24.2385 71.6044 23.2789 71.6367C20.4289 71.5887 18.5869 70.5154 16.5663 68.5426C13.9728 65.6929 13.9955 62.0468 13.8246 58.3689C13.7956 57.7655 13.7602 57.1628 13.7246 56.5598C13.5467 53.1742 13.7892 50.0578 16.1381 47.4139C20.3161 43.0215 27.1407 44.0083 32.7463 43.7836C38.021 43.5834 38.021 43.5834 43.2453 42.8767C43.4675 42.8404 43.6898 42.8041 43.9187 42.7666C54.5499 41.019 64.3503 36.0779 71.9806 28.4962C73.4527 27.0717 74.7964 26.1695 76.8591 25.9207C77.0597 25.9337 77.2602 25.9467 77.4669 25.9601C77.6698 25.9693 77.8728 25.9786 78.0819 25.9882C80.2874 26.3451 81.8322 27.7625 82.977 29.6236ZM77.2211 30.5641C75.8196 30.905 75.0421 31.876 74.0432 32.8778C71.755 35.0852 69.3873 37.0174 66.7519 38.7936C66.58 38.9097 66.4082 39.0259 66.231 39.1455C54.9321 46.6549 42.156 47.9629 28.9717 48.5206C28.6272 49.5184 28.6103 50.3503 28.6625 51.401C28.6781 51.735 28.6937 52.0691 28.7098 52.4133C28.738 52.9516 28.738 52.9516 28.7667 53.5007C28.7845 53.8695 28.8022 54.2382 28.8205 54.6182C28.8676 55.5961 28.9172 56.574 28.9672 57.5518C29.0178 58.5506 29.0662 59.5494 29.1148 60.5483C29.2103 62.5064 29.3084 64.4644 29.4081 66.4223C30.5512 66.7808 31.4818 66.7639 32.6831 66.6928C32.8836 66.6819 33.0841 66.6711 33.2907 66.6599C34.143 66.6137 34.995 66.5629 35.8469 66.5122C38.6378 66.3492 41.3556 66.3219 44.1492 66.5315C44.5532 66.5555 44.9572 66.5792 45.3613 66.6026C57.2526 67.4768 68.4211 71.7891 77.3198 79.8335C78.0588 80.4771 78.5547 80.8351 79.5339 80.9843C80.2843 80.846 80.2843 80.846 80.6738 80.2741C81.1013 79.3202 81.0558 78.6247 81.008 77.581C81.0001 77.3841 80.9921 77.1872 80.984 76.9844C80.9564 76.3252 80.9232 75.6665 80.8899 75.0076C80.869 74.5349 80.8484 74.0622 80.828 73.5895C80.7718 72.306 80.7106 71.0228 80.6482 69.7396C80.5836 68.3977 80.5229 67.0556 80.4616 65.7135C80.358 63.46 80.251 61.2068 80.1422 58.9536C80.0163 56.3467 79.8961 53.7396 79.7789 51.1323C79.6782 48.8951 79.5744 46.6581 79.468 44.4213C79.4045 43.0846 79.342 41.748 79.2823 40.4111C79.226 39.1549 79.1658 37.8988 79.1027 36.6429C79.0801 36.1812 79.0589 35.7195 79.0391 35.2577C79.0119 34.6288 78.9799 34.0003 78.9466 33.3716C78.9299 33.0193 78.9132 32.667 78.8959 32.304C78.7132 31.2022 78.3279 30.7866 77.2211 30.5641ZM23.2276 48.7806C21.7003 49.0291 20.6805 49.3954 19.5191 50.4237C18.4143 51.9742 18.3333 53.5563 18.4327 55.3843C18.4422 55.6061 18.4518 55.828 18.4617 56.0566C18.4829 56.5228 18.5061 56.989 18.5311 57.4551C18.5685 58.1639 18.5973 58.8728 18.6253 59.582C18.647 60.0374 18.6693 60.4927 18.6921 60.948C18.7002 61.1576 18.7084 61.3672 18.7168 61.5831C18.8114 63.1812 19.1606 64.5413 20.2354 65.7859C21.6564 66.8252 22.9133 67.0229 24.6578 67.0421C25 66.0475 25.0213 65.215 24.9736 64.1677C24.9522 63.6685 24.9522 63.6685 24.9303 63.1591C24.9129 62.8014 24.8954 62.4438 24.8774 62.0753C24.8606 61.7074 24.8438 61.3396 24.8265 60.9605C24.7909 60.1835 24.7538 59.4066 24.7157 58.6297C24.6669 57.6324 24.6218 56.6349 24.5776 55.6374C24.5351 54.6868 24.4895 53.7364 24.4442 52.7859C24.4203 52.2469 24.4203 52.2469 24.3959 51.697C24.3792 51.3668 24.3626 51.0366 24.3454 50.6963C24.3315 50.4043 24.3176 50.1123 24.3032 49.8114C24.2001 48.9661 24.0981 48.7518 23.2276 48.7806ZM47.1534 71.1707C43.8672 70.8075 43.8672 70.8075 40.5684 70.8803C40.1315 72.0325 40.2306 73.1469 40.3071 74.3525C40.3184 74.5555 40.3296 74.7585 40.3413 74.9677C40.3692 75.4661 40.3995 75.9643 40.4304 76.4625C41.4162 76.8313 41.91 76.8054 42.8657 76.3739C44.9473 75.3751 46.521 73.9446 47.3799 71.7575C47.3051 71.5639 47.2304 71.3702 47.1534 71.1707ZM34.5281 70.9434C34.0834 70.9654 33.6387 70.9886 33.1941 71.0126C32.9676 71.024 32.7411 71.0355 32.5077 71.0473C31.946 71.0759 31.3843 71.1056 30.8227 71.1356C30.3726 72.1516 30.5153 72.6402 30.6948 73.7303C30.7802 74.2666 30.7802 74.2666 30.8674 74.8136C30.9553 75.3536 30.9553 75.3536 31.0451 75.9045C31.1372 76.5182 31.228 77.1321 31.3176 77.7462C31.3652 78.0682 31.4129 78.3902 31.4619 78.7219C31.5916 79.606 31.7174 80.4906 31.8423 81.3754C31.8804 81.6434 31.9184 81.9115 31.9576 82.1877C32.0324 82.715 32.1067 83.2423 32.1803 83.7697C32.3587 85.025 32.5502 86.2774 32.7693 87.5263C32.8082 87.7494 32.8471 87.9726 32.8872 88.2024C33.0055 88.808 33.0055 88.808 33.5616 89.3034C34.491 89.555 35.302 89.498 36.2545 89.4018C36.6035 88.3944 36.6158 87.5491 36.5653 86.488C36.55 86.1466 36.5347 85.8051 36.5189 85.4534C36.5004 85.0864 36.4818 84.7195 36.4627 84.3414C36.4447 83.9605 36.4269 83.5795 36.4091 83.1986C36.3717 82.4021 36.3329 81.6056 36.2931 80.8092C36.242 79.7861 36.1935 78.7629 36.146 77.7397C36.1093 76.954 36.0716 76.1685 36.0335 75.3829C36.0064 74.8214 35.9799 74.26 35.9533 73.6985C35.9363 73.3603 35.9193 73.0221 35.9017 72.6736C35.887 72.3741 35.8723 72.0746 35.8571 71.7661C35.7637 70.69 35.7159 70.9097 34.5281 70.9434Z" fill="#1561D5"/>
<path d="M99.743 36.8844C99.9263 37.0985 99.9263 37.0985 100.113 37.3168C100.466 38.0474 100.397 38.4313 100.226 39.2267C99.7929 39.8337 99.3718 40.3595 98.8735 40.9069C98.6664 41.139 98.6664 41.139 98.4551 41.3758C98.1626 41.7014 97.8685 42.0255 97.5728 42.3482C97.123 42.8416 96.6827 43.3424 96.2424 43.8443C95.9565 44.1604 95.67 44.4759 95.383 44.791C95.1877 45.0157 95.1877 45.0157 94.9884 45.2449C94.2424 46.0413 93.8273 46.2907 92.737 46.4663C91.7977 46.3902 91.7977 46.3902 91.0673 45.9389C90.408 45.0656 90.2919 44.5693 90.2678 43.4745C90.7126 42.7737 91.1107 42.2556 91.6689 41.659C91.8164 41.4951 91.9639 41.3311 92.1159 41.1622C92.4285 40.8176 92.7438 40.4753 93.0615 40.1353C93.5463 39.6143 94.0191 39.0841 94.4916 38.552C94.7972 38.218 95.1034 37.8845 95.4103 37.5516C95.6215 37.3135 95.6215 37.3135 95.8369 37.0705C96.5879 36.282 96.9556 35.996 98.0598 35.9264C98.9122 36.1088 99.2077 36.2175 99.743 36.8844Z" fill="#1561D5"/>
<path d="M96.3324 65.1346C96.4859 65.2745 96.6394 65.4143 96.7976 65.5583C97.1198 65.8538 97.4397 66.1519 97.7573 66.4523C98.2433 66.9109 98.7368 67.3602 99.2321 67.8087C99.545 68.0976 99.8573 68.3871 100.169 68.6771C100.316 68.8111 100.463 68.9452 100.615 69.0833C101.236 69.6766 101.642 70.1392 101.925 70.9568C101.941 71.996 101.488 72.4889 100.817 73.2511C99.979 73.6092 99.5229 73.8007 98.6408 73.5517C97.5558 72.6712 96.5186 71.738 95.4789 70.8048C95.1312 70.4944 94.7815 70.1862 94.4298 69.8804C93.9224 69.439 93.4216 68.9911 92.9216 68.5413C92.6847 68.3385 92.6847 68.3385 92.4431 68.1315C91.6539 67.4068 91.3713 67.0527 91.2939 65.967C91.5208 64.9233 91.7604 64.5203 92.6138 63.876C94.3224 63.5757 95.1263 63.9836 96.3324 65.1346Z" fill="#1561D5"/>
<path d="M100.91 53.9294C101.134 54.7279 101.134 54.7279 100.984 55.519C100.469 56.397 100.053 56.8716 99.0476 57.1339C98.2595 57.2329 97.48 57.2762 96.6865 57.3125C96.1784 57.3573 96.1784 57.3573 95.6601 57.4031C92.5704 57.6405 92.5704 57.6405 91.2752 56.5691C90.8452 55.567 90.7906 55.0844 90.9561 53.9953C91.8883 52.8831 92.6235 52.6398 94.0593 52.4831C94.6592 52.4482 95.2595 52.4199 95.8599 52.3975C96.1613 52.3755 96.4627 52.3535 96.7732 52.3308C98.7281 52.2414 99.6757 52.36 100.91 53.9294Z" fill="#1561D5"/>
<path d="M43.8713 58.767C44.5819 59.7852 44.6975 60.3084 44.5108 61.5375C43.5319 62.6541 42.8545 63.0913 41.3728 63.2559C40.8495 63.2821 40.3257 63.3009 39.8019 63.3128C39.5391 63.3288 39.2764 63.3447 39.0056 63.3612C37.3976 63.4209 36.4171 63.3144 35.181 62.1717C34.8229 61.3334 34.6313 60.8774 34.8804 59.9952C35.3076 59.2717 35.5091 58.9729 36.2065 58.5394C37.457 58.2654 38.6955 58.2081 39.9725 58.1647C40.2562 58.1473 40.5398 58.13 40.832 58.1122C42.0886 58.0736 42.7742 58.1121 43.8713 58.767Z" fill="#1561D5"/>
<path d="M44.0869 52.398C44.3051 53.5 44.3223 54.1096 43.8027 55.112C42.6227 55.9209 41.4737 55.8927 40.0716 55.9705C39.7329 56.0053 39.3941 56.0401 39.0451 56.0759C38.6969 56.106 38.3487 56.1361 37.9899 56.1671C37.6648 56.1967 37.3396 56.2262 37.0046 56.2566C35.8207 56.125 35.4076 55.7211 34.6418 54.8297C34.4098 53.7178 34.4017 53.1272 34.926 52.1157C36.1004 51.3107 37.2605 51.3274 38.6571 51.2572C39.1362 51.2272 39.1362 51.2272 39.625 51.1965C42.8847 51.0131 42.8847 51.0131 44.0869 52.398Z" fill="#1561D5"/>
</svg>
