<svg width="256" height="256" viewBox="0 0 256 256" fill="none" xmlns="http://www.w3.org/2000/svg">
<g clip-path="url(#clip0_79_9466)">
<path d="M14.9071 16.3651C15.9124 16.3573 16.9177 16.3495 17.9535 16.3415C21.3263 16.3215 24.6979 16.3373 28.0707 16.353C30.487 16.3463 32.9032 16.3374 35.3194 16.3265C41.2034 16.306 47.087 16.3091 52.971 16.3236C57.753 16.3348 62.5349 16.3364 67.3169 16.3309C67.9975 16.3302 68.6781 16.3294 69.3793 16.3286C70.762 16.327 72.1447 16.3254 73.5273 16.3238C86.4924 16.3095 99.4573 16.3259 112.422 16.3528C123.547 16.3751 134.671 16.3712 145.795 16.3482C158.714 16.3214 171.632 16.3109 184.551 16.3262C185.929 16.3278 187.306 16.3294 188.684 16.3309C189.701 16.3321 189.701 16.3321 190.738 16.3333C195.514 16.3376 200.29 16.3303 205.066 16.3185C211.495 16.3031 217.923 16.3141 224.352 16.343C226.713 16.3496 229.075 16.3477 231.437 16.3367C234.657 16.3231 237.874 16.3401 241.094 16.3651C242.033 16.3539 242.972 16.3428 243.94 16.3313C248.245 16.3963 250.425 16.617 254.08 19.051C256.461 22.7078 256.7 25.5893 256.635 29.8187C256.643 30.5994 256.651 31.3801 256.659 32.1845C256.679 34.7973 256.663 37.4087 256.647 40.0215C256.654 41.8959 256.663 43.7703 256.674 45.6446C256.697 50.7335 256.688 55.8219 256.672 60.9108C256.659 66.2349 256.671 71.559 256.679 76.8832C256.688 85.8244 256.676 94.7654 256.652 103.707C256.625 114.046 256.634 124.384 256.661 134.723C256.684 143.598 256.687 152.473 256.674 161.348C256.666 166.649 256.665 171.95 256.682 177.252C256.696 182.236 256.686 187.219 256.657 192.203C256.651 194.033 256.653 195.863 256.664 197.693C256.677 200.19 256.66 202.684 256.635 205.181C256.652 206.269 256.652 206.269 256.669 207.379C256.594 211.266 256.093 212.885 253.619 215.951C250.666 218.262 249.443 218.613 245.751 218.568C244.73 218.567 243.71 218.567 242.658 218.566C241.024 218.528 241.024 218.528 239.356 218.488C237.668 218.478 237.668 218.478 235.947 218.467C232.36 218.439 228.774 218.376 225.188 218.313C222.754 218.287 220.319 218.265 217.885 218.244C211.923 218.189 205.962 218.105 200 218C200.024 219.265 200.047 220.529 200.071 221.832C200.089 223.492 200.108 225.152 200.125 226.813C200.142 227.646 200.159 228.479 200.176 229.338C200.183 230.14 200.189 230.943 200.196 231.77C200.206 232.508 200.217 233.246 200.227 234.007C200 236 200 236 198 239C191.448 238.244 191.448 238.244 188.938 236.875C186.041 235.567 184.035 236.257 181 237C180.155 237.371 179.309 237.743 178.438 238.125C175.518 239.173 173.933 238.896 171 238C170 237 170 237 169.887 235.142C169.892 234.352 169.897 233.561 169.903 232.746C169.906 231.892 169.909 231.038 169.913 230.158C169.921 229.26 169.929 228.363 169.938 227.438C169.942 226.536 169.947 225.634 169.952 224.705C169.963 222.47 169.98 220.235 170 218C168.732 218.007 168.732 218.007 167.438 218.014C146.865 218.124 126.292 218.207 105.719 218.259C95.7706 218.285 85.8219 218.32 75.8732 218.377C67.2026 218.427 58.5321 218.459 49.8613 218.47C45.2695 218.477 40.6781 218.492 36.0864 218.529C31.7648 218.563 27.4438 218.573 23.1222 218.566C21.5359 218.567 19.9496 218.577 18.3634 218.596C16.1968 218.621 14.0324 218.615 11.8657 218.601C10.6535 218.606 9.44139 218.611 8.1925 218.615C3.99609 217.806 2.53278 216.4 0.000396729 213C-0.617636 210.201 -0.617636 210.201 -0.607605 207.091C-0.615923 205.907 -0.624242 204.724 -0.632812 203.504C-0.616407 202.215 -0.600002 200.925 -0.583099 199.597C-0.583326 198.218 -0.585742 196.84 -0.590179 195.461C-0.595879 191.726 -0.570621 187.991 -0.539505 184.256C-0.511944 180.349 -0.511964 176.441 -0.508789 172.534C-0.499591 165.977 -0.472073 159.42 -0.431732 152.863C-0.374824 143.605 -0.352572 134.346 -0.336448 125.088C-0.324009 118.683 -0.303324 112.278 -0.281067 105.873C-0.2757 104.318 -0.270564 102.762 -0.265655 101.207C-0.251383 96.7771 -0.232001 92.3475 -0.204178 87.9179C-0.192728 85.9297 -0.186092 83.9416 -0.179565 81.9535C-0.170965 80.7813 -0.162364 79.6092 -0.153503 78.4016C-0.147931 77.3766 -0.142359 76.3516 -0.136618 75.2955C0.000396729 73 0.000396729 73 1.0004 72C3.4379 71.8125 3.4379 71.8125 6.0004 72C8.0004 74 8.0004 74 8.24649 76.3701C8.24465 77.3711 8.24281 78.3722 8.24091 79.4036C8.24366 80.5483 8.24642 81.693 8.24925 82.8723C8.24206 84.1392 8.23486 85.4062 8.22745 86.7114C8.22684 88.0734 8.2271 89.4353 8.22818 90.7972C8.22863 94.4519 8.21702 98.1065 8.20296 101.761C8.19159 105.188 8.19103 108.614 8.18961 112.041C8.1791 122.069 8.15118 132.097 8.1254 142.125C8.08415 164.524 8.0429 186.923 8.0004 210C61.4604 210 114.92 210 170 210C170 207.69 170 205.38 170 203C169.214 203.002 168.427 203.004 167.617 203.006C148.497 203.05 129.377 203.083 110.258 203.104C101.012 203.114 91.7659 203.128 82.5199 203.151C74.4635 203.171 66.4071 203.184 58.3506 203.188C54.0827 203.191 49.8148 203.197 45.5468 203.211C41.5332 203.225 37.5197 203.229 33.506 203.226C32.0298 203.227 30.5535 203.231 29.0772 203.238C27.068 203.248 25.0587 203.245 23.0494 203.241C21.3597 203.243 21.3597 203.243 19.636 203.246C17.0004 203 17.0004 203 15.0004 201C14.7487 198.151 14.7487 198.151 14.7464 194.433C14.7433 193.751 14.7402 193.068 14.737 192.366C14.729 190.068 14.7353 187.772 14.7416 185.475C14.7389 183.832 14.7353 182.19 14.731 180.548C14.7218 176.079 14.7254 171.61 14.7317 167.141C14.7368 162.472 14.7321 157.803 14.729 153.134C14.7253 145.292 14.7301 137.451 14.7397 129.609C14.7505 120.533 14.747 111.457 14.736 102.381C14.7269 94.5988 14.7256 86.8171 14.7309 79.0354C14.734 74.3829 14.7344 69.7305 14.7278 65.0781C14.722 60.7049 14.726 56.3318 14.7376 51.9587C14.7402 50.3502 14.7395 48.7417 14.7351 47.1332C14.7296 44.9443 14.7364 42.7559 14.7464 40.567C14.7472 39.34 14.7479 38.1129 14.7487 36.8486C15.0004 34 15.0004 34 17.0004 32C19.9166 31.8021 22.738 31.7309 25.6554 31.746C27.0157 31.7414 27.0157 31.7414 28.4034 31.7366C31.4606 31.7286 34.5175 31.735 37.5746 31.7412C39.7588 31.7385 41.943 31.735 44.1273 31.7306C50.0734 31.7215 56.0194 31.725 61.9656 31.7314C68.176 31.7364 74.3864 31.7317 80.5968 31.7286C91.6969 31.7247 102.797 31.7309 113.897 31.7411C123.968 31.75 134.039 31.7485 144.111 31.7393C155.797 31.7286 167.482 31.7246 179.168 31.7305C185.358 31.7336 191.547 31.734 197.737 31.7274C203.554 31.7217 209.372 31.7256 215.19 31.7372C217.33 31.7399 219.471 31.7391 221.612 31.7347C224.523 31.7293 227.434 31.736 230.345 31.746C231.202 31.7416 232.059 31.7371 232.941 31.7325C238.772 31.7717 238.772 31.7717 241 34C241.246 35.9328 241.246 35.9328 241.241 38.3406C241.245 39.7078 241.245 39.7078 241.249 41.1027C241.238 42.6067 241.238 42.6067 241.227 44.1411C241.228 45.1948 241.228 46.2485 241.228 47.3341C241.227 50.8296 241.211 54.3249 241.196 57.8203C241.192 60.2389 241.189 62.6574 241.187 65.0759C241.179 71.4513 241.16 77.8267 241.138 84.202C241.117 90.7037 241.108 97.2054 241.098 103.707C241.077 116.471 241.043 129.236 241 142C238.688 143.125 238.688 143.125 236 144C235.01 143.34 234.02 142.68 233 142C233 108.67 233 75.34 233 41C163.7 41 94.4004 41 23.0004 41C23.0004 91.82 23.0004 142.64 23.0004 195C71.5104 195 120.02 195 170 195C170 189.72 170 184.44 170 179C167.754 178.87 165.508 178.74 163.262 178.609C161 178 161 178 159.223 176.246C157.831 173.688 157.732 172.199 157.75 169.313C157.399 163.767 155.055 161.143 151.539 157.027C150 155 150 155 149.313 151.813C150.33 147.651 152.335 144.415 155.614 141.629C157.483 139.434 157.332 137.973 157.375 135.125C157.667 131.499 157.936 130.102 159.938 126.938C163.655 124.586 166.194 124.64 170.493 124.441C174.15 123.798 176.055 121.945 178.625 119.375C180.537 117.464 181.902 117.019 184.563 116.5C188.444 117.065 189.358 117.934 192.25 120.438C196.498 124.031 199.374 124.596 204.829 124.766C207 125 207 125 209.563 126.938C211.768 130.101 212.066 131.885 212.188 135.688C212.526 139.756 213.199 141.714 216.063 144.625C218.422 147.058 219.508 148.576 219.75 152C219.448 156.27 217.278 158.084 214.383 161.012C212.578 163.608 212.564 165.489 212.438 168.625C212.269 172.583 212.152 173.772 209.875 177.188C207 179 207 179 200 179C200 184.28 200 189.56 200 195C210.89 195 221.78 195 233 195C233 182.46 233 169.92 233 157C235.475 156.01 235.475 156.01 238 155C238.99 155.66 239.98 156.32 241 157C241.375 158.897 241.375 158.897 241.373 161.234C241.379 162.109 241.385 162.983 241.392 163.884C241.378 165.303 241.378 165.303 241.364 166.75C241.364 168.204 241.364 168.204 241.365 169.687C241.363 171.738 241.353 173.789 241.337 175.84C241.313 178.987 241.316 182.134 241.323 185.281C241.317 187.271 241.31 189.26 241.301 191.25C241.302 192.196 241.303 193.142 241.304 194.116C241.294 194.991 241.285 195.865 241.275 196.766C241.27 197.537 241.266 198.308 241.261 199.103C241 201 241 201 239 203C236.059 203.175 233.214 203.231 230.274 203.195C228.98 203.191 228.98 203.191 227.659 203.187C224.898 203.176 222.137 203.15 219.375 203.125C217.506 203.115 215.636 203.106 213.766 203.098C209.177 203.076 204.589 203.041 200 203C200 205.31 200 207.62 200 210C215.84 210 231.68 210 248 210C247.67 149.28 247.34 88.56 247 26C168.46 26 89.9204 26 9.0004 26C8.6704 36.89 8.3404 47.78 8.0004 59C6.0004 61 6.0004 61 3.4379 61.1875C1.0004 61 1.0004 61 0.000396729 60C-0.292107 54.6579 -0.313701 49.3132 -0.349701 43.9639C-0.366238 42.1617 -0.393498 40.3595 -0.431732 38.5576C-0.486586 35.96 -0.508389 33.3638 -0.523041 30.7656C-0.54571 29.9634 -0.56838 29.1611 -0.591736 28.3345C-0.588886 27.5774 -0.586036 26.8202 -0.583099 26.0401C-0.591186 25.3791 -0.599273 24.7182 -0.607605 24.0372C1.72091 16.2353 8.10736 16.2843 14.9071 16.3651ZM178 131C175.567 132.217 173.582 132.32 170.875 132.563C169.965 132.646 169.055 132.73 168.118 132.816C167.07 132.907 167.07 132.907 166 133C165.975 133.652 165.949 134.305 165.922 134.977C165.543 140.815 164.708 144.282 161 149C160.311 150.322 159.639 151.653 159 153C159.422 153.389 159.843 153.779 160.278 154.18C164.613 158.607 165.685 161.784 165.797 167.961C165.864 168.634 165.931 169.307 166 170C168.122 171.261 168.122 171.261 171.313 170.875C177.261 171.077 180.545 174.308 185 178C185.399 177.578 185.797 177.157 186.207 176.723C186.737 176.175 187.267 175.627 187.813 175.063C188.335 174.517 188.857 173.972 189.395 173.41C192.127 171.01 194.659 170.898 198.125 171C199.404 171 200.683 171 202 171C203.642 169.358 203.399 167.195 203.688 164.938C204.683 159.028 207.012 155.377 211 151C210.217 150.258 209.433 149.515 208.625 148.75C205.079 145.035 203.824 142.338 203.375 137.25C203.301 136.451 203.226 135.652 203.149 134.828C203.1 134.225 203.051 133.622 203 133C202.337 132.951 201.673 132.902 200.989 132.852C191.442 132.043 191.442 132.043 188 130C186.688 127.875 186.688 127.875 186 126C182.554 126 180.525 128.844 178 131ZM178 184C178 198.52 178 213.04 178 228C179.485 227.505 179.485 227.505 181 227C184.684 226.868 187.491 226.83 191 228C191 213.81 191 199.62 191 185C186.545 185.495 186.545 185.495 182 186C180.68 185.34 179.36 184.68 178 184Z" fill="white"/>
<path d="M52.3329 86.8664C53.002 86.8641 53.6712 86.8619 54.3606 86.8595C56.6192 86.8532 58.8778 86.854 61.1365 86.8549C62.7491 86.8519 64.3618 86.8485 65.9744 86.8447C70.3669 86.8358 74.7594 86.8335 79.1519 86.8329C82.8127 86.8319 86.4734 86.8282 90.1342 86.8247C98.7674 86.8165 107.401 86.8141 116.034 86.8148C124.954 86.8154 133.874 86.8049 142.794 86.7891C150.439 86.776 158.085 86.7706 165.731 86.7713C170.303 86.7715 174.875 86.7686 179.447 86.7581C183.745 86.7485 188.044 86.7483 192.342 86.7556C193.923 86.7567 195.504 86.7543 197.085 86.7483C199.237 86.7406 201.388 86.7451 203.54 86.7529C205.35 86.7521 205.35 86.7521 207.195 86.7512C210 87.0001 210 87.0001 212 89.0001C211.444 93.5557 211.444 93.5557 210 95.0001C207.889 95.0992 205.774 95.1264 203.66 95.1271C202.991 95.1287 202.321 95.1302 201.631 95.1318C199.37 95.1358 197.109 95.1327 194.848 95.1295C193.233 95.1309 191.619 95.1327 190.005 95.1348C185.608 95.1394 181.212 95.1376 176.815 95.1344C172.225 95.1319 167.634 95.1343 163.043 95.1358C155.333 95.1377 147.622 95.1353 139.911 95.1305C130.983 95.1251 122.055 95.1268 113.128 95.1323C105.477 95.1369 97.8258 95.1375 90.1748 95.1349C85.599 95.1333 81.0231 95.1331 76.4473 95.1364C72.1464 95.1393 67.8455 95.1373 63.5447 95.1315C61.9615 95.1302 60.3784 95.1306 58.7953 95.1328C56.6434 95.1355 54.4915 95.1321 52.3396 95.1271C50.5288 95.1265 50.5288 95.1265 48.6815 95.126C46 95.0001 46 95.0001 45 94.0001C44.875 91.0001 44.875 91.0001 45 88.0001C46.8469 86.1533 49.8619 86.8698 52.3329 86.8664Z" fill="white"/>
<path d="M48.2314 63.8773C49.7233 63.8787 49.7233 63.8787 51.2454 63.8801C52.3827 63.8788 53.5199 63.8774 54.6917 63.876C55.9505 63.8796 57.2092 63.8832 58.5061 63.8869C59.823 63.8867 61.1399 63.8866 62.4966 63.8864C66.1184 63.8861 69.7401 63.892 73.3618 63.899C77.1428 63.9052 80.9238 63.9058 84.7048 63.907C91.8694 63.9101 99.034 63.9184 106.199 63.9284C114.353 63.9395 122.508 63.945 130.663 63.9501C147.442 63.9605 164.221 63.9781 181 64.0004C181.625 66.8754 181.625 66.8754 182 70.0004C180 72.0004 180 72.0004 177.664 72.2493C176.679 72.2487 175.694 72.2482 174.679 72.2476C173.55 72.2518 172.421 72.256 171.258 72.2603C170.014 72.2547 168.77 72.2491 167.488 72.2433C165.53 72.2462 165.53 72.2462 163.531 72.2491C159.945 72.2539 156.358 72.2463 152.772 72.2361C149.024 72.2273 145.277 72.2291 141.53 72.2295C135.238 72.2285 128.945 72.2198 122.653 72.2062C115.369 72.1905 108.084 72.1852 100.799 72.1859C93.8028 72.1866 86.8061 72.1815 79.8094 72.1732C76.8265 72.1696 73.8437 72.1678 70.8609 72.1673C66.7014 72.1661 62.542 72.1564 58.3826 72.1457C56.5132 72.1463 56.5132 72.1463 54.606 72.147C52.917 72.1406 52.917 72.1406 51.194 72.1341C50.2093 72.1324 49.2247 72.1308 48.2102 72.129C46 72.0004 46 72.0004 45 71.0004C44.875 68.0004 44.875 68.0004 45 65.0004C46 64.0004 46 64.0004 48.2314 63.8773Z" fill="white"/>
<path d="M57.5 132.75C60 133 60 133 62 135C62.5625 137.351 62.5625 137.351 63 140.27C63.2475 141.85 63.2475 141.85 63.5 143.463C63.7475 145.121 63.7475 145.121 64 146.812C64.328 148.986 64.6611 151.16 65 153.332C65.1444 154.299 65.2887 155.265 65.4375 156.261C66.0045 159.022 66.8736 161.422 68 164C68.66 164 69.32 164 70 164C70.6187 163.031 71.2375 162.061 71.875 161.062C74 158 74 158 76.0625 157C78 157 78 157 81 159C82.1875 161.625 82.1875 161.625 83 164C84.3929 164.038 84.3929 164.038 85.814 164.076C89.2544 164.171 92.6946 164.27 96.1348 164.372C97.6246 164.416 99.1145 164.457 100.604 164.497C102.744 164.555 104.884 164.619 107.023 164.684C108.956 164.739 108.956 164.739 110.927 164.795C114 165 114 165 116 166C117.09 168.974 117.039 169.884 116 173C111.651 175.174 105.82 174.227 100.989 174.24C98.838 174.25 96.6879 174.281 94.5371 174.312C93.1563 174.319 91.7754 174.324 90.3945 174.328C88.5205 174.342 88.5205 174.342 86.6086 174.356C83.4966 174.049 81.9233 173.656 79.1941 172.394C78.14 171.934 77.086 171.474 76 171C73.4633 172.355 73.4633 172.355 71 174C66.9469 173.929 64.7889 173.644 61.625 171.062C60 169 60 169 59 167C58.6507 167.855 58.3013 168.709 57.9414 169.59C57.2588 171.247 57.2588 171.247 56.5625 172.938C56.11 174.04 55.6576 175.142 55.1914 176.277C54 179 54 179 53 180C50.5625 180.188 50.5625 180.188 48 180C47.34 179.34 46.68 178.68 46 178C46.3921 173.096 47.6181 168.538 48.9375 163.812C50.919 156.425 51.7663 149.095 52.3162 141.476C52.3794 140.661 52.4427 139.847 52.5078 139.008C52.5557 138.282 52.6035 137.557 52.6528 136.809C53.2439 133.729 54.4883 133.051 57.5 132.75Z" fill="white"/>
<path d="M55.7166 108.855C56.6191 108.852 57.5217 108.848 58.4516 108.845C61.4456 108.835 64.4396 108.833 67.4336 108.832C69.5086 108.829 71.5837 108.826 73.6587 108.822C78.0125 108.816 82.3662 108.814 86.72 108.815C92.3067 108.815 97.8934 108.801 103.48 108.784C107.767 108.773 112.054 108.771 116.34 108.771C118.4 108.77 120.461 108.766 122.521 108.758C125.399 108.748 128.276 108.751 131.154 108.757C132.01 108.752 132.865 108.746 133.747 108.74C139.658 108.772 139.658 108.772 143 111C143.312 113.5 143.312 113.5 143 116C140.351 118.649 138.412 118.241 134.808 118.26C133.939 118.255 133.071 118.249 132.176 118.243C130.805 118.246 130.805 118.246 129.406 118.249C126.375 118.253 123.344 118.242 120.312 118.231C118.213 118.229 116.113 118.229 114.013 118.229C109.608 118.228 105.203 118.219 100.798 118.206C95.1415 118.189 89.4852 118.185 83.8289 118.186C79.4916 118.186 75.1543 118.18 70.817 118.173C68.7309 118.17 66.6448 118.168 64.5587 118.167C61.6472 118.165 58.7357 118.156 55.8242 118.145C54.9556 118.146 54.0869 118.146 53.192 118.147C47.229 118.115 47.229 118.115 45 117C45 114.69 45 112.38 45 110C48.3275 108.336 52.0579 108.853 55.7166 108.855Z" fill="white"/>
<path d="M193.375 138.562C197.535 142.425 199.678 145.784 200.5 151.437C199.773 156.622 198.477 161.082 194.2 164.394C189.799 166.813 186.054 167.655 181 167C175.663 165.011 172.547 162.093 170 157C169.476 151.744 169.38 147.335 171.625 142.5C177.615 136.195 185.528 134.929 193.375 138.562ZM180.125 147.062C177.689 149.826 177.689 149.826 178 153.187C178.788 156.29 178.788 156.29 182 158C185.121 158.325 187.148 158.511 189.875 156.875C191.529 154.119 191.394 152.149 191 149C189.467 146.659 188.201 146.084 185.625 145C182.766 144.745 182.766 144.745 180.125 147.062Z" fill="white"/>
</g>
<defs>
<clipPath id="clip0_79_9466">
<rect width="256" height="256" fill="white"/>
</clipPath>
</defs>
</svg>
