<svg width="80" height="80" viewBox="0 0 80 80" fill="none" xmlns="http://www.w3.org/2000/svg">
<path d="M12.7214 41.9883C12.9464 41.9877 13.1714 41.9869 13.3964 41.9859C14.004 41.9838 14.6116 41.9837 15.2192 41.9841C15.7282 41.9843 16.2372 41.9835 16.7462 41.9828C17.9481 41.9811 19.15 41.981 20.3519 41.9819C21.5877 41.9829 22.8234 41.981 24.0591 41.9776C25.1238 41.9749 26.1885 41.9739 27.2531 41.9744C27.8874 41.9747 28.5216 41.9743 29.1558 41.9722C29.7529 41.9702 30.3498 41.9705 30.9469 41.9725C31.1645 41.9729 31.3822 41.9725 31.5999 41.9712C32.9597 41.9636 34.166 42.1019 35.4688 42.5C35.4696 42.762 35.4696 42.762 35.4705 43.0293C35.4763 44.6798 35.4853 46.3303 35.4975 47.9807C35.5036 48.8292 35.5087 49.6775 35.5111 50.526C35.5135 51.3456 35.5189 52.1652 35.5263 52.9848C35.5286 53.2966 35.5298 53.6085 35.53 53.9203C35.4879 56.4338 35.4879 56.4338 36.5405 58.6566C37.6942 59.5934 38.6854 59.8851 40.1562 60C40.1562 60.5156 40.1562 61.0313 40.1562 61.5625C28.1938 61.5625 16.2312 61.5625 3.90625 61.5625C3.90625 46.397 3.90625 46.397 5.83618 44.3103C7.80541 42.4157 10.0756 41.983 12.7214 41.9883Z" fill="#1300D6"/>
<path d="M40.2147 31.7768C40.3648 31.7757 40.5148 31.7746 40.6694 31.7735C41.1735 31.7707 41.6774 31.7736 42.1815 31.7764C42.5423 31.7756 42.9032 31.7745 43.264 31.773C44.2451 31.7701 45.2261 31.7721 46.2072 31.7752C47.2326 31.7778 48.2581 31.7764 49.2836 31.7756C51.0059 31.7747 52.7282 31.7774 54.4505 31.7817C56.223 31.7862 57.9953 31.7873 59.7678 31.7849C61.9031 31.782 64.0384 31.7823 66.1738 31.7853C66.9896 31.7864 67.8055 31.7862 68.6214 31.785C69.5817 31.7838 70.542 31.7857 71.5023 31.79C71.8553 31.7911 72.2083 31.7911 72.5613 31.79C73.0421 31.7886 73.5228 31.7911 74.0036 31.7946C74.2145 31.7927 74.2145 31.7927 74.4297 31.7907C75.0183 31.7986 75.3649 31.8085 75.8676 32.131C76.1609 32.6101 76.1721 32.9233 76.1729 33.4845C76.1747 33.6869 76.1764 33.8893 76.1782 34.0979C76.177 34.3219 76.1757 34.5459 76.1744 34.7699C76.1752 35.006 76.1764 35.2422 76.1777 35.4783C76.1806 36.1195 76.1795 36.7606 76.1775 37.4017C76.1759 38.0725 76.1774 38.7433 76.1783 39.414C76.1795 40.5405 76.178 41.667 76.175 42.7934C76.1716 44.096 76.1727 45.3986 76.1762 46.7012C76.179 47.8193 76.1794 48.9374 76.1778 50.0555C76.1768 50.7234 76.1767 51.3913 76.1787 52.0592C76.1805 52.6872 76.1793 53.315 76.1757 53.943C76.1748 54.1735 76.1751 54.404 76.1764 54.6346C76.1782 54.9491 76.1756 55.2636 76.1729 55.578C76.1727 55.7541 76.1724 55.9302 76.1722 56.1116C76.0754 56.6665 75.9089 56.8466 75.4685 57.1875C74.87 57.387 74.3079 57.3643 73.6844 57.3615C73.4831 57.3615 73.4831 57.3615 73.2778 57.3616C72.8339 57.3615 72.39 57.3602 71.9462 57.359C71.6386 57.3587 71.331 57.3585 71.0234 57.3583C70.2134 57.3577 69.4035 57.3562 68.5936 57.3545C67.7673 57.3529 66.9409 57.3522 66.1146 57.3514C64.493 57.3497 62.8714 57.347 61.2498 57.3438C61.2957 57.5688 61.3427 57.7935 61.3902 58.0182C61.4292 58.206 61.4292 58.206 61.4691 58.3976C61.5833 58.8296 61.7844 59.1612 62.031 59.5313C62.031 59.6344 62.031 59.7375 62.031 59.8438C62.1213 59.8792 62.2115 59.9147 62.3045 59.9512C62.7543 60.2136 62.9958 60.5044 63.281 60.9375C63.2295 61.0922 63.1779 61.2469 63.1248 61.4063C62.0465 61.6063 60.9716 61.5878 59.8777 61.5887C59.6682 61.5893 59.4587 61.5898 59.2492 61.5903C58.8116 61.5913 58.374 61.5916 57.9364 61.5915C57.378 61.5914 56.8195 61.5936 56.2611 61.5963C55.8289 61.598 55.3968 61.5983 54.9646 61.5982C54.6593 61.5985 54.3541 61.6002 54.0488 61.6019C52.2507 61.5973 52.2507 61.5973 51.406 61.25C51.3545 61.1469 51.3029 61.0438 51.2498 60.9375C51.3601 60.813 51.3601 60.813 51.4726 60.686C51.5698 60.5757 51.6671 60.4653 51.7674 60.3516C51.8634 60.2428 51.9595 60.134 52.0585 60.022C52.5799 59.4102 52.8782 58.9551 53.076 58.1641C53.1152 58.0102 53.1545 57.8563 53.195 57.6978C53.2234 57.5809 53.2518 57.4641 53.281 57.3438C53.1066 57.3448 52.9321 57.3458 52.7524 57.3469C51.1086 57.3564 49.4648 57.3634 47.8209 57.368C46.9758 57.3705 46.1307 57.3738 45.2856 57.3791C44.4701 57.3842 43.6545 57.387 42.839 57.3882C42.5278 57.3891 42.2166 57.3908 41.9054 57.3933C41.4696 57.3967 41.0339 57.3972 40.5981 57.397C40.4694 57.3987 40.3407 57.4003 40.2082 57.4021C39.4891 57.3982 39.0197 57.3431 38.4373 56.875C38.0712 56.3259 38.085 56.1033 38.083 55.4535C38.0817 55.2541 38.0803 55.0548 38.079 54.8494C38.0791 54.628 38.0792 54.4066 38.0794 54.1853C38.0785 53.9525 38.0774 53.7197 38.0762 53.4869C38.0734 52.8541 38.0727 52.2214 38.0725 51.5886C38.0722 51.0606 38.0711 50.5325 38.07 50.0044C38.0674 48.7585 38.0667 47.5126 38.0669 46.2667C38.0671 44.9813 38.0638 43.6958 38.0588 42.4104C38.0547 41.307 38.0531 40.2036 38.0533 39.1002C38.0533 38.4411 38.0525 37.782 38.0491 37.1229C38.0461 36.503 38.0461 35.8831 38.0484 35.2631C38.0487 35.0356 38.048 34.8082 38.0461 34.5807C38.0437 34.2701 38.0455 33.9594 38.0475 33.6487C38.0473 33.4749 38.0472 33.3011 38.047 33.122C38.2685 31.7959 39.0663 31.7617 40.2147 31.7768ZM39.8435 33.4375C39.8435 39.6766 39.8435 45.9156 39.8435 52.3438C51.2388 52.3438 62.6342 52.3438 74.3748 52.3438C74.3748 46.1047 74.3748 39.8656 74.3748 33.4375C62.9795 33.4375 51.5842 33.4375 39.8435 33.4375ZM55.9373 55C55.807 55.4755 55.807 55.4755 55.9373 55.9375C56.3422 56.3901 56.5971 56.5427 57.197 56.6406C57.6659 56.5937 57.6659 56.5937 58.0271 56.3086C58.3612 55.8203 58.3877 55.581 58.281 55C57.9232 54.5297 57.6886 54.266 57.1092 54.1211C56.5297 54.266 56.2951 54.5297 55.9373 55Z" fill="#1300D6"/>
<path d="M29.3904 21.4075C31.3161 23.4241 32.328 25.9742 32.4024 28.75C32.3259 31.8517 31.1133 34.4117 28.9063 36.5625C26.9663 38.1892 24.3525 39.2198 21.7903 39.1071C18.7281 38.7517 16.1049 37.7365 14.0626 35.3125C12.148 32.7264 11.4991 29.8602 11.9202 26.692C12.4102 24.1079 13.9997 21.8539 16.1036 20.3223C20.3682 17.5577 25.6099 17.9286 29.3904 21.4075Z" fill="#1300D6"/>
</svg>
