<svg width="272" height="102" viewBox="0 0 272 102" fill="none" xmlns="http://www.w3.org/2000/svg">
<g opacity="0.5" filter="url(#filter0_f_277_199)">
<rect x="257.295" y="88.9995" width="4" height="4" rx="2" transform="rotate(179.807 257.295 88.9995)" fill="url(#paint0_linear_277_199)"/>
<rect x="229.295" y="89.0938" width="4" height="4" rx="2" transform="rotate(179.807 229.295 89.0938)" fill="url(#paint1_linear_277_199)"/>
<rect x="201.295" y="89.1882" width="4" height="4" rx="2" transform="rotate(179.807 201.295 89.1882)" fill="url(#paint2_linear_277_199)"/>
<rect x="173.295" y="89.2825" width="4" height="4" rx="2" transform="rotate(179.807 173.295 89.2825)" fill="url(#paint3_linear_277_199)"/>
<rect x="145.296" y="89.3767" width="4" height="4" rx="2" transform="rotate(179.807 145.296 89.3767)" fill="url(#paint4_linear_277_199)"/>
<rect x="117.296" y="89.4712" width="4" height="4" rx="2" transform="rotate(179.807 117.296 89.4712)" fill="url(#paint5_linear_277_199)"/>
<rect x="89.2959" y="89.5654" width="4" height="4" rx="2" transform="rotate(179.807 89.2959 89.5654)" fill="url(#paint6_linear_277_199)"/>
<rect x="61.2959" y="89.6597" width="4" height="4" rx="2" transform="rotate(179.807 61.2959 89.6597)" fill="url(#paint7_linear_277_199)"/>
<rect x="33.2959" y="89.7539" width="4" height="4" rx="2" transform="rotate(179.807 33.2959 89.7539)" fill="url(#paint8_linear_277_199)"/>
<rect x="5.2959" y="89.8484" width="4" height="4" rx="2" transform="rotate(179.807 5.2959 89.8484)" fill="url(#paint9_linear_277_199)"/>
<path d="M257.187 56.9998C257.194 59.2089 255.409 61.0058 253.2 61.0132L253.187 57.0133L257.187 56.9998Z" fill="#188AEC" fill-opacity="0.5"/>
<path d="M257.187 56.9998C257.194 59.2089 255.409 61.0058 253.2 61.0132L253.187 57.0133L257.187 56.9998Z" fill="#6BABCE"/>
<path d="M257.187 56.9998C257.194 59.2089 255.409 61.0058 253.2 61.0132L253.187 57.0133L257.187 56.9998Z" fill="#EBFCFF"/>
<path d="M257.187 56.9998C257.194 59.2089 255.409 61.0058 253.2 61.0132L253.187 57.0133L257.187 56.9998Z" fill="#7DD1FF" fill-opacity="0.5"/>
<path d="M257.187 56.9998C257.194 59.2089 255.409 61.0058 253.2 61.0132L253.187 57.0133L257.187 56.9998Z" fill="#1E90FF"/>
<path d="M257.187 56.9998C257.194 59.2089 255.409 61.0058 253.2 61.0132L253.187 57.0133L257.187 56.9998Z" fill="#B4DBFE"/>
<path d="M257.187 56.9998C257.194 59.2089 255.409 61.0058 253.2 61.0132L253.187 57.0133L257.187 56.9998Z" fill="#7DD1FF"/>
<path d="M257.187 56.9998C257.194 59.2089 255.409 61.0058 253.2 61.0132L253.187 57.0133L257.187 56.9998Z" fill="#188AEC" fill-opacity="0.5"/>
<path d="M229.2 61.094C226.991 61.1014 225.194 59.3166 225.187 57.1075L229.187 57.094L229.2 61.094Z" fill="#188AEC" fill-opacity="0.5"/>
<path d="M229.2 61.094C226.991 61.1014 225.194 59.3166 225.187 57.1075L229.187 57.094L229.2 61.094Z" fill="#6BABCE"/>
<path d="M229.2 61.094C226.991 61.1014 225.194 59.3166 225.187 57.1075L229.187 57.094L229.2 61.094Z" fill="#EBFCFF"/>
<path d="M229.2 61.094C226.991 61.1014 225.194 59.3166 225.187 57.1075L229.187 57.094L229.2 61.094Z" fill="#7DD1FF" fill-opacity="0.5"/>
<path d="M229.2 61.094C226.991 61.1014 225.194 59.3166 225.187 57.1075L229.187 57.094L229.2 61.094Z" fill="#1E90FF"/>
<path d="M229.2 61.094C226.991 61.1014 225.194 59.3166 225.187 57.1075L229.187 57.094L229.2 61.094Z" fill="#B4DBFE"/>
<path d="M229.2 61.094C226.991 61.1014 225.194 59.3166 225.187 57.1075L229.187 57.094L229.2 61.094Z" fill="#7DD1FF"/>
<path d="M229.2 61.094C226.991 61.1014 225.194 59.3166 225.187 57.1075L229.187 57.094L229.2 61.094Z" fill="#188AEC" fill-opacity="0.5"/>
<path d="M201.2 61.1885L197.2 61.2019L197.187 57.202C199.396 57.1945 201.193 58.9794 201.2 61.1885Z" fill="#188AEC" fill-opacity="0.5"/>
<path d="M201.2 61.1885L197.2 61.2019L197.187 57.202C199.396 57.1945 201.193 58.9794 201.2 61.1885Z" fill="#6BABCE"/>
<path d="M201.2 61.1885L197.2 61.2019L197.187 57.202C199.396 57.1945 201.193 58.9794 201.2 61.1885Z" fill="#EBFCFF"/>
<path d="M201.2 61.1885L197.2 61.2019L197.187 57.202C199.396 57.1945 201.193 58.9794 201.2 61.1885Z" fill="#7DD1FF" fill-opacity="0.5"/>
<path d="M201.2 61.1885L197.2 61.2019L197.187 57.202C199.396 57.1945 201.193 58.9794 201.2 61.1885Z" fill="#1E90FF"/>
<path d="M201.2 61.1885L197.2 61.2019L197.187 57.202C199.396 57.1945 201.193 58.9794 201.2 61.1885Z" fill="#B4DBFE"/>
<path d="M201.2 61.1885L197.2 61.2019L197.187 57.202C199.396 57.1945 201.193 58.9794 201.2 61.1885Z" fill="#7DD1FF"/>
<path d="M201.2 61.1885L197.2 61.2019L197.187 57.202C199.396 57.1945 201.193 58.9794 201.2 61.1885Z" fill="#188AEC" fill-opacity="0.5"/>
<path d="M173.2 61.2827L169.2 61.2962C169.193 59.0871 170.978 57.2902 173.187 57.2827L173.2 61.2827Z" fill="#188AEC" fill-opacity="0.5"/>
<path d="M173.2 61.2827L169.2 61.2962C169.193 59.0871 170.978 57.2902 173.187 57.2827L173.2 61.2827Z" fill="#6BABCE"/>
<path d="M173.2 61.2827L169.2 61.2962C169.193 59.0871 170.978 57.2902 173.187 57.2827L173.2 61.2827Z" fill="#EBFCFF"/>
<path d="M173.2 61.2827L169.2 61.2962C169.193 59.0871 170.978 57.2902 173.187 57.2827L173.2 61.2827Z" fill="#7DD1FF" fill-opacity="0.5"/>
<path d="M173.2 61.2827L169.2 61.2962C169.193 59.0871 170.978 57.2902 173.187 57.2827L173.2 61.2827Z" fill="#1E90FF"/>
<path d="M173.2 61.2827L169.2 61.2962C169.193 59.0871 170.978 57.2902 173.187 57.2827L173.2 61.2827Z" fill="#B4DBFE"/>
<path d="M173.2 61.2827L169.2 61.2962C169.193 59.0871 170.978 57.2902 173.187 57.2827L173.2 61.2827Z" fill="#7DD1FF"/>
<path d="M173.2 61.2827L169.2 61.2962C169.193 59.0871 170.978 57.2902 173.187 57.2827L173.2 61.2827Z" fill="#188AEC" fill-opacity="0.5"/>
<rect x="145.201" y="61.377" width="4" height="4" rx="2" transform="rotate(179.807 145.201 61.377)" fill="#188AEC" fill-opacity="0.5"/>
<rect x="145.201" y="61.377" width="4" height="4" rx="2" transform="rotate(179.807 145.201 61.377)" fill="#6BABCE"/>
<rect x="145.201" y="61.377" width="4" height="4" rx="2" transform="rotate(179.807 145.201 61.377)" fill="#EBFCFF"/>
<rect x="145.201" y="61.377" width="4" height="4" rx="2" transform="rotate(179.807 145.201 61.377)" fill="#7DD1FF" fill-opacity="0.5"/>
<rect x="145.201" y="61.377" width="4" height="4" rx="2" transform="rotate(179.807 145.201 61.377)" fill="#1E90FF"/>
<rect x="145.201" y="61.377" width="4" height="4" rx="2" transform="rotate(179.807 145.201 61.377)" fill="#B4DBFE"/>
<rect x="145.201" y="61.377" width="4" height="4" rx="2" transform="rotate(179.807 145.201 61.377)" fill="#7DD1FF"/>
<rect x="145.201" y="61.377" width="4" height="4" rx="2" transform="rotate(179.807 145.201 61.377)" fill="#188AEC" fill-opacity="0.5"/>
<path d="M117.188 57.4715C117.195 59.6806 115.41 61.4775 113.201 61.4849L113.188 57.4849L117.188 57.4715Z" fill="#188AEC" fill-opacity="0.5"/>
<path d="M117.188 57.4715C117.195 59.6806 115.41 61.4775 113.201 61.4849L113.188 57.4849L117.188 57.4715Z" fill="#6BABCE"/>
<path d="M117.188 57.4715C117.195 59.6806 115.41 61.4775 113.201 61.4849L113.188 57.4849L117.188 57.4715Z" fill="#EBFCFF"/>
<path d="M117.188 57.4715C117.195 59.6806 115.41 61.4775 113.201 61.4849L113.188 57.4849L117.188 57.4715Z" fill="#7DD1FF" fill-opacity="0.5"/>
<path d="M117.188 57.4715C117.195 59.6806 115.41 61.4775 113.201 61.4849L113.188 57.4849L117.188 57.4715Z" fill="#1E90FF"/>
<path d="M117.188 57.4715C117.195 59.6806 115.41 61.4775 113.201 61.4849L113.188 57.4849L117.188 57.4715Z" fill="#B4DBFE"/>
<path d="M117.188 57.4715C117.195 59.6806 115.41 61.4775 113.201 61.4849L113.188 57.4849L117.188 57.4715Z" fill="#7DD1FF"/>
<path d="M117.188 57.4715C117.195 59.6806 115.41 61.4775 113.201 61.4849L113.188 57.4849L117.188 57.4715Z" fill="#188AEC" fill-opacity="0.5"/>
<path d="M89.2012 61.5657C86.992 61.5731 85.1952 59.7883 85.1877 57.5792L89.1877 57.5657L89.2012 61.5657Z" fill="#188AEC" fill-opacity="0.5"/>
<path d="M89.2012 61.5657C86.992 61.5731 85.1952 59.7883 85.1877 57.5792L89.1877 57.5657L89.2012 61.5657Z" fill="#6BABCE"/>
<path d="M89.2012 61.5657C86.992 61.5731 85.1952 59.7883 85.1877 57.5792L89.1877 57.5657L89.2012 61.5657Z" fill="#EBFCFF"/>
<path d="M89.2012 61.5657C86.992 61.5731 85.1952 59.7883 85.1877 57.5792L89.1877 57.5657L89.2012 61.5657Z" fill="#7DD1FF" fill-opacity="0.5"/>
<path d="M89.2012 61.5657C86.992 61.5731 85.1952 59.7883 85.1877 57.5792L89.1877 57.5657L89.2012 61.5657Z" fill="#1E90FF"/>
<path d="M89.2012 61.5657C86.992 61.5731 85.1952 59.7883 85.1877 57.5792L89.1877 57.5657L89.2012 61.5657Z" fill="#B4DBFE"/>
<path d="M89.2012 61.5657C86.992 61.5731 85.1952 59.7883 85.1877 57.5792L89.1877 57.5657L89.2012 61.5657Z" fill="#7DD1FF"/>
<path d="M89.2012 61.5657C86.992 61.5731 85.1952 59.7883 85.1877 57.5792L89.1877 57.5657L89.2012 61.5657Z" fill="#188AEC" fill-opacity="0.5"/>
<path d="M61.2012 61.6599L57.2012 61.6734L57.1877 57.6734C59.3968 57.666 61.1937 59.4508 61.2012 61.6599Z" fill="#188AEC" fill-opacity="0.5"/>
<path d="M61.2012 61.6599L57.2012 61.6734L57.1877 57.6734C59.3968 57.666 61.1937 59.4508 61.2012 61.6599Z" fill="#6BABCE"/>
<path d="M61.2012 61.6599L57.2012 61.6734L57.1877 57.6734C59.3968 57.666 61.1937 59.4508 61.2012 61.6599Z" fill="#EBFCFF"/>
<path d="M61.2012 61.6599L57.2012 61.6734L57.1877 57.6734C59.3968 57.666 61.1937 59.4508 61.2012 61.6599Z" fill="#7DD1FF" fill-opacity="0.5"/>
<path d="M61.2012 61.6599L57.2012 61.6734L57.1877 57.6734C59.3968 57.666 61.1937 59.4508 61.2012 61.6599Z" fill="#1E90FF"/>
<path d="M61.2012 61.6599L57.2012 61.6734L57.1877 57.6734C59.3968 57.666 61.1937 59.4508 61.2012 61.6599Z" fill="#B4DBFE"/>
<path d="M61.2012 61.6599L57.2012 61.6734L57.1877 57.6734C59.3968 57.666 61.1937 59.4508 61.2012 61.6599Z" fill="#7DD1FF"/>
<path d="M61.2012 61.6599L57.2012 61.6734L57.1877 57.6734C59.3968 57.666 61.1937 59.4508 61.2012 61.6599Z" fill="#188AEC" fill-opacity="0.5"/>
<path d="M33.2012 61.7542L29.2012 61.7676C29.1938 59.5585 30.9786 57.7616 33.1877 57.7542L33.2012 61.7542Z" fill="#188AEC" fill-opacity="0.5"/>
<path d="M33.2012 61.7542L29.2012 61.7676C29.1938 59.5585 30.9786 57.7616 33.1877 57.7542L33.2012 61.7542Z" fill="#6BABCE"/>
<path d="M33.2012 61.7542L29.2012 61.7676C29.1938 59.5585 30.9786 57.7616 33.1877 57.7542L33.2012 61.7542Z" fill="#EBFCFF"/>
<path d="M33.2012 61.7542L29.2012 61.7676C29.1938 59.5585 30.9786 57.7616 33.1877 57.7542L33.2012 61.7542Z" fill="#7DD1FF" fill-opacity="0.5"/>
<path d="M33.2012 61.7542L29.2012 61.7676C29.1938 59.5585 30.9786 57.7616 33.1877 57.7542L33.2012 61.7542Z" fill="#1E90FF"/>
<path d="M33.2012 61.7542L29.2012 61.7676C29.1938 59.5585 30.9786 57.7616 33.1877 57.7542L33.2012 61.7542Z" fill="#B4DBFE"/>
<path d="M33.2012 61.7542L29.2012 61.7676C29.1938 59.5585 30.9786 57.7616 33.1877 57.7542L33.2012 61.7542Z" fill="#7DD1FF"/>
<path d="M33.2012 61.7542L29.2012 61.7676C29.1938 59.5585 30.9786 57.7616 33.1877 57.7542L33.2012 61.7542Z" fill="#188AEC" fill-opacity="0.5"/>
<rect x="5.20117" y="61.8486" width="4" height="4" rx="2" transform="rotate(179.807 5.20117 61.8486)" fill="#188AEC" fill-opacity="0.5"/>
<rect x="5.20117" y="61.8486" width="4" height="4" rx="2" transform="rotate(179.807 5.20117 61.8486)" fill="#6BABCE"/>
<rect x="5.20117" y="61.8486" width="4" height="4" rx="2" transform="rotate(179.807 5.20117 61.8486)" fill="#EBFCFF"/>
<rect x="5.20117" y="61.8486" width="4" height="4" rx="2" transform="rotate(179.807 5.20117 61.8486)" fill="#7DD1FF" fill-opacity="0.5"/>
<rect x="5.20117" y="61.8486" width="4" height="4" rx="2" transform="rotate(179.807 5.20117 61.8486)" fill="#1E90FF"/>
<rect x="5.20117" y="61.8486" width="4" height="4" rx="2" transform="rotate(179.807 5.20117 61.8486)" fill="#B4DBFE"/>
<rect x="5.20117" y="61.8486" width="4" height="4" rx="2" transform="rotate(179.807 5.20117 61.8486)" fill="#7DD1FF"/>
<rect x="5.20117" y="61.8486" width="4" height="4" rx="2" transform="rotate(179.807 5.20117 61.8486)" fill="#188AEC" fill-opacity="0.5"/>
<rect x="257.106" y="32.9998" width="4" height="4" rx="2" transform="rotate(179.807 257.106 32.9998)" fill="url(#paint10_radial_277_199)"/>
<rect x="229.106" y="33.094" width="4" height="4" rx="2" transform="rotate(179.807 229.106 33.094)" fill="url(#paint11_radial_277_199)"/>
<rect x="201.106" y="33.1885" width="4" height="4" rx="2" transform="rotate(179.807 201.106 33.1885)" fill="url(#paint12_radial_277_199)"/>
<rect x="173.106" y="33.2827" width="4" height="4" rx="2" transform="rotate(179.807 173.106 33.2827)" fill="url(#paint13_radial_277_199)"/>
<rect x="145.107" y="33.377" width="4" height="4" rx="2" transform="rotate(179.807 145.107 33.377)" fill="url(#paint14_radial_277_199)"/>
<rect x="117.107" y="33.4714" width="4" height="4" rx="2" transform="rotate(179.807 117.107 33.4714)" fill="url(#paint15_radial_277_199)"/>
<rect x="89.1074" y="33.5657" width="4" height="4" rx="2" transform="rotate(179.807 89.1074 33.5657)" fill="url(#paint16_radial_277_199)"/>
<rect x="61.1074" y="33.6599" width="4" height="4" rx="2" transform="rotate(179.807 61.1074 33.6599)" fill="url(#paint17_radial_277_199)"/>
<rect x="33.1074" y="33.7542" width="4" height="4" rx="2" transform="rotate(179.807 33.1074 33.7542)" fill="url(#paint18_radial_277_199)"/>
<rect x="5.10742" y="33.8486" width="4" height="4" rx="2" transform="rotate(179.807 5.10742 33.8486)" fill="url(#paint19_radial_277_199)"/>
<path d="M257.005 3.00001C257.009 4.10457 256.116 5.00302 255.012 5.00674L253.012 5.01347L253.005 3.01348C253.001 1.90892 253.894 1.01048 254.998 1.00676L256.998 1.00002L257.005 3.00001Z" fill="url(#paint20_linear_277_199)"/>
<rect x="229.012" y="5.09424" width="4" height="4" transform="rotate(179.807 229.012 5.09424)" fill="url(#paint21_linear_277_199)"/>
<path d="M201.012 5.18872L199.012 5.19546C197.907 5.19918 197.009 4.30677 197.005 3.20221L196.998 1.20222L198.998 1.19548C200.103 1.19176 201.001 2.08417 201.005 3.18873L201.012 5.18872Z" fill="url(#paint22_linear_277_199)"/>
<path d="M173.005 3.28297C173.009 4.38753 172.116 5.28598 171.012 5.2897L169.012 5.29643L169.005 3.29644C169.001 2.19188 169.894 1.29344 170.998 1.28972L172.998 1.28298L173.005 3.28297Z" fill="url(#paint23_linear_277_199)"/>
<rect x="145.013" y="5.3772" width="4" height="4" transform="rotate(179.807 145.013 5.3772)" fill="url(#paint24_linear_277_199)"/>
<path d="M117.013 5.47168L115.013 5.47842C113.908 5.48214 113.01 4.58973 113.006 3.48516L112.999 1.48518L114.999 1.47844C116.104 1.47472 117.002 2.36713 117.006 3.47169L117.013 5.47168Z" fill="url(#paint25_linear_277_199)"/>
<rect x="89.0127" y="5.56592" width="4" height="4" transform="rotate(179.807 89.0127 5.56592)" fill="url(#paint26_linear_277_199)"/>
<path d="M61.006 3.66017C61.0097 4.76473 60.1173 5.66317 59.0127 5.66689L57.0127 5.67363L57.006 3.67364C57.0023 2.56908 57.8947 1.67064 58.9992 1.66692L60.9992 1.66018L61.006 3.66017Z" fill="url(#paint27_linear_277_199)"/>
<path d="M33.0127 5.75439L31.0127 5.76113C29.9081 5.76485 29.0097 4.87244 29.006 3.76788L28.9992 1.76789L30.9992 1.76115C32.1038 1.75743 33.0022 2.64984 33.006 3.75441L33.0127 5.75439Z" fill="url(#paint28_linear_277_199)"/>
<rect x="5.0127" y="5.84888" width="4" height="4" transform="rotate(179.807 5.0127 5.84888)" fill="url(#paint29_linear_277_199)"/>
</g>
<defs>
<filter id="filter0_f_277_199" x="0.499023" y="0.5" width="272.001" height="102" filterUnits="userSpaceOnUse" color-interpolation-filters="sRGB">
<feFlood flood-opacity="0" result="BackgroundImageFix"/>
<feBlend mode="normal" in="SourceGraphic" in2="BackgroundImageFix" result="shape"/>
<feGaussianBlur stdDeviation="0.25" result="effect1_foregroundBlur_277_199"/>
</filter>
<linearGradient id="paint0_linear_277_199" x1="257.396" y1="88.9995" x2="261.252" y2="92.9738" gradientUnits="userSpaceOnUse">
<stop stop-color="#0FEFFD"/>
<stop offset="0.515718" stop-color="#FF00F5"/>
<stop offset="0.776042" stop-color="#0FEFFD" stop-opacity="0"/>
</linearGradient>
<linearGradient id="paint1_linear_277_199" x1="229.396" y1="89.0937" x2="233.252" y2="93.068" gradientUnits="userSpaceOnUse">
<stop stop-color="#0FEFFD"/>
<stop offset="0.515718" stop-color="#FF00F5"/>
<stop offset="0.776042" stop-color="#0FEFFD" stop-opacity="0"/>
</linearGradient>
<linearGradient id="paint2_linear_277_199" x1="201.396" y1="89.1882" x2="205.252" y2="93.1625" gradientUnits="userSpaceOnUse">
<stop stop-color="#0FEFFD"/>
<stop offset="0.515718" stop-color="#FF00F5"/>
<stop offset="0.776042" stop-color="#0FEFFD" stop-opacity="0"/>
</linearGradient>
<linearGradient id="paint3_linear_277_199" x1="173.396" y1="89.2825" x2="177.252" y2="93.2568" gradientUnits="userSpaceOnUse">
<stop stop-color="#0FEFFD"/>
<stop offset="0.515718" stop-color="#FF00F5"/>
<stop offset="0.776042" stop-color="#0FEFFD" stop-opacity="0"/>
</linearGradient>
<linearGradient id="paint4_linear_277_199" x1="145.397" y1="89.3767" x2="149.252" y2="93.351" gradientUnits="userSpaceOnUse">
<stop stop-color="#0FEFFD"/>
<stop offset="0.515718" stop-color="#FF00F5"/>
<stop offset="0.776042" stop-color="#0FEFFD" stop-opacity="0"/>
</linearGradient>
<linearGradient id="paint5_linear_277_199" x1="117.397" y1="89.4712" x2="121.252" y2="93.4455" gradientUnits="userSpaceOnUse">
<stop stop-color="#0FEFFD"/>
<stop offset="0.515718" stop-color="#FF00F5"/>
<stop offset="0.776042" stop-color="#0FEFFD" stop-opacity="0"/>
</linearGradient>
<linearGradient id="paint6_linear_277_199" x1="89.3974" y1="89.5654" x2="93.2525" y2="93.5397" gradientUnits="userSpaceOnUse">
<stop stop-color="#0FEFFD"/>
<stop offset="0.515718" stop-color="#FF00F5"/>
<stop offset="0.776042" stop-color="#0FEFFD" stop-opacity="0"/>
</linearGradient>
<linearGradient id="paint7_linear_277_199" x1="61.3974" y1="89.6597" x2="65.2525" y2="93.634" gradientUnits="userSpaceOnUse">
<stop stop-color="#0FEFFD"/>
<stop offset="0.515718" stop-color="#FF00F5"/>
<stop offset="0.776042" stop-color="#0FEFFD" stop-opacity="0"/>
</linearGradient>
<linearGradient id="paint8_linear_277_199" x1="33.3974" y1="89.7539" x2="37.2525" y2="93.7282" gradientUnits="userSpaceOnUse">
<stop stop-color="#0FEFFD"/>
<stop offset="0.515718" stop-color="#FF00F5"/>
<stop offset="0.776042" stop-color="#0FEFFD" stop-opacity="0"/>
</linearGradient>
<linearGradient id="paint9_linear_277_199" x1="5.39744" y1="89.8484" x2="9.25249" y2="93.8227" gradientUnits="userSpaceOnUse">
<stop stop-color="#0FEFFD"/>
<stop offset="0.515718" stop-color="#FF00F5"/>
<stop offset="0.776042" stop-color="#0FEFFD" stop-opacity="0"/>
</linearGradient>
<radialGradient id="paint10_radial_277_199" cx="0" cy="0" r="1" gradientUnits="userSpaceOnUse" gradientTransform="translate(257.335 31.2345) rotate(57.5341) scale(6.41576 6.44805)">
<stop stop-color="#363636"/>
<stop offset="1" stop-color="#1A1A1A" stop-opacity="0.27"/>
</radialGradient>
<radialGradient id="paint11_radial_277_199" cx="0" cy="0" r="1" gradientUnits="userSpaceOnUse" gradientTransform="translate(229.335 31.3288) rotate(57.5341) scale(6.41576 6.44805)">
<stop stop-color="#363636"/>
<stop offset="1" stop-color="#1A1A1A" stop-opacity="0.27"/>
</radialGradient>
<radialGradient id="paint12_radial_277_199" cx="0" cy="0" r="1" gradientUnits="userSpaceOnUse" gradientTransform="translate(201.335 31.4233) rotate(57.5341) scale(6.41576 6.44805)">
<stop stop-color="#363636"/>
<stop offset="1" stop-color="#1A1A1A" stop-opacity="0.27"/>
</radialGradient>
<radialGradient id="paint13_radial_277_199" cx="0" cy="0" r="1" gradientUnits="userSpaceOnUse" gradientTransform="translate(173.335 31.5175) rotate(57.5341) scale(6.41576 6.44805)">
<stop stop-color="#363636"/>
<stop offset="1" stop-color="#1A1A1A" stop-opacity="0.27"/>
</radialGradient>
<radialGradient id="paint14_radial_277_199" cx="0" cy="0" r="1" gradientUnits="userSpaceOnUse" gradientTransform="translate(145.336 31.6117) rotate(57.5341) scale(6.41576 6.44805)">
<stop stop-color="#363636"/>
<stop offset="1" stop-color="#1A1A1A" stop-opacity="0.27"/>
</radialGradient>
<radialGradient id="paint15_radial_277_199" cx="0" cy="0" r="1" gradientUnits="userSpaceOnUse" gradientTransform="translate(117.336 31.7062) rotate(57.5341) scale(6.41576 6.44805)">
<stop stop-color="#363636"/>
<stop offset="1" stop-color="#1A1A1A" stop-opacity="0.27"/>
</radialGradient>
<radialGradient id="paint16_radial_277_199" cx="0" cy="0" r="1" gradientUnits="userSpaceOnUse" gradientTransform="translate(89.3359 31.8005) rotate(57.5341) scale(6.41576 6.44805)">
<stop stop-color="#363636"/>
<stop offset="1" stop-color="#1A1A1A" stop-opacity="0.27"/>
</radialGradient>
<radialGradient id="paint17_radial_277_199" cx="0" cy="0" r="1" gradientUnits="userSpaceOnUse" gradientTransform="translate(61.3359 31.8947) rotate(57.5341) scale(6.41576 6.44805)">
<stop stop-color="#363636"/>
<stop offset="1" stop-color="#1A1A1A" stop-opacity="0.27"/>
</radialGradient>
<radialGradient id="paint18_radial_277_199" cx="0" cy="0" r="1" gradientUnits="userSpaceOnUse" gradientTransform="translate(33.3359 31.9889) rotate(57.5341) scale(6.41576 6.44805)">
<stop stop-color="#363636"/>
<stop offset="1" stop-color="#1A1A1A" stop-opacity="0.27"/>
</radialGradient>
<radialGradient id="paint19_radial_277_199" cx="0" cy="0" r="1" gradientUnits="userSpaceOnUse" gradientTransform="translate(5.33587 32.0834) rotate(57.5341) scale(6.41576 6.44805)">
<stop stop-color="#363636"/>
<stop offset="1" stop-color="#1A1A1A" stop-opacity="0.27"/>
</radialGradient>
<linearGradient id="paint20_linear_277_199" x1="255.012" y1="5.00674" x2="254.998" y2="1.00676" gradientUnits="userSpaceOnUse">
<stop stop-color="#2C4C44"/>
<stop offset="0.5" stop-color="#2D4F4C"/>
<stop offset="1" stop-color="#0C2357"/>
</linearGradient>
<linearGradient id="paint21_linear_277_199" x1="231.012" y1="5.09424" x2="231.012" y2="9.09424" gradientUnits="userSpaceOnUse">
<stop stop-color="#2C4C44"/>
<stop offset="0.5" stop-color="#2D4F4C"/>
<stop offset="1" stop-color="#0C2357"/>
</linearGradient>
<linearGradient id="paint22_linear_277_199" x1="199.012" y1="5.19546" x2="198.998" y2="1.19548" gradientUnits="userSpaceOnUse">
<stop stop-color="#2C4C44"/>
<stop offset="0.5" stop-color="#2D4F4C"/>
<stop offset="1" stop-color="#0C2357"/>
</linearGradient>
<linearGradient id="paint23_linear_277_199" x1="171.012" y1="5.2897" x2="170.998" y2="1.28972" gradientUnits="userSpaceOnUse">
<stop stop-color="#2C4C44"/>
<stop offset="0.5" stop-color="#2D4F4C"/>
<stop offset="1" stop-color="#0C2357"/>
</linearGradient>
<linearGradient id="paint24_linear_277_199" x1="147.013" y1="5.3772" x2="147.013" y2="9.3772" gradientUnits="userSpaceOnUse">
<stop stop-color="#2C4C44"/>
<stop offset="0.5" stop-color="#2D4F4C"/>
<stop offset="1" stop-color="#0C2357"/>
</linearGradient>
<linearGradient id="paint25_linear_277_199" x1="115.013" y1="5.47842" x2="114.999" y2="1.47844" gradientUnits="userSpaceOnUse">
<stop stop-color="#2C4C44"/>
<stop offset="0.5" stop-color="#2D4F4C"/>
<stop offset="1" stop-color="#0C2357"/>
</linearGradient>
<linearGradient id="paint26_linear_277_199" x1="91.0127" y1="5.56592" x2="91.0127" y2="9.56592" gradientUnits="userSpaceOnUse">
<stop stop-color="#2C4C44"/>
<stop offset="0.5" stop-color="#2D4F4C"/>
<stop offset="1" stop-color="#0C2357"/>
</linearGradient>
<linearGradient id="paint27_linear_277_199" x1="59.0127" y1="5.66689" x2="58.9992" y2="1.66692" gradientUnits="userSpaceOnUse">
<stop stop-color="#2C4C44"/>
<stop offset="0.5" stop-color="#2D4F4C"/>
<stop offset="1" stop-color="#0C2357"/>
</linearGradient>
<linearGradient id="paint28_linear_277_199" x1="31.0127" y1="5.76113" x2="30.9992" y2="1.76115" gradientUnits="userSpaceOnUse">
<stop stop-color="#2C4C44"/>
<stop offset="0.5" stop-color="#2D4F4C"/>
<stop offset="1" stop-color="#0C2357"/>
</linearGradient>
<linearGradient id="paint29_linear_277_199" x1="7.0127" y1="5.84888" x2="7.0127" y2="9.84888" gradientUnits="userSpaceOnUse">
<stop stop-color="#2C4C44"/>
<stop offset="0.5" stop-color="#2D4F4C"/>
<stop offset="1" stop-color="#0C2357"/>
</linearGradient>
</defs>
</svg>
