<svg width="80" height="80" viewBox="0 0 80 80" fill="none" xmlns="http://www.w3.org/2000/svg">
<path d="M9.40451 5.957C9.98341 6.34293 10.4839 6.78816 10.7235 7.46513C10.801 7.92983 10.8008 8.37711 10.8007 8.84838C10.8009 8.95277 10.801 9.05717 10.8012 9.16473C10.8017 9.51611 10.8009 9.86747 10.8003 10.2188C10.8003 10.4727 10.8005 10.7265 10.8007 10.9803C10.801 11.679 10.8004 12.3778 10.7996 13.0765C10.7989 13.8295 10.7992 14.5825 10.7993 15.3355C10.7994 16.6406 10.7989 17.9457 10.798 19.2507C10.7967 21.1377 10.7963 23.0246 10.7961 24.9115C10.7958 27.9727 10.7947 31.034 10.7933 34.0952C10.7918 37.0693 10.7907 40.0434 10.79 43.0175C10.79 43.2007 10.79 43.384 10.7899 43.5728C10.7897 44.4921 10.7895 45.4114 10.7893 46.3308C10.7877 53.9601 10.785 61.5894 10.7815 69.2187C10.9757 69.2184 10.9757 69.2184 11.1739 69.2182C18.8473 69.2077 26.5206 69.1996 34.194 69.1948C35.115 69.1942 36.036 69.1936 36.957 69.193C37.1403 69.1928 37.3237 69.1927 37.5126 69.1926C40.4829 69.1906 43.4532 69.1869 46.4236 69.1826C49.4705 69.1782 52.5175 69.1756 55.5645 69.1746C57.4452 69.174 59.3259 69.1719 61.2066 69.1681C62.4957 69.1657 63.7847 69.1649 65.0737 69.1655C65.8178 69.1658 66.5619 69.1653 67.306 69.1628C67.9872 69.1606 68.6683 69.1604 69.3494 69.162C69.5959 69.1622 69.8424 69.1616 70.0889 69.1602C70.424 69.1583 70.759 69.1593 71.0941 69.161C71.2803 69.1609 71.4664 69.1607 71.6581 69.1605C72.3727 69.239 72.9984 69.4438 73.5537 69.9218C74.1556 70.7189 74.3209 71.3511 74.219 72.3437C73.9286 73.1665 73.4997 73.5615 72.8127 74.0625C72.2707 74.2431 71.8508 74.2387 71.2787 74.2393C71.1692 74.2396 71.0597 74.2399 70.9469 74.2402C70.5773 74.2411 70.2077 74.2409 69.8381 74.2407C69.5716 74.2411 69.305 74.2415 69.0384 74.2421C68.3038 74.2433 67.5691 74.2436 66.8344 74.2437C66.0429 74.244 65.2514 74.2452 64.4599 74.2462C62.7283 74.2484 60.9967 74.2493 59.265 74.25C58.1843 74.2504 57.1037 74.2511 56.023 74.2518C53.0325 74.2537 50.0419 74.2553 47.0514 74.2558C46.8599 74.2559 46.6685 74.2559 46.4712 74.2559C46.2792 74.256 46.0873 74.256 45.8895 74.256C45.5006 74.2561 45.1116 74.2562 44.7226 74.2563C44.5297 74.2563 44.3367 74.2563 44.1379 74.2564C41.0104 74.257 37.8829 74.2597 34.7554 74.2633C31.5465 74.267 28.3376 74.269 25.1287 74.2692C23.3262 74.2693 21.5236 74.2702 19.7211 74.2731C18.1864 74.2755 16.6518 74.2763 15.1171 74.275C14.3338 74.2744 13.5505 74.2745 12.7671 74.2767C12.0503 74.2787 11.3336 74.2785 10.6168 74.2766C10.3572 74.2763 10.0976 74.2768 9.83796 74.2781C9.48552 74.2799 9.1332 74.2787 8.78076 74.2768C8.58486 74.2769 8.38897 74.277 8.18714 74.2771C7.5009 74.2016 6.97433 73.9829 6.46201 73.5156C5.85532 72.7364 5.7619 72.2523 5.76093 71.2784C5.76061 71.1689 5.76029 71.0595 5.75996 70.9467C5.75907 70.5771 5.7593 70.2075 5.75952 69.8379C5.75912 69.5713 5.75864 69.3047 5.75811 69.0382C5.75685 68.3035 5.75657 67.5689 5.75646 66.8342C5.75617 66.0427 5.75499 65.2512 5.75394 64.4597C5.75181 62.7281 5.75087 60.9964 5.75018 59.2648C5.74975 58.1841 5.74909 57.1034 5.74839 56.0227C5.74648 53.0322 5.74487 50.0417 5.74434 47.0512C5.74431 46.8597 5.74427 46.6682 5.74424 46.4709C5.74419 46.183 5.74419 46.183 5.74414 45.8893C5.74407 45.5003 5.744 45.1113 5.74393 44.7224C5.74389 44.5294 5.74386 44.3365 5.74382 44.1377C5.7432 41.0102 5.74048 37.8827 5.73684 34.7551C5.73314 31.5462 5.73119 28.3373 5.731 25.1284C5.73086 23.3259 5.72996 21.5234 5.72713 19.7209C5.72472 18.1862 5.72392 16.6515 5.72521 15.1169C5.72582 14.3335 5.72567 13.5502 5.72348 12.7669C5.7215 12.0501 5.72167 11.3333 5.72358 10.6165C5.72388 10.3569 5.72339 10.0973 5.72204 9.83771C5.72031 9.48527 5.72147 9.13295 5.72335 8.78051C5.72325 8.58462 5.72316 8.38872 5.72307 8.18689C5.79858 7.50065 6.01729 6.97409 6.48459 6.46176C7.41418 5.73794 8.29095 5.56398 9.40451 5.957Z" fill="#0B5895"/>
<path d="M61.0939 16.7187C61.8534 17.0777 62.2973 17.5216 62.6564 18.2812C62.7778 19.46 62.58 20.544 62.2796 21.6786C62.2193 21.9161 62.2193 21.9161 62.1579 22.1584C62.0253 22.6791 61.8898 23.1989 61.7543 23.7188C61.6598 24.0874 61.5654 24.4561 61.4712 24.8248C61.2225 25.7968 60.9712 26.7681 60.7194 27.7393C60.4693 28.7058 60.2217 29.6728 59.9739 30.6399C59.5452 32.3115 59.1124 33.982 58.6779 35.6521C58.4241 36.6295 58.1749 37.6079 57.9318 38.5881C57.7934 39.1453 57.6528 39.7019 57.5119 40.2585C57.449 40.5095 57.3871 40.7608 57.3265 41.0123C56.7683 43.3257 56.7683 43.3257 55.7814 44.2187C54.5853 44.9426 53.0135 44.4046 51.7535 44.1152C51.4576 44.0489 51.4576 44.0489 51.1556 43.9813C50.7287 43.8856 50.3019 43.7891 49.8753 43.692C49.2006 43.5384 48.5255 43.3866 47.8503 43.2352C46.7828 42.9955 45.7157 42.7545 44.6486 42.513C42.7362 42.0802 40.8234 41.6489 38.9103 41.219C38.2392 41.0681 37.5683 40.9165 36.8975 40.7642C36.581 40.6925 36.2645 40.6211 35.9479 40.5498C35.562 40.4629 35.1762 40.3754 34.7906 40.2875C34.6206 40.2493 34.4506 40.2112 34.2755 40.1719C34.1279 40.1385 33.9803 40.1051 33.8283 40.0707C33.4013 39.9813 33.4013 39.9813 32.8126 39.9999C32.5902 40.2287 32.5902 40.2287 32.4238 40.5517C32.3534 40.6733 32.2829 40.7949 32.2103 40.9202C32.1351 41.0548 32.06 41.1894 31.9826 41.328C31.8155 41.6169 31.648 41.9056 31.4802 42.1941C31.392 42.3467 31.3038 42.4992 31.213 42.6564C30.7536 43.4381 30.269 44.2037 29.7853 44.9706C29.0098 46.2047 28.245 47.4444 27.4904 48.6913C26.7441 49.9209 25.9909 51.1459 25.2247 52.3632C25.1354 52.5067 25.0461 52.6503 24.954 52.7981C23.843 54.5523 23.843 54.5523 22.9689 54.8437C22.1371 54.9233 21.4597 54.9484 20.7033 54.5702C20.1215 54.0467 19.7437 53.614 19.6518 52.812C19.6242 51.9004 19.795 51.334 20.2736 50.5663C20.3681 50.4068 20.3681 50.4068 20.4646 50.244C20.6705 49.8997 20.8813 49.5589 21.0939 49.2187C21.1633 49.1071 21.2327 48.9955 21.3042 48.8805C21.6803 48.2781 22.0607 47.6786 22.4428 47.08C23.0418 46.139 23.6256 45.1888 24.2091 44.2382C24.4231 43.8897 24.6372 43.5412 24.8512 43.1927C24.9552 43.0232 25.0593 42.8538 25.1665 42.6793C25.6954 41.8191 26.2266 40.9603 26.7594 40.1025C27.1931 39.4041 27.6236 38.7039 28.0501 38.001C28.1411 37.8518 28.2321 37.7026 28.3258 37.5489C28.4994 37.2642 28.6722 36.979 28.8439 36.6931C29.3957 35.791 29.9271 34.9537 30.9376 34.5312C32.1338 34.3716 33.3015 34.6626 34.4605 34.9303C34.6502 34.9727 34.84 35.0151 35.0354 35.0588C35.5512 35.1745 36.0666 35.2916 36.5819 35.4095C37.1229 35.5328 37.6643 35.6542 38.2057 35.7758C39.2295 36.0062 40.2529 36.2382 41.2762 36.4709C42.4394 36.7353 43.6031 36.9976 44.7669 37.2599C46.5756 37.6676 48.3842 38.0764 50.1923 38.4868C50.3702 38.5272 50.5482 38.5675 50.7315 38.6091C50.8944 38.6461 51.0574 38.6831 51.2253 38.7213C51.3667 38.7534 51.5081 38.7855 51.6538 38.8186C51.989 38.8963 52.3229 38.9777 52.6564 39.0624C52.6734 38.8921 52.6905 38.7219 52.708 38.5465C52.8143 37.7024 53.0249 36.8905 53.2364 36.0676C53.2796 35.8969 53.3228 35.7263 53.3674 35.5505C53.5099 34.9885 53.6535 34.4269 53.7971 33.8653C53.897 33.4726 53.9969 33.0799 54.0967 32.6871C54.306 31.8644 54.5158 31.0418 54.726 30.2194C54.9678 29.2736 55.2086 28.3276 55.4489 27.3815C55.6815 26.4662 55.9146 25.551 56.148 24.6359C56.2466 24.2491 56.3451 23.8622 56.4434 23.4753C57.9584 17.5188 57.9584 17.5188 59.0346 16.856C59.6966 16.589 60.3943 16.6374 61.0939 16.7187Z" fill="#0B5895"/>
</svg>
