<svg width="512" height="512" viewBox="0 0 512 512" fill="none" xmlns="http://www.w3.org/2000/svg">
<g clip-path="url(#clip0_60_1405)">
<path d="M166 3.0002C166.617 3.19356 167.233 3.38691 167.869 3.58613C184.556 8.90111 197.769 17.5572 210 30.0002C210.761 30.762 211.521 31.5239 212.305 32.3088C231.761 52.9387 237.847 79.651 237.132 107.168C236.081 129.751 225.819 151.106 210 167C211.186 166.53 212.372 166.059 213.594 165.574C241.222 154.84 268.152 153.587 295.867 164.793C298.751 166.12 298.751 166.12 301 166C300.527 165.525 300.054 165.049 299.566 164.559C280.806 144.702 274.09 119.278 274.715 92.5002C275.63 70.1377 284.942 48.4431 300 32.0002C300.771 31.1481 301.542 30.2961 302.336 29.4182C317.712 13.2205 340.405 1.04248 363.029 -0.160937C391.255 -0.532549 391.255 -0.532549 402 3.0002C402.617 3.19356 403.233 3.38691 403.869 3.58613C420.556 8.90111 433.769 17.5572 446 30.0002C447.141 31.143 447.141 31.1429 448.305 32.3088C467.761 52.9387 473.847 79.651 473.132 107.168C471.919 133.213 458.402 156.224 440 174C441.083 174.404 441.083 174.404 442.187 174.817C468.865 186.043 491.169 214.476 501.973 240.637C508.707 257.802 512.143 274.608 512.203 293.035C512.206 293.705 512.209 294.376 512.212 295.066C512.227 298.607 512.236 302.147 512.24 305.688C512.246 309.332 512.27 312.975 512.298 316.619C512.317 319.435 512.322 322.252 512.324 325.068C512.328 327.061 512.347 329.054 512.366 331.047C512.363 332.265 512.36 333.484 512.356 334.739C512.36 335.806 512.364 336.873 512.367 337.972C511.747 343.087 509.584 346.99 505.625 350.25C504.778 350.969 504.778 350.969 503.914 351.703C499.742 354.53 496.036 355.252 491.046 355.279C489.853 355.29 488.659 355.301 487.43 355.312C486.129 355.315 484.829 355.317 483.489 355.319C482.099 355.328 480.709 355.339 479.319 355.349C475.553 355.377 471.787 355.392 468.021 355.405C464.082 355.421 460.144 355.447 456.206 355.473C448.751 355.52 441.296 355.556 433.841 355.59C425.352 355.628 416.864 355.677 408.376 355.728C390.917 355.831 373.459 355.92 356 356C356.613 356.673 357.225 357.345 357.857 358.038C358.663 358.928 359.47 359.818 360.301 360.735C361.498 362.053 361.498 362.053 362.72 363.398C383.706 387.348 394.198 419.145 394.406 450.637C394.415 451.646 394.415 451.646 394.423 452.676C394.453 456.226 394.472 459.777 394.48 463.328C394.491 466.966 394.54 470.602 394.596 474.24C394.634 477.069 394.644 479.897 394.647 482.726C394.656 484.712 394.693 486.697 394.731 488.683C394.697 495.632 394.041 500.422 389.973 506.141C383.922 511.842 378.739 512.586 370.728 512.522C369.707 512.529 368.687 512.537 367.635 512.545C364.223 512.565 360.811 512.557 357.399 512.549C354.949 512.558 352.5 512.569 350.051 512.581C344.092 512.604 338.134 512.61 332.175 512.605C327.33 512.601 322.486 512.605 317.641 512.613C316.95 512.615 316.26 512.616 315.549 512.617C314.147 512.619 312.744 512.622 311.342 512.624C298.197 512.646 285.053 512.642 271.908 512.629C259.893 512.619 247.879 512.642 235.864 512.68C223.516 512.718 211.168 512.735 198.82 512.727C191.892 512.724 184.965 512.729 178.037 512.757C171.521 512.783 165.006 512.778 158.49 512.752C156.101 512.747 153.712 512.753 151.322 512.769C148.056 512.79 144.792 512.774 141.526 512.749C140.584 512.763 139.643 512.778 138.672 512.793C131.721 512.68 127.269 510.512 122 506C116.776 499.774 117.419 493.092 117.469 485.238C117.466 483.884 117.462 482.529 117.457 481.175C117.451 478.334 117.46 475.495 117.478 472.654C117.501 469.076 117.488 465.499 117.465 461.921C117.255 423.796 126.259 389.299 152.164 360.296C152.882 359.49 153.601 358.684 154.342 357.854C154.889 357.242 155.436 356.63 156 356C155.281 355.999 154.561 355.997 153.82 355.996C136.301 355.959 118.781 355.9 101.262 355.816C92.7898 355.777 84.3176 355.744 75.8452 355.729C68.4588 355.716 61.0726 355.689 53.6863 355.646C49.777 355.623 45.8679 355.607 41.9584 355.608C38.2745 355.609 34.5912 355.591 30.9074 355.559C28.9195 355.547 26.9314 355.554 24.9434 355.561C16.887 355.468 11.1706 354.68 4.94138 349.184C4.48634 348.608 4.0313 348.031 3.56247 347.438C3.08938 346.859 2.6163 346.28 2.12888 345.684C-0.158652 342.272 -0.139778 339.176 -0.177032 335.194C-0.189867 333.997 -0.202702 332.801 -0.215926 331.568C-0.223313 330.268 -0.2307 328.968 -0.238311 327.629C-0.242386 326.962 -0.246456 326.294 -0.250655 325.607C-0.27154 322.057 -0.285822 318.506 -0.295196 314.956C-0.30396 312.057 -0.324596 309.159 -0.356719 306.261C-0.812266 264.241 9.49907 228.484 39.2475 197.467C48.2269 188.325 58.4791 179.749 70 174C70.66 174 71.32 174 72 174C71.2729 173.286 70.5459 172.572 69.7968 171.836C49.7263 151.485 38.8511 127.137 38.625 98.4377C38.7998 73.7627 47.2709 50.2678 64 32.0002C64.7708 31.1481 65.5417 30.2961 66.3359 29.4182C90.7547 3.69543 131.817 -8.23799 166 3.0002ZM97.3359 56.4025C85.4595 68.6198 79.4575 83.7616 79.6504 100.735C80.1316 115.324 86.4001 129.286 96.5586 139.754C109.034 151.231 123.601 157.664 140.66 157.313C157.64 155.724 171.59 148.711 183 136C193.659 122.063 197.554 107.366 196 90.0002C193.425 75.0412 185.486 61.3034 173.402 52.0002C149.036 35.7325 119.612 36.3147 97.3359 56.4025ZM333.336 56.4025C321.46 68.6198 315.458 83.7616 315.65 100.735C316.132 115.324 322.4 129.286 332.559 139.754C345.034 151.231 359.601 157.664 376.66 157.313C393.64 155.724 407.59 148.711 419 136C429.659 122.063 433.554 107.366 432 90.0002C429.425 75.0412 421.486 61.3034 409.402 52.0002C385.036 35.7325 355.612 36.3147 333.336 56.4025ZM65.1797 229.946C51.6226 245.493 43.1487 264.532 40.8125 285C40.7284 285.704 40.6444 286.408 40.5578 287.133C39.6515 296.131 40 304.852 40 314C84.55 314 129.1 314 175 314C173.02 310.37 171.04 306.74 169 303C156.925 278.207 153.737 250.208 162.73 223.862C164.671 218.474 166.651 213.11 169.746 208.27C170.367 207.146 170.367 207.146 171 206C170.67 205.01 170.34 204.02 170 203C166.958 201.771 166.958 201.771 163.312 200.875C162.092 200.543 160.871 200.21 159.613 199.867C125.066 191.576 89.0747 204.411 65.1797 229.946ZM209 221C199.488 234.024 196.091 249.122 198 265C201.003 281.582 210.208 294.577 223.367 304.848C236.209 313.301 252.106 316.371 267.175 313.6C283.496 309.876 297.376 300.224 306.437 286.063C314.241 271.944 316.184 255.941 312.5 240.313C308.017 225.458 298.312 213.294 285.187 205.063C258.001 190.545 228.632 197.979 209 221ZM341 204C342.058 206.71 343.169 209.373 344.367 212.024C355.925 237.714 357.703 265.379 347.927 291.972C345.333 298.648 342.068 304.72 338.32 310.805C336.914 312.716 336.914 312.716 337 314C381.55 314 426.1 314 472 314C472 279.038 467.168 251.181 442.348 225.227C421.757 205.573 395.847 197.499 367.777 197.778C358.383 198.021 349.453 199.773 341 204ZM181.459 389.311C160.592 413.46 158 441.138 158 472C222.68 472 287.36 472 354 472C354 436.409 349.346 408.644 323.812 382.313C305.972 364.574 281.205 355.252 256.25 354.688C227.095 354.863 201.015 367.958 181.459 389.311Z" fill="blue"/>
</g>
<defs>
<clipPath id="clip0_60_1405">
<rect width="512" height="512" fill="white"/>
</clipPath>
</defs>
</svg>
