<svg width="80" height="80" viewBox="0 0 80 80" fill="none" xmlns="http://www.w3.org/2000/svg">
<path d="M21.0938 25C21.9076 25.2628 22.693 25.5773 23.4833 25.9033C24.7732 26.3274 26.0871 26.4541 27.4377 26.4996C27.588 26.5058 27.7383 26.5119 27.8932 26.5182C28.3676 26.5374 28.842 26.5549 29.3164 26.5723C29.7919 26.5904 30.2675 26.609 30.743 26.628C31.037 26.6397 31.3311 26.6509 31.6252 26.6614C32.4965 26.6952 33.3532 26.7692 34.2188 26.875C34.2188 26.9781 34.2188 27.0812 34.2188 27.1875C33.9151 27.4473 33.6097 27.6895 33.291 27.9297C32.2843 28.7036 31.3006 29.5015 30.3231 30.312C29.5991 30.9116 28.8682 31.499 28.1219 32.0709C27.2219 32.8645 26.7983 33.6508 26.7188 34.8438C26.8446 35.8762 27.258 36.644 28.0078 37.373C28.9074 37.9659 29.7295 38.2551 30.8142 38.0945C31.7758 37.817 32.6001 37.2513 33.4375 36.7188C33.5749 36.6319 33.7124 36.5451 33.854 36.4556C34.4597 36.0725 35.0649 35.6887 35.6676 35.3008C35.9449 35.1223 36.2228 34.9448 36.5014 34.7684C36.7321 34.622 36.9613 34.4733 37.1882 34.321C37.6345 34.0356 37.9225 33.9063 38.457 33.9056C38.9831 34.0893 39.2762 34.3226 39.6875 34.6973C41.9784 36.6402 45.2846 38.2166 48.3435 38.1073C51.0525 38.0126 52.5283 38.4869 54.5156 40.325C54.9777 40.7474 55.4698 41.124 55.9668 41.5039C56.1381 41.6396 56.3092 41.7755 56.4801 41.9116C56.8935 42.2384 57.3124 42.5571 57.7338 42.8735C57.8539 42.964 57.974 43.0546 58.0977 43.1478C58.3311 43.3232 58.565 43.4979 58.7996 43.6716C59.7359 44.377 60.3858 45.0023 60.6049 46.1865C60.6459 46.9518 60.4399 47.645 59.9316 48.2251C59.3222 48.7553 58.7988 48.9317 58.0078 48.9551C57.8797 48.9609 57.7516 48.9668 57.6196 48.9728C56.543 48.807 55.7434 48.0173 54.9609 47.3145C54.7558 47.1334 54.5505 46.9525 54.3451 46.7719C54.2448 46.6834 54.1444 46.595 54.0411 46.5038C53.3861 45.9326 52.7114 45.3846 52.0312 44.8438C51.9199 44.7529 51.8085 44.6621 51.6937 44.5685C51.4144 44.334 51.4144 44.334 51.0547 44.4238C50.9645 44.4593 50.8742 44.4947 50.7812 44.5312C50.9131 45.2744 51.3832 45.5962 51.9434 46.0547C52.0417 46.1373 52.1401 46.2199 52.2414 46.305C52.9387 46.8878 53.6502 47.4515 54.3768 47.9974C54.8561 48.4353 55.1198 48.8369 55.224 49.4818C55.2253 50.4113 55.1806 50.9973 54.5312 51.7188C53.8818 52.2894 53.2581 52.4225 52.4115 52.4036C51.0442 52.1885 49.7831 50.7361 48.7445 49.8779C48.5383 49.7099 48.3318 49.5423 48.125 49.375C47.9598 49.2403 47.9598 49.2403 47.7912 49.1028C47.628 48.9741 47.628 48.9741 47.4615 48.8428C47.364 48.7649 47.2664 48.6871 47.1659 48.6069C46.8411 48.3851 46.8411 48.3851 46.25 48.4375C46.4477 49.2195 46.6929 49.5571 47.334 50.0391C47.9848 50.5465 48.6141 51.061 49.2285 51.6113C49.3689 51.7364 49.5093 51.8615 49.6539 51.9904C50.1939 52.5418 50.359 52.9526 50.3711 53.7207C50.3531 54.5358 50.1783 54.975 49.6875 55.625C49.0917 56.1215 48.4235 56.2712 47.6562 56.25C46.4253 55.9038 45.6554 55.2 44.7156 54.3622C44.0944 53.8254 43.6715 53.4619 42.8125 53.4375C43.0088 54.2173 43.2459 54.5445 43.8965 55.0098C44.582 55.5034 45.0724 55.9294 45.224 56.7914C45.2254 57.6795 45.1517 58.2205 44.5312 58.9062C43.8673 59.507 43.3058 59.6497 42.4335 59.6106C41.701 59.4661 41.1966 59.0545 40.625 58.5938C40.4814 58.4814 40.3378 58.369 40.1898 58.2532C39.8109 57.9537 39.4355 57.6506 39.0625 57.3438C39.1527 57.2116 39.243 57.0795 39.3359 56.9434C39.3923 56.8565 39.4487 56.7697 39.5068 56.6803C39.6774 56.4216 39.858 56.1695 40.0391 55.918C40.4723 55.1443 40.4268 54.2951 40.3125 53.4375C40.0422 52.6008 39.4636 52.0523 38.75 51.5625C37.9979 51.2753 37.3618 51.234 36.5625 51.25C36.328 51.0155 36.3373 50.763 36.2793 50.4395C36.0807 49.526 35.7457 48.9591 34.9902 48.3887C34.32 48.0036 33.8575 47.9508 33.0957 47.959C32.9259 47.9604 32.7561 47.9618 32.5812 47.9633C32.4513 47.9651 32.3214 47.9669 32.1875 47.9688C32.1551 47.8556 32.1226 47.7424 32.0892 47.6257C31.704 46.417 31.2609 45.7789 30.1733 45.1385C29.783 44.9745 29.4447 44.9356 29.0234 44.9023C28.8841 44.8907 28.7447 44.879 28.6011 44.8669C28.4955 44.8593 28.39 44.8516 28.2812 44.8438C28.2659 44.7193 28.2506 44.5948 28.2349 44.4666C28.0652 43.1305 28.0652 43.1305 27.3438 42.0312C26.5886 41.5291 25.7799 41.0974 24.8517 41.1792C23.0821 41.5702 22.2464 42.8189 21.25 44.2188C20.5374 44.1357 20.049 43.8273 19.4739 43.4253C19.3805 43.3615 19.2871 43.2977 19.1908 43.2319C18.8933 43.0282 18.597 42.8227 18.3008 42.6172C18.1029 42.4814 17.9049 42.3457 17.7069 42.2101C16.7981 41.5867 15.8934 40.9579 15 40.3125C15.3083 39.3565 15.6492 38.4196 16.0215 37.4869C16.1012 37.2858 16.1012 37.2858 16.1826 37.0806C16.3564 36.6425 16.5309 36.2045 16.7053 35.7666C16.8269 35.4607 16.9485 35.1548 17.07 34.8489C17.3238 34.2105 17.5778 33.5723 17.832 32.9341C18.1585 32.1145 18.4843 31.2946 18.8098 30.4746C19.0602 29.8442 19.3109 29.214 19.5618 28.5838C19.6822 28.2813 19.8024 27.9788 19.9225 27.6762C20.0897 27.2553 20.2574 26.8346 20.4252 26.4139C20.4999 26.2252 20.4999 26.2252 20.5762 26.0327C20.9196 25.1741 20.9196 25.1741 21.0938 25Z" fill="#A60CFF"/>
<path d="M44.5763 25.2026C44.9026 25.2406 45.2291 25.2769 45.5557 25.3128C46.366 25.4023 47.1761 25.4944 47.9861 25.5867C53.538 26.3121 53.538 26.3121 58.9061 25C59.6355 26.5404 60.2642 28.1199 60.8971 29.7015C60.9534 29.8423 61.0098 29.983 61.0679 30.128C61.365 30.8701 61.6617 31.6124 61.9579 32.3549C62.2638 33.1214 62.5717 33.887 62.8801 34.6525C63.1174 35.2427 63.3532 35.8336 63.5885 36.4246C63.7015 36.7074 63.815 36.9899 63.9291 37.2722C64.0878 37.6653 64.2444 38.0592 64.4004 38.4533C64.448 38.5697 64.4955 38.686 64.5445 38.8058C64.768 39.3772 64.8955 39.7297 64.6874 40.3125C64.4362 40.5526 64.4362 40.5526 64.1118 40.7794C63.9933 40.8636 63.8748 40.9478 63.7527 41.0345C63.6261 41.1217 63.4995 41.209 63.369 41.2988C63.2411 41.3884 63.1131 41.4779 62.9813 41.5702C62.7276 41.7477 62.4734 41.9248 62.2189 42.1013C61.9298 42.3051 61.6476 42.5138 61.3683 42.7307C61.2357 42.8318 61.1032 42.9329 60.9667 43.0371C60.8561 43.1239 60.7455 43.2107 60.6316 43.3002C60.3124 43.4375 60.3124 43.4375 59.9254 43.3423C59.5077 43.1121 59.1791 42.8609 58.8182 42.5488C57.6123 41.5379 56.3453 40.6098 55.0834 39.6705C54.7017 39.3857 54.3211 39.0996 53.9409 38.8129C53.7684 38.6829 53.7684 38.6829 53.5925 38.5503C53.3766 38.3875 53.1607 38.2245 52.945 38.0613C52.2191 37.5151 51.8844 37.3259 50.9807 37.3163C46.5044 37.2365 43.0479 36.3179 39.5134 33.4094C38.9751 33.0699 38.6026 32.9895 37.9686 32.9688C36.3771 33.4224 34.8684 34.6671 33.4947 35.5566C32.9371 35.9153 32.3785 36.272 31.8144 36.6205C31.6327 36.7333 31.6327 36.7333 31.4472 36.8484C30.638 37.2669 29.9508 37.2652 29.0917 37.0117C28.3256 36.5611 27.9857 36.1098 27.744 35.2637C27.6432 34.6754 27.6308 34.1764 27.8832 33.6176C28.4793 32.7881 29.3556 32.1841 30.1561 31.5625C30.3318 31.4243 30.5074 31.2859 30.6828 31.1475C30.9486 30.9382 31.2147 30.7294 31.4816 30.5217C32.2264 29.9414 32.9547 29.3428 33.6815 28.7402C34.1204 28.3782 34.5599 28.017 34.9999 27.6562C35.0949 27.5781 35.1898 27.5 35.2877 27.4194C38.2467 25.0011 40.8877 24.7721 44.5763 25.2026Z" fill="#A60CFF"/>
<path d="M66.0938 20.3125C66.3106 20.6371 66.3106 20.6371 66.4827 21.0773C66.5504 21.2456 66.6182 21.414 66.6879 21.5874C66.7962 21.87 66.7962 21.87 66.9067 22.1582C66.9865 22.3594 67.0665 22.5605 67.1469 22.7614C67.3251 23.2084 67.5016 23.656 67.6771 24.1041C67.9852 24.8883 68.3013 25.6691 68.6185 26.4496C69.1487 27.7553 69.6758 29.0621 70.2005 30.37C70.5044 31.1272 70.8088 31.8842 71.1145 32.6406C71.4157 33.386 71.7156 34.1318 72.0146 34.8781C72.1275 35.1593 72.2409 35.4404 72.3547 35.7213C72.5122 36.1101 72.668 36.4995 72.8233 36.8891C72.8701 37.0033 72.9168 37.1176 72.9649 37.2353C73.1896 37.8038 73.3799 38.2926 73.2813 38.9063C72.4204 39.6188 71.35 39.9709 70.3218 40.3795C70.0001 40.5078 69.6796 40.6389 69.3591 40.7703C69.1529 40.8531 68.9466 40.9357 68.7402 41.0181C68.5547 41.0927 68.3692 41.1672 68.1781 41.2441C67.6415 41.4109 67.274 41.5006 66.7188 41.4063C66.2032 40.7976 65.9503 39.9404 65.6525 39.2035C65.5939 39.06 65.5353 38.9165 65.4749 38.7687C65.2801 38.2907 65.0863 37.8124 64.8926 37.334C64.7562 36.998 64.6199 36.6621 64.4835 36.3261C64.1891 35.6001 63.8953 34.8739 63.6018 34.1475C63.2726 33.3328 62.9422 32.5185 62.611 31.7046C62.2183 30.7392 61.8268 29.7733 61.4367 28.8069C61.2251 28.2826 61.013 27.7585 60.7996 27.2349C60.5597 26.6463 60.3225 26.0567 60.0855 25.4669C60.0133 25.291 59.9412 25.1151 59.8669 24.9338C59.8018 24.7706 59.7367 24.6074 59.6697 24.4393C59.6125 24.2979 59.5553 24.1566 59.4963 24.0109C59.3601 23.5425 59.3535 23.1416 59.375 22.6563C60.5155 22.0555 61.6832 21.5471 62.8817 21.0732C63.1769 20.9558 63.4709 20.8356 63.765 20.7154C63.9528 20.6408 64.1406 20.5663 64.3341 20.4895C64.5034 20.4217 64.6726 20.3538 64.847 20.2839C65.362 20.1427 65.5931 20.1388 66.0938 20.3125Z" fill="#A60CFF"/>
<path d="M15.1562 20.3125C15.58 20.4574 15.9916 20.6274 16.4044 20.8008C16.5206 20.8487 16.6369 20.8967 16.7566 20.9461C17.0006 21.047 17.2445 21.1484 17.4881 21.2503C17.8624 21.4067 18.2373 21.5616 18.6124 21.7163C18.8497 21.8147 19.0871 21.9131 19.3243 22.0117C19.4368 22.0582 19.5493 22.1048 19.6651 22.1528C20.4505 22.4818 20.4505 22.4818 20.625 22.6562C20.7177 23.529 20.4401 24.181 20.1141 24.9701C20.0598 25.1055 20.0054 25.2408 19.9493 25.3802C19.7692 25.8274 19.5868 26.2737 19.4043 26.7199C19.2775 27.0334 19.1509 27.3468 19.0244 27.6603C18.6903 28.4874 18.3543 29.3136 18.0179 30.1397C17.6804 30.9693 17.3446 31.7997 17.0087 32.63C16.6286 33.5692 16.2484 34.5084 15.8668 35.447C15.8085 35.5906 15.7501 35.7343 15.69 35.8822C15.5756 36.1636 15.4611 36.4449 15.3465 36.7262C15.0573 37.4377 14.7714 38.1503 14.4905 38.8652C14.4335 39.0096 14.3766 39.154 14.3179 39.3028C14.2096 39.578 14.1019 39.8534 13.9951 40.1291C13.9468 40.2514 13.8986 40.3737 13.849 40.4997C13.807 40.6073 13.7651 40.7148 13.722 40.8256C13.5938 41.0937 13.5938 41.0937 13.2812 41.4062C12.4711 41.5024 11.8334 41.2497 11.1011 40.9387C10.9852 40.8909 10.8694 40.8431 10.75 40.7938C10.5065 40.6929 10.2633 40.5912 10.0204 40.4888C9.64818 40.3319 9.27489 40.1777 8.90137 40.0238C8.66449 39.9253 8.42767 39.8266 8.19092 39.7278C8.07927 39.6815 7.96762 39.6353 7.85258 39.5877C7.40653 39.3987 7.06467 39.2522 6.71875 38.9062C6.77207 38.1413 6.96689 37.4962 7.2522 36.7884C7.29067 36.692 7.32915 36.5956 7.36879 36.4963C7.49602 36.1783 7.62495 35.8611 7.75391 35.5438C7.84473 35.3178 7.93544 35.0918 8.02605 34.8657C8.2681 34.2627 8.51163 33.6604 8.75551 33.0581C9.00669 32.4373 9.25666 31.8159 9.50676 31.1946C9.85498 30.33 10.2037 29.4655 10.553 28.6013C11.0786 27.3012 11.6007 25.9997 12.1204 24.6972C12.3018 24.2439 12.4833 23.7905 12.665 23.3373C12.776 23.0599 12.8867 22.7824 12.9971 22.5047C13.1465 22.129 13.2973 21.7538 13.4485 21.3788C13.4911 21.2707 13.5337 21.1627 13.5776 21.0514C13.956 20.12 14.1941 20.0964 15.1562 20.3125Z" fill="#A60CFF"/>
<path d="M29.6875 45.9375C30.3325 46.2306 30.5657 46.4629 30.9277 47.0703C31.1196 47.7474 31.1863 48.2488 30.9375 48.9062C30.5722 49.4709 30.1267 49.9607 29.6875 50.4687C29.5175 50.681 29.3485 50.8941 29.1803 51.1078C29.0916 51.2198 29.003 51.3317 28.9116 51.4471C28.7351 51.6702 28.5592 51.8938 28.3839 52.1179C27.7628 52.8927 27.2984 53.3897 26.2695 53.5058C25.5403 53.4741 25.1156 53.2479 24.5313 52.8125C24.0645 52.1349 23.9753 51.5949 24.0625 50.7812C24.3489 50.1193 24.6814 49.6331 25.1758 49.1113C25.8229 48.4147 26.4213 47.6915 27.0093 46.9446C27.8432 45.992 28.4448 45.7443 29.6875 45.9375Z" fill="#A60CFF"/>
<path d="M34.5899 49.1504C35.0957 49.62 35.2806 49.9607 35.4688 50.625C35.5077 51.8312 34.9782 52.3952 34.2188 53.2813C34.041 53.5019 33.8639 53.7231 33.6872 53.9447C33.4934 54.1859 33.2995 54.427 33.1055 54.668C32.9654 54.8438 32.9654 54.8438 32.8225 55.0232C31.9417 56.103 31.9417 56.103 31.2501 56.4063C30.3824 56.4889 29.7964 56.4545 29.0626 55.9375C28.5901 55.3318 28.3821 54.9216 28.418 54.1504C28.561 53.3194 28.9914 52.8122 29.5313 52.1875C29.7593 51.9044 29.9872 51.6212 30.2149 51.3379C30.6783 50.7766 31.145 50.2185 31.6212 49.668C31.719 49.5548 31.8169 49.4416 31.9178 49.325C32.6221 48.6398 33.7661 48.769 34.5899 49.1504Z" fill="#A60CFF"/>
<path d="M25.7811 42.1875C26.3986 42.5137 26.818 42.8468 27.1873 43.4375C27.2496 43.8129 27.2496 43.8129 27.2459 44.209C27.2478 44.4045 27.2478 44.4045 27.2496 44.6039C27.0941 45.5934 26.2671 46.3546 25.6444 47.0996C25.5487 47.2149 25.453 47.3302 25.3545 47.449C25.1671 47.6748 24.9791 47.9001 24.7906 48.1249C24.6278 48.321 24.4671 48.5188 24.3094 48.719C23.8517 49.2959 23.5217 49.6328 22.7837 49.7345C22.0405 49.7384 21.5253 49.7227 20.9373 49.2188C20.4217 48.6194 20.205 48.1476 20.2538 47.3438C20.4414 46.3427 21.1764 45.6394 21.8413 44.9176C22.2161 44.4992 22.5619 44.0638 22.91 43.6231C23.7256 42.6276 24.4122 41.9143 25.7811 42.1875Z" fill="#A60CFF"/>
<path d="M38.5939 52.5C39.1657 52.9989 39.4107 53.3763 39.5509 54.1211C39.6255 55.6168 38.1561 56.8319 37.2372 57.888C37.0546 58.0983 36.8738 58.3102 36.6933 58.5224C35.729 59.6487 35.729 59.6487 35.0801 59.7455C33.7414 59.777 33.7414 59.777 33.1935 59.3457C32.6435 58.7111 32.4627 58.3061 32.5136 57.4726C32.6197 56.6048 33.0338 56.1148 33.6037 55.4785C33.7904 55.2618 33.9769 55.0449 34.1633 54.8279C34.2539 54.7241 34.3445 54.6203 34.4378 54.5134C34.7645 54.1281 35.0559 53.7198 35.3517 53.3106C35.8299 52.7148 36.2468 52.3991 36.9948 52.2199C37.5888 52.1648 38.0602 52.2279 38.5939 52.5Z" fill="#A60CFF"/>
</svg>
