<svg width="512" height="512" viewBox="0 0 512 512" fill="none" xmlns="http://www.w3.org/2000/svg">
<g clip-path="url(#clip0_1_21)">
<mask id="mask0_1_21" style="mask-type:luminance" maskUnits="userSpaceOnUse" x="0" y="0" width="512" height="512">
<path d="M512 0H0V512H512V0Z" fill="white"/>
</mask>
<g mask="url(#mask0_1_21)">
<path d="M134.854 -0.274713C136.619 -0.282379 136.619 -0.282379 138.419 -0.2902C142.295 -0.304065 146.171 -0.303143 150.047 -0.300836C152.061 -0.303146 154.075 -0.30665 156.089 -0.310242C162.413 -0.321312 168.736 -0.321788 175.06 -0.315728C181.583 -0.309674 188.105 -0.322042 194.628 -0.343298C200.235 -0.360898 205.842 -0.366919 211.449 -0.363661C214.795 -0.361847 218.142 -0.364495 221.488 -0.378375C225.213 -0.390657 228.938 -0.383999 232.663 -0.372369C233.772 -0.380013 234.882 -0.387656 236.025 -0.395532C237.038 -0.388517 238.05 -0.381503 239.092 -0.374276C239.973 -0.374444 240.853 -0.374612 241.76 -0.374785C244.493 0.0825222 245.349 0.809565 247 2.99995C248.123 6.68991 248.337 8.30983 246.625 11.8124C245 13.9999 245 13.9999 244 14.9999C242.565 15.1033 241.126 15.1379 239.688 15.1447C238.757 15.1516 237.827 15.1585 236.868 15.1656C235.323 15.1695 235.323 15.1695 233.748 15.1735C232.67 15.1802 231.592 15.1869 230.481 15.1938C228.13 15.2079 225.778 15.2198 223.427 15.2297C219.703 15.2461 215.979 15.2693 212.254 15.2946C201.661 15.3655 191.068 15.4254 180.475 15.4768C174.003 15.5086 167.531 15.5499 161.059 15.5969C158.594 15.6129 156.128 15.6253 153.663 15.6339C150.204 15.6461 146.745 15.6702 143.287 15.697C141.767 15.6978 141.767 15.6978 140.216 15.6988C131.292 15.7897 124.272 16.6785 117 21.9999C116.34 21.9999 115.68 21.9999 115 21.9999C114.312 23.3225 113.653 24.6598 113 25.9999C112.246 27.5012 112.246 27.5012 111.477 29.0327C109.55 33.5827 109.384 38.0229 109.181 42.9131C109.131 43.8961 109.08 44.879 109.028 45.8918C108.864 49.1795 108.721 52.4678 108.58 55.7565C108.469 58.1201 108.359 60.4837 108.248 62.8473C107.26 84.6318 106.688 106.429 106.23 128.231C106.167 131.164 106.103 134.098 106.038 137.031C106.022 137.76 106.006 138.489 105.989 139.24C105.74 150.177 105.281 161.092 104.705 172.016C103.826 188.908 103.276 205.783 103.254 222.699C103.252 223.382 103.251 224.065 103.249 224.769C103.214 261.695 107.87 290.031 134.643 317.146C147.998 330.12 162.548 341.637 178 352C178.653 351.437 178.653 351.437 179.32 350.863C180.57 349.789 181.828 348.724 183.091 347.665C185.199 345.882 185.199 345.882 187.657 343.167C192.755 339.862 197.532 340.286 203.488 340.321C204.744 340.309 205.999 340.297 207.294 340.285C210.728 340.254 214.161 340.254 217.595 340.262C220.468 340.267 223.341 340.256 226.213 340.245C232.994 340.22 239.774 340.221 246.555 340.238C253.536 340.256 260.517 340.229 267.498 340.181C273.505 340.141 279.51 340.129 285.517 340.138C289.099 340.143 292.68 340.138 296.262 340.107C300.26 340.074 304.255 340.097 308.253 340.126C309.431 340.109 310.608 340.091 311.821 340.073C317.498 340.161 321.117 340.494 325.484 344.305C326.659 345.533 327.831 346.765 329 348C330.65 349.354 332.313 350.692 334 352C362.962 332.469 398.542 306.331 405.726 270.166C408.352 254.669 408.776 238.995 408.754 223.312C408.753 222.299 408.753 222.299 408.753 221.265C408.736 203.78 408.069 186.34 407.173 168.88C406.66 158.774 406.314 148.671 406.082 138.554C406.065 137.835 406.048 137.116 406.031 136.375C405.933 132.046 405.839 127.717 405.747 123.388C405.611 117.077 405.465 110.767 405.313 104.458C405.297 103.779 405.28 103.1 405.264 102.4C405.022 92.4555 404.673 82.5185 404.252 72.5793C404.201 71.3432 404.15 70.1072 404.098 68.8337C403.86 63.0676 403.605 57.3033 403.318 51.5395C402.728 38.549 402.595 27.2351 410 15.9999C408.906 15.9964 408.906 15.9964 407.79 15.9927C390.064 15.9336 372.338 15.8581 354.612 15.7642C346.039 15.7192 337.467 15.6798 328.895 15.6535C321.425 15.6306 313.955 15.5972 306.485 15.5512C302.528 15.5273 298.571 15.5086 294.615 15.5023C290.892 15.4963 287.17 15.4764 283.448 15.4457C281.427 15.4327 279.406 15.4345 277.384 15.4367C275.586 15.4179 275.586 15.4179 273.751 15.3987C272.185 15.3918 272.185 15.3918 270.587 15.3847C268 14.9999 268 14.9999 266.195 13.6547C264.365 11.1215 264.124 9.09816 264 5.99995C265.138 3.67263 266.168 1.83154 268 -5.41508e-05C270.34 -0.106539 272.652 -0.147841 274.993 -0.147225C275.734 -0.150902 276.474 -0.154579 277.237 -0.158367C279.737 -0.169448 282.237 -0.173255 284.738 -0.177056C286.523 -0.183318 288.308 -0.189965 290.093 -0.196969C294.959 -0.214415 299.826 -0.224942 304.692 -0.233175C307.733 -0.238321 310.774 -0.244397 313.816 -0.250686C323.333 -0.269754 332.85 -0.283978 342.368 -0.292298C353.349 -0.302055 364.329 -0.328329 375.31 -0.368799C383.797 -0.399004 392.285 -0.413771 400.772 -0.417079C405.84 -0.419426 410.908 -0.428338 415.976 -0.45354C420.752 -0.4769 425.527 -0.481022 430.302 -0.470779C432.049 -0.470285 433.796 -0.476555 435.542 -0.490335C448.206 -0.5846 458.863 0.510095 468.929 8.95307C477.115 17.046 481.292 26.1717 481.417 37.6512C481.407 39.011 481.407 39.011 481.398 40.3984C481.401 41.3552 481.404 42.3119 481.407 43.2977C481.409 45.3028 481.403 47.3079 481.391 49.3129C481.375 52.3874 481.391 55.4606 481.41 58.5351C481.408 60.4895 481.404 62.444 481.398 64.3984C481.404 65.3171 481.41 66.2358 481.417 67.1824C481.407 68.034 481.398 68.8857 481.388 69.7631C481.386 70.511 481.383 71.2588 481.381 72.0293C480.89 74.5665 480.017 75.426 478 76.9999C474.896 78.0344 472.771 78.1208 469.519 78.1135C468.398 78.1134 467.277 78.1133 466.122 78.1132C464.912 78.1081 463.703 78.1029 462.457 78.0976C461.218 78.0962 459.979 78.0948 458.703 78.0933C455.413 78.0887 452.124 78.0797 448.834 78.0686C445.476 78.0584 442.118 78.0538 438.759 78.0488C432.173 78.0377 425.586 78.021 419 77.9999C417.358 90.2414 416.328 102.472 415.812 114.812C415.774 115.724 415.736 116.636 415.696 117.576C414.813 142.428 417.915 160.825 435.071 179.523C447.706 192.859 461.957 204.784 476.526 215.944C479.153 218.127 480.849 219.7 481.254 223.188C481.256 224.044 481.258 224.9 481.26 225.782C481.267 226.767 481.275 227.751 481.282 228.765C481.279 229.843 481.277 230.922 481.274 232.033C481.282 233.738 481.282 233.738 481.29 235.478C481.304 239.246 481.303 243.013 481.301 246.781C481.304 249.393 481.309 252.005 481.313 254.616C481.322 260.094 481.321 265.572 481.315 271.049C481.309 277.384 481.322 283.718 481.343 290.052C481.363 296.144 481.366 302.235 481.362 308.327C481.363 310.92 481.368 313.513 481.378 316.107C481.39 319.727 481.384 323.346 481.372 326.967C481.38 328.045 481.387 329.124 481.395 330.235C481.388 331.219 481.381 332.204 481.374 333.218C481.374 334.502 481.374 334.502 481.374 335.812C480.915 338.497 480.133 339.356 478 341C474.953 342.042 473.412 342.125 470.312 341.187C467.732 339.863 466.301 338.924 465.385 336.114C464.743 332.592 464.82 329.037 464.794 325.468C464.779 324.159 464.779 324.159 464.764 322.823C464.733 320.002 464.708 317.181 464.683 314.359C464.665 312.616 464.646 310.873 464.627 309.129C464.558 302.67 464.498 296.21 464.437 289.75C464.293 275.312 464.148 260.875 464 246C425.06 284.94 386.12 323.88 346 364C349.623 368.227 353.068 372.193 356.973 376.094C357.436 376.557 357.898 377.02 358.375 377.498C359.901 379.026 361.432 380.551 362.962 382.076C364.067 383.18 365.171 384.285 366.275 385.389C369.256 388.37 372.24 391.348 375.224 394.326C378.349 397.444 381.471 400.566 384.593 403.687C390.498 409.589 396.406 415.488 402.315 421.387C409.045 428.106 415.772 434.827 422.499 441.549C436.329 455.369 450.163 469.186 464 483C464.003 482.095 464.003 482.095 464.007 481.171C464.066 466.482 464.142 451.792 464.235 437.103C464.28 429.999 464.32 422.896 464.346 415.792C464.372 408.939 464.413 402.085 464.463 395.232C464.48 392.615 464.491 389.998 464.497 387.382C464.507 383.721 464.535 380.06 464.567 376.4C464.566 375.314 464.564 374.229 464.563 373.11C464.679 363.824 464.679 363.824 468 360C471 358 471 358 474.5 358.187C479.017 359.236 479.017 359.236 481 362C481.377 364.656 481.377 364.656 481.381 367.921C481.389 369.158 481.398 370.395 481.406 371.669C481.4 373.041 481.394 374.414 481.388 375.787C481.392 377.231 481.397 378.675 481.404 380.119C481.418 384.042 481.412 387.965 481.403 391.889C481.395 395.991 481.402 400.094 481.407 404.197C481.412 411.087 481.405 417.977 481.391 424.867C481.375 432.837 481.38 440.807 481.396 448.777C481.41 455.615 481.412 462.454 481.404 469.292C481.399 473.378 481.399 477.464 481.409 481.551C481.417 485.392 481.411 489.233 481.394 493.074C481.39 494.486 481.391 495.897 481.398 497.309C481.406 499.232 481.394 501.155 481.381 503.079C481.38 504.156 481.378 505.233 481.377 506.343C481 509 481 509 479.86 510.845C477.154 512.525 475.031 512.384 471.857 512.394C470.572 512.406 469.286 512.417 467.961 512.429C466.533 512.426 465.106 512.423 463.678 512.42C462.176 512.427 460.675 512.436 459.174 512.445C455.093 512.468 451.013 512.471 446.932 512.469C443.527 512.469 440.123 512.477 436.718 512.486C428.687 512.505 420.656 512.508 412.624 512.501C404.335 512.494 396.046 512.517 387.756 512.554C380.643 512.585 373.53 512.596 366.416 512.592C362.166 512.59 357.916 512.596 353.666 512.62C349.669 512.643 345.673 512.641 341.677 512.62C340.209 512.617 338.742 512.622 337.275 512.636C335.273 512.654 333.271 512.639 331.269 512.621C330.148 512.622 329.028 512.623 327.873 512.624C325 512 325 512 322.604 509.688C321 507 321 507 321.062 503.375C321.998 500.005 322.294 499.011 325 497C327.368 496.615 327.368 496.615 330.22 496.601C331.301 496.589 332.382 496.576 333.496 496.563C335.275 496.565 335.275 496.565 337.09 496.568C338.339 496.557 339.588 496.547 340.875 496.537C344.3 496.512 347.725 496.5 351.151 496.494C354.73 496.484 358.31 496.458 361.889 496.434C368.668 496.39 375.446 496.362 382.225 496.339C389.942 496.311 397.659 496.268 405.376 496.222C421.25 496.129 437.125 496.058 453 496C375.136 394.978 375.136 394.978 266.538 340.992C263.019 340.817 259.522 340.75 256 340.75C254.842 340.75 253.685 340.75 252.492 340.75C198.291 341.79 157.949 388.347 122.985 424.54C100.84 447.622 79.6714 471.596 58.9997 496C60.2442 496.002 61.4886 496.005 62.7707 496.007C92.2921 496.064 121.813 496.137 151.335 496.229C154.966 496.24 158.597 496.251 162.228 496.262C162.951 496.265 163.674 496.267 164.419 496.269C176.135 496.304 187.85 496.329 199.565 496.35C211.581 496.372 223.596 496.405 235.611 496.449C242.363 496.473 249.114 496.492 255.865 496.498C262.214 496.504 268.563 496.523 274.911 496.554C277.247 496.563 279.582 496.567 281.917 496.565C285.096 496.563 288.273 496.58 291.452 496.601C292.385 496.596 293.317 496.592 294.279 496.587C295.128 496.596 295.976 496.605 296.851 496.615C297.952 496.618 297.952 496.618 299.075 496.621C301.576 497.113 302.445 498.013 304 500C305.123 503.69 305.337 505.31 303.625 508.812C302 511 302 511 301 512C299.581 512.1 298.156 512.131 296.734 512.134C295.807 512.139 294.881 512.143 293.927 512.148C292.898 512.147 291.869 512.147 290.808 512.147C289.724 512.151 288.639 512.154 287.522 512.158C283.859 512.169 280.195 512.173 276.532 512.177C273.917 512.183 271.303 512.19 268.689 512.197C260.821 512.217 252.953 512.227 245.086 512.236C241.384 512.24 237.682 512.245 233.98 512.251C221.68 512.268 209.379 512.282 197.079 512.289C193.885 512.291 190.691 512.293 187.497 512.295C186.703 512.296 185.909 512.296 185.091 512.297C172.225 512.305 159.36 512.33 146.494 512.363C133.295 512.396 120.097 512.414 106.898 512.417C99.4834 512.419 92.0689 512.428 84.6542 512.453C77.6816 512.477 70.7093 512.481 63.7366 512.471C61.1727 512.47 58.6088 512.477 56.0449 512.49C52.5538 512.508 49.0635 512.501 45.5724 512.488C44.0384 512.504 44.0384 512.504 42.4734 512.521C41.5395 512.512 40.6056 512.504 39.6433 512.495C38.8373 512.496 38.0314 512.497 37.201 512.498C34.0991 511.796 32.9128 510.502 30.9997 508C30.4926 505.674 30.4926 505.674 30.4824 503.053C30.4621 501.551 30.4621 501.551 30.4414 500.019C30.4469 498.92 30.4525 497.822 30.4581 496.691C30.4484 495.522 30.4386 494.354 30.4285 493.15C30.4056 489.906 30.4007 486.663 30.4035 483.418C30.4023 479.92 30.3782 476.422 30.3572 472.923C30.3201 466.068 30.3054 459.212 30.2997 452.356C30.2951 446.782 30.2845 441.208 30.2698 435.634C30.2288 419.826 30.2057 404.018 30.2039 388.211C30.2038 387.358 30.2037 386.506 30.2036 385.628C30.2035 384.774 30.2034 383.921 30.2033 383.042C30.2005 369.22 30.1544 355.398 30.0888 341.577C30.0219 327.381 29.9888 313.186 29.9902 298.991C29.9903 291.022 29.9764 283.054 29.9259 275.086C29.8831 268.299 29.8716 261.513 29.9002 254.726C29.9138 251.265 29.9132 247.806 29.873 244.345C29.8371 240.586 29.857 236.83 29.8905 233.071C29.867 231.986 29.8435 230.902 29.8193 229.784C29.9732 222.109 32.3863 218.391 37.7721 212.989C40.3118 210.721 42.8177 208.823 45.779 207.138C64.6127 195.715 84.6272 180.598 91.9997 159C100.257 124.376 96.0037 84.6721 93.7214 49.4717C93.6474 48.2331 93.5734 46.9945 93.4972 45.7184C93.3571 43.4285 93.1985 41.1397 93.0166 38.8527C92.4321 29.0994 95.1759 21.8257 101 13.9999C101.591 13.1956 102.183 12.3912 102.793 11.5624C105.113 8.86833 107.311 7.20155 110.312 5.31245C111.216 4.73108 112.119 4.14971 113.05 3.55073C120.252 -0.236158 126.861 -0.29269 134.854 -0.274713ZM426.402 22.5351C418.831 30.7012 418.585 38.8054 418.812 49.4999C418.874 53.6249 418.936 57.7499 419 61.9999C434.18 61.9999 449.36 61.9999 465 61.9999C465.123 57.2562 465.247 52.5124 465.375 47.6249C465.429 46.1498 465.484 44.6746 465.54 43.1547C465.648 34.5761 464.674 28.6253 459 21.9999C448.798 12.9016 436.192 13.128 426.402 22.5351ZM90.3229 184.556C89.2337 185.649 89.2337 185.649 88.1225 186.764C86.8914 187.995 86.8914 187.995 85.6353 189.251C84.7437 190.148 83.852 191.045 82.9333 191.969C81.5704 193.334 81.5704 193.334 80.1799 194.726C77.7594 197.151 75.3419 199.578 72.925 202.006C70.4602 204.481 67.9925 206.953 65.5251 209.426C60.6805 214.281 55.8391 219.139 50.9997 224C52.4443 227.309 54.2425 229.491 56.791 232.034C57.5684 232.815 58.3458 233.595 59.1468 234.399C59.9864 235.232 60.8261 236.064 61.6911 236.922C62.5516 237.782 63.412 238.642 64.2985 239.528C66.1161 241.342 67.9361 243.154 69.7583 244.964C72.56 247.748 75.3537 250.539 78.1462 253.332C79.9107 255.092 81.6757 256.851 83.4411 258.609C84.2828 259.45 85.1244 260.29 85.9916 261.156C86.7658 261.924 87.5401 262.692 88.3379 263.483C89.0224 264.164 89.707 264.845 90.4123 265.546C91.7639 267.112 91.7639 267.112 92.9997 267C92.9997 239.28 92.9997 211.56 92.9997 183C91.7406 182.887 91.7406 182.887 90.3229 184.556ZM419 183C419 210.72 419 238.44 419 267C424.659 262.178 424.659 262.178 430.007 257.106C430.707 256.406 431.408 255.705 432.129 254.984C432.859 254.249 433.588 253.515 434.34 252.758C435.107 251.989 435.873 251.221 436.664 250.429C439.091 247.997 441.514 245.561 443.937 243.125C445.591 241.466 447.246 239.807 448.9 238.148C452.936 234.102 456.969 230.052 461 226C459.555 222.691 457.757 220.509 455.208 217.966C454.431 217.185 453.654 216.405 452.853 215.601C451.593 214.352 451.593 214.352 450.308 213.078C449.448 212.218 448.587 211.358 447.701 210.472C445.883 208.658 444.063 206.845 442.241 205.036C439.439 202.252 436.646 199.461 433.853 196.668C432.089 194.908 430.324 193.149 428.558 191.391C427.717 190.55 426.875 189.71 426.008 188.844C424.846 187.692 424.846 187.692 423.662 186.517C422.977 185.836 422.292 185.155 421.587 184.454C420.236 182.887 420.236 182.887 419 183ZM46.9997 245C46.9997 323.87 46.9997 402.74 46.9997 484C51.2399 480.365 55.2181 476.906 59.1314 472.988C59.8326 472.289 59.8326 472.289 60.5479 471.575C62.0901 470.034 63.6288 468.49 65.1674 466.946C66.2815 465.831 67.3959 464.717 68.5104 463.603C71.5183 460.596 74.5232 457.585 77.5275 454.574C80.674 451.421 83.8234 448.271 86.9725 445.121C92.9277 439.162 98.8804 433.201 104.832 427.24C111.611 420.449 118.393 413.662 125.176 406.874C139.12 392.919 153.061 378.961 167 365C161.697 358.568 155.856 352.715 149.961 346.832C148.849 345.718 147.736 344.604 146.624 343.489C143.62 340.481 140.614 337.476 137.606 334.472C134.457 331.325 131.31 328.176 128.163 325.027C122.885 319.747 117.605 314.47 112.323 309.193C106.21 303.086 100.101 296.974 93.9935 290.861C88.7476 285.611 83.4999 280.363 78.2505 275.116C75.1157 271.983 71.9816 268.849 68.8492 265.713C65.9105 262.772 62.9694 259.832 60.0264 256.895C58.9439 255.814 57.8623 254.732 56.7816 253.649C55.3132 252.178 53.8418 250.71 52.3695 249.243C51.1326 248.006 51.1326 248.006 49.8708 246.745C48.3043 244.886 48.3043 244.886 46.9997 245Z" fill="#005592" fill-opacity="0.972549"/>
<path d="M168.5 52.5C169.598 52.4845 169.598 52.4845 170.719 52.4688C174.599 53.3724 177.008 55.4447 179.145 58.7959C180.27 60.8783 181.303 62.9844 182.312 65.125C182.672 65.8533 183.031 66.5816 183.4 67.332C186 72.6897 186 72.6897 186 75C186.762 75.049 187.524 75.098 188.309 75.1484C206.463 76.463 206.463 76.463 212 82C213.901 85.8014 213.732 89.8789 213 94C210.66 97.895 207.425 100.824 203.941 103.699C200.206 106.803 200.206 106.803 198.75 111.238C199.019 113.87 199.484 116.406 200 119C201.789 131.989 201.789 131.989 198 138C193.824 140.609 189.787 140.721 185 140C182.872 139.078 180.998 137.968 179.027 136.748C172.782 132.857 172.782 132.857 165.679 132.406C161.774 133.831 158.338 135.804 154.805 137.969C151.119 140.174 148.326 140.484 144 140C139.848 138.207 137.728 136.185 136 132C135.645 127.528 135.744 124.014 136.844 119.656C137.728 115.891 138.303 112.865 138 109C135.573 105.793 132.96 103.628 129.785 101.172C125.142 97.5514 123.314 94.2793 122.5 88.375C123.101 84.3176 124.037 82.8074 127 80C130.366 77.9492 133.089 76.8487 136.988 76.6484C145.034 76.379 145.034 76.379 151.582 72.2671C153.887 68.6872 155.533 64.9354 157.141 61.0039C159.346 55.7527 162.53 52.4159 168.5 52.5ZM168 75C166.942 76.9284 165.904 78.8681 164.875 80.8125C161.468 86.7052 161.468 86.7052 157.625 89.125C156.429 89.4137 155.232 89.7025 154 90C153.194 90.1972 152.389 90.3945 151.559 90.5977C149.379 91.1128 147.199 91.5761 145 92C145.597 92.671 145.597 92.671 146.207 93.3555C151.218 99.0732 154.435 102.807 154.172 110.641C153.918 114.121 153.502 117.546 153 121C153.652 120.651 154.305 120.301 154.977 119.941C165.772 114.321 165.772 114.321 172.562 115.75C175.689 116.887 178.198 118.239 181 120C181.66 120 182.32 120 183 120C182.919 118.866 182.838 117.731 182.754 116.562C182.157 104.589 182.157 104.589 184.488 100.195C186.228 98.2867 188.023 96.6548 190 95C190.66 94.01 191.32 93.02 192 92C191.12 91.8298 190.239 91.6597 189.332 91.4844C188.171 91.242 187.009 90.9997 185.812 90.75C184.664 90.518 183.515 90.2859 182.332 90.0469C177.645 88.5743 174.991 86.6146 172.418 82.4219C171.809 81.0993 171.809 81.0993 171.188 79.75C170.559 78.412 170.559 78.412 169.918 77.0469C169.615 76.3714 169.312 75.6959 169 75C168.67 75 168.34 75 168 75Z" fill="#005592" fill-opacity="0.972549"/>
<path d="M256 29.625C256.639 29.6173 257.279 29.6095 257.937 29.6016C261.628 30.3144 264.079 31.6591 266.241 34.8076C267.506 37.0275 268.672 39.276 269.812 41.5625C270.422 42.7333 270.422 42.7333 271.045 43.9277C274 49.6839 274 49.6839 274 52C274.822 52.0374 275.645 52.0748 276.492 52.1133C293.431 53.1108 293.431 53.1108 299.625 58.125C301.568 62.1869 301.755 65.5791 301 70C298.28 75.5537 292.645 82.1772 287 85C287.108 86.1988 287.108 86.1988 287.219 87.4219C287.699 93.1094 288.108 98.7931 288.25 104.5C288.276 105.438 288.301 106.377 288.328 107.344C287.929 110.574 286.915 112.387 285 115C281.255 117.496 278.336 117.644 274 117C270.201 115.601 266.72 113.614 263.18 111.668C258.721 109.329 258.721 109.329 253.777 109.594C251.215 110.891 248.685 112.208 246.187 113.625C241.367 116.068 237.355 117.126 232 116C228.197 113.995 226.382 112.573 224 109C223.049 100.975 224.596 92.8827 226 85C225.434 84.7577 224.868 84.5153 224.285 84.2656C218.224 80.9088 212.197 74.5917 210 68C209.321 63.9283 209.767 62.3962 211.875 58.8125C218.283 51.9749 229.319 52.3946 238 52C238.262 51.1479 238.523 50.2959 238.793 49.418C240.048 45.8632 241.564 42.6511 243.312 39.3125C244.173 37.6361 244.173 37.6361 245.051 35.9258C247.834 31.7486 250.899 29.5633 256 29.625ZM255 52C254.613 52.7593 254.226 53.5185 253.828 54.3008C253.307 55.2946 252.786 56.2885 252.25 57.3125C251.739 58.2986 251.229 59.2848 250.703 60.3008C248.259 64.1738 246.449 65.6489 241.984 66.7305C240.917 66.8813 239.85 67.0321 238.75 67.1875C237.672 67.3461 236.595 67.5046 235.484 67.668C234.664 67.7775 233.845 67.8871 233 68C234.324 70.9485 235.782 72.918 238.062 75.1875C241.598 79.232 242.122 82.7269 242 88C241.788 91.0363 241.431 93.9827 241 97C243.842 95.8802 246.533 94.7233 249.25 93.3125C254.484 91.4806 258.99 91.5834 264.058 93.9688C265.729 94.9409 267.367 95.9669 269 97C269.66 97 270.32 97 271 97C270.881 95.9984 270.763 94.9968 270.641 93.9648C269.39 81.8705 269.39 81.8705 271.562 77.875C274.191 74.7749 276.755 72.4339 280 70C279.505 69.01 279.505 69.01 279 68C277.096 67.6321 275.175 67.3551 273.25 67.125C265.171 65.8439 265.171 65.8439 262 62C260.163 58.7375 258.532 55.4153 257 52C256.34 52 255.68 52 255 52Z" fill="#005592" fill-opacity="0.972549"/>
<path d="M347 52.9999C352.164 55.5886 353.728 58.0624 355.712 63.1943C358.516 70.3676 358.516 70.3676 364.266 75.0995C368.598 76.337 372.882 76.8247 377.355 77.2343C382.362 77.7901 384.611 79.2828 388 82.9999C389.84 87.3035 389.319 91.123 387.75 95.4374C386.166 97.9334 384.576 99.329 382.211 101.164C379.044 103.625 376.427 105.798 374 109C373.609 113.93 374.821 118.236 376 123C376.449 127.698 376.578 131.614 374.75 136C371.746 139.433 369.945 139.922 365.363 140.301C359.683 140.254 355.595 137.476 350.824 134.668C346.625 132.323 346.625 132.323 341.902 132.555C338.815 134.092 335.744 135.653 332.688 137.25C327.608 139.619 324.258 140.807 318.875 138.957C315.754 137.364 314.008 135.886 312 133C310.493 127.172 311.252 122.448 312.527 116.613C312.683 115.751 312.839 114.888 313 114C313.153 113.199 313.307 112.399 313.465 111.574C312.71 107.394 309.681 105.279 306.625 102.5C299.155 95.6207 299.155 95.6207 298 90.9999C298 84.0305 298 84.0305 301.559 80.3632C305.143 77.5704 308.639 76.8359 313.062 76.1874C313.757 76.0669 314.451 75.9464 315.166 75.8222C318.805 75.2175 322.313 74.8634 326 74.9999C326.273 74.1363 326.547 73.2726 326.828 72.3827C331.777 58.0958 331.777 58.0958 336.938 54.2499C340.669 52.7268 343.002 52.4288 347 52.9999ZM343 74.9999C342.613 75.7592 342.227 76.5184 341.828 77.3007C341.307 78.2946 340.787 79.2884 340.25 80.3124C339.74 81.2986 339.229 82.2847 338.703 83.3007C336.195 87.2752 334.275 88.6256 329.766 89.9492C328.025 90.3146 328.025 90.3146 326.25 90.6874C325.08 90.9388 323.909 91.1902 322.703 91.4492C321.811 91.6309 320.919 91.8127 320 91.9999C320.398 92.4588 320.797 92.9177 321.207 93.3906C321.737 94.0042 322.267 94.6177 322.812 95.2499C323.335 95.8532 323.857 96.4565 324.395 97.0781C324.924 97.7123 325.454 98.3465 326 98.9999C326.557 99.5568 327.114 100.114 327.688 100.687C329.718 104.264 329.318 107.717 329.188 111.75C329.174 112.543 329.16 113.335 329.146 114.152C329.111 116.102 329.057 118.051 329 120C332.403 118.941 335.014 117.991 338 116C343.68 114.242 347.691 115.975 353 118C354.763 118.588 354.763 118.588 356.562 119.187C357.367 119.456 358.171 119.724 359 120C358.835 119.031 358.67 118.061 358.5 117.062C356.988 105.912 356.988 105.912 359.688 100.812C360.451 99.8843 361.214 98.9562 362 97.9999C362.455 97.4392 362.91 96.8784 363.379 96.3007C364.566 94.8503 365.78 93.4228 367 91.9999C365.975 91.804 364.95 91.6081 363.895 91.4062C353.205 89.1247 353.205 89.1247 349.996 86.1288C348.788 84.125 347.861 82.173 347 79.9999C346.021 78.321 345.03 76.6481 344 74.9999C343.67 74.9999 343.34 74.9999 343 74.9999Z" fill="#005592" fill-opacity="0.972549"/>
<path d="M166.819 154.492C168.008 154.483 168.008 154.483 169.222 154.473C171.881 154.457 174.54 154.47 177.199 154.483C179.105 154.477 181.01 154.47 182.915 154.461C188.093 154.443 193.27 154.45 198.448 154.463C203.862 154.473 209.276 154.464 214.69 154.457C223.783 154.45 232.875 154.46 241.968 154.479C252.486 154.5 263.003 154.493 273.521 154.471C282.545 154.453 291.57 154.451 300.594 154.461C305.986 154.467 311.379 154.468 316.771 154.455C321.841 154.443 326.91 154.451 331.979 154.475C333.841 154.48 335.704 154.478 337.566 154.469C340.105 154.459 342.642 154.472 345.181 154.492C346.292 154.479 346.292 154.479 347.425 154.465C350.821 154.517 352.691 154.771 355.454 156.817C357.749 160.057 357.612 162.127 357 166C354.307 169.535 352.825 170.856 348.4 171.629C346.981 171.657 345.562 171.657 344.143 171.635C343.359 171.643 342.574 171.651 341.765 171.659C339.139 171.679 336.513 171.663 333.887 171.647C332.002 171.654 330.118 171.663 328.234 171.674C323.118 171.696 318.003 171.688 312.887 171.672C307.535 171.659 302.183 171.671 296.831 171.679C287.843 171.688 278.854 171.676 269.866 171.652C259.473 171.625 249.08 171.634 238.686 171.661C229.764 171.684 220.843 171.687 211.921 171.674C206.592 171.666 201.263 171.665 195.933 171.682C190.923 171.696 185.913 171.686 180.903 171.657C179.064 171.651 177.224 171.652 175.385 171.663C172.875 171.677 170.367 171.66 167.857 171.635C166.763 171.652 166.763 171.652 165.647 171.669C161.796 171.595 160.112 171.088 157.044 168.683C155 166 155 166 154.438 162.438C155.641 155.084 160.163 154.412 166.819 154.492Z" fill="#005592" fill-opacity="0.972549"/>
<path d="M181.604 185.612C182.267 185.607 182.929 185.601 183.611 185.596C185.828 185.581 188.045 185.589 190.262 185.596C191.852 185.59 193.442 185.583 195.032 185.575C199.35 185.557 203.668 185.558 207.987 185.564C211.59 185.567 215.194 185.561 218.797 185.555C227.297 185.541 235.796 185.542 244.296 185.554C253.069 185.565 261.842 185.551 270.614 185.524C278.144 185.502 285.674 185.496 293.203 185.501C297.701 185.505 302.2 185.502 306.698 185.485C310.927 185.47 315.155 185.474 319.384 185.492C320.937 185.496 322.49 185.493 324.042 185.483C326.161 185.469 328.278 185.481 330.396 185.499C332.175 185.499 332.175 185.499 333.989 185.499C337.631 186.105 338.789 187.096 341 190C341.916 193.138 342.272 195.111 341.313 198.25C339.677 200.43 338.545 201.008 336 202C333.02 202.251 333.02 202.251 329.472 202.254C328.818 202.257 328.164 202.26 327.49 202.263C325.301 202.271 323.112 202.265 320.922 202.259C319.352 202.261 317.781 202.265 316.211 202.269C311.946 202.278 307.682 202.275 303.418 202.268C298.957 202.263 294.496 202.268 290.034 202.271C282.543 202.275 275.051 202.27 267.559 202.26C258.895 202.25 250.231 202.253 241.568 202.264C234.132 202.273 226.695 202.275 219.259 202.269C214.817 202.266 210.375 202.266 205.932 202.272C201.756 202.278 197.58 202.274 193.404 202.263C191.87 202.26 190.337 202.261 188.803 202.265C186.712 202.271 184.62 202.264 182.529 202.254C181.358 202.253 180.187 202.252 178.98 202.251C176.068 202.005 174.427 201.579 172 200C169.919 197.323 170.004 195.882 170.125 192.437C171 189 171 189 172.642 187.309C175.77 185.572 178.031 185.619 181.604 185.612Z" fill="#005592" fill-opacity="0.972549"/>
<path d="M181.604 216.492C182.598 216.482 182.598 216.482 183.611 216.473C185.828 216.457 188.044 216.469 190.262 216.482C191.852 216.477 193.442 216.47 195.032 216.461C199.35 216.443 203.668 216.45 207.987 216.462C212.504 216.472 217.021 216.463 221.538 216.457C229.124 216.45 236.71 216.459 244.296 216.478C253.069 216.5 261.841 216.493 270.614 216.471C278.144 216.453 285.673 216.45 293.203 216.461C297.701 216.467 302.199 216.468 306.698 216.454C310.927 216.443 315.155 216.451 319.384 216.474C320.937 216.479 322.49 216.478 324.042 216.469C326.161 216.458 328.278 216.472 330.396 216.492C331.582 216.493 332.767 216.495 333.989 216.496C337.63 217.105 338.789 218.097 341 221C341.915 224.138 342.272 226.11 341.313 229.25C339.677 231.43 338.545 232.008 336 233C333.02 233.251 333.02 233.251 329.472 233.254C328.818 233.257 328.164 233.26 327.49 233.263C325.301 233.271 323.111 233.265 320.922 233.258C319.352 233.261 317.781 233.265 316.211 233.269C311.946 233.278 307.682 233.275 303.418 233.268C298.957 233.263 294.495 233.268 290.034 233.271C282.542 233.275 275.051 233.27 267.559 233.26C258.895 233.249 250.231 233.253 241.568 233.264C234.131 233.273 226.695 233.274 219.259 233.269C214.817 233.266 210.374 233.266 205.932 233.272C201.756 233.278 197.58 233.274 193.404 233.262C191.87 233.26 190.337 233.261 188.803 233.265C186.711 233.27 184.62 233.264 182.528 233.254C181.357 233.253 180.186 233.252 178.98 233.251C176.067 233.005 174.425 232.584 172 231C170.111 228.481 169.993 227.171 170.125 224C171.97 217.673 175.339 216.5 181.604 216.492Z" fill="#005592" fill-opacity="0.972549"/>
<path d="M203.422 278.353C204.683 278.344 205.943 278.335 207.242 278.326C210.693 278.304 214.142 278.312 217.593 278.328C221.208 278.341 224.822 278.329 228.437 278.321C234.506 278.312 240.575 278.324 246.645 278.348C253.657 278.375 260.669 278.366 267.682 278.339C273.707 278.316 279.733 278.313 285.759 278.326C289.355 278.334 292.952 278.335 296.549 278.318C300.559 278.301 304.568 278.325 308.578 278.353C309.768 278.343 310.958 278.333 312.183 278.322C321.137 278.438 321.137 278.438 324.237 281.353C326 284 326 284 326.625 287C325.98 290.094 325.159 291.78 322.852 293.949C318.601 296.361 313.324 295.687 308.578 295.647C306.687 295.66 306.687 295.66 304.758 295.673C301.307 295.696 297.858 295.687 294.407 295.671C290.792 295.659 287.178 295.671 283.563 295.678C277.494 295.687 271.425 295.675 265.355 295.652C258.343 295.624 251.331 295.633 244.318 295.661C238.293 295.683 232.267 295.687 226.241 295.674C222.645 295.666 219.048 295.665 215.451 295.681C211.441 295.698 207.432 295.675 203.422 295.647C202.232 295.657 201.042 295.667 199.817 295.677C190.863 295.562 190.863 295.562 187.763 292.647C186 290 186 290 185.375 287C186.02 283.906 186.841 282.22 189.148 280.051C193.399 277.639 198.676 278.312 203.422 278.353Z" fill="#005592" fill-opacity="0.972549"/>
<path d="M203.422 247.353C204.683 247.344 205.943 247.335 207.242 247.326C210.693 247.304 214.142 247.312 217.593 247.328C221.208 247.341 224.822 247.329 228.437 247.321C234.506 247.312 240.575 247.324 246.645 247.348C253.657 247.375 260.669 247.366 267.682 247.339C273.707 247.316 279.733 247.313 285.759 247.326C289.355 247.334 292.952 247.335 296.549 247.318C300.559 247.301 304.568 247.325 308.578 247.353C309.768 247.343 310.958 247.333 312.183 247.322C321.137 247.438 321.137 247.438 324.237 250.353C326 253 326 253 326.625 256C325.98 259.094 325.159 260.78 322.852 262.949C318.601 265.361 313.324 264.687 308.578 264.647C306.687 264.66 306.687 264.66 304.758 264.673C301.307 264.696 297.858 264.687 294.407 264.671C290.792 264.659 287.178 264.671 283.563 264.678C277.494 264.687 271.425 264.675 265.355 264.652C258.343 264.624 251.331 264.633 244.318 264.661C238.293 264.683 232.267 264.687 226.241 264.674C222.645 264.666 219.048 264.665 215.451 264.681C211.441 264.698 207.432 264.675 203.422 264.647C202.232 264.657 201.042 264.667 199.817 264.677C190.863 264.562 190.863 264.562 187.763 261.647C186 259 186 259 185.375 256C186.02 252.906 186.841 251.22 189.148 249.051C193.399 246.639 198.676 247.312 203.422 247.353Z" fill="#005592" fill-opacity="0.972549"/>
<path d="M228.73 309.353C229.386 309.344 230.042 309.335 230.718 309.326C232.875 309.304 235.03 309.319 237.188 309.336C238.693 309.332 240.198 309.328 241.704 309.321C244.855 309.314 248.005 309.325 251.155 309.348C255.187 309.377 259.218 309.36 263.25 309.33C266.358 309.312 269.465 309.318 272.572 309.331C274.058 309.334 275.545 309.33 277.031 309.318C279.111 309.306 281.189 309.325 283.27 309.353C285.042 309.359 285.042 309.359 286.851 309.365C290.931 310.188 292.432 311.791 295 315C295.625 318 295.625 318 295 321C292.432 324.209 290.931 325.812 286.851 326.635C285.669 326.639 284.487 326.643 283.27 326.647C282.614 326.656 281.958 326.664 281.282 326.673C279.125 326.695 276.97 326.681 274.812 326.664C273.307 326.667 271.802 326.672 270.296 326.678C267.145 326.686 263.995 326.675 260.845 326.652C256.813 326.623 252.782 326.64 248.75 326.67C245.642 326.688 242.535 326.682 239.428 326.669C237.942 326.666 236.455 326.67 234.969 326.681C232.889 326.694 230.811 326.675 228.73 326.647C226.958 326.641 226.958 326.641 225.149 326.635C221.069 325.812 219.568 324.209 217 321C216.375 318 216.375 318 217 315C220.652 310.437 222.935 309.372 228.73 309.353Z" fill="#005592" fill-opacity="0.972549"/>
</g>
</g>
<defs>
<clipPath id="clip0_1_21">
<rect width="512" height="512" fill="white"/>
</clipPath>
</defs>
</svg>
