<svg width="512" height="512" viewBox="0 0 512 512" fill="none" xmlns="http://www.w3.org/2000/svg">
<path d="M97.6867 150.188C105.829 156.963 112.06 165.287 113.222 176.071C114.138 189.27 112.374 199.579 103.78 210.028C101.91 212.099 100.058 214.114 97.9992 216C97.3392 216 96.6792 216 95.9992 216C96.4697 216.629 96.9402 217.258 97.425 217.906C106.077 229.801 106.077 229.801 105.948 236.742C106.035 241.896 107.199 245.574 110.903 249.2C126.592 261.941 146.349 259.454 165.386 259.055C172.774 258.911 180.164 258.872 187.553 258.836C190.113 258.813 192.671 258.76 195.23 258.702C204.358 258.556 210.829 258.809 218.206 264.789C222.47 269.665 225.291 274.472 225.999 281C225.669 284.3 225.339 287.6 224.999 291C245.459 291 265.919 291 286.999 291C286.669 287.7 286.339 284.4 285.999 281C286.793 273.678 290.294 267.625 295.999 263C303.279 257.944 310.763 258.566 319.265 258.759C321.88 258.814 324.493 258.836 327.108 258.849C334.539 258.888 341.969 258.957 349.398 259.113C376.818 260.46 376.818 260.46 401.065 249.384C405.462 245.006 406.231 239.825 406.612 233.789C407.343 226.63 411.781 221.574 415.999 216C415.116 215.614 415.116 215.614 414.214 215.219C407.095 211.302 402.986 203.258 399.999 196C397.04 185.682 397.801 172.397 402.999 163C409.042 153.31 417.837 145.888 428.999 143C441.967 140.791 453.84 142.868 464.796 150.203C472.788 156.356 478.442 166.062 479.999 176C481.178 189.483 478.635 200.438 469.999 211C468.078 212.864 466.159 214.406 463.999 216C465.77 219.624 467.759 223.097 469.78 226.586C472.97 232.904 473.296 238.398 473.29 245.342C473.296 246.37 473.303 247.399 473.31 248.458C473.329 251.855 473.333 255.252 473.335 258.649C473.342 261.023 473.348 263.398 473.355 265.772C473.367 270.754 473.371 275.735 473.37 280.717C473.37 287.062 473.397 293.407 473.431 299.753C473.454 304.662 473.458 309.571 473.457 314.48C473.459 316.817 473.468 319.154 473.483 321.491C473.629 345.682 470.101 366.575 452.418 384.614C450.952 386.083 449.476 387.542 447.999 389C465.011 390.282 465.011 390.282 479.851 383.352C487.586 374.956 487.147 365.053 487.157 354.253C487.162 353.088 487.167 351.923 487.172 350.723C487.183 348.202 487.192 345.68 487.198 343.159C487.21 339.171 487.229 335.183 487.252 331.195C487.313 319.859 487.368 308.523 487.401 297.187C487.419 290.917 487.448 284.646 487.489 278.376C487.51 275.061 487.523 271.747 487.527 268.433C487.532 264.741 487.555 261.05 487.583 257.359C487.58 256.262 487.577 255.165 487.574 254.036C487.585 253.03 487.596 252.025 487.607 250.99C487.61 250.118 487.614 249.246 487.617 248.347C488.088 245.457 488.975 244.097 490.999 242C494.973 240.896 497.089 240.585 500.874 242.313C502.999 244 502.999 244 503.999 246C504.103 247.696 504.143 249.396 504.153 251.095C504.162 252.175 504.17 253.254 504.179 254.366C504.186 256.15 504.186 256.15 504.192 257.97C504.2 259.219 504.208 260.468 504.217 261.755C504.242 265.907 504.258 270.059 504.273 274.211C504.278 275.643 504.283 277.075 504.289 278.506C504.31 284.468 504.329 290.43 504.34 296.392C504.357 304.919 504.39 313.444 504.447 321.97C504.486 327.973 504.505 333.975 504.51 339.978C504.514 343.558 504.526 347.137 504.558 350.717C504.594 354.724 504.59 358.729 504.583 362.736C504.599 363.905 504.615 365.075 504.632 366.279C504.551 377.111 501.408 386.38 493.808 394.258C493.211 394.833 492.614 395.408 491.999 396C491.454 396.555 490.909 397.109 490.347 397.68C481.81 405.755 471.364 407.161 460.105 407.098C459.157 407.096 458.21 407.095 457.234 407.094C454.218 407.088 451.202 407.075 448.187 407.063C446.138 407.058 444.089 407.053 442.04 407.049C437.026 407.038 432.013 407.021 426.999 407C427.009 408.672 427.009 408.672 427.019 410.377C427.08 420.882 427.125 431.387 427.155 441.893C427.17 447.294 427.191 452.695 427.225 458.095C427.258 463.309 427.276 468.521 427.284 473.735C427.289 475.722 427.3 477.71 427.316 479.698C427.338 482.485 427.341 485.271 427.34 488.057C427.356 489.287 427.356 489.287 427.372 490.542C427.346 495.422 426.708 498.772 423.999 503C419.698 505.151 414.024 504.309 409.251 504.35C407.836 504.367 406.422 504.394 405.008 504.432C402.966 504.487 400.925 504.509 398.882 504.524C397.659 504.543 396.436 504.563 395.175 504.584C391.999 504 391.999 504 389.829 502.027C387.337 497.905 387.464 494.715 387.545 489.987C387.544 489.089 387.544 488.191 387.543 487.266C387.546 484.306 387.577 481.347 387.609 478.387C387.616 476.331 387.622 474.276 387.626 472.22C387.641 466.816 387.68 461.413 387.725 456.009C387.765 450.493 387.784 444.976 387.804 439.459C387.847 428.639 387.915 417.82 387.999 407C385.915 407.006 383.832 407.056 381.749 407.125C380.589 407.148 379.429 407.172 378.234 407.196C374.821 407.722 374.821 407.722 372.745 410.53C370.781 414.435 369.483 418.206 368.314 422.405C368.076 423.227 367.838 424.049 367.592 424.895C367.08 426.67 366.572 428.446 366.069 430.223C365.271 433.038 364.46 435.849 363.645 438.66C361.625 445.637 359.626 452.62 357.63 459.604C355.94 465.514 354.24 471.421 352.527 477.324C351.729 480.089 350.945 482.859 350.161 485.628C349.67 487.327 349.178 489.026 348.685 490.725C348.472 491.492 348.259 492.26 348.039 493.051C347.829 493.764 347.619 494.477 347.402 495.212C347.227 495.827 347.051 496.441 346.871 497.074C345.585 499.915 344.235 501.808 341.999 504C338.832 504.629 338.832 504.629 335.015 504.635C333.961 504.647 333.961 504.647 332.885 504.659C330.529 504.679 328.175 504.663 325.819 504.647C324.131 504.654 322.442 504.663 320.754 504.674C316.167 504.697 311.58 504.688 306.994 504.672C302.196 504.659 297.399 504.671 292.601 504.679C284.544 504.688 276.488 504.676 268.431 504.652C259.113 504.625 249.795 504.634 240.477 504.661C232.48 504.684 224.483 504.687 216.487 504.674C211.709 504.666 206.931 504.665 202.154 504.682C197.662 504.696 193.171 504.686 188.679 504.657C187.03 504.651 185.38 504.653 183.731 504.664C181.481 504.677 179.233 504.66 176.983 504.635C175.724 504.633 174.464 504.631 173.166 504.629C169.999 504 169.999 504 167.65 501.697C166.287 499.47 165.306 497.698 164.596 495.212C164.386 494.499 164.176 493.786 163.959 493.051C163.746 492.283 163.533 491.516 163.314 490.725C163.076 489.905 162.838 489.085 162.592 488.24C162.079 486.466 161.572 484.69 161.069 482.913C160.272 480.098 159.46 477.287 158.645 474.477C156.917 468.509 155.207 462.536 153.499 456.563C151.519 449.642 149.532 442.724 147.527 435.81C146.73 433.046 145.945 430.279 145.161 427.511C144.67 425.809 144.178 424.107 143.685 422.405C143.472 421.639 143.259 420.874 143.039 420.085C141.695 415.505 140.232 411.628 136.999 408C133.751 407.065 133.751 407.065 130.249 407.125C129.079 407.087 127.908 407.048 126.702 407.008C125.81 407.005 124.918 407.003 123.999 407C124.008 408.142 124.017 409.283 124.026 410.459C124.107 421.215 124.167 431.971 124.206 442.727C124.227 448.257 124.256 453.787 124.301 459.316C124.344 464.653 124.368 469.989 124.379 475.325C124.386 477.361 124.401 479.397 124.422 481.434C124.451 484.285 124.455 487.136 124.453 489.987C124.468 490.83 124.482 491.672 124.497 492.54C124.469 496.521 124.276 498.543 122.167 502.024C119.161 504.764 117.213 504.632 113.187 504.629C112.536 504.632 111.885 504.634 111.215 504.636C109.843 504.635 108.471 504.622 107.1 504.597C105.005 504.563 102.914 504.577 100.819 504.596C99.4835 504.589 98.1476 504.579 96.8117 504.567C94.996 504.55 94.996 504.55 93.1437 504.534C89.4207 503.902 88.2579 502.97 85.9992 500C84.7046 496.116 84.8681 492.445 84.8857 488.398C84.8855 487.52 84.8854 486.641 84.8852 485.737C84.8859 482.831 84.8937 479.925 84.9015 477.02C84.9034 475.006 84.9048 472.993 84.9058 470.979C84.9096 465.677 84.9195 460.376 84.9305 455.074C84.9407 449.664 84.9453 444.255 84.9503 438.846C84.9611 428.231 84.9781 417.615 84.9992 407C83.7647 407.021 82.5301 407.042 81.2582 407.064C76.6195 407.137 71.9808 407.182 67.3417 407.22C65.3449 407.24 63.3481 407.267 61.3515 407.302C45.4098 407.573 31.5768 407.137 18.9992 396C11.1183 387.963 7.45632 377.394 7.34375 366.302C7.35701 365.135 7.37028 363.969 7.38394 362.768C7.37839 361.505 7.37284 360.241 7.36713 358.94C7.35303 355.514 7.36978 352.09 7.39341 348.664C7.41368 345.066 7.40763 341.467 7.4053 337.868C7.40536 331.836 7.42499 325.804 7.45718 319.773C7.4942 312.804 7.50284 305.835 7.49589 298.866C7.48958 292.143 7.50032 285.419 7.51985 278.696C7.52802 275.841 7.53074 272.987 7.52916 270.132C7.52812 266.154 7.55228 262.176 7.57925 258.197C7.57632 257.015 7.57339 255.833 7.57037 254.615C7.58172 253.533 7.59307 252.451 7.60477 251.336C7.6085 250.396 7.61222 249.457 7.61607 248.489C8.07513 245.507 8.89996 244.148 10.9992 242C14.9726 240.896 17.0892 240.585 20.8742 242.313C22.9992 244 22.9992 244 23.9992 246C24.0993 247.574 24.1369 249.152 24.1439 250.729C24.1508 251.727 24.1577 252.725 24.1648 253.753C24.1675 254.853 24.1701 255.952 24.1728 257.084C24.1794 258.239 24.1861 259.394 24.193 260.583C24.2071 263.099 24.219 265.614 24.229 268.13C24.2454 272.115 24.2684 276.1 24.2939 280.085C24.365 291.419 24.4247 302.752 24.476 314.086C24.5044 320.343 24.5398 326.6 24.5826 332.857C24.6049 336.165 24.6223 339.473 24.6331 342.781C24.6453 346.481 24.6695 350.181 24.6962 353.881C24.6968 354.964 24.6974 356.047 24.698 357.163C24.7956 367.411 25.4115 376.516 32.9992 384C37.9525 387.691 42.6641 389.137 48.7648 389.098C49.6543 389.095 50.5437 389.091 51.4601 389.088C52.3805 389.08 53.3009 389.071 54.2492 389.063C55.653 389.056 55.653 389.056 57.0851 389.049C59.3899 389.037 61.6945 389.021 63.9992 389C63.4539 388.513 62.9086 388.026 62.3468 387.524C49.6533 375.59 40.1474 359.124 38.8071 341.47C38.7272 338.689 38.7061 335.914 38.7086 333.131C38.7019 332.083 38.6952 331.035 38.6883 329.954C38.6694 326.513 38.6654 323.071 38.6632 319.629C38.6568 317.222 38.6501 314.815 38.6431 312.408C38.6311 307.372 38.6274 302.337 38.6286 297.301C38.6288 290.864 38.6014 284.427 38.567 277.991C38.5447 273.023 38.5407 268.055 38.5418 263.086C38.5394 260.714 38.5306 258.341 38.5151 255.969C38.4954 252.645 38.5013 249.322 38.5133 245.999C38.5021 245.029 38.4909 244.06 38.4793 243.062C38.5707 233.059 42.0974 225.869 47.9992 218C47.9992 217.34 47.9992 216.68 47.9992 216C46.6314 214.772 46.6314 214.772 44.8742 213.5C38.2483 207.988 33.5247 199.492 31.9992 191C30.8856 176.956 33.1643 166.131 41.9992 155C56.9134 139.832 80.4233 137.662 97.6867 150.188ZM54.4367 167.375C49.8365 173.161 48.4964 178.085 48.6945 185.414C49.5722 192.864 53.0725 197.941 58.8586 202.559C64.373 206.272 70.3076 208.145 76.9992 207C84.3508 204.595 89.9053 201.312 93.8117 194.5C96.8218 188.042 97.2583 181.591 95.3703 174.707C92.7049 168.528 87.716 163.747 81.6554 160.899C71.5413 157.291 61.853 159.35 54.4367 167.375ZM418.612 170.813C415.236 176.499 415.062 182.567 415.999 189C418.268 196.444 422.267 201.188 428.999 205C435.424 207.945 441.425 207.771 447.999 205.563C454.705 202.655 459.209 197.506 462.499 191.063C463.822 182.958 463.629 176.029 458.999 169C453.634 162.763 447.552 159.833 439.499 158.625C430.577 159.963 424.134 163.596 418.612 170.813ZM62.9992 228C58.0538 232.662 58.0538 232.662 55.8677 238.84C55.8648 239.591 55.8618 240.341 55.8587 241.115C55.853 241.977 55.8473 242.839 55.8414 243.727C55.8403 244.675 55.8392 245.623 55.838 246.6C55.8331 247.597 55.8281 248.594 55.823 249.621C55.8083 252.933 55.8016 256.246 55.7961 259.559C55.7903 261.861 55.7845 264.164 55.7788 266.466C55.7683 271.304 55.7624 276.142 55.7589 280.98C55.7535 287.161 55.7295 293.341 55.701 299.521C55.6823 304.283 55.6771 309.045 55.6756 313.808C55.6726 316.084 55.6646 318.361 55.6514 320.638C55.6342 323.838 55.6363 327.037 55.6427 330.236C55.6335 331.166 55.6243 332.096 55.6148 333.054C55.7054 347.493 61.5762 362.453 71.6398 372.906C88.0766 387.493 104.628 390.277 125.921 390.457C128.097 390.478 130.273 390.518 132.448 390.559C133.731 390.572 135.013 390.586 136.334 390.6C142.414 391.264 147.685 393.572 151.999 398C155.75 404.4 158.197 411.067 160.234 418.168C160.513 419.115 160.793 420.061 161.081 421.036C161.979 424.084 162.864 427.136 163.749 430.188C164.367 432.293 164.986 434.398 165.605 436.503C167.416 442.665 169.21 448.832 170.999 455C171.502 456.731 172.005 458.462 172.507 460.193C172.964 461.767 173.421 463.34 173.878 464.914C174.091 465.648 174.304 466.381 174.523 467.136C175.494 470.485 176.462 473.835 177.422 477.187C177.753 478.338 178.084 479.49 178.425 480.676C178.849 482.16 178.849 482.16 179.282 483.673C179.927 485.993 179.927 485.993 180.999 488C183.309 488 185.619 488 187.999 488C189.21 459.765 188.519 435.413 177.999 409C177.424 407.491 177.424 407.491 176.837 405.952C174.765 400.528 172.521 395.23 169.999 390C169.489 388.934 168.978 387.868 168.452 386.77C161.357 372.942 151.461 362.669 136.507 357.692C132.385 356.555 128.512 355.885 124.234 355.824C123.343 355.801 122.452 355.777 121.534 355.752C119.693 355.71 117.852 355.678 116.011 355.658C108.954 355.44 102.443 354.195 97.1134 349.251C91.2362 342.857 90.7911 337.411 91.1125 329.02C91.1458 327.031 91.1749 325.042 91.2003 323.053C91.2452 319.934 91.3112 316.823 91.4482 313.706C92.3595 302.348 92.3595 302.348 88.539 292.094C85.0078 288.919 81.0636 286.819 76.7641 284.863C71.1165 282.103 66.1446 277.206 63.6242 271.434C61.903 264.732 61.716 256.906 64.5617 250.5C67.8515 245.064 72.8591 240.755 78.9992 239C81.9894 238.282 84.9864 237.617 87.9992 237C86.657 232.302 84.1524 229.453 79.9992 227C73.9113 224.513 68.6203 224.387 62.9992 228ZM429.999 228C427.639 230.104 425.657 232.302 423.999 235C423.999 235.66 423.999 236.32 423.999 237C424.773 237.147 425.546 237.294 426.343 237.446C434.842 239.276 441.336 241.891 446.437 249.188C450.116 255.811 450.211 264.155 448.386 271.453C445.436 278.055 439.788 282.787 433.302 285.746C428.27 288.212 423.134 290.751 421.19 296.318C420.046 303.045 420.478 309.842 420.812 316.625C420.903 319.686 420.973 322.745 421.024 325.806C421.061 327.701 421.125 329.596 421.22 331.489C421.453 338.53 419.867 343.609 415.288 349.024C414.739 349.47 414.19 349.916 413.624 350.375C413.08 350.837 412.536 351.298 411.976 351.774C406.227 355.341 400.418 355.294 393.874 355.438C378.425 356.02 365.313 358.954 354.249 370.625C345.37 381.312 339.768 392.907 335.129 405.886C334.339 408.064 333.518 410.23 332.674 412.388C322.955 437.495 322.855 461.321 323.999 488C326.309 488 328.619 488 330.999 488C332.195 484.232 333.38 480.46 334.562 476.688C334.949 475.45 335.337 474.212 335.736 472.937C338.514 464.01 341.162 455.05 343.761 446.071C344.088 444.942 344.416 443.814 344.754 442.651C346.748 435.779 346.748 435.779 348.723 428.901C349.656 425.636 350.6 422.375 351.546 419.114C351.82 418.141 352.094 417.169 352.376 416.168C355.078 406.923 357.919 398.731 366.034 393.059C370.256 390.784 374.306 390.867 379.046 390.824C380.464 390.801 381.882 390.777 383.3 390.752C385.504 390.718 387.708 390.688 389.913 390.674C408.334 390.538 425.169 387.002 439.128 374C450.905 361.412 456.306 347.562 456.29 330.527C456.296 329.521 456.303 328.515 456.31 327.478C456.329 324.18 456.333 320.881 456.335 317.582C456.342 315.278 456.348 312.973 456.355 310.669C456.367 305.852 456.371 301.035 456.37 296.217C456.37 290.047 456.397 283.877 456.431 277.706C456.454 272.953 456.458 268.2 456.457 263.446C456.459 261.171 456.468 258.895 456.483 256.62C456.503 253.441 456.497 250.264 456.485 247.085C456.496 246.149 456.508 245.212 456.519 244.247C456.453 237.377 454.681 233.682 449.749 228.75C443.071 224.501 437.01 224.05 429.999 228ZM79.9992 257C78.5549 259.889 78.6223 261.797 78.9992 265C83.3892 270.389 89.4471 273.74 95.2492 277.438C97.2546 278.728 99.2598 280.018 101.265 281.309C102.149 281.874 103.034 282.439 103.945 283.021C106.999 285 106.999 285 108.658 286.541C116.513 293.165 126.289 291.829 135.987 291.727C137.938 291.726 139.889 291.727 141.839 291.73C145.912 291.73 149.984 291.709 154.056 291.673C159.276 291.627 164.495 291.626 169.716 291.64C173.737 291.646 177.757 291.633 181.778 291.613C183.703 291.606 185.629 291.603 187.554 291.607C190.24 291.607 192.924 291.582 195.61 291.55C196.404 291.555 197.198 291.559 198.017 291.565C201.596 291.495 203.597 291.313 206.465 289.083C208.515 286.312 208.515 286.312 208.999 283C208.058 279.784 208.058 279.784 205.999 277C201.416 274.966 197.161 274.745 192.228 274.84C191.473 274.846 190.717 274.852 189.939 274.858C188.305 274.871 186.672 274.889 185.038 274.909C181.541 274.948 178.044 274.95 174.546 274.954C168.049 274.962 161.553 274.983 155.056 275.072C150.523 275.133 145.992 275.144 141.458 275.123C139.746 275.125 138.034 275.143 136.323 275.182C123.672 275.452 115.768 272.737 105.597 265.176C103.48 263.618 101.273 262.223 99.0421 260.836C97.0808 259.585 95.1209 258.333 93.1691 257.067C87.6364 253.556 85.4306 253.284 79.9992 257ZM415.562 258.875C414.843 259.329 414.124 259.783 413.384 260.25C412.267 260.958 412.267 260.958 411.128 261.68C410.362 262.161 409.596 262.643 408.807 263.139C405.931 264.995 405.931 264.995 403.09 267.258C393.373 274.586 385.277 275.24 373.378 274.992C371.621 274.99 369.864 274.993 368.108 275C363.525 275.007 358.944 274.964 354.361 274.907C347.005 274.824 339.649 274.818 332.293 274.814C329.738 274.805 327.185 274.774 324.63 274.739C323.059 274.729 321.487 274.72 319.915 274.711C319.215 274.695 318.514 274.68 317.792 274.663C312.741 274.66 309.384 275.655 304.999 278C303.182 280.785 303.182 280.785 302.999 284C304.33 286.929 305.732 288.733 307.999 291C310.676 291.267 313.256 291.409 315.939 291.465C316.761 291.49 317.583 291.514 318.429 291.539C327.112 291.779 335.799 291.881 344.484 291.975C348.584 292.024 352.679 292.113 356.776 292.242C389.428 293.563 389.428 293.563 416.98 277.775C419.889 275.219 423.016 273.276 426.312 271.25C429.45 269.216 430.897 268.154 432.999 265C433.463 261.369 433.496 259.681 431.312 256.688C425.062 252.127 421.333 255.104 415.562 258.875ZM106.999 305C106.9 309.199 106.828 313.398 106.779 317.598C106.759 319.026 106.732 320.454 106.697 321.881C106.649 323.937 106.626 325.991 106.609 328.047C106.588 329.283 106.567 330.519 106.545 331.792C106.748 335.059 106.748 335.059 108.772 337.403C111.146 339.105 112.15 339.496 115.019 339.504C115.786 339.52 116.553 339.537 117.344 339.553C118.566 339.558 118.566 339.558 119.812 339.563C139.133 340.163 155.165 344.742 168.999 359C169.622 359.614 170.244 360.227 170.886 360.86C177.937 368.276 182.515 377.894 186.999 387C187.329 387 187.659 387 187.999 387C187.999 368.52 187.999 350.04 187.999 331C173.325 330.79 173.325 330.79 158.65 330.612C156.812 330.58 154.974 330.547 153.136 330.512C151.701 330.503 151.701 330.503 150.238 330.493C149.325 330.473 148.412 330.453 147.471 330.433C146.678 330.421 145.885 330.41 145.068 330.399C142.491 329.902 141.594 329.049 139.999 327C139.567 324.916 139.567 324.916 139.487 322.551C139.452 321.703 139.417 320.856 139.38 319.983C139.346 318.661 139.346 318.661 139.312 317.313C139.278 316.42 139.243 315.527 139.208 314.608C139.126 312.405 139.057 310.203 138.999 308C138.279 307.98 137.558 307.961 136.815 307.94C133.522 307.844 130.229 307.735 126.937 307.625C125.803 307.594 124.669 307.563 123.501 307.531C122.396 307.493 121.29 307.454 120.152 307.414C118.635 307.367 118.635 307.367 117.089 307.319C113.511 306.95 110.429 306.073 106.999 305ZM155.999 308C155.999 309.98 155.999 311.96 155.999 314C221.999 314 287.999 314 355.999 314C355.999 312.02 355.999 310.04 355.999 308C289.999 308 223.999 308 155.999 308ZM401.315 305.974C398.032 306.99 395.365 307.308 391.944 307.414C390.836 307.453 389.727 307.492 388.585 307.531C387.443 307.562 386.301 307.593 385.124 307.625C383.376 307.683 383.376 307.683 381.593 307.742C378.728 307.836 375.864 307.922 372.999 308C372.985 308.56 372.97 309.12 372.955 309.697C372.88 312.236 372.784 314.774 372.687 317.313C372.664 318.194 372.642 319.075 372.618 319.983C372.583 320.83 372.547 321.678 372.511 322.551C372.485 323.331 372.459 324.112 372.432 324.916C371.884 327.554 371.092 328.332 368.999 330C366.93 330.399 366.93 330.399 364.528 330.433C363.614 330.453 362.701 330.472 361.76 330.493C360.804 330.499 359.848 330.506 358.862 330.512C357.981 330.529 357.099 330.545 356.191 330.562C352.898 330.62 349.605 330.652 346.312 330.688C338.949 330.791 331.585 330.894 323.999 331C323.999 349.48 323.999 367.96 323.999 387C326.529 383.627 328.295 380.604 330.187 376.875C333.521 370.619 337.299 365.292 341.999 360C342.614 359.291 343.229 358.582 343.862 357.852C354.217 346.661 369.127 340.598 384.269 339.895C385.071 339.872 385.873 339.848 386.698 339.824C387.923 339.789 387.923 339.789 389.173 339.752C390.86 339.709 392.548 339.678 394.236 339.658C395.048 339.631 395.861 339.603 396.698 339.574C397.429 339.56 398.159 339.545 398.912 339.53C401.982 338.751 403.136 337.546 404.999 335C405.55 331.714 405.55 331.714 405.39 328.047C405.381 327.057 405.381 327.057 405.373 326.046C405.35 323.947 405.3 321.849 405.249 319.75C405.229 318.323 405.211 316.896 405.194 315.469C405.15 311.979 405.082 308.49 404.999 305C403.68 304.943 403.68 304.943 401.315 305.974ZM204.999 331C204.999 382.81 204.999 434.62 204.999 488C238.659 488 272.319 488 306.999 488C306.999 436.19 306.999 384.38 306.999 331C273.339 331 239.679 331 204.999 331ZM101.999 407C101.999 433.73 101.999 460.46 101.999 488C103.649 488 105.299 488 106.999 488C106.999 461.27 106.999 434.54 106.999 407C105.349 407 103.699 407 101.999 407ZM404.999 407C404.999 433.73 404.999 460.46 404.999 488C406.649 488 408.299 488 409.999 488C409.999 461.27 409.999 434.54 409.999 407C408.349 407 406.699 407 404.999 407Z" fill="white"/>
<path d="M284.311 7.58023C285.536 7.57176 286.762 7.56329 288.024 7.55457C291.369 7.53523 294.714 7.52941 298.059 7.53131C300.86 7.53143 303.66 7.52285 306.461 7.51454C313.072 7.49533 319.683 7.49241 326.295 7.49918C333.097 7.50581 339.899 7.48296 346.702 7.44586C352.558 7.41509 358.415 7.40381 364.272 7.4077C367.762 7.40976 371.253 7.4044 374.743 7.37981C378.64 7.35326 382.536 7.36732 386.432 7.38492C388.148 7.36502 388.148 7.36502 389.899 7.34473C397.046 7.41953 402.27 8.57467 408.001 13.0002C415.587 20.7984 416.308 29.552 416.26 40.0587C416.265 41.5021 416.265 41.5021 416.27 42.9745C416.279 46.129 416.273 49.2832 416.267 52.4377C416.268 54.6453 416.27 56.8529 416.272 59.0605C416.275 63.6768 416.271 68.293 416.262 72.9093C416.25 78.8103 416.257 84.7111 416.269 90.6121C416.276 95.1676 416.274 99.723 416.269 104.279C416.267 106.454 416.269 108.629 416.274 110.804C416.279 113.85 416.271 116.896 416.26 119.942C416.264 120.83 416.268 121.719 416.272 122.634C416.207 132.322 414.788 139.822 408.001 147C401.728 152.298 394.952 153.052 387.001 153C387.027 153.762 387.053 154.523 387.08 155.308C387.184 158.767 387.249 162.227 387.313 165.688C387.376 167.485 387.376 167.485 387.44 169.319C387.579 179.238 387.579 179.238 384.665 182.297C381.357 184.412 379.86 184.709 376.001 184C371.81 181.951 369.207 179.223 366.126 175.75C365.365 174.924 364.604 174.098 363.82 173.247C361.74 170.942 359.976 168.541 358.213 165.987C353.639 159.922 349.007 154.977 341.419 153.127C331.921 151.963 322.392 152.232 312.846 152.555C308.162 152.696 303.476 152.727 298.791 152.772C295.147 152.809 291.507 152.862 287.865 152.969C278.366 153.199 270.712 153.203 263.001 147C256.957 140.928 254.786 136.148 254.719 127.55C254.721 126.561 254.724 125.572 254.726 124.554C254.721 123.503 254.716 122.452 254.711 121.369C254.697 117.896 254.698 114.423 254.7 110.949C254.696 108.532 254.692 106.114 254.687 103.697C254.68 98.6288 254.68 93.5607 254.685 88.4926C254.691 82.0062 254.674 75.52 254.651 69.0336C254.636 64.0399 254.635 59.0461 254.638 54.0523C254.638 51.6614 254.633 49.2704 254.623 46.8795C254.61 43.5311 254.617 40.1833 254.629 36.8349C254.617 35.361 254.617 35.361 254.605 33.8573C254.657 27.0883 255.537 21.4462 259.579 15.7931C260.131 15.2633 260.683 14.7335 261.251 14.1877C261.792 13.645 262.334 13.1023 262.892 12.5431C269.725 7.54478 276.098 7.55927 284.311 7.58023ZM274.001 26.0002C271.945 29.0846 271.75 29.7229 271.74 33.2063C271.73 34.4912 271.73 34.4912 271.719 35.802C271.721 36.7387 271.724 37.6754 271.726 38.6405C271.721 39.6294 271.716 40.6183 271.711 41.6371C271.697 44.9131 271.698 48.189 271.7 51.465C271.696 53.738 271.692 56.011 271.687 58.284C271.68 63.0513 271.68 67.8185 271.685 72.5858C271.691 78.7006 271.674 84.815 271.651 90.9296C271.636 95.6247 271.635 100.32 271.638 105.015C271.638 107.27 271.633 109.524 271.623 111.779C271.61 114.93 271.617 118.08 271.629 121.23C271.621 122.165 271.613 123.1 271.605 124.063C271.628 128.998 271.628 128.998 273.337 133.548C276.834 136.6 280.591 136.114 285.008 136.094C286.478 136.092 287.948 136.089 289.418 136.086C290.586 136.082 290.586 136.082 291.778 136.077C295.912 136.066 300.045 136.086 304.179 136.102C309.435 136.12 314.69 136.129 319.946 136.1C324.197 136.077 328.446 136.089 332.697 136.123C334.312 136.13 335.927 136.124 337.542 136.105C351.753 135.953 351.753 135.953 356.901 140.407C357.969 141.574 359.007 142.769 360.001 144C360.813 144.78 361.625 145.56 362.462 146.363C363.094 147.007 363.725 147.65 364.376 148.313C365.023 148.969 365.67 149.625 366.337 150.301C366.886 150.862 367.435 151.422 368.001 152C368.661 152.66 369.321 153.32 370.001 154C370.027 153.108 370.053 152.216 370.079 151.297C370.164 149.541 370.164 149.541 370.251 147.75C370.297 146.59 370.344 145.43 370.392 144.235C371.001 141 371.001 141 372.52 138.613C376.029 136.331 379.383 136.441 383.438 136.438C390.723 136.462 390.723 136.462 397.001 133C398.697 130.189 399.252 128.098 399.262 124.832C399.269 124.009 399.276 123.187 399.283 122.339C399.281 121.445 399.278 120.551 399.276 119.629C399.283 118.207 399.283 118.207 399.291 116.755C399.305 113.619 399.304 110.484 399.302 107.348C399.306 105.168 399.31 102.989 399.315 100.809C399.322 96.2405 399.322 91.6718 399.317 87.1029C399.311 81.2473 399.328 75.392 399.351 69.5364C399.366 65.0351 399.367 60.5339 399.363 56.0326C399.364 53.8737 399.369 51.7147 399.379 49.5557C399.392 46.5371 399.385 43.519 399.373 40.5004C399.381 39.6083 399.389 38.7162 399.396 37.797C399.356 33.082 399.189 29.7503 396.001 26.0002C393.004 24.1621 390.755 23.7494 387.264 23.7462C386.315 23.7405 385.366 23.7349 384.388 23.7291C383.353 23.7331 382.319 23.7372 381.253 23.7414C379.611 23.7361 379.611 23.7361 377.936 23.7307C374.313 23.7219 370.69 23.7278 367.067 23.7345C364.552 23.7332 362.036 23.7312 359.52 23.7287C354.245 23.7258 348.97 23.7299 343.695 23.7394C337.602 23.7503 331.51 23.7468 325.417 23.7358C319.55 23.7256 313.683 23.7267 307.816 23.7325C305.322 23.7339 302.828 23.7322 300.334 23.7276C296.849 23.7225 293.364 23.7302 289.878 23.7414C288.846 23.7373 287.813 23.7333 286.75 23.7291C285.798 23.7347 284.846 23.7404 283.865 23.7462C282.63 23.7473 282.63 23.7473 281.37 23.7485C278.579 24.045 276.505 24.7359 274.001 26.0002Z" fill="white"/>
<path d="M110.369 7.73245C111.433 7.72392 112.497 7.71539 113.593 7.7066C114.75 7.70751 115.907 7.70842 117.099 7.70935C118.326 7.70263 119.552 7.69592 120.816 7.689C124.174 7.67327 127.531 7.66664 130.889 7.66536C132.989 7.66394 135.09 7.65967 137.19 7.65437C144.526 7.63588 151.862 7.6277 159.198 7.62927C166.023 7.63047 172.848 7.60938 179.673 7.57779C185.543 7.55158 191.414 7.54091 197.284 7.54218C200.785 7.54269 204.286 7.53707 207.787 7.51583C211.696 7.49276 215.605 7.50199 219.513 7.51404C220.664 7.5028 221.815 7.49156 223.001 7.47998C230.668 7.53996 235.888 8.67967 241.989 13.6053C248.255 21.0917 249.451 28.8853 249.389 38.4257C249.396 39.9275 249.396 39.9275 249.404 41.4597C249.418 44.7441 249.409 48.028 249.399 51.3124C249.401 53.6097 249.404 55.9069 249.408 58.2042C249.412 63.0089 249.406 67.8134 249.391 72.618C249.374 78.7612 249.384 84.9041 249.402 91.0473C249.413 95.788 249.41 100.529 249.402 105.27C249.4 107.534 249.402 109.799 249.409 112.063C249.417 115.234 249.405 118.404 249.389 121.574C249.395 122.5 249.401 123.426 249.407 124.38C249.325 132.837 247.637 140.188 241.739 146.496C235.138 152.207 227.739 153.153 219.236 153.047C217.894 153.034 216.552 153.021 215.209 153.009C214.506 153.001 213.803 152.993 213.078 152.985C208.528 152.943 203.978 152.955 199.427 152.955C195.444 152.952 191.461 152.931 187.478 152.873C183.606 152.818 179.736 152.812 175.864 152.838C174.398 152.839 172.933 152.823 171.468 152.788C165.401 152.651 160.07 152.541 154.929 156.165C152.403 158.662 150.182 161.201 148 164C146.86 165.317 145.715 166.631 144.563 167.937C143.755 168.881 143.755 168.881 142.93 169.844C140.436 172.631 137.827 175.288 135.188 177.937C134.707 178.423 134.226 178.908 133.731 179.408C129.26 183.86 129.26 183.86 125.188 184.312C121.251 183.926 119.766 182.766 117 180C115.961 176.881 115.885 174.725 115.903 171.457C115.906 170.384 115.909 169.311 115.912 168.205C115.921 167.085 115.929 165.966 115.938 164.812C115.942 163.681 115.947 162.55 115.952 161.385C115.963 158.59 115.98 155.795 116 153C115.161 152.975 114.322 152.95 113.458 152.924C105.227 152.613 100.19 151.012 94.2504 145.324C88.1589 138.72 87.7018 132.218 87.7098 123.547C87.7031 122.508 87.6964 121.468 87.6895 120.397C87.6705 116.966 87.6666 113.536 87.6644 110.105C87.658 107.714 87.6513 105.323 87.6443 102.932C87.6323 97.9207 87.6286 92.9099 87.6298 87.899C87.63 81.49 87.6027 75.0815 87.5682 68.6725C87.5459 63.7336 87.5419 58.7948 87.543 53.8558C87.5406 51.4936 87.5318 49.1314 87.5163 46.7692C87.4966 43.4593 87.5025 40.1504 87.5145 36.8405C87.5033 35.8724 87.492 34.9043 87.4805 33.9068C87.5482 26.5411 89.1589 20.3836 93.9652 14.66C94.9417 13.8692 94.9417 13.8692 95.9379 13.0624C96.5863 12.5171 97.2347 11.9718 97.9027 11.41C101.954 8.68624 105.515 7.75011 110.369 7.73245ZM106 26.9999C104.859 29.2817 104.87 30.5504 104.86 33.0858C104.854 33.941 104.849 34.7962 104.843 35.6773C104.842 36.6176 104.84 37.5579 104.839 38.5267C104.834 39.5155 104.829 40.5042 104.824 41.5229C104.81 44.8043 104.803 48.0856 104.797 51.3671C104.791 53.6415 104.786 55.9159 104.78 58.1903C104.769 62.9636 104.764 67.7369 104.76 72.5101C104.755 78.6327 104.731 84.755 104.702 90.8775C104.684 95.5769 104.678 100.276 104.677 104.976C104.674 107.233 104.666 109.491 104.653 111.748C104.636 114.904 104.637 118.059 104.644 121.214C104.635 122.15 104.625 123.087 104.616 124.051C104.629 128.992 104.629 128.992 106.335 133.549C109.054 135.918 111.668 136.126 115.125 136.211C115.914 136.239 116.703 136.268 117.516 136.297C119.172 136.349 120.828 136.393 122.485 136.43C123.274 136.461 124.063 136.491 124.875 136.523C125.595 136.543 126.314 136.563 127.055 136.583C129.563 137.12 130.462 137.972 132 140C132.512 143.355 132.512 143.355 132.688 147.187C132.754 148.46 132.819 149.732 132.887 151.043C132.924 152.019 132.962 152.994 133 154C138.546 149.36 144.136 144.603 148.651 138.923C151.912 136.254 154.078 136.507 158.26 136.517C158.984 136.514 159.708 136.51 160.454 136.506C162.023 136.5 163.591 136.503 165.16 136.514C167.645 136.531 170.128 136.524 172.613 136.51C178.783 136.48 184.953 136.493 191.123 136.505C196.338 136.513 201.553 136.505 206.768 136.476C209.213 136.469 211.657 136.485 214.102 136.503C215.605 136.497 217.108 136.49 218.611 136.482C220.575 136.487 220.575 136.487 222.579 136.492C226.553 135.92 228.186 134.806 231 132C232.13 129.74 232.133 128.505 232.148 125.997C232.155 125.16 232.162 124.323 232.169 123.46C232.172 122.54 232.175 121.62 232.177 120.672C232.184 119.705 232.191 118.737 232.197 117.74C232.217 114.529 232.229 111.317 232.239 108.105C232.243 107.01 232.247 105.915 232.251 104.787C232.272 98.9908 232.286 93.1949 232.296 87.399C232.307 81.4065 232.341 75.4144 232.381 69.4221C232.407 64.8196 232.415 60.2171 232.419 55.6146C232.424 53.4054 232.435 51.1961 232.454 48.987C232.478 45.8962 232.477 42.8063 232.47 39.7155C232.483 38.8015 232.496 37.8875 232.509 36.9459C232.475 32.8052 232.343 30.5661 230.158 26.9552C227.013 24.105 224.472 23.8742 220.39 23.8594C219.444 23.8537 218.498 23.848 217.523 23.8421C215.968 23.8405 215.968 23.8405 214.382 23.8387C213.289 23.8338 212.196 23.8288 211.07 23.8237C207.447 23.8091 203.823 23.8023 200.2 23.7968C197.685 23.791 195.17 23.7852 192.655 23.7795C188.053 23.7703 183.451 23.764 178.849 23.761C172.082 23.7565 165.315 23.739 158.548 23.71C152.682 23.6857 146.816 23.678 140.949 23.6763C138.456 23.6733 135.963 23.6652 133.47 23.6521C129.982 23.6351 126.495 23.6369 123.007 23.6434C121.977 23.6342 120.946 23.625 119.885 23.6155C114.524 23.6468 110.596 23.8982 106 26.9999Z" fill="white"/>
<path d="M350.824 31.6759C358.762 36.5068 363.85 42.6765 367.313 51.2501C369.386 62.5611 367.88 72.5049 361.5 82.1876C358 86.5807 353.375 89.2718 348.609 92.1407C345.953 94.0334 345 94.9538 344 98.0001C343.624 100.222 343.624 100.222 343.5 102.5C343.273 105.81 342.777 108.166 341 111C337.25 113.5 335.441 113.536 331 113C328.063 111.313 328.063 111.313 326 108C324.741 99.8737 325.694 92.0636 330 85.0001C334.061 79.8973 338.712 76.3539 344.305 73.0861C347.604 70.9729 348.79 68.6298 350 65.0001C350.397 59.7348 349.796 56.4933 347 52.0001C344.146 48.7006 342.161 47.227 337.731 46.7618C331.95 46.5931 328.481 46.9559 324 51.0001C320.769 54.9486 320.005 59.5915 318.941 64.4767C317.821 67.4805 316.756 68.4259 314 70.0001C310.295 70.5519 308.502 70.268 305.188 68.5001C302.246 65.1382 301.768 62.3243 302 58.0001C303.302 48.929 307.169 41.0585 314.246 35.1134C324.742 27.8034 339.057 26.0395 350.824 31.6759Z" fill="white"/>
<path d="M136.529 101.71C137.676 101.7 137.676 101.7 138.846 101.689C141.375 101.67 143.904 101.667 146.433 101.664C148.191 101.658 149.948 101.651 151.705 101.644C155.39 101.632 159.074 101.629 162.759 101.63C167.481 101.63 172.203 101.603 176.926 101.568C180.556 101.546 184.185 101.542 187.815 101.543C189.556 101.541 191.297 101.532 193.038 101.516C195.473 101.497 197.907 101.502 200.341 101.515C201.061 101.503 201.781 101.492 202.522 101.48C205.953 101.524 207.703 101.769 210.445 103.906C212.595 106.802 212.568 108.602 212.398 112.098C211.791 114.998 210.335 116.283 208 118C205.016 119.493 202.297 119.144 198.967 119.161C197.882 119.169 197.882 119.169 196.774 119.177C194.374 119.191 191.974 119.198 189.574 119.203C187.907 119.209 186.241 119.215 184.574 119.221C181.076 119.231 177.578 119.237 174.08 119.241C169.601 119.246 165.122 119.27 160.643 119.299C157.199 119.317 153.755 119.322 150.31 119.324C148.659 119.327 147.008 119.335 145.357 119.348C143.045 119.365 140.733 119.363 138.421 119.357C137.105 119.36 135.79 119.364 134.435 119.368C130.755 118.974 128.882 118.289 126 116C124.437 112.33 123.733 110.093 124.687 106.188C127.597 101.339 131.466 101.703 136.529 101.71Z" fill="white"/>
<path d="M138.265 40.612C138.978 40.6067 139.691 40.6015 140.426 40.596C142.772 40.5829 145.118 40.5916 147.465 40.6017C149.102 40.5997 150.74 40.5968 152.378 40.593C155.806 40.5886 159.235 40.595 162.664 40.609C167.05 40.6261 171.435 40.6163 175.821 40.5983C179.202 40.5875 182.583 40.5909 185.964 40.5987C187.581 40.6007 189.197 40.5983 190.814 40.5913C193.078 40.5836 195.341 40.5953 197.605 40.612C199.535 40.6155 199.535 40.6155 201.503 40.6192C205.314 41.0343 207.749 41.9989 211 44.0001C212.565 47.1296 212.697 50.611 212 54.0001C210.451 56.0972 210.451 56.0972 208 58.0002C205.315 58.395 203.04 58.548 200.357 58.5177C199.593 58.5247 198.828 58.5317 198.04 58.539C195.516 58.5566 192.993 58.5449 190.469 58.5314C188.713 58.5341 186.957 58.538 185.201 58.543C181.522 58.5489 177.844 58.5403 174.166 58.5216C169.451 58.4988 164.737 58.512 160.022 58.5359C156.397 58.5504 152.772 58.5458 149.146 58.5354C147.408 58.5327 145.669 58.536 143.931 58.5453C141.501 58.5555 139.073 58.54 136.643 58.5177C135.925 58.5258 135.206 58.5339 134.467 58.5423C131.068 58.4846 129.297 58.2309 126.577 56.1201C124.715 53.6171 124.152 52.1148 124 49.0001C124.768 45.7726 125.482 44.3949 128.132 42.376C131.709 40.6603 134.302 40.6193 138.265 40.612Z" fill="white"/>
<path d="M136.416 71.823C137.18 71.8164 137.944 71.8099 138.732 71.8031C141.267 71.7833 143.801 71.7717 146.336 71.7617C147.633 71.7556 147.633 71.7556 148.956 71.7494C153.532 71.7285 158.108 71.7142 162.684 71.7048C167.414 71.6938 172.144 71.6594 176.874 71.6197C180.508 71.5935 184.142 71.5851 187.776 71.5816C189.52 71.5767 191.264 71.565 193.008 71.5465C195.447 71.5222 197.886 71.5231 200.326 71.53C201.407 71.5108 201.407 71.5108 202.511 71.4912C205.947 71.527 207.699 71.7657 210.446 73.9044C212.594 76.8013 212.573 78.6014 212.391 82.0977C211.781 85.0676 210.444 86.3025 208 88C204.385 89.2456 200.828 89.1404 197.032 89.1611C196.339 89.1661 195.645 89.1711 194.931 89.1762C192.644 89.1908 190.357 89.1976 188.07 89.2031C186.476 89.2089 184.882 89.2146 183.288 89.2204C179.947 89.2309 176.607 89.2367 173.266 89.2402C168.993 89.2457 164.721 89.2698 160.448 89.2982C157.156 89.3169 153.863 89.322 150.571 89.3236C148.996 89.3266 147.421 89.3346 145.846 89.3478C143.64 89.3649 141.434 89.3629 139.227 89.3564C137.973 89.3601 136.72 89.3637 135.428 89.3675C131.618 88.959 129.224 88.0527 126 86C124.438 82.6875 124.438 82.6875 124 79C126.649 71.8487 129.403 71.849 136.416 71.823Z" fill="white"/>
<path d="M337 115C339.554 115.851 340.664 116.568 342.312 118.687C343.319 122.071 342.804 124.596 342 128C339.764 130.916 337.84 131.888 334.188 132.375C331 132 331 132 328.125 129.937C326 127 326 127 325.375 123.5C326.562 116.851 330.352 114.009 337 115Z" fill="white"/>
</svg>
