<svg width="54" height="54" viewBox="0 0 54 54" fill="none" xmlns="http://www.w3.org/2000/svg">
<g clip-path="url(#clip0_544_721)">
<path d="M44.0435 12.5791C44.241 12.7823 44.3013 12.9209 44.3328 13.2012C44.3452 13.3089 44.3452 13.3089 44.3578 13.4188C44.3655 13.4971 44.3732 13.5753 44.3812 13.656C44.3939 13.7796 44.3939 13.7796 44.407 13.9058C44.7591 17.542 44.4886 21.2392 43.4615 24.7539C43.444 24.8146 43.4266 24.8752 43.4086 24.9376C42.5113 27.9916 41.0449 30.972 38.9002 33.3361C38.8335 33.4105 38.7668 33.4849 38.698 33.5615C37.2725 35.0968 35.5965 36.434 33.7377 37.4027C33.604 37.4777 33.4704 37.5529 33.3369 37.6284C32.1085 38.297 30.7537 38.8568 29.3928 39.1842C29.3372 39.1979 29.2816 39.2117 29.2243 39.2258C24.0966 40.4712 19.259 39.0873 14.7313 36.676C13.1989 37.6356 11.9499 39.0059 10.9918 40.5356C10.8429 40.7298 10.7855 40.7638 10.5533 40.8278C10.309 40.8293 10.309 40.8293 10.0237 40.81C9.92111 40.8032 9.8185 40.7964 9.71277 40.7894C9.63297 40.7836 9.63297 40.7836 9.55155 40.7776C9.38881 40.7658 9.22602 40.7551 9.06319 40.7446C8.26499 40.6897 8.26499 40.6897 8.02025 40.5839C9.80024 37.3185 12.8716 34.0651 16.4608 32.8699C16.8265 32.7631 17.1943 32.685 17.5674 32.6094C18.0552 32.5089 18.5266 32.3729 19.001 32.2222C19.218 32.1536 19.4353 32.0869 19.6535 32.0222C20.45 31.7843 21.2241 31.5066 21.9957 31.1976C22.1806 31.1237 22.366 31.0508 22.5515 30.9781C23.2511 30.7012 23.9164 30.3956 24.5797 30.0391C24.6797 29.9895 24.7799 29.9406 24.8807 29.8926C27.1994 28.783 29.3409 27.3045 31.374 25.7417C31.4251 25.703 31.4762 25.6642 31.5288 25.6243C32.8694 24.6079 34.0978 23.4365 35.2729 22.2354C35.172 22.3156 35.0711 22.3958 34.9703 22.476C34.878 22.5494 34.7857 22.6227 34.6933 22.696C34.4412 22.8964 34.1907 23.0983 33.9431 23.3042C33.2917 23.8432 32.6188 24.3461 31.927 24.8318C31.8466 24.8884 31.7662 24.945 31.6834 25.0033C31.1561 25.3701 30.6157 25.7032 30.06 26.0248C29.9592 26.0854 29.8586 26.1462 29.7583 26.2076C28.3223 27.0832 26.8399 27.8808 25.3024 28.5642C25.2132 28.6044 25.1239 28.6447 25.032 28.6861C24.2862 29.0214 23.5336 29.3358 22.7735 29.637C22.5879 29.7107 22.4026 29.7852 22.2174 29.8597C21.5908 30.1097 20.971 30.332 20.3191 30.5076C20.0435 30.5828 19.7798 30.6755 19.5117 30.7739C18.7378 31.0498 17.9447 31.2432 17.1476 31.4389C14.9548 31.9778 13.1777 32.7457 11.2929 33.998C10.8493 33.5539 10.9323 32.7465 10.9254 32.1552C10.9269 30.3856 11.1129 28.672 11.5305 26.9513C11.5442 26.8937 11.5579 26.8361 11.5721 26.7768C12.5389 22.8658 15.1783 19.3292 18.5994 17.2261C19.4569 16.716 20.3514 16.2361 21.2889 15.8912C21.4595 15.8298 21.4595 15.8298 21.6672 15.7099C21.9234 15.578 22.1801 15.4969 22.455 15.4125C22.6876 15.3398 22.9168 15.2597 23.1467 15.1792C23.7285 14.9838 24.3176 14.8311 24.9152 14.6936C24.9808 14.6784 25.0463 14.6632 25.1139 14.6476C28.4699 13.8815 31.8966 13.7421 35.324 13.8958C37.9414 14.0123 40.3615 13.6635 42.8729 12.9242C42.982 12.8922 43.091 12.8602 43.2 12.8282C43.4813 12.7455 43.7624 12.6624 44.0435 12.5791ZM35.7981 21.6113C35.8078 21.7857 35.8078 21.7857 35.8078 21.7857L35.7981 21.6113ZM35.6644 21.7237C35.5896 21.8318 35.5147 21.9399 35.4377 22.0513C35.5055 22.0244 35.5732 21.9975 35.6431 21.9698C35.6501 21.8886 35.6571 21.8074 35.6644 21.7237Z" fill="#059669"/>
</g>
<defs>
<clipPath id="clip0_544_721">
<rect width="40" height="40" fill="white" transform="translate(16.5781 0.705811) rotate(23.379)"/>
</clipPath>
</defs>
</svg>
