<svg width="512" height="512" viewBox="0 0 512 512" fill="none" xmlns="http://www.w3.org/2000/svg">
<path d="M26.1561 7.49646C26.9649 7.49064 27.7736 7.48483 28.6069 7.47884C31.3225 7.46422 34.0371 7.47813 36.7526 7.49189C38.7169 7.48728 40.6812 7.48093 42.6455 7.47298C48.0476 7.45625 53.4495 7.46455 58.8516 7.47692C64.6758 7.48596 70.5 7.47201 76.3242 7.461C87.7355 7.44319 99.1467 7.44707 110.558 7.45865C119.83 7.46768 129.103 7.46892 138.375 7.46456C139.693 7.46394 141.012 7.46333 142.37 7.4627C144.377 7.46175 146.384 7.46078 148.391 7.45979C173.475 7.44755 198.558 7.45865 223.642 7.48018C245.931 7.49916 268.219 7.49746 290.508 7.47834C315.546 7.45692 340.583 7.44842 365.62 7.46079C368.289 7.46207 370.958 7.46332 373.626 7.46456C375.596 7.46548 375.596 7.46548 377.605 7.46643C386.869 7.46988 396.133 7.46404 405.396 7.45464C416.682 7.44343 427.968 7.44643 439.254 7.46776C445.014 7.47829 450.775 7.48236 456.535 7.46917C461.806 7.45727 467.076 7.46375 472.346 7.48508C474.255 7.48956 476.165 7.48724 478.075 7.47757C480.665 7.46546 483.255 7.47784 485.845 7.49646C486.591 7.48709 487.338 7.47773 488.106 7.46808C494.463 7.55977 497.985 9.9573 502.344 14.3748C504.967 20.1152 504.577 25.7686 504.501 31.9998C504.516 33.2579 504.532 34.5161 504.548 35.8123C504.499 47.2396 504.499 47.2396 500.001 51.9998C495.429 55.7768 494.247 55.9998 488.001 55.9998C488.001 156.32 488.001 256.64 488.001 360C489.981 360 491.961 360 494.001 360C498.537 362.359 502.127 365.167 504.001 370C504.595 374.674 504.559 379.294 504.501 384C504.516 385.258 504.532 386.516 504.548 387.812C504.498 399.442 504.498 399.442 500.001 404C495.664 407.358 492.908 408.499 487.433 408.481C486.129 408.486 484.825 408.492 483.481 408.497C482.048 408.483 480.616 408.469 479.183 408.454C477.665 408.453 476.147 408.453 474.628 408.456C470.517 408.457 466.406 408.433 462.295 408.405C457.995 408.38 453.695 408.378 449.395 408.373C441.256 408.361 433.118 408.328 424.98 408.288C415.712 408.243 406.445 408.221 397.178 408.201C378.119 408.159 359.06 408.089 340.001 408C340.373 409.087 340.745 410.175 341.129 411.295C348.403 432.544 355.657 453.798 362.747 475.109C363.924 478.646 365.105 482.183 366.286 485.719C367.043 487.989 367.799 490.26 368.555 492.531C368.905 493.578 369.255 494.626 369.615 495.705C370.088 497.128 370.088 497.128 370.57 498.58C370.848 499.413 371.126 500.247 371.412 501.105C372.001 503 372.001 503 372.001 504C349.891 504 327.781 504 305.001 504C297.264 480.911 297.264 480.911 293.981 471.088C291.738 464.378 289.495 457.668 287.245 450.96C285.432 445.554 283.624 440.146 281.818 434.737C281.128 432.671 280.436 430.605 279.742 428.54C278.772 425.654 277.809 422.766 276.846 419.878C276.412 418.589 276.412 418.589 275.968 417.275C275.707 416.488 275.446 415.702 275.178 414.891C274.949 414.208 274.72 413.525 274.485 412.821C274.001 411 274.001 411 274.001 408C262.121 408 250.241 408 238.001 408C237.341 410.97 236.681 413.94 236.001 417C235.076 420.023 234.123 423.015 233.112 426.008C232.828 426.858 232.545 427.708 232.253 428.583C231.327 431.36 230.394 434.135 229.462 436.91C228.814 438.848 228.167 440.785 227.52 442.723C225.824 447.799 224.122 452.874 222.42 457.948C220.374 464.049 218.335 470.152 216.295 476.255C213.202 485.505 210.101 494.752 207.001 504C184.891 504 162.781 504 140.001 504C147.072 482.05 154.251 460.138 161.54 438.259C162.19 436.308 162.839 434.357 163.488 432.406C164.713 428.724 165.94 425.044 167.169 421.363C167.541 420.244 167.913 419.125 168.297 417.972C168.639 416.949 168.981 415.926 169.333 414.872C169.633 413.976 169.932 413.079 170.24 412.155C171.001 410 171.001 410 172.001 408C171.213 408.004 170.424 408.007 169.612 408.011C150.433 408.099 131.254 408.166 112.074 408.207C102.799 408.228 93.5242 408.256 84.2492 408.302C76.1649 408.341 68.0807 408.367 59.9963 408.376C55.7158 408.381 51.4356 408.394 47.1552 408.423C43.1251 408.45 39.0954 408.458 35.0651 408.452C33.5873 408.453 32.1095 408.461 30.6317 408.477C28.6108 408.497 26.5896 408.489 24.5686 408.481C23.4385 408.485 22.3084 408.488 21.144 408.492C16.1956 407.717 13.1094 405.123 9.65692 401.625C7.03416 395.884 7.42405 390.231 7.50067 384C7.4852 382.742 7.46973 381.484 7.45379 380.187C7.50221 368.76 7.50221 368.76 12.0007 364C16.5728 360.223 17.7547 360 24.0007 360C24.0007 259.68 24.0007 159.36 24.0007 55.9998C22.0207 55.9998 20.0407 55.9998 18.0007 55.9998C13.4641 53.6408 9.87426 50.833 8.00067 45.9998C7.40632 41.326 7.44281 36.7053 7.50067 31.9998C7.4852 30.7417 7.46973 29.4836 7.45379 28.1873C7.50307 16.5574 7.50307 16.5574 12.0007 11.9998C16.6805 8.24256 20.3043 7.42302 26.1561 7.49646ZM24.0007 23.9998C24.0007 29.2798 24.0007 34.5598 24.0007 39.9998C177.121 39.9998 330.241 39.9998 488.001 39.9998C488.001 34.7198 488.001 29.4398 488.001 23.9998C334.881 23.9998 181.761 23.9998 24.0007 23.9998ZM40.0007 55.9998C40.0007 103.52 40.0007 151.04 40.0007 200C55.8407 200 71.6807 200 88.0007 200C88.0007 204.95 88.0007 209.9 88.0007 215C103.328 214.314 117.648 207.415 128.161 196.215C145.241 175.654 144.338 151.806 144.382 126.564C144.391 123.301 144.425 120.039 144.462 116.777C144.457 115.783 144.452 114.79 144.446 113.766C144.53 107.862 145.098 104.512 149.001 99.9998C154.639 95.5325 161.156 96.328 168.001 96.9998C177.118 99.2639 183.031 103.899 187.923 111.84C191.349 118.705 191.34 125.078 191.415 132.617C191.434 133.829 191.453 135.042 191.473 136.291C191.533 140.152 191.58 144.013 191.626 147.875C191.664 150.497 191.703 153.12 191.743 155.742C191.839 162.161 191.924 168.58 192.001 175C193.442 174.694 194.882 174.384 196.322 174.073C197.125 173.901 197.927 173.729 198.753 173.551C201.728 172.821 203.658 171.998 206.001 170C207.357 167.515 208.393 165.306 209.376 162.687C209.648 162.036 209.92 161.384 210.2 160.713C211.895 156.369 212.377 153.455 211.001 149C209.396 145.687 207.516 142.543 205.62 139.39C204.52 137.461 204.52 137.461 203.001 134C204.153 130.608 206.299 128.459 208.808 125.966C209.588 125.185 210.369 124.405 211.173 123.6C212.016 122.768 212.859 121.936 213.727 121.078C214.59 120.218 215.453 119.358 216.342 118.472C219.098 115.726 221.862 112.988 224.626 110.25C226.496 108.39 228.366 106.529 230.235 104.668C234.818 100.107 239.407 95.551 244.001 90.9998C249.764 92.8308 254.511 95.5299 259.684 98.6365C265.439 101.002 270.556 99.0982 276.188 96.9998C280.307 95.2074 282.673 93.9509 284.563 89.8123C285.088 88.2224 285.565 86.6164 286.001 84.9998C286.293 84.1091 286.586 83.2183 286.887 82.3006C288.033 78.7495 289.001 75.7483 289.001 71.9998C309.461 71.9998 329.921 71.9998 351.001 71.9998C353.001 80.9998 353.001 80.9998 353.614 84.2928C354.785 89.1421 355.743 92.1072 359.907 95.0623C365.42 97.6925 370.843 99.8804 377.001 99.9998C380.097 98.8058 382.859 97.1589 385.688 95.4373C387.163 94.5465 388.645 93.6695 390.137 92.8084C390.784 92.4145 391.431 92.0206 392.097 91.6148C394.001 90.9998 394.001 90.9998 395.867 91.7234C398.292 93.1744 400.043 94.8019 402.035 96.8069C403.206 97.9779 403.206 97.9779 404.4 99.1726C405.232 100.015 406.065 100.858 406.923 101.726C408.213 103.021 408.213 103.021 409.529 104.341C412.274 107.098 415.012 109.861 417.751 112.625C419.611 114.495 421.472 116.365 423.333 118.234C427.894 122.818 432.449 127.406 437.001 132C435.17 137.763 432.471 142.51 429.364 147.683C427.701 151.73 428.002 153.78 429.001 158C429.385 159.641 429.385 159.641 429.778 161.316C432.058 167.721 432.058 167.721 436.999 172.174C442.923 174.746 449.499 177 456.001 177C456.001 197.46 456.001 217.92 456.001 239C451.051 239.99 451.051 239.99 446.001 241C438.897 242.522 438.897 242.522 433.524 247.015C432.5 249.314 431.738 251.596 431.001 254C430.408 255.235 429.805 256.464 429.188 257.687C427.797 261.569 427.988 263.037 429.001 267C430.584 270.321 432.487 273.459 434.382 276.609C435.481 278.539 435.481 278.539 437.001 282C435.849 285.392 433.703 287.541 431.194 290.034C430.413 290.815 429.632 291.595 428.828 292.399C427.985 293.232 427.142 294.064 426.274 294.922C425.411 295.782 424.548 296.642 423.66 297.528C420.903 300.273 418.139 303.012 415.376 305.75C413.505 307.61 411.636 309.471 409.766 311.332C405.183 315.893 400.594 320.449 396.001 325C390.237 323.169 385.491 320.47 380.317 317.363C374.562 314.997 369.445 316.901 363.813 319C359.694 320.792 357.328 322.049 355.438 326.187C354.914 327.777 354.436 329.383 354.001 331C353.562 332.336 353.562 332.336 353.114 333.699C351.968 337.25 351.001 340.251 351.001 344C330.541 344 310.081 344 289.001 344C288.341 341.03 287.681 338.06 287.001 335C285.538 327.367 285.538 327.367 280.985 321.453C278.683 320.435 276.417 319.697 274.001 319C272.701 318.434 271.409 317.852 270.126 317.25C267.097 315.814 267.097 315.814 264.001 316C263.805 316.64 263.609 317.281 263.407 317.941C261.058 324.735 258.052 329.033 252.001 333C248.399 334.678 245.561 335.255 241.599 335.281C240.527 335.292 239.455 335.304 238.351 335.315C237.185 335.318 236.018 335.32 234.817 335.322C233.58 335.332 232.344 335.342 231.07 335.352C227.68 335.376 224.291 335.391 220.902 335.4C218.775 335.406 216.648 335.414 214.521 335.423C207.842 335.451 201.162 335.47 194.483 335.478C186.822 335.487 179.162 335.521 171.502 335.58C165.552 335.623 159.603 335.643 153.653 335.646C150.115 335.648 146.577 335.659 143.038 335.695C128.334 335.838 115.091 335.521 101.192 330.387C96.8184 328.79 92.6328 328.364 88.0007 328C88.0007 333.28 88.0007 338.56 88.0007 344C72.1607 344 56.3207 344 40.0007 344C40.0007 349.28 40.0007 354.56 40.0007 360C182.561 360 325.121 360 472.001 360C472.001 259.68 472.001 159.36 472.001 55.9998C329.441 55.9998 186.881 55.9998 40.0007 55.9998ZM302.001 87.9998C301.382 91.0111 300.763 94.0223 300.126 97.1248C298.966 101.462 297.851 105.625 294.127 108.392C289.675 110.455 284.952 111.409 280.174 112.429C276.091 113.502 272.698 115.758 269.165 117.996C267.001 119 267.001 119 263.001 118C258.051 115.69 253.101 113.38 248.001 111C239.751 119.25 231.501 127.5 223.001 136C225.665 141.092 225.665 141.092 228.356 146.171C228.684 146.81 229.011 147.45 229.348 148.109C229.689 148.759 230.029 149.408 230.38 150.077C231.862 154.666 228.599 159.117 226.626 163.187C221.719 173.164 221.719 173.164 220.001 184C219.395 184.17 218.789 184.34 218.165 184.515C211.941 186.315 205.974 188.496 200.001 191C200.001 191.33 200.001 191.66 200.001 192C210.891 192 221.781 192 233.001 192C233.661 189.69 234.321 187.38 235.001 185C242.242 161.181 256.449 141.871 278.61 130.015C299.093 119.608 324.232 116.902 346.395 123.601C371.594 133.375 389.919 149.188 401.159 174.013C409.317 193.279 410.606 218.358 403.001 238C399.078 247.302 394.297 256.082 388.001 264C387.359 264.817 386.717 265.634 386.055 266.476C373 282.037 353.198 292.679 333.001 295C318.592 296.06 304.713 295.802 291.001 291C289.964 290.649 288.928 290.299 287.86 289.937C280.53 287.174 274.205 283.139 267.739 278.793C265.407 276.909 265.407 276.909 264.001 277C263.891 277.88 263.782 278.761 263.669 279.668C263.51 280.829 263.352 281.991 263.188 283.187C263.037 284.336 262.887 285.484 262.731 286.668C261.994 290.032 260.756 292.088 259.001 295C259.331 295.99 259.661 296.98 260.001 298C261.497 297.638 261.497 297.638 263.024 297.269C268.016 296.931 270.403 298.262 274.626 300.687C279.866 303.598 284.139 305.337 290.126 306.312C293.27 307.129 293.27 307.129 296.001 309C299.318 314.905 300.451 321.448 302.001 328C313.881 328 325.761 328 338.001 328C338.619 324.989 339.238 321.977 339.876 318.875C341.035 314.538 342.15 310.375 345.874 307.608C350.326 305.544 355.049 304.591 359.827 303.571C363.91 302.498 367.303 300.241 370.837 298.004C373.001 297 373.001 297 377.001 298C381.951 300.31 386.901 302.62 392.001 305C400.251 296.75 408.501 288.5 417.001 280C414.336 274.907 414.336 274.907 411.645 269.829C411.318 269.189 410.99 268.55 410.653 267.89C410.313 267.241 409.972 266.592 409.622 265.923C407.998 260.893 412.098 255.499 414.306 251.07C416.425 246.676 417.443 242.781 418.251 237.937C419.094 234.765 419.094 234.765 421.001 232C426.902 228.679 433.451 227.549 440.001 226C440.001 214.12 440.001 202.24 440.001 190C436.989 189.381 433.978 188.762 430.876 188.125C426.539 186.965 422.375 185.85 419.609 182.126C417.545 177.674 416.592 172.951 415.572 168.173C414.499 164.09 412.242 160.697 410.005 157.164C409.001 155 409.001 155 410.001 151C413.466 143.575 413.466 143.575 417.001 136C408.751 127.75 400.501 119.5 392.001 111C386.908 113.664 386.908 113.664 381.83 116.356C381.19 116.683 380.55 117.01 379.891 117.347C379.242 117.688 378.593 118.028 377.924 118.379C372.894 120.003 367.5 115.902 363.071 113.694C358.677 111.576 354.781 110.557 349.938 109.75C346.766 108.906 346.766 108.906 344.001 107C340.68 101.098 339.55 94.55 338.001 87.9998C326.121 87.9998 314.241 87.9998 302.001 87.9998ZM160.001 113C159.997 113.656 159.993 114.311 159.99 114.987C159.947 121.883 159.878 128.779 159.793 135.674C159.765 138.239 159.744 140.805 159.73 143.37C159.568 170.998 159.568 170.998 155.001 183C154.719 183.752 154.437 184.503 154.146 185.278C150.765 193.441 145.898 200.483 140.001 207C139.324 207.769 138.647 208.539 137.95 209.332C124.22 224.066 107.391 228.364 88.0007 232C88.0007 258.4 88.0007 284.8 88.0007 312C92.2907 312.33 96.5807 312.66 101.001 313C104.235 313.903 107.206 314.81 110.313 316C111.786 316.549 113.261 317.091 114.739 317.625C115.368 317.865 115.998 318.104 116.646 318.351C123.679 320.288 130.952 320.153 138.187 320.161C139.28 320.166 140.374 320.171 141.501 320.176C145.097 320.191 148.693 320.197 152.29 320.203C154.797 320.209 157.305 320.214 159.813 320.22C164.391 320.229 168.968 320.236 173.546 320.239C180.271 320.243 186.995 320.261 193.719 320.29C199.562 320.314 205.404 320.322 211.246 320.323C213.725 320.326 216.205 320.334 218.684 320.348C222.147 320.365 225.61 320.363 229.073 320.356C230.607 320.37 230.607 320.37 232.172 320.384C237.515 320.353 241.418 320.087 246.001 317C247.421 314.159 247.315 312.145 247.001 309C244.769 306.152 243.451 305.15 240.001 304C238.155 303.917 236.306 303.892 234.458 303.902C232.848 303.907 232.848 303.907 231.206 303.912C229.526 303.924 229.526 303.924 227.813 303.937C226.116 303.944 226.116 303.944 224.385 303.951C221.59 303.963 218.796 303.981 216.001 304C216.001 298.72 216.001 293.44 216.001 288C217.664 288.035 219.326 288.069 221.04 288.105C223.235 288.133 225.43 288.161 227.626 288.187C228.72 288.212 229.814 288.238 230.942 288.263C238.901 288.369 238.901 288.369 246.001 285C247.421 282.159 247.315 280.145 247.001 277C244.769 274.152 243.451 273.15 240.001 272C238.155 271.917 236.306 271.892 234.458 271.902C232.848 271.907 232.848 271.907 231.206 271.912C229.526 271.924 229.526 271.924 227.813 271.937C226.116 271.944 226.116 271.944 224.385 271.951C221.59 271.963 218.796 271.981 216.001 272C216.001 266.72 216.001 261.44 216.001 256C217.664 256.035 219.326 256.069 221.04 256.105C223.235 256.133 225.43 256.161 227.626 256.187C228.72 256.212 229.814 256.238 230.942 256.264C238.901 256.369 238.901 256.369 246.001 253C247.421 250.159 247.315 248.145 247.001 245C244.769 242.152 243.451 241.15 240.001 240C238.155 239.917 236.306 239.892 234.458 239.902C232.848 239.907 232.848 239.907 231.206 239.912C230.086 239.92 228.967 239.929 227.813 239.937C226.116 239.944 226.116 239.944 224.385 239.951C221.59 239.963 218.796 239.981 216.001 240C216.001 234.72 216.001 229.44 216.001 224C218.495 224.052 218.495 224.052 221.04 224.105C223.235 224.133 225.43 224.161 227.626 224.187C229.267 224.225 229.267 224.225 230.942 224.264C238.901 224.369 238.901 224.369 246.001 221C247.421 218.159 247.315 216.145 247.001 213C244.769 210.152 243.451 209.15 240.001 208C238.494 207.905 236.983 207.865 235.473 207.858C234.1 207.847 234.1 207.847 232.7 207.837C231.713 207.832 230.725 207.828 229.708 207.824C227.612 207.801 225.516 207.777 223.421 207.752C220.12 207.717 216.82 207.687 213.52 207.674C210.332 207.658 207.145 207.618 203.958 207.574C202.492 207.577 202.492 207.577 200.996 207.58C193.858 207.453 188.447 205.974 182.977 201.254C182.531 200.696 182.085 200.137 181.626 199.562C180.933 198.729 180.933 198.729 180.227 197.879C177.43 193.594 176.749 189.866 176.729 184.792C176.714 182.944 176.714 182.944 176.699 181.059C176.698 180.405 176.697 179.752 176.696 179.079C176.692 177.018 176.675 174.957 176.655 172.895C176.6 167.037 176.569 161.179 176.544 155.321C176.528 151.729 176.498 148.138 176.46 144.546C176.442 142.53 176.442 140.513 176.442 138.497C176.414 127.296 176.414 127.296 171.726 117.388C168.097 113.973 164.787 113.544 160.001 113ZM269.001 157C260.481 166.318 250.001 180.616 250.001 194C251.443 194.939 252.888 195.877 254.341 196.801C258.606 199.882 261.383 203.999 263.001 209C263.331 209 263.661 209 264.001 209C264.087 207.984 264.173 206.968 264.262 205.922C265.725 190.853 270.47 177.405 282.001 167C282.466 166.531 282.931 166.061 283.411 165.578C294.989 154.54 310.125 152.32 325.391 152.625C338.543 153.246 349.074 158.703 358.751 167.5C359.493 168.325 360.236 169.15 361.001 170C361.469 170.464 361.937 170.928 362.419 171.406C373.569 183.101 375.592 198.213 375.313 213.594C375.051 219.943 373.789 225.278 371.001 231C370.53 231.973 370.06 232.946 369.575 233.949C361.974 248.659 350.246 256.701 334.841 262.109C322.762 264.911 308.197 264.455 297.001 259C295.541 258.294 295.541 258.294 294.051 257.574C279.883 250.253 271.262 238.83 266.255 223.754C265.796 222.18 265.39 220.592 265.001 219C264.717 219.579 264.433 220.157 264.141 220.754C263.418 222.177 262.662 223.584 261.86 224.965C259.407 229.086 259.407 229.086 259.626 233.687C260.079 234.45 260.533 235.214 261.001 236C262.799 239.784 263.067 242.471 262.938 246.625C263.425 253.564 266.832 257.116 271.899 261.527C288.329 274.626 307.258 281.689 328.376 279.375C349.23 276.128 366.118 265.817 379.001 249C390.33 233.317 392.447 214.822 391.001 196C390.078 190.374 388.214 185.234 386.001 180C385.617 179.061 385.232 178.123 384.837 177.156C381.891 170.663 377.696 165.325 373.001 160C372.321 159.225 371.642 158.45 370.942 157.652C358.176 143.996 340.484 137.079 322.021 136.043C301.798 135.613 283.955 143.81 269.001 157ZM288.188 184.25C281.094 194.066 279.847 204.214 281.001 216C283.258 226.78 289.745 235.111 298.575 241.492C308.551 247.693 319.773 248.723 331.153 246.34C342.338 242.716 350.803 234.811 356.321 224.543C360.372 215.095 360.601 203.824 357.438 194.062C352.862 183.389 344.612 175.139 333.938 170.562C316.521 164.92 299.795 170.475 288.188 184.25ZM40.0007 216C40.0007 252.96 40.0007 289.92 40.0007 328C50.5607 328 61.1207 328 72.0007 328C72.0007 291.04 72.0007 254.08 72.0007 216C61.4407 216 50.8807 216 40.0007 216ZM24.0007 376C24.0007 381.28 24.0007 386.56 24.0007 392C177.121 392 330.241 392 488.001 392C488.001 386.72 488.001 381.44 488.001 376C334.881 376 181.761 376 24.0007 376ZM190.001 408C186.608 418.134 183.217 428.269 179.831 438.406C178.258 443.112 176.685 447.819 175.109 452.524C173.589 457.062 172.072 461.6 170.557 466.14C169.978 467.875 169.397 469.609 168.816 471.343C168.004 473.765 167.195 476.189 166.387 478.613C166.144 479.335 165.901 480.057 165.651 480.801C164.421 484.324 164.421 484.324 164.001 488C173.901 488 183.801 488 194.001 488C197.394 477.865 200.784 467.73 204.171 457.594C205.743 452.887 207.316 448.181 208.892 443.476C210.412 438.938 211.929 434.399 213.444 429.86C214.023 428.125 214.604 426.391 215.186 424.657C215.998 422.234 216.806 419.811 217.614 417.387C217.857 416.665 218.1 415.943 218.351 415.199C219.58 411.675 219.58 411.675 220.001 408C210.101 408 200.201 408 190.001 408ZM292.001 408C293.721 414.307 295.39 420.416 297.453 426.583C297.677 427.257 297.902 427.932 298.134 428.627C298.861 430.808 299.593 432.988 300.325 435.168C300.837 436.699 301.348 438.23 301.859 439.762C303.193 443.756 304.53 447.748 305.869 451.741C307.238 455.83 308.605 459.92 309.971 464.01C312.644 472.007 315.322 480.004 318.001 488C327.901 488 337.801 488 348.001 488C346.281 481.693 344.612 475.583 342.549 469.417C342.324 468.742 342.099 468.068 341.868 467.373C341.14 465.192 340.408 463.012 339.676 460.832C339.165 459.301 338.653 457.769 338.142 456.238C336.808 452.244 335.471 448.251 334.133 444.259C332.763 440.17 331.397 436.08 330.03 431.99C327.357 423.992 324.68 415.996 322.001 408C312.101 408 302.201 408 292.001 408Z" fill="#005592" fill-opacity="0.972549"/>
<path d="M56 136C79.76 136 103.52 136 128 136C128 141.28 128 146.56 128 152C104.24 152 80.48 152 56 152C56 146.72 56 141.44 56 136Z" fill="#005592" fill-opacity="0.972549"/>
<path d="M56 104C79.76 104 103.52 104 128 104C128 109.28 128 114.56 128 120C104.24 120 80.48 120 56 120C56 114.72 56 109.44 56 104Z" fill="#005592" fill-opacity="0.972549"/>
<path d="M56 72C79.76 72 103.52 72 128 72C128 77.28 128 82.56 128 88C104.24 88 80.48 88 56 88C56 82.72 56 77.44 56 72Z" fill="#005592" fill-opacity="0.972549"/>
</svg>
