<svg width="100" height="128" viewBox="0 0 100 128" fill="none" xmlns="http://www.w3.org/2000/svg">
<g filter="url(#filter0_dddd_277_14)">
<rect x="33" y="4" width="56" height="51" rx="7" fill="white"/>
<rect x="33.5" y="4.5" width="55" height="50" rx="6.5" stroke="#A60CFF"/>
<g clip-path="url(#clip0_277_14)">
<path d="M54.6541 27.7184C55.1668 28.0183 55.5724 28.4882 55.9903 28.9052C56.057 28.9714 56.1236 29.0377 56.1903 29.104C56.4075 29.3199 56.6244 29.5362 56.8412 29.7525C56.9163 29.8273 56.9913 29.9021 57.0663 29.9768C57.4185 30.3279 57.7705 30.6791 58.1224 31.0305C58.5275 31.4351 58.9332 31.8392 59.3393 32.2429C59.654 32.5559 59.9683 32.8693 60.2822 33.183C60.4694 33.37 60.6567 33.5569 60.8446 33.7432C61.0211 33.9184 61.1971 34.0941 61.3726 34.2703C61.437 34.3346 61.5015 34.3988 61.5662 34.4627C62.2925 35.1805 62.2925 35.1805 62.3793 35.6908C62.3745 36.1318 62.3239 36.4517 62.0192 36.7822C61.7156 37.0622 61.4127 37.1577 61 37.1772C60.8997 37.1827 60.8997 37.1827 60.7973 37.1884C60.7266 37.1921 60.6559 37.1958 60.583 37.1996C59.005 37.2985 57.4531 37.6886 56.0788 38.4921C55.9614 38.5546 55.9614 38.5546 55.8442 38.5546C55.8605 38.5928 55.8767 38.6311 55.8934 38.6704C56.1937 39.3948 56.2308 40.0933 55.9614 40.8398C55.8791 40.9994 55.7904 41.1492 55.692 41.2994C55.6157 41.4167 55.5541 41.5345 55.4927 41.6601C55.5503 41.7164 55.5503 41.7164 55.6091 41.7738C55.7521 41.9137 55.8947 42.0541 56.037 42.1947C56.0985 42.2554 56.1603 42.3159 56.2222 42.3763C56.3113 42.4633 56.3998 42.5509 56.4883 42.6386C56.5417 42.691 56.5951 42.7435 56.6501 42.7976C56.8069 42.9781 56.8876 43.1316 56.912 43.3696C56.8819 43.7707 56.7097 43.9631 56.4302 44.2382C56.3979 44.2759 56.3657 44.3136 56.3324 44.3524C56.0766 44.6423 55.8197 44.7779 55.4341 44.8242C54.8918 44.8257 54.5933 44.5854 54.2036 44.2382C54.0471 44.1076 53.889 43.979 53.7312 43.85C53.6452 43.7791 53.5592 43.7082 53.4733 43.6372C53.2944 43.4896 53.1155 43.3422 52.9363 43.195C52.8922 43.1587 52.848 43.1224 52.8025 43.085C52.7187 43.0162 52.6349 42.9473 52.5511 42.8785C52.2984 42.6707 52.049 42.4597 51.8013 42.246C51.621 42.332 51.4977 42.4214 51.3545 42.561C50.9089 42.9533 50.4747 43.0464 49.8869 43.0261C49.0878 42.951 48.5799 42.3864 48.0377 41.8441C47.9486 41.7552 47.8587 41.6674 47.7686 41.5795C47.2663 41.0831 46.8666 40.5693 46.8574 39.8327C46.8847 38.5703 48.0739 37.7651 48.9056 36.9442C49.6897 36.1736 49.6897 36.1736 50.395 35.332C50.4241 35.2952 50.4533 35.2584 50.4833 35.2206C51.8752 33.4603 52.6912 31.3249 52.8027 29.0872C52.8296 28.6614 52.9099 28.334 53.1926 28.0064C53.2253 27.9802 53.2581 27.9541 53.2917 27.9272C53.3243 27.9001 53.3569 27.8731 53.3904 27.8452C53.7801 27.5909 54.2167 27.5924 54.6541 27.7184ZM53.8997 28.6706C53.7317 28.9197 53.7482 29.1782 53.7349 29.4726C53.6921 30.1334 53.5986 30.7631 53.4419 31.4062C53.4317 31.4482 53.4215 31.4902 53.4111 31.5334C52.7245 34.2745 50.9407 36.2679 48.9888 38.2031C49.0757 38.405 49.1898 38.5355 49.3452 38.6899C49.3944 38.7392 49.4437 38.7884 49.4944 38.8392C49.5743 38.9181 49.5743 38.9181 49.6557 38.9986C49.7102 39.0529 49.7646 39.1072 49.8208 39.1632C49.9652 39.3071 50.11 39.4508 50.2548 39.5943C50.4027 39.741 50.5502 39.888 50.6978 40.035C50.9872 40.3231 51.2769 40.6109 51.5669 40.8984C51.7932 40.7932 51.9341 40.6601 52.1091 40.4807C52.1385 40.4509 52.1678 40.4211 52.1981 40.3904C52.3228 40.2637 52.4469 40.1364 52.571 40.0091C52.9778 39.5925 53.3925 39.2071 53.8521 38.8476C53.9176 38.7946 53.9832 38.7416 54.0487 38.6885C56.0023 37.1552 58.3269 36.2528 60.8255 36.2433C61.0295 36.2387 61.1561 36.2243 61.3278 36.1099C61.4239 35.9834 61.4239 35.9834 61.4037 35.8407C61.3357 35.6339 61.2312 35.5331 61.0774 35.3791C61.0486 35.3499 61.0197 35.3207 60.99 35.2906C60.8933 35.193 60.7958 35.0962 60.6983 34.9994C60.6288 34.9296 60.5593 34.8597 60.4899 34.7898C60.3012 34.6 60.1118 34.411 59.9222 34.2222C59.724 34.0246 59.5264 33.8265 59.3287 33.6284C58.9967 33.2959 58.6642 32.964 58.3314 32.6323C57.9464 32.2486 57.5622 31.864 57.1784 31.4789C56.8491 31.1486 56.5194 30.8187 56.1893 30.4892C55.992 30.2923 55.7949 30.0952 55.5982 29.8977C55.4133 29.7122 55.2279 29.5272 55.042 29.3427C54.9738 29.2748 54.9058 29.2067 54.8379 29.1383C54.7455 29.0453 54.6525 28.953 54.5592 28.8609C54.5072 28.809 54.4552 28.7571 54.4016 28.7036C54.2189 28.5596 54.1013 28.5496 53.8997 28.6706ZM48.1408 39.0488C47.9404 39.3013 47.8348 39.5007 47.8002 39.8219C47.8475 40.2156 48.057 40.4706 48.3287 40.7382C48.3613 40.771 48.3939 40.8038 48.4274 40.8376C48.4961 40.9064 48.5651 40.9749 48.6343 41.0432C48.7395 41.1471 48.8433 41.2522 48.9471 41.3575C49.0143 41.4246 49.0816 41.4916 49.149 41.5585C49.1796 41.5896 49.2103 41.6207 49.2419 41.6528C49.4806 41.8856 49.7251 42.0461 50.0652 42.087C50.4298 42.0477 50.6511 41.9018 50.9224 41.6601C50.8356 41.4589 50.7221 41.3278 50.5678 41.1732C50.4945 41.0993 50.4945 41.0993 50.4197 41.0239C50.3668 40.9713 50.314 40.9187 50.2595 40.8645C50.2053 40.8102 50.1512 40.7559 50.0953 40.7C49.9809 40.5853 49.8662 40.4709 49.7513 40.3566C49.604 40.2099 49.4571 40.0626 49.3104 39.9152C49.1705 39.7748 49.0302 39.6349 48.8899 39.4949C48.8106 39.4152 48.8106 39.4152 48.7297 39.334C48.6808 39.2855 48.632 39.2369 48.5816 39.187C48.5385 39.144 48.4954 39.1009 48.451 39.0566C48.3165 38.9409 48.2708 38.9222 48.1408 39.0488ZM54.9653 39.1406C54.4084 39.5456 54.4084 39.5456 53.9106 40.0195C54.005 40.2582 54.1766 40.4159 54.3574 40.5908C54.3876 40.6204 54.4178 40.6501 54.449 40.6807C54.5232 40.7535 54.5977 40.826 54.6724 40.8984C54.8759 40.8169 54.9483 40.7436 55.0349 40.5431C55.2154 40.0974 55.257 39.6564 55.0825 39.1992C55.0438 39.1798 55.0052 39.1605 54.9653 39.1406ZM52.9894 40.8764C52.924 40.9422 52.8588 41.0081 52.7937 41.0742C52.7604 41.1077 52.7272 41.1412 52.6929 41.1758C52.6104 41.259 52.5281 41.3423 52.4458 41.4257C52.519 41.6453 52.6095 41.7005 52.79 41.8432C52.8784 41.9138 52.8784 41.9138 52.9686 41.9858C53.0578 42.0566 53.0578 42.0566 53.1489 42.1288C53.2492 42.2104 53.3493 42.2922 53.4492 42.3742C53.5017 42.4171 53.5542 42.46 53.6083 42.5042C53.7523 42.6221 53.8957 42.7407 54.039 42.8594C54.0825 42.8954 54.126 42.9313 54.1707 42.9683C54.2562 43.039 54.3416 43.1098 54.4269 43.1807C54.6305 43.349 54.8356 43.515 55.0445 43.6765C55.0818 43.7054 55.1191 43.7343 55.1575 43.7641C55.2607 43.8408 55.2607 43.8408 55.4158 43.839C55.5942 43.7474 55.7111 43.6249 55.8442 43.4765C55.7567 43.2724 55.64 43.1405 55.4834 42.9842C55.4331 42.9338 55.3829 42.8834 55.3311 42.8314C55.2768 42.7775 55.2225 42.7236 55.1665 42.6681C55.1103 42.612 55.0541 42.5558 54.998 42.4996C54.8805 42.3822 54.7628 42.265 54.645 42.148C54.4936 41.9976 54.3426 41.8469 54.1918 41.696C54.0759 41.5801 53.9599 41.4645 53.8439 41.3488C53.761 41.2662 53.6781 41.1835 53.5953 41.1007C53.5452 41.051 53.4952 41.0013 53.4436 40.9502C53.3993 40.9061 53.355 40.862 53.3094 40.8167C53.1441 40.6641 53.1676 40.7046 52.9894 40.8764Z" fill="#A60CFF"/>
<path d="M62.896 15.168C63.0044 15.1676 63.0044 15.1676 63.115 15.1672C63.194 15.1673 63.2731 15.1673 63.3521 15.1673C63.4361 15.1671 63.5202 15.1669 63.6043 15.1667C63.8317 15.1662 64.0592 15.1661 64.2867 15.166C64.429 15.166 64.5714 15.1659 64.7137 15.1657C65.2109 15.1652 65.708 15.1649 66.2052 15.165C66.6676 15.165 67.1301 15.1644 67.5926 15.1635C67.9905 15.1627 68.3884 15.1624 68.7863 15.1624C69.0236 15.1624 69.2609 15.1623 69.4981 15.1617C69.7214 15.1611 69.9446 15.1611 70.1679 15.1615C70.2495 15.1616 70.3311 15.1614 70.4127 15.1611C71.5837 15.1563 71.5837 15.1563 72.0194 15.5312C72.3926 15.9052 72.4595 16.3415 72.4646 16.8516C72.4639 16.9311 72.4633 17.0106 72.4625 17.0901C72.4628 17.1753 72.4633 17.2606 72.4638 17.3458C72.4649 17.5757 72.4641 17.8056 72.463 18.0355C72.462 18.277 72.4625 18.5184 72.4628 18.7599C72.4631 19.1652 72.4622 19.5705 72.4605 19.9758C72.4587 20.4434 72.4587 20.9109 72.4597 21.3785C72.4606 21.8297 72.4602 22.2809 72.4592 22.7321C72.4588 22.9235 72.4589 23.1149 72.4593 23.3063C72.4597 23.5319 72.459 23.7575 72.4574 23.9831C72.457 24.0656 72.457 24.148 72.4574 24.2305C72.4597 24.7386 72.4459 25.1985 72.0966 25.5959C71.7881 25.8976 71.394 26.0238 70.9676 26.0317C70.8652 26.0302 70.7628 26.028 70.6604 26.0251C70.5465 26.0244 70.4326 26.0238 70.3187 26.0233C70.1423 26.0218 69.966 26.0194 69.7897 26.0147C68.9553 25.9947 68.4118 26.099 67.7279 26.5857C67.5724 26.6939 67.409 26.786 67.2439 26.8788C67.1861 26.9121 67.1284 26.9454 67.0689 26.9797C66.9814 27.03 66.9814 27.03 66.8921 27.0814C66.7618 27.1564 66.6315 27.2315 66.5012 27.3066C66.4352 27.3446 66.3692 27.3826 66.3012 27.4217C66.0926 27.5419 65.884 27.6623 65.6754 27.7826C65.6237 27.8125 65.6237 27.8125 65.5709 27.8429C65.4054 27.9385 65.2399 28.034 65.0743 28.1296C64.958 28.1967 64.8417 28.2637 64.7253 28.3306C64.6323 28.3843 64.5397 28.4386 64.4476 28.4938C64.2012 28.6404 64.0432 28.6961 63.7537 28.6524C63.5826 28.5353 63.5298 28.4615 63.4813 28.26C63.4583 28.0439 63.4753 27.8584 63.5042 27.643C63.5093 27.6038 63.5145 27.5645 63.5198 27.524C63.5307 27.4416 63.5418 27.3592 63.5532 27.2768C63.5706 27.151 63.5872 27.0251 63.6038 26.8992C63.6921 26.2361 63.6921 26.2361 63.7537 26.0157C63.7141 26.0169 63.6746 26.0181 63.6339 26.0194C63.4517 26.0243 63.2694 26.0273 63.0872 26.0303C63.025 26.0323 62.9629 26.0343 62.8988 26.0363C62.4161 26.0422 62.0121 25.9716 61.6207 25.6744C61.591 25.6384 61.5614 25.6024 61.5308 25.5652C61.4847 25.5123 61.4847 25.5123 61.4376 25.4583C61.1559 24.9824 61.1503 24.5063 61.1528 23.9646C61.1526 23.8828 61.1523 23.801 61.1519 23.7192C61.1511 23.4985 61.1514 23.2779 61.1519 23.0572C61.1524 22.8254 61.152 22.5936 61.1517 22.3618C61.1514 21.9727 61.1518 21.5836 61.1526 21.1945C61.1536 20.7457 61.1533 20.2969 61.1523 19.8481C61.1515 19.4616 61.1514 19.0751 61.1519 18.6887C61.1521 18.4583 61.1522 18.228 61.1516 17.9977C61.1511 17.7811 61.1514 17.5645 61.1525 17.3478C61.1528 17.2312 61.1523 17.1145 61.1517 16.9978C61.156 16.396 61.2334 15.9517 61.6546 15.5075C62.0096 15.1844 62.4358 15.1687 62.896 15.168ZM62.1716 16.4063C62.1367 16.5688 62.1367 16.5688 62.1423 16.751C62.1417 16.8215 62.1411 16.892 62.1405 16.9646C62.1411 17.0417 62.1417 17.1189 62.1423 17.1983C62.142 17.2806 62.1417 17.3628 62.1413 17.445C62.1405 17.6681 62.1411 17.8912 62.1421 18.1143C62.1429 18.3478 62.1425 18.5812 62.1423 18.8147C62.1422 19.2068 62.143 19.5989 62.1443 19.991C62.1459 20.4443 62.146 20.8976 62.1453 21.3509C62.1447 21.787 62.145 22.223 62.1458 22.6591C62.1462 22.8447 62.1462 23.0303 62.1459 23.2159C62.1456 23.4344 62.1462 23.6529 62.1475 23.8715C62.148 23.9899 62.1476 24.1084 62.1472 24.2269C62.1478 24.2974 62.1483 24.3679 62.1489 24.4405C62.1491 24.5018 62.1492 24.563 62.1494 24.6262C62.1748 24.8075 62.2229 24.8875 62.3474 25.0196C62.561 25.1117 62.8068 25.0893 63.0364 25.0926C63.1259 25.0945 63.2154 25.0965 63.3048 25.0984C63.4455 25.1012 63.5862 25.1038 63.7269 25.1061C63.8629 25.1084 63.999 25.1115 64.135 25.1146C64.1772 25.1151 64.2195 25.1156 64.263 25.1161C64.5607 25.1235 64.5607 25.1235 64.6912 25.254C64.7404 25.7132 64.6803 26.1776 64.6157 26.6327C64.5865 26.8391 64.5676 27.0376 64.574 27.2461C64.7958 27.1632 64.9957 27.0613 65.2009 26.9433C65.2662 26.9059 65.3316 26.8684 65.3989 26.8299C65.4694 26.7892 65.5399 26.7485 65.6104 26.7078C65.6831 26.666 65.7559 26.6242 65.8286 26.5825C66.0173 26.4741 66.2059 26.3654 66.3944 26.2567C66.542 26.1716 66.6897 26.0867 66.8373 26.0017C67.134 25.831 67.4305 25.6601 67.7268 25.489C67.7787 25.4591 67.8305 25.4292 67.884 25.3983C68.0316 25.3163 68.0316 25.3163 68.1585 25.2152C68.4114 25.0953 68.6555 25.1109 68.9319 25.1109C69.02 25.1097 69.02 25.1097 69.1098 25.1086C69.2971 25.1062 69.4844 25.1049 69.6716 25.1038C69.8589 25.1024 70.0462 25.1008 70.2335 25.0984C70.3499 25.097 70.4663 25.0961 70.5827 25.0959C70.9632 25.0967 70.9632 25.0967 71.3123 24.961C71.4886 24.7724 71.5102 24.6416 71.5108 24.3868C71.5114 24.3173 71.5119 24.2479 71.5125 24.1764C71.5121 24.0625 71.5121 24.0625 71.5117 23.9463C71.5121 23.8653 71.5125 23.7843 71.5129 23.7034C71.514 23.4837 71.5139 23.2639 71.5136 23.0442C71.5134 22.8607 71.5138 22.6773 71.5141 22.4938C71.5149 22.0609 71.5149 21.6281 71.5142 21.1952C71.5135 20.7488 71.5143 20.3023 71.5159 19.8559C71.5172 19.4724 71.5176 19.089 71.5173 18.7056C71.5171 18.4766 71.5172 18.2477 71.5182 18.0187C71.5191 17.8034 71.5189 17.5881 71.5178 17.3728C71.5175 17.2562 71.5183 17.1396 71.5192 17.023C71.5186 16.9535 71.518 16.8839 71.5174 16.8122C71.5174 16.7518 71.5174 16.6915 71.5174 16.6293C71.4791 16.4147 71.4137 16.3193 71.2537 16.1719C71.0838 16.1282 71.0838 16.1282 70.8912 16.1351C70.8168 16.1344 70.7423 16.1336 70.6656 16.1329C70.5833 16.1335 70.5009 16.1342 70.4186 16.1349C70.3318 16.1346 70.245 16.1342 70.1581 16.1337C69.9224 16.1326 69.6867 16.1334 69.451 16.1345C69.2044 16.1355 68.9578 16.1349 68.7112 16.1346C68.297 16.1344 67.8829 16.1353 67.4687 16.137C66.9899 16.1388 66.511 16.1388 66.0321 16.1378C65.5715 16.1369 65.1109 16.1373 64.6504 16.1383C64.4543 16.1387 64.2582 16.1386 64.0622 16.1382C63.8313 16.1377 63.6005 16.1385 63.3696 16.1401C63.2849 16.1405 63.2001 16.1405 63.1154 16.14C62.9998 16.1395 62.8841 16.1406 62.7685 16.1418C62.7038 16.1419 62.6391 16.1421 62.5724 16.1423C62.3624 16.1797 62.2939 16.2326 62.1716 16.4063Z" fill="#A60CFF"/>
<path d="M67.2696 29.9999C67.5035 30.1091 67.7141 30.249 67.9288 30.3918C67.9907 30.4318 68.0527 30.4718 68.1166 30.513C68.3036 30.634 68.4898 30.7563 68.6758 30.8789C68.7761 30.944 68.8764 31.009 68.9768 31.0739C69.1654 31.1959 69.3537 31.3185 69.5417 31.4414C69.9556 31.7116 70.3726 31.9769 70.7896 32.2423C70.8473 32.2791 70.9051 32.316 70.9647 32.354C71.0515 32.4084 71.0515 32.4084 71.1401 32.4639C71.3126 32.5781 71.3126 32.5781 71.4764 32.7089C71.993 33.1081 72.4267 33.1072 73.0521 33.0908C74.2669 33.0702 74.2669 33.0702 74.7309 33.4529C74.7618 33.4905 74.7927 33.5281 74.8245 33.5668C74.8565 33.6042 74.8884 33.6415 74.9213 33.6799C75.1647 34.0587 75.1385 34.4554 75.1382 34.8899C75.1386 34.9634 75.139 35.0368 75.1394 35.1124C75.1403 35.3131 75.1407 35.5138 75.1408 35.7146C75.1408 35.8402 75.1411 35.9659 75.1414 36.0916C75.1425 36.5307 75.143 36.9697 75.1429 37.4088C75.1428 37.817 75.144 38.2251 75.1459 38.6332C75.1474 38.9845 75.148 39.3359 75.148 39.6872C75.1479 39.8966 75.1483 40.106 75.1495 40.3154C75.1509 40.5493 75.1503 40.7832 75.1496 41.0171C75.1503 41.0857 75.1509 41.1542 75.1516 41.2249C75.1477 41.7429 75.0587 42.1956 74.7037 42.5903C74.241 43.0062 73.7079 43.0419 73.1109 43.0372C73.0349 43.0375 72.959 43.0378 72.8808 43.0381C72.6743 43.0389 72.4678 43.0383 72.2613 43.0373C72.0442 43.0365 71.8272 43.0369 71.6102 43.0371C71.246 43.0372 70.8819 43.0365 70.5177 43.0351C70.0976 43.0335 69.6775 43.0334 69.2574 43.0341C68.8518 43.0348 68.4463 43.0344 68.0408 43.0336C67.8688 43.0332 67.6968 43.0332 67.5249 43.0335C67.2845 43.0338 67.0442 43.0327 66.8038 43.0314C66.733 43.0317 66.6622 43.032 66.5892 43.0322C66.05 43.0275 65.6391 42.9298 65.2087 42.59C64.736 42.1062 64.7413 41.4827 64.7406 40.8498C64.7403 40.7803 64.74 40.7108 64.7397 40.6392C64.739 40.4492 64.7386 40.2593 64.7383 40.0693C64.7382 39.9504 64.7379 39.8315 64.7377 39.7126C64.7369 39.3399 64.7363 38.9672 64.7361 38.5945C64.7358 38.1655 64.7348 37.7365 64.7331 37.3075C64.7318 36.9751 64.7312 36.6426 64.7311 36.3101C64.7311 36.112 64.7307 35.9138 64.7297 35.7156C64.7287 35.4943 64.7288 35.273 64.7292 35.0518C64.7286 34.9868 64.7281 34.9219 64.7275 34.855C64.7305 34.3105 64.8274 33.8024 65.2188 33.3984C65.5047 33.187 65.778 33.0973 66.1298 33.0997C66.1792 33.0999 66.2287 33.1001 66.2797 33.1003C66.3564 33.101 66.3564 33.101 66.4346 33.1018C66.4867 33.102 66.5387 33.1023 66.5923 33.1026C66.7204 33.1032 66.8485 33.1043 66.9766 33.1054C66.9588 33.0374 66.9411 32.9694 66.9227 32.8993C66.8324 32.5374 66.7809 32.1694 66.7254 31.8009C66.7057 31.6701 66.6853 31.5394 66.6649 31.4087C66.652 31.3243 66.6392 31.2398 66.6264 31.1553C66.6149 31.0798 66.6034 31.0042 66.5915 30.9263C66.5222 30.3081 66.5222 30.3081 66.6544 30.0878C66.8622 29.9631 67.0368 29.9547 67.2696 29.9999ZM67.6797 31.4648C67.7077 31.6821 67.7358 31.8994 67.764 32.1166C67.7719 32.178 67.7798 32.2393 67.7879 32.3025C67.8334 32.6554 67.8334 32.6554 67.8903 33.0065C67.9188 33.1951 67.9197 33.3763 67.9178 33.5668C67.9173 33.6344 67.9167 33.7019 67.9162 33.7715C67.9155 33.8224 67.9148 33.8733 67.9141 33.9257C67.7179 33.9911 67.5665 33.9926 67.3598 33.9946C67.2476 33.9967 67.2476 33.9967 67.1332 33.9989C67.0146 34.0009 66.8961 34.0026 66.7776 34.0034C66.6628 34.0043 66.548 34.0068 66.4333 34.0093C66.3647 34.0101 66.2962 34.011 66.2256 34.0119C65.9844 34.052 65.9073 34.0907 65.7462 34.2773C65.7006 34.5095 65.7062 34.7401 65.7082 34.976C65.7077 35.0475 65.7072 35.119 65.7067 35.1926C65.7056 35.3885 65.7059 35.5844 65.7068 35.7803C65.7075 35.9855 65.7069 36.1907 65.7064 36.3958C65.7059 36.7406 65.7066 37.0852 65.708 37.4299C65.7096 37.828 65.709 38.2261 65.7074 38.6241C65.7061 38.9662 65.7059 39.3083 65.7067 39.6503C65.7071 39.8545 65.7072 40.0587 65.7062 40.2628C65.7052 40.4906 65.7066 40.7184 65.7082 40.9462C65.7077 41.0136 65.7071 41.081 65.7064 41.1504C65.708 41.5405 65.708 41.5405 65.884 41.8768C66.0967 42.0617 66.2441 42.0776 66.5162 42.0785C66.5785 42.0788 66.6409 42.0792 66.7051 42.0795C66.7735 42.0796 66.8419 42.0796 66.9124 42.0797C66.9844 42.08 67.0565 42.0803 67.1307 42.0806C67.3284 42.0813 67.5261 42.0817 67.7238 42.082C67.8474 42.0822 67.9709 42.0824 68.0945 42.0827C68.4812 42.0835 68.868 42.084 69.2547 42.0843C69.7009 42.0845 70.1471 42.0855 70.5932 42.0872C70.9383 42.0885 71.2833 42.0891 71.6284 42.0892C71.8344 42.0892 72.0404 42.0896 72.2464 42.0906C72.4763 42.0918 72.7062 42.0915 72.9361 42.0911C73.0041 42.0917 73.0722 42.0922 73.1423 42.0928C73.602 42.0937 73.602 42.0937 74.0079 41.8945C74.1549 41.6882 74.2056 41.5465 74.2056 41.2942C74.206 41.2335 74.2064 41.1728 74.2068 41.1103C74.2064 41.0443 74.2059 40.9784 74.2055 40.9104C74.2057 40.8404 74.2059 40.7705 74.2061 40.6984C74.2065 40.507 74.2061 40.3156 74.2053 40.1242C74.2047 39.9237 74.2049 39.7233 74.205 39.5228C74.2051 39.1862 74.2044 38.8497 74.2034 38.5131C74.2021 38.1241 74.2019 37.7351 74.2023 37.3461C74.2026 36.9717 74.2023 36.5972 74.2016 36.2228C74.2013 36.0635 74.2013 35.9043 74.2014 35.745C74.2014 35.5227 74.2007 35.3004 74.1997 35.078C74.1999 35.0119 74.2 34.9458 74.2002 34.8777C74.1998 34.8172 74.1994 34.7567 74.1989 34.6943C74.1988 34.6417 74.1987 34.5892 74.1986 34.5351C74.1825 34.3834 74.1463 34.2892 74.0665 34.1601C73.8615 34.005 73.6413 34.0368 73.3972 34.0496C72.2091 34.0857 71.4373 33.9779 70.4701 33.2229C70.2323 33.041 69.9798 32.8843 69.7269 32.7246C69.6328 32.6635 69.5389 32.6022 69.4451 32.5408C69.3973 32.5095 69.3495 32.4782 69.3003 32.4459C69.1255 32.3311 68.9509 32.216 68.7763 32.1009C68.7145 32.0602 68.6527 32.0196 68.589 31.9777C68.4681 31.8982 68.3473 31.8185 68.2268 31.7385C68.1724 31.7028 68.118 31.6671 68.062 31.6303C68.0136 31.5983 67.9652 31.5663 67.9154 31.5334C67.8028 31.455 67.8028 31.455 67.6797 31.4648Z" fill="#A60CFF"/>
<path d="M50.6026 15.1674C50.6949 15.1671 50.6949 15.1671 50.789 15.1668C50.9919 15.1662 51.1948 15.1661 51.3977 15.166C51.5391 15.1658 51.6806 15.1656 51.822 15.1654C52.1183 15.1651 52.4147 15.165 52.7111 15.165C53.0901 15.165 53.4692 15.1642 53.8483 15.1632C54.1404 15.1626 54.4325 15.1624 54.7246 15.1625C54.8643 15.1624 55.004 15.1621 55.1437 15.1617C55.3395 15.1611 55.5352 15.1613 55.731 15.1616C55.7882 15.1613 55.8455 15.161 55.9045 15.1606C56.4766 15.1633 56.9525 15.2263 57.3676 15.6446C57.6504 16.0595 57.703 16.4374 57.6976 16.9297C57.6982 17.0307 57.6982 17.0307 57.6988 17.1338C57.6998 17.3547 57.6987 17.5756 57.6974 17.7966C57.6975 17.9509 57.6976 18.1053 57.6979 18.2597C57.6981 18.5825 57.6972 18.9053 57.6956 19.2281C57.6937 19.6002 57.6937 19.9724 57.6947 20.3446C57.6956 20.7041 57.6952 21.0636 57.6942 21.4232C57.6939 21.5755 57.694 21.7279 57.6943 21.8803C57.6947 22.0933 57.6935 22.3062 57.6919 22.5192C57.6924 22.6131 57.6924 22.6131 57.693 22.7089C57.6874 23.1508 57.6102 23.4621 57.3111 23.8033C57.0065 24.0555 56.7883 24.1887 56.3914 24.2309C56.3439 24.236 56.2963 24.2411 56.2472 24.2464C56.1927 24.2521 56.1927 24.2521 56.1372 24.2579C56.131 24.3114 56.1248 24.3649 56.1184 24.42C56.0951 24.6194 56.0711 24.8186 56.0467 25.0179C56.0363 25.1039 56.0261 25.19 56.0162 25.2762C56.0018 25.4003 55.9866 25.5243 55.9712 25.6484C55.9623 25.7229 55.9534 25.7975 55.9443 25.8743C55.9024 26.076 55.8485 26.2023 55.727 26.3673C55.5433 26.4592 55.3964 26.4735 55.1997 26.4259C54.9679 26.2916 54.7638 26.1245 54.5551 25.9571C54.4929 25.9084 54.4307 25.8598 54.3684 25.8113C54.2331 25.7058 54.0982 25.5997 53.9637 25.4932C53.6571 25.2507 53.348 25.0114 53.0392 24.7718C52.9968 24.7389 52.9543 24.7059 52.9106 24.672C52.8732 24.6429 52.8358 24.6139 52.7972 24.584C52.6801 24.4923 52.6801 24.4923 52.5566 24.3655C52.3056 24.2061 52.0808 24.2281 51.7895 24.2325C51.6703 24.2319 51.5511 24.2314 51.4319 24.2308C51.2451 24.2313 51.0583 24.2323 50.8715 24.2336C50.6904 24.2344 50.5094 24.2335 50.3284 24.2325C50.2734 24.2335 50.2183 24.2344 50.1617 24.2354C49.7147 24.2321 49.3161 24.1146 48.9917 23.7932C48.6219 23.3594 48.6197 22.8188 48.622 22.2725C48.6218 22.2109 48.6216 22.1494 48.6214 22.086C48.6209 21.8841 48.6212 21.6821 48.6216 21.4802C48.6215 21.339 48.6214 21.1978 48.6213 21.0567C48.6211 20.7614 48.6213 20.466 48.6219 20.1707C48.6225 19.7931 48.6222 19.4154 48.6215 19.0377C48.621 18.7463 48.6212 18.455 48.6215 18.1636C48.6216 18.0244 48.6215 17.8852 48.6212 17.746C48.6209 17.5511 48.6213 17.3562 48.622 17.1613C48.6218 17.1043 48.6215 17.0473 48.6213 16.9886C48.6246 16.4493 48.6707 15.96 49.0718 15.5622C49.5249 15.1616 50.028 15.1671 50.6026 15.1674ZM49.713 16.2517C49.5824 16.5049 49.6002 16.7563 49.602 17.037C49.6015 17.1013 49.601 17.1655 49.6005 17.2317C49.5991 17.4443 49.5995 17.6568 49.6001 17.8694C49.5998 18.0169 49.5994 18.1645 49.599 18.312C49.5984 18.6213 49.5986 18.9307 49.5995 19.24C49.6005 19.5975 49.5995 19.9549 49.5976 20.3124C49.5959 20.6565 49.5958 21.0005 49.5963 21.3446C49.5964 21.4909 49.596 21.6373 49.5951 21.7836C49.5941 21.988 49.5949 22.1923 49.5963 22.3968C49.5956 22.4575 49.5949 22.5182 49.5942 22.5807C49.5946 22.9104 49.5946 22.9104 49.7646 23.1826C49.9305 23.2639 50.0228 23.2893 50.2056 23.2845C50.2594 23.2838 50.3132 23.283 50.3687 23.2823C50.4263 23.2805 50.4839 23.2787 50.5433 23.2769C50.667 23.2761 50.7908 23.2753 50.9145 23.2746C51.1083 23.2723 51.302 23.2692 51.4957 23.264C52.7814 23.2336 52.7814 23.2336 53.2635 23.67C53.3436 23.7477 53.4221 23.827 53.5004 23.9063C53.5961 23.9833 53.6929 24.059 53.7911 24.1327C53.9213 24.2344 54.0514 24.3361 54.1814 24.4379C54.4384 24.6385 54.6986 24.8321 54.9653 25.0196C55.004 25.0003 55.0426 24.981 55.0825 24.961C55.1136 24.8287 55.1136 24.8287 55.1282 24.6687C55.1353 24.6092 55.1423 24.5496 55.1495 24.4883C55.1564 24.4255 55.1633 24.3628 55.1704 24.2982C55.184 24.1751 55.198 24.052 55.2125 23.929C55.2215 23.8467 55.2215 23.8467 55.2307 23.7628C55.2583 23.6133 55.2952 23.5077 55.3754 23.379C55.5834 23.275 55.8458 23.3059 56.0768 23.3055C56.2869 23.2981 56.415 23.2723 56.5886 23.152C56.7835 22.8866 56.7638 22.6647 56.7601 22.3432C56.7605 22.2802 56.7609 22.2172 56.7613 22.1523C56.7623 21.9441 56.7612 21.736 56.7599 21.5278C56.76 21.3831 56.7601 21.2384 56.7604 21.0937C56.7605 20.7905 56.7597 20.4873 56.7581 20.1841C56.7561 19.7953 56.7564 19.4066 56.7575 19.0178C56.7581 18.719 56.7576 18.4203 56.7567 18.1215C56.7564 17.9781 56.7565 17.8348 56.7568 17.6915C56.7572 17.4911 56.756 17.2909 56.7544 17.0906C56.7547 17.0313 56.7551 16.972 56.7555 16.9109C56.7523 16.6738 56.7386 16.5006 56.6434 16.2817C56.3963 16.1064 56.1538 16.1317 55.858 16.135C55.7938 16.1346 55.7296 16.1342 55.6634 16.1337C55.4508 16.1327 55.2383 16.1339 55.0257 16.1351C54.8782 16.1351 54.7306 16.1349 54.5831 16.1347C54.2737 16.1345 53.9644 16.1354 53.6551 16.137C53.2976 16.1389 52.9402 16.1389 52.5827 16.1379C52.2386 16.1369 51.8945 16.1373 51.5505 16.1383C51.4041 16.1386 51.2578 16.1386 51.1114 16.1382C50.907 16.1379 50.7027 16.1391 50.4983 16.1407C50.4376 16.1403 50.3769 16.1399 50.3144 16.1396C50.0862 16.1426 49.9174 16.1463 49.713 16.2517Z" fill="#A60CFF"/>
<path d="M67.7569 17.058C68.2925 17.2438 68.6973 17.6412 68.9617 18.1347C69.1262 18.632 69.0687 19.1976 68.9104 19.6874C68.9508 19.6847 68.9912 19.682 69.0329 19.6792C69.5518 19.6593 69.9193 19.7577 70.3093 20.1086C70.6089 20.4388 70.686 20.763 70.6646 21.2035C70.6483 21.3627 70.6298 21.5209 70.6096 21.6796C70.6024 21.7404 70.5952 21.8012 70.5878 21.8639C70.5625 22.0737 70.5351 22.2831 70.5071 22.4926C70.4986 22.5609 70.4902 22.6291 70.4814 22.6995C70.4116 23.1896 70.2865 23.5582 69.9138 23.8952C69.4442 24.2239 69.0466 24.2262 68.4849 24.2246C68.4031 24.2248 68.3213 24.2251 68.2395 24.2255C68.0684 24.226 67.8972 24.2259 67.7261 24.2253C67.5087 24.2246 67.2913 24.2258 67.0739 24.2275C66.9049 24.2286 66.736 24.2286 66.567 24.2282C66.4485 24.2282 66.33 24.2292 66.2115 24.2302C65.6636 24.2261 65.156 24.1571 64.6917 23.8476C64.5557 23.829 64.5557 23.829 64.4049 23.8295C64.3489 23.828 64.2929 23.8266 64.2352 23.825C64.1178 23.823 64.0005 23.8212 63.8831 23.8195C63.5649 23.8108 63.3239 23.7968 63.051 23.6132C62.9726 23.4563 62.9837 23.3341 62.9821 23.1583C62.9813 23.0875 62.9806 23.0167 62.9798 22.9438C62.9794 22.867 62.9789 22.7901 62.9785 22.711C62.9782 22.6719 62.978 22.6329 62.9778 22.5927C62.9765 22.3861 62.9757 22.1796 62.9752 21.973C62.9745 21.7597 62.9725 21.5464 62.9702 21.333C62.9686 21.169 62.9681 21.0049 62.9679 20.8408C62.9675 20.724 62.966 20.6071 62.9644 20.4903C62.9646 20.4191 62.9647 20.348 62.9649 20.2747C62.9646 20.212 62.9642 20.1494 62.9639 20.0849C62.9999 19.8795 63.061 19.8109 63.2268 19.6874C63.3416 19.6582 63.3416 19.6582 63.463 19.6582C63.5317 19.6573 63.5317 19.6573 63.6017 19.6564C63.6751 19.6572 63.6751 19.6572 63.75 19.6579C63.8009 19.6573 63.8518 19.6568 63.9042 19.6562C64.0666 19.6546 64.2289 19.6544 64.3914 19.6545C64.5534 19.6543 64.7153 19.6537 64.8773 19.6521C64.978 19.6511 65.0787 19.6509 65.1794 19.6517C65.4684 19.6491 65.6753 19.6203 65.9221 19.4531C65.9956 19.3514 65.9956 19.3514 66.0228 19.2287C66.0422 19.1588 66.0422 19.1588 66.062 19.0874C66.1489 18.6961 66.2143 18.3014 66.2799 17.906C66.2917 17.838 66.3036 17.7699 66.3158 17.6998C66.3312 17.6077 66.3312 17.6077 66.3468 17.5138C66.3939 17.3319 66.4584 17.2037 66.5667 17.0507C66.8979 16.8851 67.4091 16.9661 67.7569 17.058ZM67.2698 17.9882C67.2607 18.0355 67.2516 18.0827 67.2422 18.1314C67.2074 18.3089 67.1718 18.4862 67.1357 18.6634C67.1128 18.777 67.0909 18.8907 67.0689 19.0044C66.9632 19.5184 66.8419 19.9788 66.3945 20.2953C66.3578 20.3224 66.321 20.3494 66.2831 20.3773C66.1297 20.4644 65.9725 20.5123 65.8049 20.5663C65.7546 20.8864 65.7045 21.2064 65.6547 21.5266C65.6378 21.6354 65.6207 21.7442 65.6036 21.8531C65.5789 22.0097 65.5546 22.1663 65.5303 22.323C65.5226 22.3715 65.5149 22.4199 65.507 22.4699C65.472 22.697 65.4436 22.9138 65.4534 23.1445C65.6713 23.2444 65.8424 23.2766 66.0815 23.2777C66.1474 23.2783 66.2133 23.2789 66.2812 23.2794C66.3519 23.2794 66.4225 23.2793 66.4953 23.2793C66.6048 23.2796 66.6048 23.2796 66.7165 23.28C66.9102 23.2805 67.1039 23.2803 67.2976 23.2799C67.4162 23.28 67.5347 23.2805 67.6533 23.2813C67.8813 23.2828 68.1093 23.283 68.3373 23.2829C68.4432 23.2837 68.4432 23.2837 68.5513 23.2846C68.6172 23.2842 68.6831 23.2838 68.751 23.2835C68.8377 23.2835 68.8377 23.2835 68.9261 23.2836C69.1158 23.2576 69.2258 23.1989 69.3792 23.0859C69.5248 22.7833 69.5479 22.4345 69.5916 22.1044C69.5994 22.0494 69.6073 21.9944 69.6154 21.9378C69.696 21.3992 69.696 21.3992 69.6721 20.8593C69.5602 20.7147 69.4984 20.6842 69.3206 20.6249C69.2316 20.6183 69.1424 20.6145 69.0532 20.6126C69.0017 20.6109 68.9502 20.6092 68.8971 20.6075C68.7888 20.6045 68.6805 20.6019 68.5721 20.5998C68.5206 20.5979 68.4691 20.5961 68.416 20.5943C68.369 20.5931 68.3219 20.5919 68.2734 20.5907C68.1196 20.5606 68.0678 20.5134 67.9729 20.3906C67.8861 20.0931 67.9368 19.8437 67.9985 19.5483C68.1301 18.9561 68.1301 18.9561 67.9949 18.3837C67.8439 18.2089 67.7071 18.0982 67.5042 17.9882C67.4268 17.9882 67.3495 17.9882 67.2698 17.9882ZM63.9299 20.6249C63.9299 21.3404 63.9299 22.0558 63.9299 22.7929C64.1233 22.7929 64.3167 22.7929 64.5159 22.7929C64.6594 22.0735 64.7682 21.3517 64.8674 20.6249C64.5581 20.6249 64.2487 20.6249 63.9299 20.6249Z" fill="#A60CFF"/>
<path d="M69.5122 35.0919C69.6015 35.1488 69.6898 35.2074 69.7779 35.2661C69.8202 35.2879 69.8625 35.3096 69.9061 35.332C70.0211 35.2857 70.0211 35.2857 70.1405 35.2148C70.2185 35.1744 70.2967 35.1341 70.3748 35.094C70.4135 35.074 70.4522 35.0539 70.492 35.0333C70.9095 34.845 71.5039 34.8534 71.9434 34.9619C72.0744 35.0172 72.1889 35.0794 72.3084 35.1562C72.3491 35.1811 72.3899 35.2059 72.4318 35.2315C72.9197 35.5602 73.2123 36.0648 73.332 36.6346C73.46 37.526 73.1588 38.4219 72.6632 39.1557C72.1068 39.8983 71.0538 41.052 70.0848 41.21C69.3794 41.2446 68.6032 40.5472 68.1042 40.1041C67.288 39.3573 66.6294 38.4433 66.5532 37.3052C66.5348 36.5648 66.6891 35.9982 67.2021 35.4506C67.8182 34.8738 68.7416 34.6777 69.5122 35.0919ZM67.7631 36.2679C67.5414 36.6077 67.4578 36.9157 67.5037 37.3242C67.7903 38.6065 68.7014 39.4607 69.774 40.1504C69.9062 40.2086 69.9062 40.2086 70.0455 40.1607C71.0284 39.6319 72.0038 38.7658 72.3377 37.6684C72.4023 37.1683 72.4547 36.6898 72.1327 36.2695C71.8824 36.0096 71.6709 35.8544 71.3014 35.8374C70.9898 35.8419 70.7826 35.9482 70.5506 36.1523C70.4414 36.284 70.3516 36.4189 70.2577 36.5625C70.0884 36.6471 69.9766 36.6432 69.7889 36.6211C69.6497 36.5002 69.6497 36.5002 69.4959 36.3281C69.4164 36.2537 69.3358 36.1805 69.2542 36.1084C69.2154 36.0736 69.1766 36.0389 69.1366 36.0031C68.9301 35.8424 68.7172 35.8356 68.4653 35.8397C68.1672 35.8812 67.9487 36.0353 67.7631 36.2679Z" fill="#A60CFF"/>
<path d="M52.9141 16.9923C53.0496 17.0509 53.0496 17.0509 53.1485 17.1681C53.2415 17.5469 53.1788 17.8462 53.0899 18.2227C53.4669 18.1937 53.4669 18.1937 53.8516 18.1641C53.8655 18.0741 53.8655 18.0741 53.8797 17.9822C53.8935 17.9024 53.9073 17.8227 53.9212 17.743C53.9271 17.7035 53.933 17.6641 53.9391 17.6234C53.9923 17.3286 54.0869 17.1779 54.3203 16.9923C54.5382 16.9514 54.641 16.9775 54.8404 17.0728C55.0046 17.2757 54.9954 17.4086 54.983 17.6631C54.959 17.8609 54.9131 18.0347 54.8477 18.2227C54.895 18.22 54.9424 18.2173 54.9912 18.2145C55.5009 18.1973 55.5009 18.1973 55.7376 18.318C55.8692 18.4904 55.9024 18.5916 55.9024 18.8087C55.8357 18.945 55.7753 19.0529 55.668 19.1602C55.5001 19.1645 55.3341 19.1656 55.1663 19.1639C55.0031 19.1627 54.84 19.1615 54.6719 19.1602C54.6139 19.489 54.5559 19.8177 54.4961 20.1563C54.5689 20.1578 54.6416 20.1594 54.7165 20.1609C54.8127 20.1642 54.909 20.1676 55.0052 20.171C55.053 20.1718 55.1009 20.1726 55.1502 20.1735C55.4516 20.1857 55.6287 20.2173 55.8438 20.4493C55.9174 20.6655 55.9225 20.7577 55.8255 20.9657C55.7266 21.0938 55.7266 21.0938 55.6094 21.1524C55.5074 21.1574 55.4053 21.1587 55.3032 21.1581C55.2125 21.1579 55.2125 21.1579 55.1201 21.1576C55.0568 21.1571 54.9935 21.1566 54.9283 21.1561C54.8326 21.1557 54.8326 21.1557 54.7351 21.1553C54.5773 21.1546 54.4195 21.1536 54.2617 21.1524C54.2553 21.2027 54.2489 21.2529 54.2423 21.3046C54.1406 22.0379 54.1406 22.0379 53.9688 22.3243C53.807 22.4265 53.7156 22.4434 53.5257 22.4342C53.3399 22.3675 53.2615 22.3118 53.1485 22.1485C53.1127 21.7967 53.1803 21.4937 53.2657 21.1524C52.995 21.1524 52.7242 21.1524 52.4453 21.1524C52.4393 21.2382 52.4333 21.324 52.427 21.4124C52.3897 21.772 52.3516 22.1365 52.0755 22.3902C51.8737 22.4559 51.7675 22.4513 51.5664 22.3829C51.4236 22.2694 51.4236 22.2694 51.3321 22.0899C51.3252 21.7911 51.3894 21.5024 51.4492 21.211C51.397 21.2102 51.3447 21.2094 51.2909 21.2085C51.2223 21.2057 51.1537 21.2029 51.083 21.2C51.0151 21.198 50.9471 21.196 50.877 21.1939C50.6875 21.1524 50.6875 21.1524 50.5472 21.0142C50.4325 20.8254 50.4208 20.7253 50.4532 20.5079C50.5574 20.3242 50.601 20.2828 50.8047 20.2149C50.9555 20.2108 51.1045 20.2094 51.2552 20.2113C51.2963 20.2115 51.3374 20.2118 51.3798 20.2121C51.4811 20.2128 51.5823 20.2138 51.6836 20.2149C51.6953 20.1375 51.6953 20.1375 51.7072 20.0586C51.7175 19.9905 51.7279 19.9225 51.7386 19.8524C51.7488 19.7851 51.7589 19.7178 51.7695 19.6484C51.7958 19.4847 51.8255 19.3226 51.8594 19.1602C51.808 19.1625 51.808 19.1625 51.7555 19.1649C51.5998 19.171 51.444 19.1748 51.2881 19.1785C51.2342 19.181 51.1803 19.1835 51.1247 19.186C50.7246 19.1932 50.7246 19.1932 50.5344 19.0238C50.4361 18.8345 50.4218 18.7263 50.4532 18.5157C50.5574 18.332 50.601 18.2906 50.8047 18.2227C50.9043 18.2179 51.0041 18.2164 51.1039 18.217C51.1615 18.2172 51.2191 18.2174 51.2784 18.2176C51.3684 18.2183 51.3684 18.2183 51.4602 18.2191C51.5513 18.2195 51.5513 18.2195 51.6441 18.2199C51.794 18.2206 51.9439 18.2215 52.0938 18.2227C52.0971 18.188 52.1005 18.1532 52.1039 18.1174C52.1843 17.3318 52.1843 17.3318 52.4344 17.0472C52.6073 16.9731 52.7277 16.969 52.9141 16.9923ZM52.8555 19.1602C52.8265 19.2908 52.7975 19.4213 52.7676 19.5557C52.7513 19.6292 52.735 19.7026 52.7182 19.7782C52.6724 19.9846 52.6724 19.9846 52.6797 20.2149C52.9504 20.2149 53.2211 20.2149 53.5 20.2149C53.5295 20.0721 53.5588 19.9293 53.5879 19.7865C53.5963 19.746 53.6047 19.7056 53.6133 19.6639C53.6481 19.4927 53.6758 19.3354 53.6758 19.1602C53.4051 19.1602 53.1344 19.1602 52.8555 19.1602Z" fill="#A60CFF"/>
<path d="M58.2531 26.4843C58.3113 26.4916 58.3113 26.4916 58.3708 26.499C58.5276 26.562 58.5708 26.6307 58.6559 26.7773C58.6745 26.9314 58.6834 27.0715 58.6834 27.2257C58.6841 27.2904 58.6841 27.2904 58.6848 27.3565C58.6854 27.4477 58.6856 27.5389 58.6853 27.63C58.6852 27.7691 58.6877 27.908 58.6903 28.047C58.6906 28.1358 58.6907 28.2245 58.6907 28.3133C58.6922 28.3753 58.6922 28.3753 58.6936 28.4385C58.6905 28.6658 58.6615 28.7624 58.5183 28.9424C58.363 29.0624 58.363 29.0624 58.1872 29.0954C57.9632 29.0534 57.8757 28.9933 57.7184 28.8281C57.6886 28.6578 57.6772 28.5221 57.6795 28.352C57.6793 28.3061 57.679 28.2601 57.6787 28.2128C57.6785 28.1159 57.679 28.0189 57.6802 27.922C57.6818 27.7738 57.6803 27.6259 57.6784 27.4777C57.6786 27.3834 57.679 27.2891 57.6795 27.1948C57.6786 27.1285 57.6786 27.1285 57.6777 27.0608C57.6828 26.8341 57.6993 26.7385 57.8595 26.5729C58.0164 26.4814 58.0771 26.4567 58.2531 26.4843Z" fill="#A60CFF"/>
<path d="M61.6908 31.3128C61.734 31.3128 61.7773 31.3128 61.8218 31.3128C61.9129 31.3131 62.0039 31.3141 62.095 31.3158C62.2341 31.3183 62.3731 31.3182 62.5123 31.3178C62.601 31.3185 62.6897 31.3192 62.7784 31.3201C62.8199 31.3201 62.8613 31.3201 62.904 31.3202C63.0828 31.3244 63.2103 31.3386 63.3686 31.4248C63.5168 31.5826 63.5161 31.7221 63.5198 31.9335C63.4409 32.1062 63.3976 32.1997 63.2268 32.2851C62.9362 32.3017 62.6456 32.3035 62.3546 32.3056C62.2576 32.3066 62.1605 32.3082 62.0634 32.3104C61.9234 32.3136 61.7835 32.3149 61.6434 32.3158C61.5785 32.3178 61.5785 32.3178 61.5122 32.3198C61.2891 32.3189 61.1959 32.304 61.0317 32.1477C60.9202 31.9551 60.9006 31.8595 60.9416 31.6406C61.1626 31.3547 61.3436 31.3047 61.6908 31.3128Z" fill="#A60CFF"/>
<path d="M60.8245 28.9453C60.971 29.0369 60.971 29.0369 61.0589 29.1797C61.1027 29.3871 61.1053 29.5185 60.9872 29.7C60.8798 29.8257 60.7658 29.9417 60.6487 30.0586C60.5768 30.1368 60.5768 30.1368 60.5034 30.2166C60.0609 30.6865 60.0609 30.6865 59.7112 30.7032C59.5044 30.6092 59.4283 30.5425 59.3011 30.3516C59.2886 30.0496 59.3677 29.909 59.5668 29.6835C59.6543 29.594 59.7427 29.5054 59.8321 29.4178C59.8754 29.3721 59.9187 29.3264 59.9633 29.2794C60.2518 28.9914 60.4144 28.8768 60.8245 28.9453Z" fill="#A60CFF"/>
<path d="M52.7197 37.6904C52.9719 37.7475 53.0631 37.8119 53.2068 38.0273C53.2127 38.3366 53.1697 38.4989 52.9646 38.7321C52.8877 38.8095 52.8097 38.8859 52.7307 38.9612C52.6925 39.0005 52.6543 39.0398 52.6149 39.0803C52.3756 39.3151 52.2097 39.4362 51.8591 39.4336C51.6864 39.3547 51.5929 39.3114 51.5076 39.1406C51.4719 38.9693 51.461 38.895 51.5076 38.7305C51.6617 38.5129 51.8443 38.3303 52.0349 38.1445C52.0761 38.1021 52.1174 38.0596 52.1599 38.0159C52.348 37.8337 52.4589 37.7435 52.7197 37.6904Z" fill="#A60CFF"/>
<path d="M51.8594 36.6797C52.0475 36.8188 52.1357 36.9103 52.1963 37.1375C52.128 37.4276 51.9472 37.5844 51.7422 37.793C51.6949 37.8459 51.6476 37.8988 51.5989 37.9532C51.5495 38.0067 51.5001 38.0602 51.4492 38.1153C51.4033 38.1654 51.3574 38.2156 51.3101 38.2673C51.1093 38.413 50.989 38.4088 50.7461 38.3789C50.5544 38.2403 50.4703 38.1505 50.4092 37.9212C50.4771 37.6325 50.6581 37.4724 50.8633 37.2657C50.9328 37.1938 50.9328 37.1938 51.0038 37.1206C51.48 36.6351 51.48 36.6351 51.8594 36.6797Z" fill="#A60CFF"/>
</g>
</g>
<defs>
<filter id="filter0_dddd_277_14" x="0" y="0" width="100" height="128" filterUnits="userSpaceOnUse" color-interpolation-filters="sRGB">
<feFlood flood-opacity="0" result="BackgroundImageFix"/>
<feColorMatrix in="SourceAlpha" type="matrix" values="0 0 0 0 0 0 0 0 0 0 0 0 0 0 0 0 0 0 127 0" result="hardAlpha"/>
<feOffset dx="-1" dy="3"/>
<feGaussianBlur stdDeviation="3.5"/>
<feColorMatrix type="matrix" values="0 0 0 0 0 0 0 0 0 0 0 0 0 0 0 0 0 0 0.1 0"/>
<feBlend mode="normal" in2="BackgroundImageFix" result="effect1_dropShadow_277_14"/>
<feColorMatrix in="SourceAlpha" type="matrix" values="0 0 0 0 0 0 0 0 0 0 0 0 0 0 0 0 0 0 127 0" result="hardAlpha"/>
<feOffset dx="-3" dy="13"/>
<feGaussianBlur stdDeviation="6.5"/>
<feColorMatrix type="matrix" values="0 0 0 0 0 0 0 0 0 0 0 0 0 0 0 0 0 0 0.09 0"/>
<feBlend mode="normal" in2="effect1_dropShadow_277_14" result="effect2_dropShadow_277_14"/>
<feColorMatrix in="SourceAlpha" type="matrix" values="0 0 0 0 0 0 0 0 0 0 0 0 0 0 0 0 0 0 127 0" result="hardAlpha"/>
<feOffset dx="-7" dy="29"/>
<feGaussianBlur stdDeviation="9"/>
<feColorMatrix type="matrix" values="0 0 0 0 0 0 0 0 0 0 0 0 0 0 0 0 0 0 0.05 0"/>
<feBlend mode="normal" in2="effect2_dropShadow_277_14" result="effect3_dropShadow_277_14"/>
<feColorMatrix in="SourceAlpha" type="matrix" values="0 0 0 0 0 0 0 0 0 0 0 0 0 0 0 0 0 0 127 0" result="hardAlpha"/>
<feOffset dx="-12" dy="52"/>
<feGaussianBlur stdDeviation="10.5"/>
<feColorMatrix type="matrix" values="0 0 0 0 0 0 0 0 0 0 0 0 0 0 0 0 0 0 0.01 0"/>
<feBlend mode="normal" in2="effect3_dropShadow_277_14" result="effect4_dropShadow_277_14"/>
<feBlend mode="normal" in="SourceGraphic" in2="effect4_dropShadow_277_14" result="shape"/>
</filter>
<clipPath id="clip0_277_14">
<rect width="30" height="30" fill="white" transform="translate(46 15)"/>
</clipPath>
</defs>
</svg>
