<svg width="80" height="80" viewBox="0 0 80 80" fill="none" xmlns="http://www.w3.org/2000/svg">
<path d="M23.8147 2.41907C24.0862 2.41822 24.3577 2.41711 24.6291 2.41575C25.362 2.41292 26.0947 2.414 26.8276 2.41599C27.5971 2.41758 28.3666 2.4161 29.1361 2.41512C30.428 2.41399 31.7199 2.41548 33.0118 2.41846C34.5021 2.42186 35.9924 2.42076 37.4827 2.41732C38.7658 2.41448 40.0489 2.41409 41.332 2.41572C42.0967 2.41669 42.8615 2.41683 43.6263 2.41476C44.3456 2.41294 45.0647 2.41422 45.784 2.41782C46.0468 2.41864 46.3097 2.41842 46.5725 2.41703C48.7129 2.40678 50.4276 2.68778 52.0312 4.21869C53.8794 6.15465 53.9307 8.39235 53.924 10.9301C53.9239 11.1658 53.924 11.4015 53.9241 11.6373C53.9241 12.2741 53.9232 12.911 53.9221 13.5478C53.9211 14.2145 53.921 14.8812 53.9208 15.5478C53.9204 16.8089 53.9191 18.07 53.9175 19.3311C53.9158 20.7674 53.9149 22.2037 53.9141 23.64C53.9125 26.5933 53.9097 29.5466 53.9062 32.4999C54.043 32.4963 54.1798 32.4927 54.3207 32.489C54.5016 32.4861 54.6824 32.4833 54.8688 32.4804C55.0474 32.4768 55.2261 32.4732 55.4102 32.4694C56.3661 32.5247 57.1004 32.8994 57.7881 33.5565C59.5895 35.7332 59.7345 39.8821 60.2539 42.5683C60.2839 42.7228 60.3139 42.8774 60.3447 43.0366C61.2933 47.9613 61.724 52.2181 60.4526 57.1395C59.6978 60.3575 60.9243 65.1242 62.5 67.9687C64.2824 70.7241 67.0671 72.9678 69.5609 75.0549C70.0548 75.5046 70.0307 75.9008 70.0665 76.5515C69.9666 77.0372 69.765 77.1976 69.375 77.4999C68.9521 77.5623 68.5922 77.5864 68.1693 77.5825C67.9861 77.5844 67.9861 77.5844 67.7992 77.5864C67.3894 77.59 66.9798 77.5891 66.57 77.5883C66.2763 77.5899 65.9827 77.5917 65.6891 77.5939C64.891 77.5987 64.093 77.5995 63.2949 77.5993C62.6286 77.5995 61.9623 77.6014 61.296 77.6032C59.7237 77.6075 58.1514 77.6083 56.5791 77.6072C54.9577 77.606 53.3364 77.6113 51.715 77.6195C50.3227 77.6264 48.9305 77.629 47.5382 77.6283C46.7067 77.6279 45.8754 77.6292 45.0439 77.6347C44.2616 77.6397 43.4794 77.6394 42.697 77.6351C42.4103 77.6344 42.1236 77.6356 41.8369 77.6387C39.4023 77.6639 39.4023 77.6639 38.6137 77.002C38.3454 76.702 38.3454 76.702 38.125 76.4062C38 76.2531 37.875 76.0999 37.7463 75.9421C37.6388 75.7925 37.5313 75.6429 37.4205 75.4887C36.3072 74.0515 35.1261 72.6956 33.2545 72.3914C31.5304 72.1983 29.7898 72.2791 28.061 72.3627C27.1529 72.4029 26.2441 72.4186 25.3353 72.4358C24.6287 72.4493 23.9232 72.4668 23.2172 72.4984C21.2979 72.5737 19.8147 72.3727 18.2916 71.0894C16.8995 69.7605 16.2903 68.3989 16.1719 66.4843C16.0579 65.5263 15.8549 65.1257 15.1166 64.5086C14.9452 64.3609 14.7742 64.2127 14.6035 64.0642C14.5144 63.9877 14.4253 63.9111 14.3336 63.8323C13.8788 63.432 13.4487 63.0073 13.0182 62.5811C12.9315 62.4953 12.8447 62.4095 12.7554 62.3211C12.5795 62.1466 12.4038 61.9719 12.2283 61.797C11.9603 61.5306 11.6908 61.2659 11.4212 61.0012C9.99819 59.5918 8.92116 58.3675 8.85742 56.2695C8.89176 54.7374 9.36724 53.5852 10.4688 52.4999C10.9698 52.145 11.4852 51.8426 12.0312 51.5624C11.8937 51.4303 11.7561 51.2982 11.6144 51.1621C10.0965 49.6871 8.92521 48.5007 8.85742 46.2695C8.89221 44.7175 9.38365 43.6175 10.4688 42.4999C11.2071 41.8907 11.8608 41.6219 12.8125 41.5624C12.775 41.4352 12.775 41.4352 12.7368 41.3055C12.476 40.1141 12.5223 38.7339 13.125 37.6562C14.248 36.1881 14.248 36.1881 15 35.9374C14.1262 34.9049 13.1848 33.9603 12.2095 33.0242C10.9529 31.7925 10.1182 30.6047 10.0977 28.789C10.1274 27.2171 10.5899 26.1331 11.6779 24.9969C12.7415 24.0655 13.9099 23.7209 15.3125 23.7499C15.6254 23.7997 15.9379 23.8515 16.25 23.9062C16.2486 23.7025 16.2472 23.4988 16.2458 23.289C16.2331 21.3649 16.2237 19.4409 16.2176 17.5168C16.2144 16.5277 16.21 15.5387 16.2029 14.5496C16.196 13.5943 16.1923 12.6389 16.1907 11.6835C16.1896 11.3199 16.1873 10.9563 16.1839 10.5927C16.1793 10.0815 16.1788 9.57043 16.179 9.0592C16.1757 8.83616 16.1757 8.83616 16.1722 8.60862C16.1827 6.88654 16.7813 5.46258 17.9688 4.21869C19.6905 2.57501 21.5435 2.40709 23.8147 2.41907ZM19.8438 6.09369C18.5628 7.58276 18.7058 9.50193 18.7145 11.3479C18.7146 11.6098 18.7146 11.8718 18.7144 12.1337C18.7143 12.8412 18.7161 13.5487 18.7183 14.2563C18.7203 14.997 18.7205 15.7377 18.7208 16.4784C18.7218 17.8795 18.7244 19.2806 18.7275 20.6817C18.731 22.2775 18.7327 23.8732 18.7343 25.469C18.7375 28.7501 18.743 32.0313 18.75 35.3124C18.8688 35.3761 18.9876 35.4398 19.11 35.5054C19.2654 35.5893 19.4208 35.6732 19.581 35.7597C19.7352 35.8427 19.8894 35.9257 20.0484 36.0112C20.5045 36.2702 20.8798 36.5527 21.2598 36.914C21.3854 37.0322 21.5111 37.1505 21.6406 37.2723C22.1963 37.8184 22.7475 38.3686 23.2916 38.9263C23.5424 39.2368 23.5424 39.2368 23.75 39.2187C23.7784 39.0691 23.7784 39.0691 23.8074 38.9166C23.8336 38.7875 23.8597 38.6584 23.8867 38.5253C23.9121 38.3966 23.9375 38.2679 23.9636 38.1353C23.9963 38.0288 24.0289 37.9222 24.0625 37.8124C24.4646 37.6114 24.756 37.6342 25.2063 37.631C25.3799 37.6295 25.5536 37.628 25.7325 37.6265C25.9208 37.6258 26.1091 37.6251 26.3031 37.6245C26.4958 37.6236 26.6884 37.6227 26.8869 37.6218C27.295 37.6203 27.7031 37.6193 28.1112 37.6187C28.5303 37.618 28.9493 37.6158 29.3684 37.6123C29.971 37.6075 30.5735 37.6058 31.1761 37.6049C31.3641 37.603 31.5521 37.6011 31.7458 37.5991C31.92 37.5995 32.0941 37.6 32.2735 37.6005C32.427 37.5999 32.5804 37.5994 32.7386 37.5988C33.125 37.6562 33.125 37.6562 33.4088 37.841C33.6634 38.2318 33.6533 38.5088 33.6544 38.9739C33.6559 39.1476 33.6574 39.3212 33.6589 39.5001C33.6579 39.6876 33.657 39.8751 33.656 40.0683C33.6565 40.2607 33.6569 40.4532 33.6574 40.6515C33.6578 41.163 33.6559 41.6745 33.6533 42.186C33.6523 42.4996 33.6533 42.8133 33.6549 43.1269C33.6578 43.7285 33.6574 44.33 33.656 44.9316C33.657 45.1191 33.6579 45.3066 33.6589 45.4998C33.6567 45.7602 33.6567 45.7602 33.6544 46.0259C33.654 46.1789 33.6537 46.3319 33.6533 46.4895C33.5938 46.8749 33.5938 46.8749 33.3946 47.1594C33.0668 47.3835 32.8956 47.3988 32.5011 47.3914C32.3764 47.3905 32.2517 47.3895 32.1232 47.3886C31.9889 47.3856 31.8547 47.3827 31.7163 47.3797C31.4309 47.3794 31.1454 47.3793 30.86 47.3794C30.4107 47.3771 29.9617 47.373 29.5126 47.3646C27.8354 47.2629 27.8354 47.2629 26.2977 47.7708C26.0318 48.0843 25.8302 48.395 25.625 48.7499C25.238 49.0319 25.238 49.0319 24.9023 49.1992C24.7908 49.2568 24.6792 49.3144 24.5642 49.3737C24.1931 49.5429 23.8176 49.6957 23.4375 49.8437C23.4448 50.006 23.452 50.1684 23.4595 50.3356C23.5093 51.9267 23.3676 53.0656 22.4707 54.4238C21.9923 54.8809 21.5231 55.1603 20.9357 55.4565C20.6019 55.6184 20.6019 55.6184 20.3125 55.9374C20.4501 56.0696 20.5876 56.2017 20.7294 56.3378C21.9052 57.4808 22.8171 58.4488 23.4375 59.9999C32.6156 59.9999 41.7938 59.9999 51.25 59.9999C51.2591 50.9254 51.2591 50.9254 51.2653 41.8508C51.2659 40.6275 51.2665 39.4042 51.2672 38.1808C51.2673 37.9508 51.2673 37.9508 51.2674 37.7162C51.2688 35.2411 51.2712 32.766 51.2741 30.2909C51.277 27.7507 51.2788 25.2104 51.2794 22.6702C51.2798 21.1028 51.2812 19.5354 51.2837 17.9681C51.2854 16.8932 51.2859 15.8183 51.2855 14.7434C51.2853 14.1233 51.2856 13.5032 51.2873 12.8831C51.2888 12.3148 51.2888 11.7467 51.2878 11.1784C51.2876 10.8766 51.2889 10.5747 51.2903 10.2728C51.2852 8.76586 51.2134 7.26396 50.1562 6.09369C48.7091 4.96537 47.3258 4.97653 45.5566 4.99018C45.3827 4.99088 45.2088 4.99159 45.0296 4.99231C44.6031 4.99415 44.1765 4.99671 43.75 4.99994C43.7477 5.13002 43.7454 5.2601 43.7431 5.39412C43.7335 5.87727 43.722 6.36032 43.709 6.8434C43.7012 7.15509 43.6959 7.46683 43.6905 7.77857C43.685 7.97445 43.6794 8.17032 43.6737 8.37214C43.6696 8.55297 43.6655 8.7338 43.6613 8.92012C43.5855 9.43033 43.5231 9.53689 43.125 9.84369C42.8148 9.90268 42.8148 9.90268 42.4549 9.90322C42.2498 9.9052 42.2498 9.9052 42.0406 9.90722C41.8163 9.9058 41.8163 9.9058 41.5875 9.90435C41.3508 9.90558 41.3508 9.90558 41.1093 9.90684C40.5865 9.9089 40.0638 9.90753 39.541 9.90595C39.1785 9.90627 38.8159 9.90672 38.4534 9.90731C37.6931 9.908 36.9329 9.90699 36.1726 9.90481C35.1969 9.90214 34.2212 9.90367 33.2454 9.90648C32.4967 9.90817 31.7479 9.90764 30.9992 9.90642C30.6393 9.90611 30.2795 9.90649 29.9197 9.90758C29.4172 9.90877 28.9149 9.90696 28.4125 9.90435C28.2629 9.9053 28.1134 9.90625 27.9594 9.90722C27.8227 9.9059 27.686 9.90458 27.5451 9.90322C27.3669 9.90295 27.3669 9.90295 27.1852 9.90268C26.7872 9.827 26.6489 9.69456 26.4062 9.37494C26.3387 8.92012 26.3387 8.92012 26.3263 8.37214C26.3208 8.17626 26.3152 7.98038 26.3095 7.77857C26.3042 7.47146 26.3042 7.47146 26.2988 7.15815C26.2936 6.9495 26.2883 6.74086 26.2827 6.53223C26.2697 6.02148 26.2589 5.51078 26.25 4.99994C25.6543 4.99077 25.0586 4.98528 24.4629 4.98041C24.2958 4.97779 24.1287 4.97518 23.9566 4.97248C22.4359 4.96318 21.0377 5.06656 19.8438 6.09369ZM28.75 4.99994C28.75 5.82494 28.75 6.64994 28.75 7.49994C32.875 7.49994 37 7.49994 41.25 7.49994C41.25 6.67494 41.25 5.84994 41.25 4.99994C37.125 4.99994 33 4.99994 28.75 4.99994ZM13.4375 27.0312C12.9724 27.5401 12.7762 28.0756 12.7344 28.7597C12.8971 30.0415 13.9123 30.8306 14.7949 31.6992C14.9175 31.8216 15.04 31.9441 15.1663 32.0703C15.6432 32.648 15.6432 32.648 16.25 32.9687C16.25 30.9578 16.25 28.9468 16.25 26.8749C14.99 26.335 14.5246 26.2897 13.4375 27.0312ZM54.1699 35.4394C53.6755 36.0803 53.7277 36.7145 53.7295 37.4871C53.7292 37.6145 53.7288 37.7419 53.7285 37.8732C53.7275 38.3018 53.7277 38.7303 53.7278 39.1589C53.7274 39.4656 53.7268 39.7723 53.7262 40.079C53.725 40.7404 53.7242 41.4018 53.7236 42.0633C53.7227 43.11 53.7201 44.1567 53.7172 45.2035C53.7162 45.5618 53.7152 45.9202 53.7142 46.2786C53.7137 46.4581 53.7132 46.6376 53.7127 46.8225C53.7062 49.2597 53.701 51.6969 53.6991 54.1341C53.6978 55.7775 53.6942 57.4208 53.6882 59.0642C53.6852 59.9337 53.6832 60.8031 53.684 61.6725C53.6847 62.4912 53.6825 63.3099 53.6782 64.1287C53.6771 64.4283 53.6771 64.7279 53.6782 65.0275C53.6858 67.2553 53.525 69.1123 51.875 70.7812C50.184 72.2202 48.6026 72.4145 46.4447 72.4236C46.2085 72.4263 45.9723 72.4291 45.7361 72.4322C45.1188 72.4395 44.5016 72.4442 43.8843 72.4483C43.2527 72.453 42.6211 72.4603 41.9894 72.4673C40.7534 72.4807 39.5173 72.4912 38.2812 72.4999C38.4935 72.7557 38.7075 73.0102 38.9276 73.2592C39.1246 73.4855 39.3136 73.7187 39.4949 73.9577C39.9924 74.5511 40.3835 74.9413 41.1494 75.1272C41.7924 75.173 42.4215 75.1743 43.0652 75.1596C43.3102 75.1592 43.5552 75.1594 43.8001 75.1602C44.4617 75.1606 45.1228 75.1524 45.7843 75.1425C46.4768 75.1337 47.1693 75.1329 47.8619 75.1312C49.1717 75.1269 50.4814 75.1153 51.7912 75.1012C53.2831 75.0855 54.7749 75.0778 56.2668 75.0707C59.3342 75.056 62.4015 75.0313 65.4688 74.9999C65.3229 74.8274 65.1766 74.6552 65.0302 74.483C64.9488 74.3871 64.8674 74.2911 64.7836 74.1922C64.3938 73.7504 63.968 73.351 63.5388 72.9479C63.3523 72.7687 63.1659 72.5892 62.9797 72.4096C62.6917 72.1322 62.4029 71.8559 62.1106 71.583C60.9397 70.4869 60.087 69.6153 59.7608 67.9952C59.6715 67.5822 59.5632 67.1761 59.4537 66.7681C59.2193 65.8949 58.9943 65.0196 58.7725 64.1432C58.6793 63.7766 58.5851 63.4103 58.4898 63.0442C58.3503 62.5086 58.2141 61.9722 58.0786 61.4355C58.0361 61.2746 57.9937 61.1138 57.9499 60.948C57.5302 59.2546 57.5874 57.6329 57.8613 55.921C57.8821 55.7819 57.9029 55.6428 57.9244 55.4995C57.9899 55.0626 58.0572 54.626 58.125 54.1894C58.1927 53.7511 58.2598 53.3128 58.3256 52.8743C58.3662 52.6036 58.4079 52.3332 58.4508 52.0629C58.7457 50.1038 58.4505 48.3482 58.0975 46.4184C58.046 46.1321 57.9946 45.8458 57.9433 45.5595C57.8358 44.9621 57.7273 44.3649 57.6181 43.7677C57.4786 43.0038 57.3415 42.2395 57.2053 41.475C57.0997 40.8847 56.9928 40.2947 56.8855 39.7048C56.8345 39.423 56.7838 39.1412 56.7336 38.8593C56.6633 38.4654 56.5911 38.0718 56.5184 37.6783C56.4981 37.5629 56.4779 37.4474 56.4571 37.3285C56.2994 36.4914 56.0803 35.7677 55.4688 35.1562C54.8924 35.081 54.6341 35.0756 54.1699 35.4394ZM15.7324 38.6132C15.382 39.2102 15.25 39.7764 15.3125 40.4687C15.6768 41.4148 16.334 42.0242 17.041 42.7227C17.1641 42.8459 17.2872 42.969 17.414 43.0959C17.6735 43.355 17.9335 43.6136 18.1941 43.8716C18.5937 44.2675 18.9912 44.6655 19.3884 45.0637C19.641 45.3154 19.8937 45.567 20.1465 45.8184C20.2656 45.9377 20.3848 46.057 20.5075 46.1799C20.6741 46.3443 20.6741 46.3443 20.8441 46.512C20.9416 46.6087 21.0391 46.7055 21.1395 46.8052C21.6426 47.2314 22.1744 47.231 22.8137 47.2216C23.5541 47.1403 24.0593 46.633 24.5312 46.0937C24.7225 45.52 24.8009 44.9692 24.6875 44.3749C24.1943 43.5333 23.5543 42.8814 22.8668 42.1948C22.6941 42.021 22.6941 42.021 22.5178 41.8437C22.2751 41.6001 22.032 41.3569 21.7885 41.1141C21.4164 40.7425 21.0464 40.3689 20.6766 39.9951C20.44 39.7581 20.2033 39.5213 19.9664 39.2846C19.8562 39.173 19.746 39.0613 19.6325 38.9463C18.9637 38.2838 18.4724 37.866 17.5098 37.7636C16.7606 37.8401 16.2832 38.1071 15.7324 38.6132ZM26.25 39.9999C26.1373 41.8492 26.1373 41.8492 26.875 42.9687C27.0686 43.641 27.2037 44.3135 27.3438 44.9999C28.6328 44.9999 29.9219 44.9999 31.25 44.9999C31.25 43.3499 31.25 41.6999 31.25 39.9999C29.6 39.9999 27.95 39.9999 26.25 39.9999ZM11.9043 44.9511C11.6172 45.5102 11.5159 46.0921 11.5625 46.7187C11.9228 47.6465 12.5527 48.2456 13.2458 48.933C13.3647 49.0524 13.4836 49.1717 13.6061 49.2946C13.8569 49.5457 14.1083 49.7963 14.3602 50.0463C14.7453 50.4289 15.1279 50.8139 15.5103 51.1993C15.7547 51.4434 15.9992 51.6873 16.2439 51.9311C16.358 52.0462 16.4721 52.1612 16.5897 52.2798C16.6976 52.3862 16.8055 52.4927 16.9167 52.6023C17.0107 52.696 17.1047 52.7896 17.2016 52.8861C17.7558 53.3297 18.2829 53.4945 18.9844 53.4179C19.6387 53.3234 20.0115 53.1537 20.4688 52.6562C20.9263 52.0004 21.029 51.4638 20.8989 50.6891C20.7647 50.2595 20.596 50.0433 20.2928 49.7133C20.1941 49.6053 20.0953 49.4972 19.9936 49.3859C19.5273 48.8932 19.0565 48.4061 18.5773 47.926C18.4763 47.8244 18.3752 47.7229 18.2712 47.6183C18.0598 47.4062 17.8483 47.1943 17.6366 46.9826C17.3128 46.6585 16.9903 46.3331 16.6678 46.0076C16.4613 45.8006 16.2547 45.5937 16.048 45.3869C15.9521 45.2899 15.8562 45.1929 15.7574 45.093C15.6672 45.0032 15.5769 44.9134 15.4839 44.8209C15.4053 44.7421 15.3267 44.6633 15.2458 44.5821C14.6829 44.1077 14.1818 43.9931 13.4418 44.0124C12.7911 44.1152 12.3708 44.5168 11.9043 44.9511ZM12.0605 54.9609C11.67 55.5411 11.5625 55.8651 11.5625 56.5624C11.8875 57.5898 12.4877 58.2017 13.2458 58.9483C13.3647 59.0674 13.4836 59.1865 13.6061 59.3092C13.8567 59.5596 14.1081 59.8092 14.3602 60.058C14.7456 60.439 15.1281 60.8227 15.5103 61.2069C15.7546 61.4503 15.9992 61.6935 16.2439 61.9366C16.358 62.0512 16.4721 62.1657 16.5897 62.2838C16.6976 62.3897 16.8055 62.4957 16.9167 62.6048C17.0107 62.698 17.1047 62.7911 17.2016 62.8871C17.7564 63.3293 18.2832 63.4944 18.9844 63.4179C19.6387 63.3234 20.0115 63.1537 20.4688 62.6562C20.9263 62.0004 21.029 61.4638 20.8989 60.6891C20.7647 60.2594 20.5958 60.0433 20.2924 59.7133C20.1444 59.5512 20.1444 59.5512 19.9933 59.3859C19.5282 58.894 19.0598 58.4064 18.5828 57.926C18.4318 57.7737 18.4318 57.7737 18.2778 57.6183C18.0671 57.4062 17.8563 57.1943 17.6452 56.9826C17.3228 56.6587 17.0022 56.3332 16.6815 56.0076C16.4755 55.8006 16.2694 55.5937 16.0632 55.3869C15.9206 55.2414 15.9206 55.2414 15.7751 55.093C15.1779 54.4988 14.6978 54.1239 13.8379 54.0136C13.0715 54.1071 12.6064 54.4272 12.0605 54.9609ZM23.4375 62.4999C23.1797 63.0156 22.9219 63.5312 22.6562 64.0624C21.9773 65.0906 21.0384 65.5906 19.8639 65.899C19.4933 65.9742 19.1243 66.0403 18.75 66.0937C18.9147 67.2935 19.1738 68.3313 20.1233 69.1461C21.5704 70.1348 23.25 70.0453 24.9323 70.0404C25.1765 70.0408 25.4207 70.0414 25.6649 70.042C26.3248 70.0435 26.9846 70.0429 27.6445 70.0419C28.337 70.0411 29.0295 70.0419 29.722 70.0424C30.8847 70.0429 32.0473 70.0422 33.21 70.0407C34.5517 70.039 35.8934 70.0395 37.2352 70.0413C38.3898 70.0427 39.5444 70.0429 40.6991 70.0421C41.3875 70.0416 42.076 70.0415 42.7644 70.0425C43.4118 70.0434 44.0592 70.0428 44.7066 70.041C44.9434 70.0406 45.1801 70.0407 45.4169 70.0414C47.7785 70.0828 47.7785 70.0828 49.8438 69.0624C51.7277 67.1649 51.25 65.2716 51.25 62.4999C42.0719 62.4999 32.8937 62.4999 23.4375 62.4999Z" fill="#00D7FF"/>
<path d="M37.7392 37.4192C37.9123 37.4172 38.0854 37.4152 38.2638 37.4132C38.45 37.4145 38.6362 37.4157 38.8281 37.417C39.0199 37.4164 39.2118 37.4158 39.4094 37.4152C39.815 37.4148 40.2206 37.416 40.6261 37.4186C41.2476 37.4219 41.8687 37.4186 42.4902 37.4146C42.884 37.415 43.2779 37.4158 43.6718 37.417C43.858 37.4158 44.0442 37.4145 44.2361 37.4132C44.4957 37.4162 44.4957 37.4162 44.7607 37.4192C44.9128 37.4197 45.065 37.4202 45.2218 37.4207C45.7517 37.525 45.9336 37.6912 46.2499 38.125C46.3293 38.5282 46.3293 38.5282 46.3308 38.9893C46.3328 39.1624 46.3347 39.3355 46.3368 39.5139C46.3355 39.7001 46.3342 39.8863 46.3329 40.0782C46.3338 40.3659 46.3338 40.3659 46.3347 40.6595C46.3352 41.0651 46.334 41.4707 46.3314 41.8763C46.3281 42.4977 46.3314 43.1189 46.3354 43.7403C46.335 44.1342 46.3342 44.528 46.3329 44.9219C46.3342 45.1081 46.3355 45.2943 46.3368 45.4862C46.3348 45.6593 46.3328 45.8324 46.3308 46.0108C46.3303 46.163 46.3298 46.3151 46.3293 46.4719C46.225 47.0018 46.0588 47.1837 45.6249 47.5C45.2218 47.5794 45.2218 47.5794 44.7607 47.5809C44.5876 47.5829 44.4144 47.5849 44.2361 47.5869C44.0499 47.5856 43.8637 47.5844 43.6718 47.5831C43.384 47.584 43.384 47.584 43.0904 47.5849C42.6849 47.5853 42.2793 47.5841 41.8737 47.5815C41.2523 47.5782 40.6311 47.5815 40.0097 47.5855C39.6158 47.5851 39.2219 47.5843 38.8281 47.5831C38.5487 47.585 38.5487 47.585 38.2638 47.5869C38.0907 47.5849 37.9175 47.583 37.7392 47.5809C37.587 47.5804 37.4348 47.5799 37.2781 47.5794C36.7482 47.4751 36.5662 47.3089 36.2499 46.875C36.1706 46.4719 36.1706 46.4719 36.1691 46.0108C36.1671 45.8377 36.1651 45.6646 36.1631 45.4862C36.1644 45.3 36.1656 45.1138 36.1669 44.9219C36.1663 44.7301 36.1657 44.5382 36.1651 44.3406C36.1647 43.935 36.1658 43.5294 36.1684 43.1238C36.1718 42.5024 36.1685 41.8812 36.1645 41.2598C36.1649 40.8659 36.1657 40.4721 36.1669 40.0782C36.1657 39.892 36.1644 39.7058 36.1631 39.5139C36.1651 39.3408 36.167 39.1677 36.1691 38.9893C36.1696 38.8371 36.1701 38.685 36.1706 38.5282C36.3459 37.6376 36.8959 37.4219 37.7392 37.4192ZM38.7499 40C38.7499 41.65 38.7499 43.3 38.7499 45C40.3999 45 42.0499 45 43.7499 45C43.7499 43.35 43.7499 41.7 43.7499 40C42.0999 40 40.4499 40 38.7499 40Z" fill="#00D7FF"/>
<path d="M37.7392 24.9192C37.9123 24.9172 38.0854 24.9152 38.2638 24.9132C38.45 24.9145 38.6362 24.9157 38.8281 24.917C39.0199 24.9164 39.2118 24.9158 39.4094 24.9152C39.815 24.9148 40.2206 24.916 40.6261 24.9186C41.2476 24.9219 41.8687 24.9186 42.4902 24.9146C42.884 24.915 43.2779 24.9158 43.6718 24.917C43.858 24.9158 44.0442 24.9145 44.2361 24.9132C44.4957 24.9162 44.4957 24.9162 44.7607 24.9192C44.9128 24.9197 45.065 24.9202 45.2218 24.9207C45.7517 25.025 45.9336 25.1912 46.2499 25.625C46.3293 26.0282 46.3293 26.0282 46.3308 26.4893C46.3328 26.6624 46.3347 26.8355 46.3368 27.0139C46.3355 27.2001 46.3342 27.3863 46.3329 27.5782C46.3338 27.8659 46.3338 27.8659 46.3347 28.1595C46.3352 28.5651 46.334 28.9707 46.3314 29.3763C46.3281 29.9977 46.3314 30.6189 46.3354 31.2403C46.335 31.6342 46.3342 32.028 46.3329 32.4219C46.3342 32.6081 46.3355 32.7943 46.3368 32.9862C46.3348 33.1593 46.3328 33.3324 46.3308 33.5108C46.3303 33.663 46.3298 33.8151 46.3293 33.9719C46.225 34.5018 46.0588 34.6837 45.6249 35C45.2218 35.0794 45.2218 35.0794 44.7607 35.0809C44.5876 35.0829 44.4144 35.0849 44.2361 35.0869C44.0499 35.0856 43.8637 35.0844 43.6718 35.0831C43.384 35.084 43.384 35.084 43.0904 35.0849C42.6849 35.0853 42.2793 35.0841 41.8737 35.0815C41.2523 35.0782 40.6311 35.0815 40.0097 35.0855C39.6158 35.0851 39.2219 35.0843 38.8281 35.0831C38.5487 35.085 38.5487 35.085 38.2638 35.0869C38.0907 35.0849 37.9175 35.083 37.7392 35.0809C37.587 35.0804 37.4348 35.0799 37.2781 35.0794C36.7482 34.9751 36.5662 34.8089 36.2499 34.375C36.1706 33.9719 36.1706 33.9719 36.1691 33.5108C36.1671 33.3377 36.1651 33.1646 36.1631 32.9862C36.1644 32.8 36.1656 32.6138 36.1669 32.4219C36.1663 32.2301 36.1657 32.0382 36.1651 31.8406C36.1647 31.435 36.1658 31.0294 36.1684 30.6238C36.1718 30.0024 36.1685 29.3812 36.1645 28.7598C36.1649 28.3659 36.1657 27.9721 36.1669 27.5782C36.1657 27.392 36.1644 27.2058 36.1631 27.0139C36.1651 26.8408 36.167 26.6677 36.1691 26.4893C36.1696 26.3371 36.1701 26.185 36.1706 26.0282C36.3459 25.1376 36.8959 24.9219 37.7392 24.9192ZM38.7499 27.5C38.7499 29.15 38.7499 30.8 38.7499 32.5C40.3999 32.5 42.0499 32.5 43.7499 32.5C43.7499 30.85 43.7499 29.2 43.7499 27.5C42.0999 27.5 40.4499 27.5 38.7499 27.5Z" fill="#00D7FF"/>
<path d="M25.2392 24.9192C25.4123 24.9172 25.5854 24.9152 25.7638 24.9132C25.95 24.9145 26.1362 24.9157 26.3281 24.917C26.5199 24.9164 26.7118 24.9158 26.9094 24.9152C27.315 24.9148 27.7206 24.916 28.1261 24.9186C28.7476 24.9219 29.3687 24.9186 29.9902 24.9146C30.384 24.915 30.7779 24.9158 31.1718 24.917C31.358 24.9158 31.5442 24.9145 31.7361 24.9132C31.9957 24.9162 31.9957 24.9162 32.2607 24.9192C32.4128 24.9197 32.565 24.9202 32.7218 24.9207C33.2517 25.025 33.4336 25.1912 33.7499 25.625C33.8293 26.0282 33.8293 26.0282 33.8308 26.4893C33.8328 26.6624 33.8347 26.8355 33.8368 27.0139C33.8355 27.2001 33.8342 27.3863 33.8329 27.5782C33.8338 27.8659 33.8338 27.8659 33.8347 28.1595C33.8352 28.5651 33.834 28.9707 33.8314 29.3763C33.8281 29.9977 33.8314 30.6189 33.8354 31.2403C33.835 31.6342 33.8342 32.028 33.8329 32.4219C33.8342 32.6081 33.8355 32.7943 33.8368 32.9862C33.8348 33.1593 33.8328 33.3324 33.8308 33.5108C33.8303 33.663 33.8298 33.8151 33.8293 33.9719C33.725 34.5018 33.5588 34.6837 33.1249 35C32.7218 35.0794 32.7218 35.0794 32.2607 35.0809C32.0876 35.0829 31.9144 35.0849 31.7361 35.0869C31.5499 35.0856 31.3637 35.0844 31.1718 35.0831C30.884 35.084 30.884 35.084 30.5904 35.0849C30.1849 35.0853 29.7793 35.0841 29.3737 35.0815C28.7523 35.0782 28.1311 35.0815 27.5097 35.0855C27.1158 35.0851 26.7219 35.0843 26.3281 35.0831C26.0487 35.085 26.0487 35.085 25.7638 35.0869C25.5907 35.0849 25.4175 35.083 25.2392 35.0809C25.087 35.0804 24.9348 35.0799 24.7781 35.0794C24.2482 34.9751 24.0662 34.8089 23.7499 34.375C23.6706 33.9719 23.6706 33.9719 23.6691 33.5108C23.6671 33.3377 23.6651 33.1646 23.6631 32.9862C23.6644 32.8 23.6656 32.6138 23.6669 32.4219C23.6663 32.2301 23.6657 32.0382 23.6651 31.8406C23.6647 31.435 23.6658 31.0294 23.6684 30.6238C23.6718 30.0024 23.6685 29.3812 23.6645 28.7598C23.6649 28.3659 23.6657 27.9721 23.6669 27.5782C23.6657 27.392 23.6644 27.2058 23.6631 27.0139C23.6651 26.8408 23.667 26.6677 23.6691 26.4893C23.6696 26.3371 23.6701 26.185 23.6706 26.0282C23.8459 25.1376 24.3959 24.9219 25.2392 24.9192ZM26.2499 27.5C26.2499 29.15 26.2499 30.8 26.2499 32.5C27.8999 32.5 29.5499 32.5 31.2499 32.5C31.2499 30.85 31.2499 29.2 31.2499 27.5C29.5999 27.5 27.9499 27.5 26.2499 27.5Z" fill="#00D7FF"/>
<path d="M32.5 65C34.15 65 35.8 65 37.5 65C37.5 65.825 37.5 66.65 37.5 67.5C35.85 67.5 34.2 67.5 32.5 67.5C32.5 66.675 32.5 65.85 32.5 65Z" fill="#00D7FF"/>
<path d="M38.75 55C39.575 55 40.4 55 41.25 55C41.25 55.825 41.25 56.65 41.25 57.5C40.425 57.5 39.6 57.5 38.75 57.5C38.75 56.675 38.75 55.85 38.75 55Z" fill="#00D7FF"/>
<path d="M33.75 55C34.575 55 35.4 55 36.25 55C36.25 55.825 36.25 56.65 36.25 57.5C35.425 57.5 34.6 57.5 33.75 57.5C33.75 56.675 33.75 55.85 33.75 55Z" fill="#00D7FF"/>
<path d="M28.75 55C29.575 55 30.4 55 31.25 55C31.25 55.825 31.25 56.65 31.25 57.5C30.425 57.5 29.6 57.5 28.75 57.5C28.75 56.675 28.75 55.85 28.75 55Z" fill="#00D7FF"/>
<path d="M38.75 15C39.575 15 40.4 15 41.25 15C41.25 15.825 41.25 16.65 41.25 17.5C40.425 17.5 39.6 17.5 38.75 17.5C38.75 16.675 38.75 15.85 38.75 15Z" fill="#00D7FF"/>
<path d="M33.75 15C34.575 15 35.4 15 36.25 15C36.25 15.825 36.25 16.65 36.25 17.5C35.425 17.5 34.6 17.5 33.75 17.5C33.75 16.675 33.75 15.85 33.75 15Z" fill="#00D7FF"/>
<path d="M28.75 15C29.575 15 30.4 15 31.25 15C31.25 15.825 31.25 16.65 31.25 17.5C30.425 17.5 29.6 17.5 28.75 17.5C28.75 16.675 28.75 15.85 28.75 15Z" fill="#00D7FF"/>
<path d="M46.25 7.5C47.075 7.5 47.9 7.5 48.75 7.5C48.75 8.325 48.75 9.15 48.75 10C47.925 10 47.1 10 46.25 10C46.25 9.175 46.25 8.35 46.25 7.5Z" fill="#00D7FF"/>
</svg>
