<svg width="80" height="80" viewBox="0 0 80 80" fill="none" xmlns="http://www.w3.org/2000/svg">
<g clip-path="url(#clip0_544_879)">
<path d="M9.95333 -0.0832417C10.28 -0.0843458 10.6066 -0.0857127 10.9333 -0.087321C11.8165 -0.0908249 12.6998 -0.0903789 13.583 -0.0889896C14.3219 -0.0881888 15.0608 -0.0893325 15.7998 -0.0904696C17.5436 -0.0931222 19.2874 -0.092572 21.0312 -0.0899556C22.827 -0.0873115 24.6228 -0.0897867 26.4186 -0.0948341C27.9636 -0.0990114 29.5087 -0.100141 31.0537 -0.0988162C31.9751 -0.0980478 32.8964 -0.0983824 33.8178 -0.101595C34.6844 -0.104473 35.551 -0.103521 36.4176 -0.0996893C36.7345 -0.0989099 37.0515 -0.0994441 37.3684 -0.101431C39.5451 -0.113993 41.3653 0.0128293 43.0192 1.60167C43.1056 1.69191 43.192 1.78214 43.281 1.87511C43.3937 1.99113 43.3937 1.99113 43.5087 2.10948C45.1252 3.90674 45.0459 6.13502 45.0405 8.41041C45.041 8.694 45.0416 8.97759 45.0423 9.26118C45.0439 10.0379 45.0436 10.8146 45.0429 11.5913C45.0425 12.43 45.0439 13.2687 45.0451 14.1073C45.0471 15.7494 45.0474 17.3914 45.047 19.0334C45.0467 20.3682 45.047 21.7031 45.0477 23.0379C45.0478 23.2279 45.0478 23.418 45.0479 23.6138C45.0481 23.9999 45.0483 24.386 45.0485 24.7721C45.0502 28.3921 45.0499 32.0121 45.0489 35.632C45.0481 38.9427 45.0499 42.2534 45.0528 45.5642C45.0559 48.9648 45.0572 52.3655 45.0566 55.7662C45.0563 57.675 45.0567 59.5837 45.0589 61.4924C45.0607 63.1173 45.061 64.7421 45.0591 66.367C45.0581 67.1957 45.058 68.0244 45.0598 68.8531C45.0615 69.6124 45.0611 70.3716 45.0589 71.1309C45.0584 71.4049 45.0588 71.6789 45.0601 71.9529C45.0705 74.4038 44.8264 76.533 43.1052 78.3986C41.9 79.5553 40.4806 80.0235 38.8418 80.0231C38.6382 80.024 38.6382 80.024 38.4305 80.0248C37.9739 80.0266 37.5172 80.0272 37.0606 80.0278C36.7339 80.0287 36.4072 80.0298 36.0805 80.0309C35.0057 80.0342 33.931 80.0358 32.8562 80.0373C32.4862 80.038 32.1161 80.0386 31.7461 80.0393C30.0072 80.0422 28.2684 80.0445 26.5295 80.0458C24.5231 80.0473 22.5167 80.0514 20.5103 80.0577C18.9592 80.0624 17.4081 80.0648 15.8569 80.0653C14.9308 80.0656 14.0046 80.067 13.0784 80.071C12.2063 80.0746 11.3342 80.0753 10.4621 80.0737C10.1429 80.0736 9.82359 80.0746 9.50432 80.0767C7.19067 80.0914 5.34964 79.9578 3.59351 78.2814C1.90909 76.5169 1.78281 74.6146 1.79539 72.2919C1.79467 72.0016 1.79368 71.7113 1.79244 71.4211C1.78984 70.6266 1.79112 69.8321 1.79305 69.0376C1.79447 68.1796 1.79229 67.3215 1.79057 66.4635C1.78779 64.7838 1.78839 63.1041 1.7902 61.4245C1.79161 60.0592 1.7918 58.6939 1.79112 57.3287C1.79103 57.1343 1.79093 56.9398 1.79083 56.7395C1.79063 56.3446 1.79043 55.9496 1.79022 55.5546C1.78849 51.9578 1.79029 48.3609 1.79356 44.764C1.79653 41.4826 1.79626 38.2012 1.79328 34.9198C1.78993 31.2306 1.78862 27.5413 1.79053 23.8521C1.79073 23.4586 1.79093 23.0651 1.79112 22.6716C1.79122 22.4779 1.79132 22.2843 1.79142 22.0849C1.79195 20.7215 1.79104 19.3581 1.78957 17.9946C1.78782 16.3328 1.7883 14.6709 1.79162 13.0091C1.79326 12.1614 1.79391 11.3138 1.79184 10.4661C1.78998 9.68962 1.79101 8.91323 1.79433 8.13679C1.79503 7.85638 1.79468 7.57597 1.79316 7.29557C1.78222 5.10975 2.02659 3.36024 3.59351 1.71886C5.47531 -0.077571 7.49536 -0.0919957 9.95333 -0.0832417ZM4.79468 3.4962C2.75882 5.86457 3.90601 10.0629 3.90601 12.5001C16.7966 12.5001 29.6873 12.5001 42.9685 12.5001C43.4676 7.48842 43.4676 7.48842 41.5623 2.96886C39.9428 1.60015 37.7759 1.82993 35.7859 1.83467C35.4865 1.83425 35.1871 1.83369 34.8876 1.83301C34.078 1.83159 33.2684 1.83214 32.4587 1.83313C31.6095 1.83393 30.7602 1.83319 29.911 1.8327C28.4851 1.83213 27.0592 1.83288 25.6333 1.83437C23.9872 1.83607 22.3412 1.83552 20.6951 1.8338C19.2792 1.83238 17.8633 1.83218 16.4474 1.833C15.6028 1.83348 14.7583 1.83355 13.9138 1.83252C13.1197 1.83161 12.3256 1.83225 11.5314 1.83405C11.2408 1.83446 10.9502 1.83434 10.6596 1.83365C7.42377 1.78677 7.42377 1.78677 4.79468 3.4962ZM3.90601 14.5314C3.90601 31.3407 3.90601 48.1501 3.90601 65.4689C16.7966 65.4689 29.6873 65.4689 42.9685 65.4689C42.9685 48.6595 42.9685 31.8501 42.9685 14.5314C30.0779 14.5314 17.1873 14.5314 3.90601 14.5314ZM3.90601 67.5001C3.28875 72.8838 3.28875 72.8838 5.29273 77.0216C6.53916 78.0155 7.84464 78.1493 9.40842 78.146C9.53331 78.1464 9.6582 78.1467 9.78687 78.1471C10.2031 78.1481 10.6192 78.1479 11.0354 78.1478C11.3348 78.1483 11.6341 78.1488 11.9334 78.1494C12.7451 78.1508 13.5567 78.1511 14.3683 78.1512C14.8758 78.1514 15.3833 78.1517 15.8908 78.1521C17.6625 78.1535 19.4342 78.1542 21.2059 78.1541C22.8554 78.154 24.5049 78.1556 26.1544 78.1581C27.5723 78.1601 28.9902 78.161 30.4081 78.1609C31.2542 78.1608 32.1003 78.1613 32.9464 78.1629C33.7424 78.1644 34.5384 78.1645 35.3345 78.1633C35.6259 78.1632 35.9172 78.1635 36.2086 78.1645C39.2737 78.2038 39.2737 78.2038 41.8748 76.7189C43.9351 74.3014 42.9685 70.0783 42.9685 67.5001C30.0779 67.5001 17.1873 67.5001 3.90601 67.5001Z" fill="#0D9488"/>
<path d="M65.1683 34.9603C66.2827 35.6873 67.1094 36.5586 67.44 37.8875C67.6488 39.2615 67.5581 40.5113 66.7363 41.6632C66.0125 42.5259 65.3142 43.1271 64.2186 43.4375C64.1155 43.4375 64.0124 43.4375 63.9061 43.4375C63.9577 48.1296 64.0092 52.8218 64.0624 57.6562C64.6811 56.9601 64.6811 56.9601 65.3124 56.25C67.5671 54.4762 70.2613 53.5385 73.1249 53.4375C73.253 53.4312 73.3811 53.425 73.513 53.4185C74.4567 53.3942 75.3897 53.4723 76.328 53.5644C76.4515 53.5753 76.5749 53.5863 76.7022 53.5976C77.5839 53.693 77.5839 53.693 77.9238 53.961C78.2702 54.4049 78.1858 54.7663 78.1249 55.3125C77.9599 55.8086 77.7415 56.2701 77.5096 56.7382C77.4459 56.8689 77.3823 56.9995 77.3167 57.1341C75.6204 60.5302 73.1731 63.1502 69.5177 64.3811C67.7297 64.8629 65.8797 64.7908 64.0624 64.5312C64.0108 66.0781 63.9592 67.625 63.9061 69.2187C64.4308 69.2133 64.9555 69.2078 65.4961 69.2022C66.0034 69.1986 66.5106 69.1957 67.0179 69.193C67.3709 69.1906 67.7239 69.1874 68.0769 69.1833C68.5838 69.1777 69.0907 69.175 69.5976 69.1729C69.7558 69.1705 69.9141 69.1681 70.0771 69.1656C70.2976 69.1655 70.2976 69.1655 70.5225 69.1655C70.6519 69.1645 70.7813 69.1634 70.9147 69.1623C71.3342 69.2329 71.47 69.3462 71.7186 69.6875C71.787 70.2343 71.787 70.2343 71.7186 70.7812C71.2919 71.1944 70.987 71.3087 70.3998 71.3116C70.2618 71.3134 70.1238 71.3151 69.9816 71.317C69.7563 71.3163 69.7563 71.3163 69.5265 71.3156C69.3674 71.3169 69.2083 71.3182 69.0444 71.3196C68.5181 71.3232 67.9919 71.3234 67.4657 71.3232C67.1002 71.3243 66.7348 71.3255 66.3693 71.3268C65.6033 71.3289 64.8373 71.3292 64.0713 71.3282C63.0887 71.3273 62.1062 71.3321 61.1236 71.3384C60.369 71.3424 59.6143 71.3429 58.8597 71.3423C58.4973 71.3426 58.135 71.3441 57.7727 71.3469C57.2665 71.3503 56.7606 71.3488 56.2544 71.3461C56.0292 71.3492 56.0292 71.3492 55.7993 71.3524C54.7881 71.3395 54.7881 71.3395 54.2763 70.8845C54.0624 70.4687 54.0624 70.4687 54.0721 69.9707C54.2186 69.5312 54.2186 69.5312 54.6874 69.2187C55.0166 69.1811 55.0166 69.1811 55.4004 69.1832C55.5462 69.1833 55.6921 69.1833 55.8424 69.1833C55.9952 69.1849 56.148 69.1865 56.3054 69.1882C56.4462 69.1885 56.587 69.1888 56.7321 69.1891C57.2582 69.1908 57.7843 69.1951 58.3104 69.1992C59.4867 69.2056 60.6629 69.2121 61.8749 69.2187C61.8749 64.6296 61.8749 60.0406 61.8749 55.3125C61.7202 55.364 61.5655 55.4156 61.4061 55.4687C58.2826 55.8698 55.3828 55.3616 52.8124 53.4375C50.7989 51.8251 49.5377 49.9544 48.4178 47.6464C48.3419 47.4902 48.2659 47.3339 48.1877 47.173C48.1182 47.0245 48.0487 46.876 47.9771 46.723C47.8841 46.5242 47.8841 46.5242 47.7891 46.3213C47.6428 45.899 47.6011 45.5996 47.6561 45.1562C49.1757 43.8219 52.0277 44.2947 53.9061 44.375C56.907 44.6358 59.4721 46.0157 61.5624 48.125C61.6139 48.2281 61.6655 48.3312 61.7186 48.4375C61.7702 46.7875 61.8217 45.1375 61.8749 43.4375C61.4108 43.2828 60.9467 43.1281 60.4686 42.9687C59.4081 42.2677 58.8353 41.3626 58.4374 40.1562C58.2459 38.832 58.3514 37.5597 59.0624 36.4062C60.5084 34.526 62.9863 33.7832 65.1683 34.9603ZM61.0936 37.1875C60.5183 38.0026 60.3574 38.7023 60.4686 39.6875C60.7865 40.5139 61.1803 41.0634 61.9823 41.455C62.8852 41.6424 63.6136 41.5579 64.4334 41.1328C65.1251 40.5399 65.3951 40.0002 65.4784 39.0808C65.454 38.2559 65.1357 37.6596 64.6092 37.041C63.9353 36.485 63.2978 36.5081 62.4571 36.5203C61.8387 36.5815 61.5372 36.7547 61.0936 37.1875ZM50.1561 46.4062C50.7699 47.7177 51.3886 48.8982 52.3436 50C52.4399 50.1186 52.5362 50.2372 52.6353 50.3595C54.0922 52.1 56.0368 53.2135 58.2909 53.5607C59.454 53.6443 60.6471 53.6145 61.7186 53.125C61.4545 51.0961 60.1707 49.4768 58.6034 48.2324C55.992 46.4218 53.2355 46.3001 50.1561 46.4062ZM65.7811 58.75C64.9644 59.804 64.4572 60.9195 64.0624 62.1875C65.3222 62.8874 66.9762 62.8203 68.3568 62.5494C71.0245 61.7804 73.0769 60.1802 74.5311 57.8125C74.9243 57.0972 75.2795 56.3643 75.6249 55.625C72.2179 54.6061 68.1069 56.2678 65.7811 58.75Z" fill="#0D9488"/>
<path d="M12.4998 42.6563C12.9203 43.0885 13.027 43.3958 13.0249 43.9912C13.0256 44.1327 13.0262 44.2743 13.0269 44.4201C13.0252 44.5742 13.0235 44.7283 13.0218 44.887C13.0218 45.0502 13.0219 45.2133 13.022 45.3814C13.0217 45.9209 13.018 46.4602 13.0143 46.9996C13.0135 47.3735 13.0128 47.7475 13.0123 48.1214C13.0105 49.1058 13.0059 50.0901 13.0007 51.0744C12.9959 52.0788 12.9938 53.0832 12.9914 54.0876C12.9864 56.0585 12.9782 58.0293 12.9686 60.0001C13.9998 60.0001 15.0311 60.0001 16.0936 60.0001C16.0903 59.6807 16.087 59.3613 16.0836 59.0322C16.0733 57.9776 16.0664 56.923 16.0612 55.8684C16.0579 55.2289 16.0535 54.5894 16.0464 53.9499C16.0396 53.333 16.0359 52.716 16.0343 52.099C16.0331 51.8634 16.0308 51.6279 16.0275 51.3924C16.0229 51.0627 16.0223 50.7333 16.0226 50.4036C16.0212 50.2159 16.0198 50.0282 16.0184 49.8348C16.0936 49.3751 16.0936 49.3751 16.3806 49.0758C16.8672 48.8318 17.1448 48.8994 17.6561 49.0626C18.0219 49.426 18.1189 49.6383 18.1812 50.1542C18.1801 50.3361 18.1791 50.5179 18.178 50.7052C18.1781 50.8562 18.1781 50.8562 18.1782 51.0103C18.1779 51.3417 18.1743 51.6731 18.1706 52.0045C18.1697 52.2348 18.169 52.4651 18.1686 52.6954C18.1668 53.3006 18.1622 53.9058 18.157 54.511C18.1522 55.1289 18.1501 55.7469 18.1477 56.3648C18.1427 57.5766 18.1344 58.7883 18.1248 60.0001C19.2592 60.0001 20.3936 60.0001 21.5623 60.0001C21.5574 59.4074 21.5574 59.4074 21.5524 58.8027C21.542 57.4986 21.5351 56.1946 21.5299 54.8905C21.5267 54.0997 21.5222 53.3089 21.5152 52.5181C21.5084 51.7552 21.5046 50.9923 21.503 50.2294C21.5019 49.9381 21.4996 49.6467 21.4962 49.3553C21.4917 48.9479 21.4911 48.5406 21.4914 48.1331C21.4891 48.0121 21.4869 47.891 21.4845 47.7663C21.4885 47.2494 21.4914 46.9542 21.8438 46.5609C22.3661 46.3259 22.7377 46.4217 23.2811 46.5626C23.6708 47.1473 23.6354 47.5987 23.629 48.275C23.6291 48.4016 23.6291 48.5282 23.6292 48.6586C23.629 49.0771 23.6265 49.4955 23.6241 49.914C23.6235 50.2041 23.623 50.4942 23.6227 50.7843C23.6215 51.548 23.6185 52.3117 23.615 53.0753C23.6118 53.8546 23.6104 54.6338 23.6088 55.413C23.6055 56.942 23.6 58.4711 23.5936 60.0001C24.7279 60.0001 25.8623 60.0001 27.0311 60.0001C27.0256 59.5449 27.0202 59.0897 27.0146 58.6207C27.0109 58.1796 27.0081 57.7385 27.0053 57.2974C27.003 56.9909 26.9998 56.6845 26.9957 56.378C26.99 55.9374 26.9874 55.4969 26.9853 55.0562C26.9829 54.9193 26.9804 54.7824 26.978 54.6414C26.9777 53.6916 26.9777 53.6916 27.249 53.1944C27.5626 52.9123 27.7174 52.8931 28.1346 52.9102C28.7498 52.9688 28.7498 52.9688 29.0623 53.2813C29.0999 53.574 29.0999 53.574 29.0978 53.9336C29.0978 54.0681 29.0977 54.2026 29.0977 54.3411C29.0961 54.4865 29.0945 54.6318 29.0928 54.7816C29.0924 54.9303 29.0919 55.079 29.0915 55.2321C29.0897 55.7082 29.0858 56.1842 29.0818 56.6602C29.0803 56.9825 29.0788 57.3048 29.0776 57.627C29.0741 58.4181 29.0687 59.2091 29.0623 60.0001C29.2381 59.9976 29.4139 59.9952 29.595 59.9926C30.2487 59.9841 30.9024 59.9788 31.5562 59.9743C31.8388 59.972 32.1215 59.9688 32.4041 59.9647C32.811 59.959 33.2178 59.9564 33.6247 59.9543C33.8134 59.9507 33.8134 59.9507 34.006 59.947C34.7254 59.9468 35.199 59.9974 35.7811 60.4688C35.9373 60.8399 35.9373 60.8399 35.9373 61.2501C35.7634 61.6603 35.7634 61.6603 35.4686 62.0313C35.0364 62.1288 35.0364 62.1288 34.5018 62.1284C34.2994 62.1302 34.097 62.1319 33.8884 62.1337C33.6636 62.1317 33.4387 62.1296 33.2139 62.1275C32.9775 62.128 32.7412 62.1289 32.5048 62.1301C31.8623 62.1323 31.22 62.1297 30.5775 62.126C29.9059 62.1229 29.2342 62.1238 28.5625 62.1241C27.4344 62.1241 26.3064 62.121 25.1783 62.116C23.8733 62.1103 22.5684 62.1089 21.2634 62.11C20.0091 62.111 18.7547 62.1093 17.5004 62.1062C16.9661 62.105 16.4319 62.1045 15.8976 62.1048C15.2686 62.1049 14.6397 62.1027 14.0108 62.0986C13.7797 62.0975 13.5486 62.0972 13.3175 62.0977C13.0026 62.0983 12.6877 62.0957 12.3728 62.093C12.1964 62.0924 12.02 62.0918 11.8382 62.0912C11.4061 62.0313 11.4061 62.0313 11.115 61.8402C10.8822 61.4765 10.8783 61.2405 10.8778 60.8094C10.8765 60.6543 10.8751 60.4992 10.8738 60.3394C10.8747 60.1694 10.8757 59.9994 10.8767 59.8243C10.8758 59.6452 10.875 59.466 10.8742 59.2814C10.8721 58.6876 10.8735 58.0939 10.8751 57.5001C10.8747 57.0885 10.8743 56.6769 10.8737 56.2653C10.8728 55.4021 10.874 54.5389 10.8762 53.6756C10.8787 52.6774 10.8779 51.6792 10.8753 50.6809C10.873 49.7209 10.8732 48.7609 10.8746 47.8009C10.8749 47.3922 10.8745 46.9836 10.8734 46.5749C10.8722 46.0043 10.874 45.4339 10.8767 44.8634C10.8757 44.6934 10.8748 44.5234 10.8738 44.3483C10.8751 44.1932 10.8764 44.0381 10.8778 43.8783C10.878 43.7433 10.8781 43.6084 10.8783 43.4694C11.0335 42.5636 11.6995 42.5563 12.4998 42.6563Z" fill="#0D9488"/>
<path d="M23.5157 22.0411C24.4403 22.3878 24.8276 23.2706 25.2735 24.0919C25.3415 24.216 25.4094 24.3402 25.4793 24.4681C27.6173 28.4191 29.513 32.9349 28.4376 37.5001C27.9532 39.1114 27.1428 40.3965 25.6642 41.2501C24.5041 41.851 23.1685 41.9182 21.902 41.612C20.3498 41.0383 19.465 40.0669 18.7501 38.5939C17.5731 36.0176 17.9685 32.9502 18.7501 30.3126C18.7811 30.2059 18.8121 30.0992 18.844 29.9892C19.3641 28.251 21.3487 21.9869 23.5157 22.0411ZM23.2814 25.1564C21.3054 28.7068 19.4712 32.6504 20.2644 36.8177C20.6175 37.9968 21.1445 38.8232 22.1583 39.5216C22.9957 39.8007 23.7232 39.8007 24.5606 39.5216C25.638 38.7794 26.2007 37.8099 26.5626 36.5626C27.2521 32.7855 25.5918 28.5396 23.6085 25.3828C23.5521 25.3081 23.4957 25.2333 23.4376 25.1564C23.386 25.1564 23.3345 25.1564 23.2814 25.1564Z" fill="#0D9488"/>
<path d="M19.5175 69.1936C19.7038 69.1921 19.89 69.1906 20.0819 69.189C20.3832 69.188 20.3832 69.188 20.6905 69.187C20.7933 69.1866 20.8962 69.1861 21.0021 69.1857C21.5468 69.1833 22.0914 69.1819 22.6361 69.1812C23.1954 69.1803 23.7546 69.1766 24.3139 69.1721C24.7468 69.1692 25.1796 69.1684 25.6125 69.1682C25.9179 69.1675 26.2233 69.1646 26.5287 69.1616C27.7428 69.1646 28.9194 69.1899 29.8971 69.9847C29.9794 70.0897 30.0618 70.1946 30.1467 70.3027C30.2319 70.4073 30.3171 70.5118 30.4049 70.6195C31.0526 71.5543 31.1752 72.4832 31.0061 73.5937C30.7579 74.6619 30.2597 75.3538 29.3454 75.9501C28.3697 76.4247 27.3155 76.3368 26.2545 76.3275C26.0277 76.3275 25.8009 76.3278 25.5741 76.3282C25.1006 76.3284 24.6272 76.3265 24.1538 76.3229C23.5492 76.3184 22.9448 76.3189 22.3403 76.3209C21.8726 76.322 21.4049 76.3207 20.9372 76.3188C20.7144 76.3181 20.4916 76.318 20.2687 76.3187C17.8523 76.3222 17.8523 76.3222 16.7678 75.4394C15.9414 74.4344 15.6819 73.6303 15.7314 72.3175C15.8474 71.2922 16.3097 70.5823 17.0315 69.8437C17.8731 69.3456 18.5499 69.1999 19.5175 69.1936ZM18.1252 71.7187C17.7397 72.2971 17.7647 72.5972 17.8127 73.2812C17.9983 73.8094 18.1093 73.8956 18.594 74.2187C19.0211 74.2695 19.0211 74.2695 19.5097 74.2666C19.698 74.2691 19.8863 74.2716 20.0802 74.2742C20.2838 74.275 20.4875 74.2759 20.6972 74.2767C20.9084 74.2781 21.1195 74.2795 21.3307 74.281C21.7733 74.2836 22.216 74.2848 22.6586 74.2852C23.2249 74.2861 23.791 74.292 24.3572 74.2991C24.7934 74.3037 25.2295 74.3049 25.6657 74.305C25.9757 74.306 26.2856 74.3106 26.5955 74.3153C27.7059 74.3549 27.7059 74.3549 28.6401 73.852C28.9499 73.3699 29.0627 73.0742 29.0627 72.5C28.7859 71.8388 28.4436 71.5676 27.8127 71.25C27.3806 71.1799 27.3806 71.1799 26.9189 71.1893C26.7431 71.1879 26.5674 71.1864 26.3863 71.1849C26.1038 71.1863 26.1038 71.1863 25.8156 71.1877C25.6209 71.1873 25.4262 71.1868 25.2256 71.1864C24.709 71.186 24.1925 71.1879 23.676 71.1905C23.3599 71.1914 23.0438 71.1905 22.7276 71.1889C22.1196 71.186 21.5116 71.1863 20.9035 71.1877C20.7152 71.1868 20.5269 71.1858 20.3328 71.1849C20.1571 71.1863 19.9814 71.1878 19.8003 71.1893C19.5691 71.1899 19.5691 71.1899 19.3333 71.1905C18.8261 71.2612 18.5363 71.4172 18.1252 71.7187Z" fill="#0D9488"/>
<path d="M11.9335 4.32615C12.7397 5.03637 13.2605 5.63933 13.4374 6.71873C13.467 7.87915 13.2814 8.80394 12.4999 9.68748C11.4487 10.5075 10.5183 10.5873 9.21869 10.4687C8.38881 10.2228 7.79329 9.81182 7.34369 9.06248C6.77935 7.87737 6.78006 6.81923 7.20697 5.58592C7.71216 4.84497 8.28042 4.35729 9.1015 3.99412C10.1021 3.84403 11.0194 3.86911 11.9335 4.32615ZM9.40424 6.18162C8.99046 6.64269 8.90619 6.88286 8.90619 7.49998C9.17704 8.08255 9.17704 8.08255 9.68744 8.43748C10.188 8.48101 10.5266 8.48265 10.9863 8.27147C11.3827 7.81627 11.4062 7.47089 11.4062 6.87498C11.1085 6.32725 10.9087 6.13984 10.3222 5.92772C9.82965 5.90045 9.82965 5.90045 9.40424 6.18162Z" fill="#0D9488"/>
<path d="M18.1256 6.18683C18.3166 6.18522 18.3166 6.18522 18.5115 6.18358C18.9328 6.18072 19.354 6.18133 19.7754 6.18221C20.0679 6.1815 20.3603 6.18067 20.6528 6.17973C21.266 6.17833 21.8791 6.17872 22.4922 6.18027C23.2788 6.18206 24.0653 6.1789 24.8519 6.17434C25.4559 6.17148 26.0599 6.17152 26.6639 6.17241C26.954 6.17244 27.244 6.17149 27.5341 6.16955C27.9392 6.16723 28.3442 6.16888 28.7494 6.17157C28.9298 6.1693 28.9298 6.1693 29.114 6.16699C29.6327 6.17421 29.9227 6.17896 30.3131 6.53745C30.5377 7.02459 30.4736 7.30769 30.3125 7.81246C29.9266 8.22044 29.7008 8.27977 29.1361 8.34074C28.9123 8.34351 28.6885 8.34371 28.4647 8.34187C28.2809 8.3431 28.2809 8.3431 28.0934 8.34435C27.6888 8.34642 27.2844 8.34505 26.8799 8.34347C26.5985 8.34378 26.3172 8.34424 26.0358 8.34483C25.4463 8.34552 24.8568 8.34451 24.2673 8.34232C23.5118 8.33965 22.7563 8.34119 22.0007 8.344C21.4198 8.34569 20.8388 8.34515 20.2579 8.34394C19.9793 8.34363 19.7007 8.34401 19.4221 8.3451C19.0327 8.34629 18.6435 8.34448 18.2541 8.34187C18.139 8.34281 18.0239 8.34376 17.9053 8.34474C17.4218 8.33874 17.0771 8.30552 16.6466 8.07723C16.4062 7.81246 16.4062 7.81246 16.3379 7.26559C16.4062 6.71871 16.4062 6.71871 16.5667 6.4541C17.0519 6.13282 17.5627 6.18354 18.1256 6.18683Z" fill="#0D9488"/>
</g>
<defs>
<clipPath id="clip0_544_879">
<rect width="80" height="80" fill="white"/>
</clipPath>
</defs>
</svg>
