<svg width="108" height="117" viewBox="0 0 108 117" fill="none" xmlns="http://www.w3.org/2000/svg">
<g filter="url(#filter0_dddd_277_12)">
<rect x="6" y="4" width="56" height="51" rx="7" fill="white"/>
<rect x="6.5" y="4.5" width="55" height="50" rx="6.5" stroke="#E012C4"/>
<path d="M21.106 15.2138C21.1834 15.2338 21.2608 15.2537 21.3382 15.2735C21.5415 15.3258 21.7444 15.379 21.9473 15.4325C22.1473 15.485 22.3475 15.5366 22.5476 15.5883C22.8661 15.6706 23.1843 15.7535 23.5025 15.8368C23.8321 15.9232 24.162 16.0082 24.4922 16.0923C24.5751 16.1135 24.6581 16.1347 24.7411 16.1559C24.8597 16.1862 24.9783 16.2164 25.097 16.2464C27.0773 16.7468 28.3123 17.8776 29.7223 19.2918C29.8292 19.3988 29.936 19.5058 30.0429 19.6127C30.2941 19.8641 30.5452 20.1156 30.7962 20.3672C31.0823 20.654 31.3686 20.9406 31.6549 21.2272C32.243 21.8159 32.8309 22.4049 33.4187 22.994C33.8136 22.6706 34.1676 22.309 34.5259 21.9465C34.5958 21.876 34.6657 21.8055 34.7356 21.735C34.8857 21.5839 35.0356 21.4326 35.1855 21.2813C35.4229 21.0416 35.6608 20.8024 35.8987 20.5632C35.939 20.5227 35.9792 20.4822 36.0207 20.4405C36.103 20.3578 36.1853 20.2751 36.2676 20.1923C36.821 19.636 37.3742 19.0794 37.9262 18.5218C38.2993 18.1449 38.6731 17.7686 39.0475 17.3931C39.2453 17.1947 39.4427 16.996 39.6394 16.7965C39.8245 16.6088 40.0105 16.4219 40.197 16.2356C40.265 16.1674 40.3327 16.099 40.4 16.0302C40.9515 15.4673 41.5194 15.0277 42.3363 15.0081C43.1789 15.001 43.8042 15.2273 44.4256 15.8141C44.5016 15.8889 44.5772 15.9642 44.6523 16.0398C44.6941 16.0812 44.7359 16.1226 44.779 16.1653C44.9156 16.3009 45.0516 16.4371 45.1876 16.5734C45.2832 16.6687 45.3788 16.764 45.4744 16.8593C45.6742 17.0586 45.8737 17.2582 46.073 17.458C46.3274 17.7131 46.5827 17.9673 46.8384 18.2212C47.0359 18.4176 47.2328 18.6146 47.4296 18.8118C47.5235 18.9057 47.6176 18.9994 47.7119 19.0929C47.8439 19.2241 47.9752 19.356 48.1063 19.4881C48.1448 19.526 48.1832 19.5639 48.2229 19.6029C48.8296 20.2193 49.0936 20.8666 49.088 21.7202C49.0564 22.7187 48.4286 23.2947 47.7597 23.9593C47.6869 24.0321 47.6141 24.1049 47.5413 24.1777C47.3448 24.3743 47.1478 24.5705 46.9509 24.7667C46.7447 24.9721 46.5388 25.1779 46.3329 25.3837C45.9435 25.7728 45.5537 26.1616 45.1638 26.5503C44.7198 26.993 44.2761 27.4361 43.8324 27.8792C42.9201 28.7902 42.0075 29.7008 41.0945 30.6112C41.402 30.9848 41.7417 31.3228 42.0854 31.6627C42.1498 31.7266 42.2143 31.7906 42.2787 31.8545C42.4168 31.9917 42.555 32.1288 42.6933 32.2658C42.9126 32.4831 43.1315 32.7008 43.3503 32.9186C43.4059 32.9739 43.4059 32.9739 43.4626 33.0303C43.5383 33.1057 43.6141 33.1811 43.6899 33.2565C44.1987 33.7629 44.7079 34.269 45.2179 34.7742C45.5626 35.1158 45.9069 35.4579 46.2505 35.8006C46.432 35.9815 46.6136 36.1621 46.7959 36.342C46.9678 36.5116 47.1389 36.6819 47.3095 36.8526C47.3716 36.9146 47.434 36.9764 47.4967 37.0378C48.495 38.0173 49.0744 39.1531 49.0889 40.5648C49.0806 41.8625 48.6054 42.9301 47.711 43.8632C46.7514 44.7819 45.5432 45.0658 44.2563 45.0431C43.6334 45.0194 43.0999 44.8398 42.541 44.5711C42.5046 44.5536 42.4681 44.5362 42.4306 44.5181C41.8015 44.194 41.3075 43.673 40.8142 43.1762C40.7472 43.1091 40.6801 43.0421 40.6131 42.9751C40.4327 42.7948 40.2527 42.6141 40.0728 42.4333C39.884 42.2439 39.695 42.0548 39.506 41.8656C39.1488 41.5081 38.792 41.1503 38.4353 40.7924C38.0288 40.3846 37.622 39.9772 37.2152 39.5698C36.379 38.7324 35.5433 37.8946 34.7078 37.0565C34.3129 37.3799 33.9589 37.7415 33.6006 38.104C33.5307 38.1745 33.4608 38.2449 33.3909 38.3154C33.2409 38.4666 33.0909 38.6179 32.941 38.7692C32.7036 39.0088 32.4658 39.2481 32.2278 39.4873C32.1876 39.5277 32.1473 39.5682 32.1058 39.6099C32.0235 39.6927 31.9412 39.7754 31.8589 39.8581C31.3055 40.4144 30.7523 40.971 30.2003 41.5287C29.8272 41.9056 29.4535 42.2818 29.079 42.6574C28.8812 42.8558 28.6838 43.0545 28.4871 43.2539C28.302 43.4417 28.116 43.6286 27.9295 43.8149C27.8615 43.883 27.7939 43.9515 27.7265 44.0202C27.175 44.5832 26.6071 45.0227 25.7902 45.0424C24.9476 45.0495 24.3223 44.8231 23.7009 44.2363C23.6249 44.1616 23.5494 44.0863 23.4742 44.0106C23.4324 43.9692 23.3906 43.9278 23.3475 43.8852C23.2109 43.7496 23.0749 43.6134 22.9389 43.4771C22.8433 43.3817 22.7477 43.2864 22.6521 43.1911C22.4523 42.9919 22.2528 42.7923 22.0536 42.5924C21.7991 42.3373 21.5438 42.0832 21.2882 41.8293C21.0906 41.6328 20.8937 41.4358 20.6969 41.2387C20.603 41.1448 20.5089 41.0511 20.4146 40.9576C20.2826 40.8264 20.1513 40.6944 20.0202 40.5623C19.9817 40.5244 19.9433 40.4865 19.9036 40.4475C19.4179 39.9541 19.0462 39.3489 19.0358 38.6443C19.0364 38.5977 19.037 38.551 19.0376 38.503C19.0381 38.4542 19.0385 38.4053 19.039 38.355C19.066 37.3412 19.6872 36.7665 20.3668 36.0912C20.4396 36.0184 20.5124 35.9456 20.5852 35.8727C20.7817 35.6762 20.9787 35.4799 21.1756 35.2838C21.3818 35.0783 21.5877 34.8725 21.7936 34.6668C22.183 34.2777 22.5728 33.8889 22.9627 33.5002C23.4067 33.0574 23.8504 32.6144 24.2941 32.1713C25.2064 31.2602 26.1191 30.3496 27.032 29.4393C26.7705 29.1257 26.4937 28.8352 26.2034 28.5482C26.1568 28.502 26.1103 28.4557 26.0623 28.408C25.9618 28.3081 25.8612 28.2082 25.7605 28.1084C25.6007 27.9498 25.441 27.791 25.2815 27.6321C24.828 27.1806 24.3742 26.7293 23.9199 26.2786C23.6413 26.0023 23.3633 25.7256 23.0855 25.4486C22.9802 25.3437 22.8747 25.239 22.769 25.1345C21.3833 23.7635 21.3833 23.7635 20.9529 22.9244C20.9333 22.8892 20.9138 22.8539 20.8936 22.8176C20.4644 22.0005 20.2616 21.049 20.036 20.16C20.0076 20.0489 19.9792 19.9378 19.9508 19.8267C19.8919 19.596 19.8334 19.3653 19.775 19.1345C19.7006 18.8403 19.6251 18.5465 19.5493 18.2528C19.4905 18.0243 19.4325 17.7956 19.3746 17.5669C19.3471 17.4585 19.3193 17.3501 19.2912 17.2419C18.928 15.8382 18.928 15.8382 19.1621 15.3438C19.6947 14.7825 20.4416 15.0367 21.106 15.2138ZM40.9498 18.0922C40.8634 18.1785 40.777 18.2649 40.6905 18.3512C40.4538 18.5877 40.2171 18.8244 39.9806 19.0612C39.7252 19.3167 39.4696 19.5721 39.2141 19.8275C38.7427 20.2985 38.2715 20.7698 37.8004 21.2411C37.3653 21.6763 36.9302 22.1114 36.4951 22.5465C36.4662 22.5754 36.4373 22.6042 36.4076 22.634C36.2903 22.7512 36.1731 22.8684 36.0559 22.9856C34.9569 24.0844 33.8581 25.1834 32.7593 26.2825C31.7827 27.2594 30.8059 28.2361 29.829 29.2128C28.7314 30.3101 27.6339 31.4074 26.5366 32.505C26.4197 32.6219 26.3028 32.7388 26.1859 32.8557C26.1571 32.8844 26.1284 32.9132 26.0987 32.9429C25.6636 33.3781 25.2284 33.8132 24.7932 34.2482C24.2987 34.7425 23.8044 35.2369 23.3102 35.7314C23.0578 35.9839 22.8054 36.2364 22.5529 36.4887C22.3221 36.7193 22.0915 36.9501 21.8609 37.181C21.7771 37.2648 21.6933 37.3486 21.6095 37.4323C21.4962 37.5454 21.383 37.6588 21.2699 37.7721C21.2367 37.8052 21.2036 37.8382 21.1694 37.8722C20.9727 38.0699 20.889 38.161 20.8504 38.4408C20.853 38.6629 20.9113 38.7597 21.0609 38.9214C21.0983 38.9621 21.1357 39.0028 21.1742 39.0447C21.3476 39.2265 21.5223 39.4065 21.7003 39.5839C21.7584 39.6421 21.7584 39.6421 21.8176 39.7016C21.9441 39.8282 22.0707 39.9547 22.1973 40.0811C22.2858 40.1697 22.3743 40.2582 22.4627 40.3467C22.6473 40.5313 22.8319 40.7159 23.0166 40.9003C23.2537 41.1371 23.4906 41.3741 23.7273 41.6112C23.9095 41.7936 24.0919 41.9759 24.2743 42.1581C24.3617 42.2455 24.4491 42.333 24.5364 42.4205C24.658 42.5422 24.7798 42.6638 24.9016 42.7853C24.9378 42.8216 24.974 42.8579 25.0113 42.8953C25.2652 43.1491 25.2652 43.1491 25.6038 43.2381C25.9378 43.2333 26.1074 43.0265 26.3289 42.7987C26.373 42.7552 26.4171 42.7118 26.4625 42.6671C26.5753 42.5557 26.6869 42.4433 26.7976 42.3299C26.7073 42.1123 26.5751 41.9799 26.406 41.8179C26.3517 41.765 26.2973 41.7121 26.2413 41.6576C26.1553 41.5744 26.0691 41.4915 25.9825 41.4088C25.3065 40.7616 25.3065 40.7616 25.2522 40.2462C25.2841 39.9542 25.3764 39.7757 25.5708 39.5577C25.8139 39.418 26.0494 39.369 26.3289 39.4002C26.8102 39.5733 27.1242 39.9345 27.4715 40.2938C27.5314 40.3549 27.5913 40.4159 27.6514 40.4769C27.7971 40.6252 27.9421 40.7742 28.0867 40.9237C28.2957 40.835 28.4287 40.7124 28.5875 40.5515C28.637 40.5016 28.6864 40.4518 28.7374 40.4004C28.7885 40.3483 28.8397 40.2962 28.8924 40.2425C28.9444 40.1899 28.9964 40.1374 29.0501 40.0832C29.1784 39.9535 29.3065 39.8235 29.4343 39.6932C29.1558 39.3566 28.8546 39.0516 28.5419 38.7468C28.437 38.6435 28.3322 38.5401 28.2273 38.4367C28.0634 38.2753 27.8992 38.1141 27.7343 37.9535C27.5744 37.7974 27.4154 37.6405 27.2565 37.4833C27.2073 37.4358 27.158 37.3882 27.1073 37.3392C26.8154 37.0487 26.5709 36.7828 26.5603 36.3483C26.5812 36.0978 26.6373 35.9023 26.7976 35.7088C27.0527 35.5284 27.2826 35.5112 27.585 35.504C28.0421 35.5925 28.3729 36.0387 28.685 36.3543C28.7423 36.4118 28.7996 36.4692 28.8569 36.5267C29.0068 36.6771 29.1564 36.8278 29.306 36.9786C29.4589 37.1328 29.6123 37.2867 29.7655 37.4405C30.0656 37.7419 30.3653 38.0436 30.6648 38.3455C30.8713 38.2484 31.0046 38.1366 31.1656 37.9734C31.2151 37.9235 31.2646 37.8737 31.3155 37.8223C31.3667 37.7702 31.4178 37.7181 31.4705 37.6644C31.5225 37.6118 31.5746 37.5592 31.6282 37.5051C31.7565 37.3753 31.8846 37.2453 32.0125 37.1151C31.9205 36.8908 31.779 36.7534 31.606 36.5861C31.5481 36.5295 31.4903 36.4728 31.4325 36.4162C31.3416 36.3278 31.2506 36.2396 31.1594 36.1516C31.071 36.0661 30.9833 35.9801 30.8955 35.894C30.8429 35.843 30.7902 35.792 30.736 35.7395C30.5189 35.4922 30.4641 35.2758 30.4746 34.9464C30.5077 34.6788 30.6196 34.5213 30.8113 34.3392C31.0924 34.2087 31.356 34.1857 31.6609 34.244C31.9158 34.3974 32.1201 34.5721 32.3288 34.7832C32.3569 34.8115 32.385 34.8398 32.414 34.8689C32.5026 34.9582 32.5908 35.0478 32.679 35.1375C32.7394 35.1986 32.8 35.2596 32.8605 35.3206C33.0078 35.4693 33.1548 35.6182 33.3015 35.7674C33.6093 35.5105 33.8952 35.2396 34.1768 34.9544C34.2168 34.9141 34.2569 34.8738 34.2982 34.8322C34.3958 34.7339 34.4933 34.6355 34.5906 34.5369C34.5044 34.3368 34.3932 34.2092 34.2379 34.0575C34.1652 33.9859 34.1652 33.9859 34.0909 33.9128C34.0384 33.8617 33.986 33.8105 33.9319 33.7578C33.8495 33.6766 33.7671 33.5953 33.6848 33.514C33.4821 33.314 33.2788 33.1146 33.0751 32.9155C32.9609 32.8038 32.8469 32.6917 32.7332 32.5793C32.6264 32.4737 32.5191 32.3685 32.4112 32.2639C32.0796 31.935 31.8171 31.6457 31.7488 31.1678C31.786 30.9075 31.8519 30.7042 32.0125 30.494C32.2875 30.3247 32.5715 30.2545 32.8914 30.3182C33.3187 30.5081 33.635 30.8634 33.9571 31.1909C34.0128 31.247 34.0687 31.3031 34.1245 31.3591C34.2702 31.5054 34.4153 31.6523 34.5603 31.7992C34.7088 31.9496 34.8579 32.0995 35.0069 32.2494C35.2983 32.5427 35.5892 32.8365 35.8797 33.1307C36.0803 33.0359 36.2111 32.9301 36.3676 32.7713C36.4145 32.7241 36.4613 32.6769 36.5095 32.6283C36.5579 32.579 36.6062 32.5297 36.656 32.4788C36.7299 32.4042 36.7299 32.4042 36.8053 32.328C36.9267 32.2052 37.0478 32.0821 37.1687 31.9588C37.0784 31.7412 36.9462 31.6088 36.7771 31.4468C36.6956 31.3674 36.6956 31.3674 36.6124 31.2865C36.5264 31.2033 36.4402 31.1204 36.3536 31.0378C35.6776 30.3905 35.6776 30.3905 35.6233 29.8751C35.6552 29.5831 35.7475 29.4046 35.9419 29.1866C36.185 29.0469 36.4205 28.9979 36.7 29.0291C37.1813 29.2023 37.4953 29.5634 37.8426 29.9227C37.9025 29.9838 37.9624 30.0448 38.0225 30.1058C38.1682 30.2541 38.3132 30.4031 38.4578 30.5526C38.6668 30.4639 38.7998 30.3413 38.9586 30.1804C39.0081 30.1306 39.0575 30.0807 39.1085 30.0293C39.1596 29.9772 39.2108 29.9251 39.2634 29.8714C39.3155 29.8188 39.3675 29.7663 39.4211 29.7121C39.5495 29.5824 39.6776 29.4524 39.8054 29.3221C39.5269 28.9855 39.2257 28.6806 38.913 28.3757C38.8081 28.2724 38.7033 28.169 38.5984 28.0657C38.4344 27.9042 38.2703 27.743 38.1054 27.5824C37.9455 27.4263 37.7865 27.2694 37.6276 27.1122C37.5784 27.0647 37.5291 27.0171 37.4784 26.9681C37.1865 26.6776 36.942 26.4117 36.9314 25.9772C36.9523 25.7267 37.0084 25.5312 37.1687 25.3377C37.4238 25.1573 37.6537 25.1401 37.9561 25.1329C38.4131 25.2214 38.744 25.6676 39.0561 25.9832C39.1134 26.0407 39.1707 26.0981 39.228 26.1556C39.3779 26.306 39.5275 26.4567 39.677 26.6075C39.83 26.7617 39.9833 26.9156 40.1366 27.0694C40.4367 27.3708 40.7364 27.6725 41.0359 27.9744C41.2424 27.8773 41.3757 27.7655 41.5367 27.6023C41.5862 27.5524 41.6356 27.5026 41.6866 27.4512C41.7378 27.3991 41.7889 27.347 41.8416 27.2933C41.8936 27.2407 41.9457 27.1882 41.9993 27.134C42.1276 27.0042 42.2557 26.8742 42.3836 26.744C42.2916 26.5197 42.1501 26.3823 41.9771 26.215C41.9192 26.1584 41.8614 26.1017 41.8036 26.0451C41.7127 25.9567 41.6217 25.8685 41.5305 25.7805C41.4421 25.695 41.3544 25.609 41.2666 25.5229C41.214 25.4719 41.1613 25.4209 41.1071 25.3684C40.89 25.1211 40.8352 24.9047 40.8457 24.5753C40.8788 24.3077 40.9907 24.1502 41.1824 23.9681C41.4635 23.8376 41.7271 23.8146 42.032 23.8729C42.2869 24.0264 42.4912 24.201 42.6999 24.4121C42.7421 24.4545 42.7421 24.4545 42.7851 24.4978C42.8737 24.5871 42.9619 24.6768 43.0501 24.7664C43.1105 24.8275 43.171 24.8885 43.2316 24.9495C43.3789 25.0982 43.5259 25.2471 43.6726 25.3963C43.9803 25.1394 44.2663 24.8685 44.5479 24.5833C44.608 24.5228 44.608 24.5228 44.6693 24.4611C44.7669 24.3628 44.8644 24.2644 44.9617 24.1659C44.8755 23.9658 44.7643 23.8382 44.609 23.6864C44.5605 23.6387 44.512 23.5909 44.462 23.5417C44.4095 23.4906 44.357 23.4394 44.303 23.3867C44.2206 23.3055 44.1382 23.2242 44.0559 23.1429C43.8532 22.9429 43.6499 22.7435 43.4462 22.5445C43.3319 22.4327 43.218 22.3206 43.1043 22.2082C42.9975 22.1026 42.8902 21.9974 42.7823 21.8928C42.4507 21.5639 42.1882 21.2746 42.1199 20.7967C42.1571 20.5364 42.223 20.3331 42.3836 20.1229C42.6586 19.9536 42.9426 19.8834 43.2625 19.9471C43.6898 20.137 44.0061 20.4923 44.3281 20.8198C44.3839 20.8759 44.4397 20.932 44.4956 20.988C44.6413 21.1344 44.7864 21.2812 44.9314 21.4281C45.0799 21.5785 45.229 21.7284 45.378 21.8783C45.6694 22.1716 45.9603 22.4654 46.2508 22.7596C46.4125 22.6815 46.533 22.6092 46.6598 22.4813C46.6905 22.4505 46.7212 22.4196 46.7528 22.3879C46.7841 22.3559 46.8154 22.3238 46.8477 22.2909C46.8797 22.2588 46.9117 22.2268 46.9446 22.1938C47.1452 21.991 47.2368 21.8947 47.2761 21.6097C47.2735 21.3875 47.2152 21.2907 47.0656 21.1291C47.0282 21.0884 46.9908 21.0477 46.9523 21.0058C46.7789 20.824 46.6042 20.6439 46.4262 20.4666C46.3875 20.4277 46.3488 20.3889 46.3089 20.3489C46.1824 20.2222 46.0558 20.0957 45.9292 19.9693C45.8407 19.8808 45.7522 19.7923 45.6638 19.7037C45.4792 19.5191 45.2946 19.3346 45.1099 19.1501C44.8728 18.9134 44.6359 18.6764 44.3992 18.4392C44.217 18.2568 44.0346 18.0746 43.8523 17.8923C43.7648 17.8049 43.6774 17.7175 43.5901 17.63C43.4685 17.5082 43.3467 17.3867 43.2249 17.2652C43.1887 17.2289 43.1525 17.1926 43.1152 17.1552C42.8613 16.9014 42.8613 16.9014 42.5227 16.8123C41.9418 16.8266 41.34 17.7013 40.9498 18.0922ZM21.2312 17.1932C21.3512 17.9075 21.5307 18.6066 21.707 19.3086C21.7462 19.465 21.7848 19.6214 21.8229 19.778C22.2292 21.4529 22.2292 21.4529 23.1648 22.8768C23.2303 22.9526 23.2303 22.9526 23.2971 23.0299C23.5527 23.3223 23.8029 23.5577 24.1023 23.8143C25.3398 22.5768 26.5773 21.3393 27.8523 20.0643C26.6153 18.6211 25.2803 18.141 23.4854 17.6954C23.3054 17.6504 23.1256 17.6045 22.9459 17.5585C22.7305 17.5035 22.515 17.449 22.2994 17.3946C22.2587 17.3843 22.218 17.374 22.1761 17.3633C22.0613 17.3343 21.9463 17.3057 21.8314 17.2772C21.7336 17.2528 21.7336 17.2528 21.6339 17.2279C21.456 17.1853 21.456 17.1853 21.2312 17.1932ZM28.8339 21.5876C28.7998 21.6221 28.7658 21.6566 28.7306 21.6922C28.6946 21.7282 28.6586 21.7642 28.6215 21.8013C28.502 21.9209 28.3829 22.0409 28.2638 22.1608C28.1813 22.2436 28.0987 22.3264 28.0161 22.4091C27.7983 22.6273 27.5809 22.8459 27.3635 23.0645C27.1419 23.2874 26.9198 23.51 26.6978 23.7326C26.262 24.1696 25.8266 24.6071 25.3914 25.0448C25.4822 25.2616 25.6143 25.399 25.78 25.5639C25.8075 25.5914 25.8349 25.6188 25.8632 25.6471C25.9536 25.7375 26.0444 25.8274 26.1352 25.9173C26.1982 25.98 26.261 26.0427 26.3239 26.1054C26.4891 26.2702 26.6547 26.4346 26.8204 26.599C26.9895 26.7669 27.1582 26.9351 27.327 27.1033C27.6581 27.4331 27.9894 27.7625 28.3211 28.0916C28.5658 27.9957 28.7292 27.8164 28.9102 27.633C28.945 27.5982 28.9799 27.5633 29.0159 27.5273C29.1309 27.4122 29.2456 27.2967 29.3602 27.1811C29.44 27.1011 29.5198 27.0212 29.5996 26.9412C29.8095 26.7309 30.019 26.5203 30.2284 26.3095C30.4423 26.0945 30.6564 25.8798 30.8706 25.665C31.2906 25.2438 31.7102 24.8221 32.1297 24.4002C32.0389 24.1842 31.9076 24.0461 31.7428 23.8811C31.7156 23.8536 31.6883 23.8261 31.6602 23.7978C31.5704 23.7075 31.4802 23.6176 31.3899 23.5277C31.3273 23.465 31.2647 23.4023 31.2021 23.3396C31.0711 23.2084 30.9398 23.0774 30.8084 22.9465C30.6398 22.7785 30.4716 22.61 30.3036 22.4413C30.1746 22.3118 30.0452 22.1826 29.9158 22.0535C29.8537 21.9914 29.7916 21.9293 29.7296 21.8671C29.6432 21.7804 29.5565 21.694 29.4696 21.6078C29.4202 21.5586 29.3709 21.5093 29.32 21.4585C29.0946 21.261 29.0198 21.4027 28.8339 21.5876ZM39.4394 32.1931C39.4053 32.2276 39.3712 32.2621 39.3361 32.2977C39.3001 32.3337 39.264 32.3697 39.2269 32.4068C39.1074 32.5264 38.9884 32.6463 38.8693 32.7663C38.7867 32.8491 38.7042 32.9319 38.6215 33.0146C38.4038 33.2328 38.1864 33.4514 37.969 33.67C37.7473 33.8929 37.5253 34.1155 37.3033 34.338C36.8675 34.7751 36.4321 35.2126 35.9968 35.6502C36.0924 35.8926 36.2683 36.0545 36.4501 36.2339C36.4844 36.2683 36.5187 36.3026 36.554 36.3379C36.6672 36.4511 36.7809 36.5638 36.8945 36.6765C36.9732 36.755 37.0519 36.8335 37.1305 36.912C37.3373 37.1184 37.5445 37.3244 37.7518 37.5304C37.9633 37.7407 38.1745 37.9514 38.3857 38.162C38.8 38.5751 39.2147 38.9878 39.6297 39.4002C39.8974 39.1762 40.1524 38.9445 40.3983 38.6968C40.4316 38.6636 40.4648 38.6304 40.499 38.5962C40.6072 38.4879 40.7152 38.3794 40.8233 38.2709C40.8989 38.1952 40.9745 38.1195 41.0501 38.0438C41.248 37.8457 41.4457 37.6475 41.6434 37.4491C41.8456 37.2464 42.0479 37.0437 42.2502 36.8411C42.6464 36.4443 43.0424 36.0473 43.4383 35.6502C43.0986 35.2351 42.7174 34.8612 42.3387 34.4822C42.2659 34.4093 42.1931 34.3363 42.1204 34.2633C41.9686 34.1112 41.8167 33.9592 41.6647 33.8072C41.4696 33.6121 41.2749 33.4166 41.0803 33.221C40.9305 33.0706 40.7805 32.9204 40.6303 32.7703C40.5584 32.6983 40.4865 32.6262 40.4148 32.554C40.3149 32.4535 40.2147 32.3535 40.1144 32.2535C40.0847 32.2235 40.055 32.1934 40.0243 32.1625C39.7566 31.8971 39.7018 31.932 39.4394 32.1931ZM44.4199 37.1735C44.3858 37.2081 44.3517 37.2426 44.3166 37.2781C44.2805 37.3142 44.2445 37.3502 44.2074 37.3873C44.0879 37.5068 43.9689 37.6268 43.8498 37.7468C43.7672 37.8296 43.6846 37.9123 43.602 37.9951C43.3842 38.2133 43.1668 38.4318 42.9495 38.6505C42.7278 38.8734 42.5058 39.0959 42.2838 39.3185C41.848 39.7556 41.4125 40.193 40.9773 40.6307C41.0896 40.8751 41.2558 41.0443 41.4442 41.2324C41.4965 41.2851 41.4965 41.2851 41.5499 41.3388C41.6238 41.4131 41.6979 41.4872 41.7721 41.5612C41.884 41.6729 41.9951 41.7853 42.1062 41.8979C42.8242 42.6198 43.5243 43.2182 44.5845 43.2271C45.3394 43.2285 45.9012 42.9836 46.4668 42.4837C47.1014 41.7634 47.2966 41.1253 47.2573 40.1727C47.1726 39.1401 46.2101 38.3525 45.5244 37.667C45.4325 37.5749 45.341 37.4823 45.2495 37.3897C45.1909 37.331 45.1323 37.2722 45.0736 37.2135C45.0211 37.1608 44.9686 37.108 44.9146 37.0537C44.6828 36.8476 44.6143 36.9801 44.4199 37.1735Z" fill="#E012C4"/>
</g>
<defs>
<filter id="filter0_dddd_277_12" x="0" y="0" width="108" height="117" filterUnits="userSpaceOnUse" color-interpolation-filters="sRGB">
<feFlood flood-opacity="0" result="BackgroundImageFix"/>
<feColorMatrix in="SourceAlpha" type="matrix" values="0 0 0 0 0 0 0 0 0 0 0 0 0 0 0 0 0 0 127 0" result="hardAlpha"/>
<feOffset dx="2" dy="3"/>
<feGaussianBlur stdDeviation="3.5"/>
<feColorMatrix type="matrix" values="0 0 0 0 0 0 0 0 0 0 0 0 0 0 0 0 0 0 0.1 0"/>
<feBlend mode="normal" in2="BackgroundImageFix" result="effect1_dropShadow_277_12"/>
<feColorMatrix in="SourceAlpha" type="matrix" values="0 0 0 0 0 0 0 0 0 0 0 0 0 0 0 0 0 0 127 0" result="hardAlpha"/>
<feOffset dx="6" dy="11"/>
<feGaussianBlur stdDeviation="6"/>
<feColorMatrix type="matrix" values="0 0 0 0 0 0 0 0 0 0 0 0 0 0 0 0 0 0 0.09 0"/>
<feBlend mode="normal" in2="effect1_dropShadow_277_12" result="effect2_dropShadow_277_12"/>
<feColorMatrix in="SourceAlpha" type="matrix" values="0 0 0 0 0 0 0 0 0 0 0 0 0 0 0 0 0 0 127 0" result="hardAlpha"/>
<feOffset dx="15" dy="24"/>
<feGaussianBlur stdDeviation="8.5"/>
<feColorMatrix type="matrix" values="0 0 0 0 0 0 0 0 0 0 0 0 0 0 0 0 0 0 0.05 0"/>
<feBlend mode="normal" in2="effect2_dropShadow_277_12" result="effect3_dropShadow_277_12"/>
<feColorMatrix in="SourceAlpha" type="matrix" values="0 0 0 0 0 0 0 0 0 0 0 0 0 0 0 0 0 0 127 0" result="hardAlpha"/>
<feOffset dx="26" dy="42"/>
<feGaussianBlur stdDeviation="10"/>
<feColorMatrix type="matrix" values="0 0 0 0 0 0 0 0 0 0 0 0 0 0 0 0 0 0 0.01 0"/>
<feBlend mode="normal" in2="effect3_dropShadow_277_12" result="effect4_dropShadow_277_12"/>
<feBlend mode="normal" in="SourceGraphic" in2="effect4_dropShadow_277_12" result="shape"/>
</filter>
</defs>
</svg>
