<svg width="512" height="512" viewBox="0 0 512 512" fill="#fff" xmlns="http://www.w3.org/2000/svg">
<g clip-path="url(#clip0_79_9482)">
<path d="M198.001 31.0001C201.488 33.8444 204.916 36.7184 208.001 40.0001C208.001 40.6601 208.001 41.3201 208.001 42.0001C209.071 41.9868 210.14 41.9734 211.243 41.9597C221.35 41.8378 231.457 41.748 241.564 41.6892C246.76 41.658 251.956 41.6156 257.151 41.5475C262.17 41.482 267.188 41.4463 272.207 41.4308C274.117 41.4198 276.027 41.3982 277.937 41.3657C296.116 41.0688 296.116 41.0688 302.189 46.2041C302.787 46.7968 303.385 47.3894 304.001 48.0001C305 48.894 305 48.894 306.02 49.8059C308.134 51.7411 310.159 53.7417 312.176 55.7774C312.909 56.507 313.641 57.2366 314.396 57.9883C315.93 59.52 317.46 61.0555 318.986 62.5946C321.314 64.9384 323.657 67.2657 326.003 69.5919C327.499 71.0903 328.994 72.5896 330.489 74.0899C331.184 74.7787 331.879 75.4674 332.594 76.1771C339.382 83.0637 343.131 89.0353 343.114 98.95C343.114 99.6527 343.114 100.355 343.115 101.079C343.114 103.401 343.106 105.722 343.098 108.043C343.096 109.653 343.095 111.263 343.094 112.873C343.09 117.11 343.08 121.346 343.069 125.583C343.059 129.906 343.054 134.229 343.049 138.553C343.039 147.035 343.022 155.518 343.001 164C344.308 163.983 344.308 163.983 345.642 163.966C353.881 163.866 362.119 163.79 370.358 163.741C374.593 163.715 378.828 163.68 383.063 163.623C387.154 163.568 391.245 163.539 395.337 163.526C396.893 163.517 398.45 163.499 400.006 163.471C415.752 163.208 415.752 163.208 422.001 169C427.681 174.555 430.068 181.043 430.361 188.917C430.37 190.709 430.362 192.501 430.341 194.293C430.342 195.28 430.342 196.266 430.342 197.282C430.34 200.513 430.317 203.743 430.294 206.973C430.288 209.224 430.284 211.476 430.281 213.727C430.269 219.631 430.24 225.534 430.207 231.438C430.176 237.471 430.162 243.504 430.147 249.537C430.115 261.358 430.064 273.179 430.001 285C430.684 285.129 431.367 285.259 432.071 285.392C432.97 285.566 433.868 285.74 434.793 285.919C435.683 286.09 436.572 286.26 437.489 286.436C450.388 289.333 460.698 298.422 468.001 309C476.177 322.452 478.614 338.523 474.876 353.875C472.04 362.557 467.981 370.138 462.001 377C463.138 377.063 464.274 377.126 465.446 377.191C479.491 378.21 492.374 381.928 502.001 393C510.426 404.069 512.467 414.098 512.434 427.82C512.439 429.119 512.445 430.418 512.45 431.756C512.459 434.487 512.457 437.218 512.447 439.95C512.435 443.431 512.455 446.911 512.484 450.392C512.507 453.743 512.5 457.094 512.497 460.445C512.508 461.685 512.519 462.925 512.531 464.202C512.465 472.355 511.56 477.938 506.036 484.242C505.385 484.781 504.734 485.32 504.063 485.875C503.415 486.429 502.766 486.984 502.098 487.555C497.329 490.841 492.893 491.318 487.215 491.336C486.477 491.343 485.739 491.349 484.979 491.356C483.425 491.366 481.871 491.371 480.317 491.371C477.942 491.375 475.569 491.411 473.194 491.449C471.68 491.455 470.167 491.459 468.653 491.461C467.946 491.475 467.238 491.49 466.509 491.505C463.134 491.473 461.298 491.22 458.554 489.19C456.281 485.986 456.453 483.83 457.001 480C459.14 477.164 460.324 476.122 463.854 475.486C464.932 475.478 466.011 475.469 467.122 475.461C468.304 475.438 469.487 475.415 470.706 475.391C471.937 475.386 473.169 475.38 474.438 475.375C476.874 475.35 479.311 475.316 481.747 475.274C482.826 475.268 483.906 475.262 485.018 475.255C489.215 474.896 492.009 473.991 495.001 471C495.918 468.228 496.13 465.68 496.146 462.773C496.155 461.536 496.155 461.536 496.165 460.273C496.166 459.388 496.167 458.502 496.169 457.59C496.172 456.667 496.175 455.745 496.179 454.794C496.184 452.84 496.186 450.885 496.186 448.931C496.188 445.973 496.206 443.015 496.225 440.057C496.586 420.283 496.586 420.283 488.001 403C480.332 396.374 472.9 394.7 463.007 394.71C462.016 394.703 461.025 394.696 460.004 394.689C456.736 394.67 453.468 394.666 450.2 394.664C447.921 394.658 445.642 394.651 443.362 394.644C438.587 394.632 433.811 394.628 429.036 394.629C422.93 394.63 416.824 394.602 410.717 394.568C406.01 394.546 401.303 394.542 396.596 394.543C394.345 394.54 392.094 394.532 389.844 394.516C386.69 394.496 383.536 394.502 380.382 394.514C379.461 394.503 378.539 394.492 377.59 394.48C368.412 394.569 361.427 397.87 354.727 404.063C349.954 409.418 347.901 415.678 347.795 422.757C347.775 423.938 347.755 425.119 347.735 426.335C347.718 427.611 347.701 428.886 347.684 430.199C347.653 432.157 347.653 432.157 347.621 434.155C347.566 437.622 347.517 441.089 347.468 444.556C347.418 448.096 347.362 451.635 347.307 455.174C347.2 462.116 347.098 469.058 347.001 476C348.622 475.987 348.622 475.987 350.277 475.973C360.459 475.892 370.641 475.832 380.823 475.793C386.059 475.772 391.293 475.744 396.528 475.698C401.579 475.655 406.63 475.631 411.681 475.621C413.609 475.613 415.538 475.599 417.466 475.577C420.164 475.548 422.862 475.544 425.56 475.546C426.359 475.532 427.158 475.517 427.982 475.502C431.542 475.529 433.594 475.699 436.497 477.845C438.566 480.81 438.58 482.453 438.001 486C436.406 488.652 436.406 488.652 434.001 491C430.839 491.626 430.839 491.626 427.018 491.626C426.312 491.633 425.606 491.64 424.878 491.648C422.499 491.665 420.122 491.646 417.742 491.628C416.025 491.633 414.307 491.641 412.589 491.65C407.859 491.669 403.129 491.656 398.399 491.639C393.302 491.626 388.204 491.641 383.106 491.653C373.115 491.671 363.124 491.663 353.133 491.645C345.013 491.631 336.893 491.627 328.773 491.63C327.618 491.631 326.464 491.631 325.274 491.632C322.929 491.633 320.584 491.634 318.239 491.635C297.485 491.643 276.731 491.627 255.977 491.597C235.833 491.568 215.69 491.561 195.546 491.577C173.623 491.593 151.7 491.597 129.777 491.58C127.439 491.578 125.102 491.576 122.764 491.574C121.613 491.573 120.463 491.572 119.278 491.572C111.169 491.566 103.06 491.569 94.9509 491.576C85.0664 491.584 75.1821 491.577 65.2977 491.552C60.2537 491.539 55.2099 491.533 50.1659 491.544C45.5481 491.554 40.9307 491.546 36.3129 491.523C34.6426 491.517 32.9723 491.519 31.3021 491.528C14.2636 491.612 14.2636 491.612 6.75839 485.035C6.21956 484.384 5.68074 483.733 5.12558 483.063C4.57128 482.414 4.01699 481.766 3.44589 481.098C0.541986 476.883 -0.251962 473.19 -0.289948 468.115C-0.302707 466.953 -0.315467 465.791 -0.328613 464.593C-0.330839 463.344 -0.333065 462.096 -0.335358 460.809C-0.342014 459.512 -0.348671 458.216 -0.35553 456.881C-0.367487 454.136 -0.371213 451.392 -0.370026 448.647C-0.369824 445.163 -0.397009 441.68 -0.431564 438.196C-0.459431 434.837 -0.457996 431.479 -0.460358 428.121C-0.474729 426.886 -0.4891 425.652 -0.503906 424.379C-0.435464 411.208 3.22886 400.88 12.0006 391C23.0552 380.29 35.2455 378.088 50.0006 377C49.4553 376.343 49.4553 376.343 48.899 375.672C37.8098 361.683 34.4398 347.492 36.0006 330C38.7473 315.346 46.1337 302.888 58.2506 294.313C65.9325 289.072 72.8171 286.259 82.0006 285C81.9906 283.132 81.9906 283.132 81.9804 281.226C81.9195 269.471 81.8746 257.716 81.8451 245.96C81.8295 239.917 81.8083 233.874 81.7743 227.831C81.7416 221.995 81.7237 216.16 81.716 210.324C81.7104 208.102 81.6996 205.879 81.6834 203.656C81.6615 200.535 81.6586 197.415 81.66 194.293C81.6492 193.381 81.6384 192.469 81.6273 191.529C81.6639 183.873 82.9778 176.439 88.3131 170.625C88.8661 169.999 89.4191 169.372 89.9889 168.727C94.748 164.642 99.0199 163.627 105.199 163.66C105.893 163.659 106.586 163.659 107.3 163.658C109.573 163.66 111.845 163.684 114.118 163.707C115.701 163.713 117.284 163.717 118.868 163.72C123.02 163.731 127.173 163.761 131.325 163.794C135.569 163.825 139.812 163.839 144.055 163.854C152.371 163.886 160.685 163.938 169.001 164C169.001 154.1 169.001 144.2 169.001 134C165.536 134.495 165.536 134.495 162.001 135C145.897 134.14 132.036 127.442 120.813 116C109.568 102.622 105.824 87.1804 107.001 70.0001C108.184 62.8338 109.725 56.2756 115.001 51.0001C118.867 50.5705 121.114 50.3934 124.376 52.6251C126.481 55.7028 126.932 57.2338 127.001 61.0001C126.561 62.7399 126.077 64.4685 125.563 66.1876C122.233 77.6125 123.844 88.3607 129.544 98.836C136.249 109.056 145.853 115.054 157.829 117.602C170.816 119.197 181.576 115.169 191.813 107.25C199.219 100.431 203.308 90.7845 204.317 80.9024C204.771 68.6275 201.076 58.2693 193.001 49.0001C184.915 41.0542 174.911 37.5712 163.751 37.5001C163.006 37.4938 162.262 37.4875 161.495 37.481C156.79 37.5887 153.083 38.5301 148.742 40.3189C145.277 41.6742 142.675 41.4288 139.001 41.0001C136.501 39.4376 136.501 39.4376 135.001 37.0001C134.329 32.8953 134.466 30.8515 136.688 27.3126C152.777 13.9638 182.675 19.7584 198.001 31.0001ZM218.001 57.0001C218.991 63.4351 218.991 63.4351 220.001 70.0001C220.246 72.4342 220.465 74.8715 220.626 77.3126C220.738 78.9465 220.738 78.9465 220.852 80.6134C220.901 81.401 220.95 82.1886 221.001 83.0001C222.07 83.0199 223.14 83.0397 224.242 83.0602C228.215 83.1363 232.189 83.225 236.162 83.3175C237.88 83.3557 239.599 83.3906 241.318 83.422C243.791 83.4677 246.263 83.5257 248.735 83.586C249.502 83.5976 250.269 83.6091 251.059 83.621C257.921 83.8103 257.921 83.8103 261.001 86.0001C262.405 88.8092 262.25 90.8882 262.001 94.0001C261.06 96.1859 261.06 96.1859 259.001 98.0001C255.928 98.4918 252.901 98.292 249.801 98.1524C247.934 98.1231 246.066 98.0965 244.198 98.0724C241.257 98.0147 238.322 97.938 235.384 97.8119C224.884 96.9077 224.884 96.9077 215.356 100.249C212.327 103.742 210.765 107.753 209.001 112C203.192 120.23 194.619 126.794 185.001 130C184.954 145.09 184.919 160.18 184.897 175.27C184.887 182.276 184.873 189.282 184.85 196.289C184.828 203.045 184.816 209.801 184.811 216.557C184.807 219.14 184.8 221.723 184.789 224.306C184.775 227.912 184.773 231.518 184.774 235.125C184.763 236.741 184.763 236.741 184.752 238.39C184.754 239.369 184.757 240.347 184.76 241.356C184.757 242.636 184.757 242.636 184.754 243.942C184.812 246.224 184.812 246.224 187.001 248C189.504 248.305 189.504 248.305 192.467 248.254C193.628 248.26 194.789 248.265 195.985 248.271C197.265 248.267 198.545 248.263 199.864 248.259C201.221 248.262 202.577 248.265 203.934 248.27C207.624 248.279 211.314 248.275 215.004 248.269C218.86 248.264 222.716 248.268 226.572 248.272C233.049 248.275 239.525 248.27 246.002 248.261C253.496 248.25 260.991 248.253 268.486 248.264C274.913 248.274 281.34 248.275 287.767 248.27C291.609 248.266 295.451 248.266 299.293 248.273C302.905 248.278 306.516 248.274 310.128 248.263C312.09 248.259 314.053 248.265 316.016 248.271C317.758 248.263 317.758 248.263 319.535 248.254C321.054 248.253 321.054 248.253 322.605 248.252C325.185 248.235 325.186 248.235 327.001 246C327.306 243.527 327.306 243.527 327.274 240.66C327.295 239.597 327.315 238.535 327.337 237.44C327.363 235.192 327.381 232.945 327.391 230.697C327.414 229.633 327.438 228.569 327.462 227.473C327.47 226.496 327.478 225.519 327.486 224.512C328.001 222 328.001 222 329.843 220.178C332.736 218.599 334.752 218.654 338.001 219C341.001 221 341.001 221 342.001 224C342.287 228.058 342.278 232.121 342.313 236.188C342.342 237.299 342.371 238.411 342.401 239.557C342.455 246.55 341.775 251.065 338.001 257C333.104 261.896 327.737 263.247 320.942 263.261C319.155 263.271 319.155 263.271 317.331 263.282C316.038 263.28 314.744 263.277 313.411 263.275C312.024 263.279 310.637 263.284 309.251 263.29C305.494 263.304 301.738 263.304 297.982 263.302C294.841 263.301 291.7 263.305 288.559 263.31C281.145 263.321 273.732 263.322 266.318 263.316C258.683 263.31 251.047 263.322 243.412 263.343C236.845 263.361 230.279 263.367 223.712 263.364C219.795 263.362 215.878 263.364 211.961 263.378C208.275 263.391 204.59 263.389 200.905 263.376C198.917 263.373 196.929 263.384 194.941 263.396C180.722 263.312 180.722 263.312 175.489 258.654C170.857 253.458 169.755 248.819 169.682 242.007C169.672 241.323 169.662 240.64 169.651 239.936C169.621 237.69 169.603 235.445 169.587 233.199C169.568 231.637 169.548 230.075 169.528 228.512C169.477 224.411 169.437 220.309 169.4 216.207C169.36 212.018 169.309 207.828 169.258 203.639C169.162 195.426 169.077 187.213 169.001 179C160.742 178.931 152.484 178.877 144.226 178.845C140.391 178.829 136.556 178.808 132.722 178.774C129.019 178.741 125.317 178.723 121.615 178.715C120.204 178.71 118.793 178.699 117.382 178.683C115.402 178.661 113.423 178.66 111.443 178.66C109.754 178.65 109.754 178.65 108.032 178.639C104.591 179.049 102.758 179.932 100.001 182C97.9476 185.08 97.7514 185.687 97.7601 189.157C97.7573 190.003 97.7546 190.848 97.7517 191.719C97.7589 192.644 97.7661 193.568 97.7735 194.52C97.7732 195.496 97.7729 196.472 97.7726 197.477C97.774 200.708 97.7896 203.938 97.8053 207.168C97.809 209.406 97.8118 211.644 97.8138 213.881C97.8215 219.775 97.8411 225.669 97.8633 231.562C97.8837 237.575 97.8928 243.587 97.9029 249.6C97.9244 261.4 97.9585 273.2 98.0006 285C99.3093 285.386 99.3093 285.386 100.644 285.781C101.8 286.128 102.955 286.475 104.145 286.832C105.286 287.172 106.426 287.512 107.601 287.863C121.582 292.541 132.251 301.95 139.001 315C145.047 328.844 146.087 343.637 141.001 358C137.896 365.345 134.091 371.863 129.001 378C129.944 378.026 130.888 378.052 131.86 378.078C149.205 378.844 161.109 384.233 173.001 397C173.681 396.299 174.362 395.598 175.063 394.875C185.157 384.894 195.432 379.145 209.938 378.375C210.622 378.336 211.306 378.298 212.01 378.258C213.673 378.165 215.337 378.081 217.001 378C216.637 377.49 216.274 376.979 215.899 376.453C205.997 362.133 200.164 347.545 202.626 329.875C205.5 315.634 212.692 303.473 224.352 294.719C237.62 286.108 252.06 283.628 267.551 286.219C281.921 289.474 293.965 297.618 302.001 310C309.391 323.687 311.914 338.276 308.149 353.508C305.227 362.394 300.782 370.642 295.001 378C295.944 378.026 296.888 378.052 297.86 378.078C311.796 378.694 323.869 381.64 333.954 392.008C335.356 393.627 336.688 395.307 338.001 397C338.637 396.455 338.637 396.455 339.286 395.899C340.528 394.833 341.775 393.772 343.024 392.715C344.245 391.656 345.444 390.569 346.602 389.441C354.593 381.864 365.031 379.056 375.751 378.438C376.448 378.394 377.145 378.351 377.864 378.307C379.576 378.201 381.288 378.1 383.001 378C382.649 377.585 382.297 377.17 381.934 376.742C371.148 363.281 366.798 349.179 368.001 332C370.109 317.754 376.943 305.147 388.297 296.188C390.484 294.68 392.693 293.313 395.001 292C395.646 291.622 396.292 291.245 396.958 290.856C400.773 288.781 404.56 287.497 408.758 286.387C410.234 285.994 410.234 285.994 411.739 285.593C412.486 285.397 413.232 285.202 414.001 285C414.093 272.048 414.164 259.096 414.208 246.144C414.229 240.13 414.257 234.116 414.302 228.102C414.346 222.299 414.37 216.496 414.38 210.693C414.387 208.478 414.402 206.263 414.424 204.048C414.453 200.948 414.457 197.848 414.455 194.747C414.476 193.372 414.476 193.372 414.498 191.968C414.471 187.819 414.347 185.573 412.16 181.953C408.559 178.696 405.452 178.877 400.785 178.887C398.863 178.887 398.863 178.887 396.903 178.887C395.504 178.892 394.106 178.897 392.708 178.902C391.277 178.904 389.846 178.906 388.416 178.907C384.653 178.911 380.89 178.92 377.127 178.931C373.286 178.942 369.445 178.946 365.604 178.951C358.07 178.962 350.535 178.979 343.001 179C342.927 180.446 342.927 180.446 342.852 181.922C342.777 183.185 342.703 184.449 342.626 185.75C342.556 187.003 342.486 188.256 342.415 189.547C342.046 192.623 341.712 194.464 340.001 197C337.191 198.405 335.112 198.249 332.001 198C329.839 197.057 329.839 197.057 328.001 195C327.374 191.96 327.437 188.942 327.455 185.847C327.444 184.91 327.434 183.973 327.423 183.008C327.394 179.908 327.392 176.808 327.391 173.707C327.376 171.559 327.359 169.411 327.341 167.263C327.297 161.606 327.277 155.949 327.262 150.292C327.243 144.521 327.201 138.75 327.161 132.979C327.085 121.652 327.035 110.326 327.001 99.0001C326.154 98.9855 325.306 98.9709 324.434 98.9559C321.269 98.8946 318.104 98.8204 314.94 98.7376C313.575 98.7045 312.209 98.6765 310.843 98.6537C308.872 98.6198 306.901 98.566 304.93 98.5118C303.747 98.4856 302.563 98.4594 301.344 98.4325C296.45 97.7995 293.139 96.2019 289.751 92.6251C282.311 81.465 285.549 72.3454 285.001 57.0001C262.891 57.0001 240.781 57.0001 218.001 57.0001ZM301.001 70.0001C300.974 71.9792 300.954 73.9584 300.938 75.9376C300.926 77.0397 300.915 78.1419 300.903 79.2774C300.688 81.9146 300.688 81.9146 302.001 83.0001C304.02 83.0725 306.042 83.0839 308.063 83.0626C309.168 83.0536 310.273 83.0445 311.411 83.0352C312.265 83.0236 313.12 83.012 314.001 83.0001C310.059 78.1196 305.881 73.942 301.001 70.0001ZM60.2037 314.234C52.4213 324.004 50.9622 334.897 52.0006 347C55.0555 358.699 61.7571 367.445 72.0982 373.559C82.2262 378.589 91.4779 379.216 102.196 376.039C111.972 372.417 119.935 366.323 124.813 357.063C129.968 345.821 130.269 335.911 126.329 324.117C124.297 319.349 121.559 315.733 118.001 312C117.216 311.155 117.216 311.155 116.415 310.293C109.857 303.976 100.531 300.411 91.4967 299.934C78.6327 300.276 69.0335 304.96 60.2037 314.234ZM227.821 311.977C220.056 320.608 216.917 330.527 217.001 342C218.481 353.494 223.554 362.81 232.43 370.242C240.414 375.702 250.276 379.108 260.001 378C271.976 375.351 282.007 370.351 289.001 360C294.282 350.217 296.397 340.384 293.786 329.473C290.179 318.113 283.747 309.958 273.34 304.184C257.829 296.338 240.288 300.418 227.821 311.977ZM395.864 309.668C387.523 317.575 383.123 327.371 382.563 338.875C383.013 351.162 388.073 360.569 396.876 368.75C404.491 375.094 413.682 378.664 423.715 378.305C434.738 376.835 444.537 372.318 451.876 363.832C453.442 361.619 454.747 359.403 456.001 357C456.617 355.879 456.617 355.879 457.247 354.734C461.525 345.792 461.461 335.397 458.376 326.063C454.148 316.085 446.296 307.303 436.321 302.785C421.916 297.911 407.896 300.275 395.864 309.668ZM22.0006 404C15.8481 413.883 14.8469 422.661 14.8326 434.012C14.8293 434.943 14.826 435.874 14.8225 436.834C14.8175 438.789 14.8151 440.745 14.8153 442.701C14.8131 445.689 14.7949 448.677 14.776 451.666C14.773 453.573 14.7711 455.48 14.7701 457.387C14.7629 458.276 14.7557 459.166 14.7483 460.083C14.7677 465.326 15.0171 469.476 18.3756 473.75C21.785 476.373 25.6791 476.124 29.8345 476.12C31.0264 476.122 32.2183 476.123 33.4463 476.125C35.4024 476.119 35.4024 476.119 37.398 476.114C38.7878 476.113 40.1775 476.113 41.5672 476.114C45.3376 476.114 49.1078 476.108 52.8782 476.101C56.8193 476.095 60.7604 476.095 64.7016 476.093C72.1636 476.09 79.6256 476.082 87.0876 476.072C95.5833 476.061 104.079 476.055 112.575 476.05C130.05 476.04 147.525 476.022 165.001 476C165.094 468.463 165.165 460.926 165.208 453.388C165.229 449.888 165.257 446.387 165.302 442.887C165.355 438.853 165.374 434.819 165.391 430.785C165.412 429.541 165.432 428.297 165.454 427.015C165.456 416.458 162.994 409.445 155.794 401.723C148.626 394.837 141.526 393.7 132.023 393.71C131.034 393.703 130.044 393.696 129.025 393.689C125.761 393.67 122.498 393.666 119.235 393.664C116.958 393.658 114.681 393.651 112.405 393.644C107.633 393.632 102.862 393.628 98.0909 393.629C91.9936 393.63 85.8968 393.602 79.7996 393.568C75.0965 393.546 70.3936 393.542 65.6905 393.543C63.4435 393.54 61.1966 393.532 58.9497 393.516C55.798 393.496 52.6474 393.502 49.4957 393.514C48.5779 393.503 47.6602 393.492 46.7146 393.48C37.4039 393.57 28.053 396.59 22.0006 404ZM188.001 403.688C173.27 424.863 181.001 451.047 181.001 476C230.501 476 280.001 476 331.001 476C335.444 439.138 335.444 439.138 322.112 401.773C310.751 392.233 298.608 393.115 284.501 393.203C282.215 393.199 279.929 393.193 277.643 393.186C272.869 393.177 268.095 393.19 263.321 393.218C257.228 393.252 251.137 393.232 245.044 393.196C240.329 393.175 235.614 393.182 230.899 393.197C228.653 393.201 226.408 393.196 224.163 393.182C210.111 393.114 198.48 393.065 188.001 403.688Z" fill="white"/>
<path d="M221.383 121.482C222.63 121.471 222.63 121.471 223.903 121.461C226.644 121.443 229.384 121.455 232.125 121.468C234.034 121.466 235.943 121.462 237.852 121.457C241.85 121.451 245.848 121.459 249.846 121.478C254.967 121.501 260.088 121.488 265.209 121.464C269.151 121.449 273.091 121.454 277.033 121.464C278.921 121.467 280.809 121.464 282.697 121.454C285.338 121.444 287.977 121.46 290.617 121.482C291.396 121.474 292.174 121.466 292.976 121.457C296.699 121.515 298.816 121.882 301.985 123.907C304 126 304 126 304.629 128C304.596 128.99 304.596 128.99 304.562 130C304.564 130.66 304.565 131.32 304.566 132C303.714 135.011 302.492 136.094 300 138C297.052 138.394 294.478 138.547 291.531 138.517C290.253 138.528 290.253 138.528 288.948 138.538C286.132 138.556 283.316 138.544 280.5 138.531C278.542 138.533 276.585 138.537 274.627 138.542C270.525 138.548 266.423 138.54 262.32 138.521C257.061 138.498 251.802 138.511 246.543 138.535C242.5 138.55 238.458 138.545 234.416 138.535C232.476 138.532 230.537 138.535 228.598 138.545C225.888 138.555 223.179 138.539 220.469 138.517C219.667 138.525 218.864 138.533 218.038 138.542C214.438 138.487 212.408 138.311 209.506 136.092C207.884 133.838 207.432 132.747 207.438 130C207.416 129.34 207.394 128.68 207.371 128C209.393 121.569 215.648 121.422 221.383 121.482Z" fill="white"/>
<path d="M221.383 160.482C222.63 160.471 222.63 160.471 223.903 160.461C226.644 160.443 229.384 160.455 232.125 160.468C234.034 160.466 235.943 160.462 237.852 160.457C241.85 160.451 245.848 160.459 249.846 160.478C254.967 160.501 260.088 160.488 265.209 160.464C269.151 160.449 273.091 160.454 277.033 160.464C278.921 160.467 280.809 160.464 282.697 160.454C285.338 160.444 287.977 160.46 290.617 160.482C291.396 160.474 292.174 160.466 292.976 160.457C296.699 160.515 298.816 160.882 301.985 162.907C304 165 304 165 304.629 167C304.596 167.99 304.596 167.99 304.562 169C304.564 169.66 304.565 170.32 304.566 171C303.714 174.011 302.492 175.094 300 177C297.052 177.394 294.478 177.547 291.531 177.517C290.253 177.528 290.253 177.528 288.948 177.538C286.132 177.556 283.316 177.544 280.5 177.531C278.542 177.533 276.585 177.537 274.627 177.542C270.525 177.548 266.423 177.54 262.32 177.521C257.061 177.498 251.802 177.511 246.543 177.535C242.5 177.55 238.458 177.545 234.416 177.535C232.476 177.532 230.537 177.535 228.598 177.545C225.888 177.555 223.179 177.539 220.469 177.517C219.667 177.525 218.864 177.533 218.038 177.542C214.438 177.487 212.408 177.311 209.506 175.092C207.884 172.838 207.432 171.747 207.438 169C207.416 168.34 207.394 167.68 207.371 167C209.393 160.569 215.648 160.422 221.383 160.482Z" fill="white"/>
<path d="M221.383 199.482C222.63 199.471 222.63 199.471 223.903 199.461C226.644 199.443 229.384 199.455 232.125 199.468C234.034 199.466 235.943 199.462 237.852 199.457C241.85 199.451 245.848 199.459 249.846 199.478C254.967 199.501 260.088 199.488 265.209 199.464C269.151 199.449 273.091 199.454 277.033 199.464C278.921 199.467 280.809 199.464 282.697 199.454C285.338 199.444 287.977 199.46 290.617 199.482C291.396 199.474 292.174 199.466 292.976 199.457C296.699 199.515 298.816 199.882 301.985 201.907C304 204 304 204 304.629 206C304.596 206.99 304.596 206.99 304.562 208C304.564 208.66 304.565 209.32 304.566 210C303.714 213.011 302.492 214.094 300 216C297.052 216.394 294.478 216.547 291.531 216.517C290.253 216.528 290.253 216.528 288.948 216.538C286.132 216.556 283.316 216.544 280.5 216.531C278.542 216.533 276.585 216.537 274.627 216.542C270.525 216.548 266.423 216.54 262.32 216.521C257.061 216.498 251.802 216.511 246.543 216.535C242.5 216.55 238.458 216.545 234.416 216.535C232.476 216.532 230.537 216.535 228.598 216.545C225.888 216.555 223.179 216.539 220.469 216.517C219.667 216.525 218.864 216.533 218.038 216.542C214.438 216.487 212.408 216.311 209.506 214.092C207.884 211.838 207.432 210.747 207.438 208C207.416 207.34 207.394 206.68 207.371 206C209.393 199.569 215.648 199.422 221.383 199.482Z" fill="white"/>
<path d="M187 54.9998C189.438 56.4998 189.438 56.4998 191 58.9998C191.547 62.9743 191.83 65.5384 189.827 69.0667C188.157 71.2394 186.399 73.2784 184.563 75.3123C183.274 76.803 181.984 78.2939 180.696 79.7849C180.063 80.5031 179.43 81.2213 178.779 81.9612C176.42 84.6653 174.18 87.4486 171.938 90.2498C164.281 99.771 164.281 99.771 159.5 100.625C155.031 99.8267 154.071 98.3059 151 94.9998C150.472 94.4419 149.943 93.8841 149.399 93.3094C147.672 91.4864 145.96 89.6508 144.25 87.8123C143.661 87.1839 143.072 86.5554 142.465 85.908C141.904 85.3054 141.344 84.7027 140.766 84.0818C140.258 83.5376 139.751 82.9934 139.228 82.4326C136.416 79.1505 136.711 76.1974 137 71.9998C138.125 69.6248 138.125 69.6248 140 67.9998C143.314 66.9192 145.167 66.6793 148.438 67.9373C152.101 70.8859 155.016 74.3796 158 77.9998C161.627 76.5234 163.387 74.5855 165.75 71.4998C166.439 70.6142 167.127 69.7286 167.836 68.8162C168.907 67.4221 168.907 67.4221 170 65.9998C171.453 64.1414 172.911 62.2871 174.375 60.4373C175.022 59.611 175.67 58.7847 176.336 57.9334C179.456 54.3087 182.387 54.6021 187 54.9998Z" fill="white"/>
</g>
<defs>
<clipPath id="clip0_79_9482">
<rect width="512" height="512" fill="white"/>
</clipPath>
</defs>
</svg>
