<svg width="512" height="512" viewBox="0 0 512 512" fill="none" xmlns="http://www.w3.org/2000/svg">
<path d="M337.648 44.1876C340.157 46.4036 342.586 48.6815 345 51.0001C345.906 51.8432 346.812 52.6862 347.746 53.5548C354.625 60.1385 359.906 66.9687 365 75.0001C365.941 76.4677 365.941 76.4677 366.902 77.965C383.856 105.603 388.971 141.813 381.838 173.374C376.145 195.981 365.147 216.187 349 233C348.157 233.906 347.314 234.813 346.445 235.746C339.858 242.63 333.026 247.892 325 253C324.091 253.605 323.182 254.209 322.246 254.832C294.662 272.215 258.245 276.982 226.618 269.837C218.829 267.867 211.35 265.23 204 262C203.346 261.717 202.691 261.434 202.017 261.142C171.922 247.856 148.216 222.279 136.129 191.804C134.169 186.605 132.513 181.344 131 176C130.658 174.822 130.317 173.644 129.965 172.43C122.431 140.542 128.813 104.525 145.64 76.6954C163.929 47.6056 191.176 28.2955 224 19.0001C225.178 18.6585 226.356 18.3169 227.57 17.965C265.529 8.99659 307.801 19.5353 337.648 44.1876ZM233 47.0001C226.321 56.9242 219.564 69.0649 218 81.0001C220.852 81.8182 223.707 82.6297 226.562 83.4376C227.362 83.6677 228.162 83.8978 228.986 84.1349C246.376 89.0324 266.603 88.8827 284 84.0001C285.03 83.7139 286.06 83.4278 287.121 83.1329C289.43 82.4605 291.714 81.7455 294 81.0001C292.736 74.3132 290.775 68.6147 287.812 62.5001C287.412 61.6664 287.011 60.8327 286.598 59.9737C283.682 54.0592 280.533 48.8294 276 44.0001C275.436 43.3594 274.873 42.7188 274.293 42.0587C269.078 36.4197 263.825 32.8716 256 32.5001C245.776 33.03 239.312 39.3815 233 47.0001ZM186 57.0001C184.644 59.1189 184.644 59.1189 184 61.0001C185.492 62.2597 186.994 63.5073 188.5 64.7501C189.753 65.7943 189.753 65.7943 191.031 66.8595C194.511 69.3684 198.122 71.1926 202 73.0001C202.211 72.4822 202.422 71.9642 202.639 71.4305C210.022 53.3814 210.022 53.3814 214.871 45.0314C216.133 42.9069 216.133 42.9069 217 40.0001C207.392 40.0001 193.116 51.0285 186 57.0001ZM295 40.0001C296.559 44.2219 298.636 48.0749 300.812 52.0001C304.526 58.8064 307.43 65.6747 310 73.0001C316.872 69.9458 322.267 65.8401 328 61.0001C324.424 51.4362 308.906 45.6354 300.238 41.4337C297.285 39.8652 297.285 39.8652 295 40.0001ZM170 73.0001C154.742 89.7415 145 113.418 145 136C160.51 136 176.02 136 192 136C192.268 132.226 192.536 128.451 192.812 124.563C193.452 116.004 194.326 107.615 196.122 99.2172C196.884 95.5211 197.443 92.552 196 89.0001C193.67 87.1792 193.67 87.1792 190.687 85.7501C184.769 82.5396 179.671 78.8674 174.398 74.7228C172.221 72.8057 172.221 72.8057 170 73.0001ZM334.687 77.0001C328.41 81.8441 321.821 85.9627 315 90.0001C315.193 91.226 315.387 92.4519 315.586 93.715C317.735 107.787 318.969 121.801 320 136C335.51 136 351.02 136 367 136C367.134 129.771 367.134 129.771 366.301 123.957C366.069 122.946 366.069 122.946 365.833 121.914C365.661 121.22 365.489 120.527 365.312 119.813C365.132 119.073 364.951 118.333 364.764 117.571C360.785 101.866 353.675 84.6479 342 73.0001C338.812 73.0001 337.156 75.0641 334.687 77.0001ZM213 97.0001C210.195 110.387 209 122.076 209 136C240.02 136 271.04 136 303 136C303 127.196 302.927 119.408 301.562 110.875C301.428 109.97 301.293 109.065 301.154 108.133C300.583 104.369 299.97 100.684 299 97.0001C297.984 97.2657 296.968 97.5312 295.922 97.8048C294.531 98.1618 293.14 98.5186 291.75 98.8751C291.087 99.0491 290.425 99.2232 289.742 99.4025C278.664 102.224 267.932 103.388 256.5 103.375C255.191 103.375 253.881 103.375 252.533 103.375C241.627 103.247 231.518 101.769 221 99.0001C219.487 98.6208 217.974 98.2432 216.461 97.8673C215.319 97.5811 214.177 97.295 213 97.0001ZM145 152C146.806 173.676 153.546 199.3 170 215C173.546 213.732 176.123 212.291 179 209.875C184.653 205.331 190.776 201.704 197 198C196.806 196.774 196.613 195.548 196.414 194.285C194.265 180.214 193.031 166.199 192 152C176.49 152 160.98 152 145 152ZM209 152C209 161.649 209.343 170.039 211 179.375C211.191 180.504 211.381 181.634 211.578 182.797C212.042 185.533 212.516 188.267 213 191C214.354 190.699 215.708 190.399 217.062 190.098C217.886 189.915 218.71 189.732 219.558 189.544C221.581 189.093 223.603 188.639 225.625 188.184C226.739 187.937 227.852 187.691 229 187.438C230.114 187.189 231.227 186.94 232.375 186.684C250.112 183.339 268.429 184.187 286 188C286.669 188.144 287.338 188.288 288.027 188.437C291.698 189.238 295.354 190.092 299 191C301.804 177.613 303 165.924 303 152C271.98 152 240.96 152 209 152ZM320 152C319.732 155.774 319.464 159.549 319.187 163.438C318.547 171.996 317.674 180.385 315.877 188.783C315.116 192.479 314.557 195.448 316 199C318.33 200.821 318.33 200.821 321.312 202.25C328.078 205.929 333.946 210.266 340 215C344.416 213.487 346.384 210.053 348.812 206.313C349.25 205.643 349.687 204.974 350.137 204.285C360.143 188.611 367 170.726 367 152C351.49 152 335.98 152 320 152ZM228 204C226.97 204.286 225.94 204.572 224.879 204.867C222.57 205.54 220.285 206.255 218 207C219.264 213.687 221.224 219.386 224.187 225.5C224.788 226.751 224.788 226.751 225.402 228.026C228.317 233.941 231.466 239.171 236 244C236.845 244.961 236.845 244.961 237.707 245.942C242.922 251.581 248.175 255.129 256 255.5C264.696 255.062 269.996 250.7 275.84 244.535C284.857 233.952 291.403 220.64 294 207C291.147 206.182 288.293 205.371 285.437 204.563C284.238 204.217 284.238 204.217 283.013 203.865C265.624 198.968 245.397 199.118 228 204ZM310 215C309.789 215.518 309.578 216.036 309.361 216.57C301.978 234.619 301.978 234.619 297.129 242.969C295.866 245.093 295.866 245.093 295 248C307.557 244.536 318.232 237.463 328 229C326.486 224.677 323.217 222.737 319.562 220.313C318.976 219.91 318.391 219.507 317.787 219.092C315.211 217.347 312.965 215.989 310 215ZM184 227C187.575 236.564 203.094 242.365 211.762 246.567C214.714 248.135 214.714 248.135 217 248C215.441 243.778 213.363 239.925 211.187 236C207.473 229.194 204.569 222.326 202 215C196.397 215 188.129 223.317 184 227Z" fill="#005592" fill-opacity="0.972549"/>
<path d="M169.375 308.512C177.647 314.566 181.509 321.319 184.637 330.875C184.961 331.835 185.285 332.795 185.62 333.784C186.653 336.852 187.67 339.926 188.688 343C189.35 344.97 190.013 346.941 190.678 348.91C196.262 365.562 201.608 382.284 207 399C239.34 399 271.68 399 305 399C312.683 375.384 312.683 375.384 320.346 351.762C321.847 347.169 321.847 347.169 322.555 345.011C323.042 343.522 323.524 342.031 324.004 340.54C330.92 319.07 330.92 319.07 339 312C339.784 311.299 340.568 310.598 341.375 309.875C348.59 304.722 356.331 303.257 365 304C375.258 305.874 383.091 311.459 389 320C397.838 335.909 389.459 356.518 384.911 372.566C383.894 376.171 382.902 379.782 381.908 383.393C380.638 388.003 379.366 392.613 378.084 397.22C374.972 408.411 371.943 419.623 368.959 430.85C368.239 433.558 367.518 436.265 366.796 438.973C363.981 449.539 363.981 449.539 361.176 460.109C360.082 464.239 358.979 468.367 357.872 472.494C357.464 474.017 357.06 475.541 356.658 477.066C356.107 479.158 355.546 481.247 354.983 483.336C354.671 484.508 354.358 485.68 354.037 486.888C352.908 490.275 351.561 493.439 349 496C346.604 496.104 344.236 496.143 341.839 496.141C340.701 496.145 340.701 496.145 339.541 496.15C336.981 496.158 334.42 496.16 331.86 496.161C330.032 496.166 328.204 496.171 326.377 496.176C321.397 496.189 316.418 496.196 311.439 496.2C308.331 496.203 305.224 496.207 302.116 496.212C292.403 496.225 282.69 496.235 272.978 496.239C261.747 496.243 250.517 496.261 239.287 496.29C230.618 496.312 221.95 496.322 213.282 496.323C208.099 496.324 202.916 496.33 197.733 496.348C192.859 496.364 187.986 496.367 183.112 496.358C181.32 496.357 179.528 496.361 177.736 496.371C175.296 496.384 172.856 496.378 170.415 496.368C169.701 496.376 168.987 496.384 168.251 496.392C165.392 496.363 163.471 496.335 161.1 494.649C159.447 492.171 158.825 489.671 158.047 486.799C157.87 486.158 157.694 485.516 157.512 484.856C156.915 482.676 156.332 480.493 155.75 478.309C155.319 476.721 154.887 475.133 154.454 473.546C153.228 469.034 152.015 464.518 150.805 460.001C149.971 456.891 149.132 453.782 148.293 450.673C144.493 436.598 140.72 422.516 136.965 408.429C135.313 402.23 133.652 396.034 131.99 389.838C130.693 385 129.403 380.16 128.114 375.32C127.504 373.033 126.891 370.746 126.277 368.461C116.447 331.89 116.447 331.89 123.563 318.75C128.109 311.809 134.437 306.699 142.484 304.434C151.962 302.8 161.166 303.286 169.375 308.512ZM139.688 326.563C136.409 331.299 136.444 335.368 137 341C138.224 347.409 140.069 353.689 141.793 359.977C142.297 361.851 142.801 363.726 143.303 365.602C144.641 370.588 145.995 375.569 147.351 380.55C148.744 385.673 150.124 390.799 151.504 395.926C153.673 403.972 155.85 412.017 158.033 420.059C160.523 429.232 162.994 438.409 165.453 447.59C166.345 450.912 167.237 454.234 168.13 457.556C168.666 459.553 169.202 461.55 169.738 463.548C170.456 466.222 171.178 468.894 171.902 471.566C172.105 472.326 172.308 473.085 172.518 473.867C173.226 477.208 173.226 477.208 175 480C177.088 480.097 179.18 480.122 181.27 480.12C181.933 480.121 182.595 480.122 183.278 480.123C185.513 480.125 187.749 480.119 189.985 480.114C191.581 480.113 193.177 480.113 194.773 480.114C199.12 480.114 203.467 480.108 207.814 480.101C212.352 480.095 216.889 480.095 221.427 480.093C230.026 480.09 238.625 480.082 247.224 480.072C257.011 480.061 266.798 480.055 276.585 480.05C296.723 480.04 316.862 480.022 337 480C339.113 474.573 340.878 469.183 342.369 463.557C342.586 462.752 342.803 461.947 343.026 461.117C343.74 458.465 344.448 455.811 345.156 453.156C345.663 451.268 346.171 449.38 346.679 447.492C348.019 442.504 349.355 437.515 350.69 432.525C352.529 425.656 354.373 418.788 356.217 411.92C357.26 408.039 358.3 404.156 359.337 400.273C361.908 390.672 364.525 381.087 367.234 371.524C367.752 369.684 368.27 367.845 368.788 366.006C369.753 362.578 370.734 359.156 371.725 355.736C375.824 342.629 375.824 342.629 373.375 329.625C370.021 325.918 366.896 323.618 362.125 322.063C357.963 321.979 354.54 322.77 351 325C347.147 329.139 345.137 332.491 343.379 337.949C343.158 338.624 342.936 339.298 342.708 339.993C341.98 342.221 341.272 344.454 340.563 346.688C340.052 348.26 339.539 349.833 339.026 351.405C337.633 355.677 336.258 359.956 334.886 364.235C332.393 372.014 329.881 379.788 327.366 387.56C326.449 390.403 325.54 393.249 324.633 396.095C324.067 397.854 323.5 399.612 322.934 401.371C322.555 402.572 322.555 402.572 322.168 403.797C320.852 407.856 319.502 411.488 317 415C314.578 416.211 313.051 416.126 310.345 416.127C309.363 416.13 308.382 416.133 307.371 416.136C306.29 416.134 305.21 416.132 304.096 416.129C302.394 416.132 302.394 416.132 300.657 416.135C296.888 416.139 293.12 416.136 289.352 416.133C286.741 416.134 284.13 416.135 281.519 416.136C276.04 416.138 270.561 416.135 265.081 416.13C258.747 416.125 252.414 416.127 246.08 416.132C239.989 416.137 233.898 416.137 227.807 416.134C225.215 416.133 222.622 416.134 220.03 416.136C216.407 416.139 212.785 416.135 209.163 416.129C208.086 416.132 207.01 416.134 205.9 416.136C204.913 416.133 203.926 416.13 202.909 416.127C201.625 416.127 201.625 416.127 200.314 416.126C198.049 416.003 196.141 415.75 194 415C193.066 413.058 193.066 413.058 192.451 410.548C192.212 409.64 191.973 408.731 191.726 407.795C191.487 406.873 191.247 405.95 191 405C190.495 403.399 189.976 401.802 189.441 400.21C189.173 399.406 188.905 398.601 188.629 397.773C188.348 396.935 188.067 396.097 187.777 395.234C187.476 394.33 187.174 393.426 186.863 392.494C185.216 387.561 183.562 382.631 181.908 377.701C181.23 375.678 180.553 373.656 179.875 371.633C179.541 370.636 179.207 369.64 178.863 368.613C176.863 362.628 174.91 356.631 173 350.617C172.347 348.583 171.694 346.549 171.039 344.515C170.455 342.68 169.888 340.84 169.322 338.999C167.061 331.991 164.629 325.757 158.056 321.842C151.148 319.013 144.513 321.216 139.688 326.563Z" fill="#005592" fill-opacity="0.972549"/>
<path d="M74.5898 199.324C79.2204 201.6 80.4356 204.259 82.5625 208.812C82.9099 209.505 83.2573 210.198 83.6152 210.912C83.9704 211.628 84.3255 212.344 84.6914 213.082C85.2554 214.218 85.2554 214.218 85.8308 215.378C87 218 87 218 88.1008 221.364C89.4181 225.02 90.656 227.892 93 231C97.7324 233.213 102.395 233.667 107.562 234.125C110.171 234.42 112.774 234.746 115.379 235.07C116.529 235.181 117.68 235.292 118.865 235.407C122.504 236.095 125.353 237.353 128 240C128.812 243.746 129.028 245.38 128 249C126.272 251.332 124.609 253.349 122.625 255.437C122.091 256.006 121.557 256.575 121.007 257.16C118.4 259.842 115.966 262.023 112.836 264.105C109.32 266.609 107.745 268 106 272C105.922 280.093 107.837 288.01 109.458 295.897C110.331 300.897 111.121 306.001 108.562 310.562C104.723 312.716 101.238 312.739 97 312C92.8805 310.17 89.1255 307.832 85.3125 305.437C83.318 304.192 81.3144 302.96 79.3008 301.746C78.4259 301.196 77.551 300.646 76.6497 300.08C73.2621 298.699 71.4944 299.014 68 300C65.4674 301.164 65.4674 301.164 63.0664 302.687C62.1699 303.221 61.2733 303.755 60.3496 304.305C58.4944 305.433 56.6402 306.563 54.7871 307.695C49.7757 310.674 45.886 312.846 40 313C36.6019 311.898 36.0527 311.079 34 308C33.5931 302.584 34.1379 297.881 35.2266 292.566C38.6138 280.183 38.6138 280.183 36.2852 268.297C33.6743 265.8 31.0427 263.935 28 262C25.9375 259.836 25.9375 259.836 24.1875 257.687C22.2123 255.338 20.4526 253.546 18.0625 251.562C15.4451 248.31 15.4406 246.248 15.4336 242.183C16.2333 239.1 17.5141 237.975 20 236C23.0776 235.547 23.0776 235.547 26.6797 235.535C40.4909 235.406 40.4909 235.406 52.4511 229.608C58.0251 222.514 60.913 213.448 63.5256 204.923C65.9745 200.068 69.3145 198.848 74.5898 199.324ZM71 230C70.4457 231.059 69.8914 232.119 69.3203 233.211C68.5887 234.599 67.857 235.987 67.125 237.375C66.7602 238.074 66.3954 238.772 66.0195 239.492C63.2266 244.773 63.2266 244.773 61 247C59.0288 247.502 59.0288 247.502 56.6484 247.851C55.7977 247.98 54.9469 248.109 54.0703 248.242C52.7361 248.432 52.7361 248.432 51.375 248.625C50.4778 248.759 49.5806 248.893 48.6562 249.031C46.4385 249.361 44.2199 249.684 42 250C45.5228 254.911 49.1007 259.284 53.582 263.359C55.6595 265.763 56.0347 267.957 55.9299 271.106C55.7964 272.206 55.7964 272.206 55.6602 273.328C55.5667 274.127 55.4732 274.926 55.377 275.75C55.2732 276.575 55.1694 277.4 55.0625 278.25C54.9626 279.09 54.8627 279.931 54.7598 280.797C54.513 282.865 54.2573 284.933 54 287C58.7133 285.551 62.5031 283.627 66.6562 281.023C69.7466 279.674 71.6428 279.579 75 280C77.5848 281.106 79.9287 282.516 82.3125 284C85.9927 286.658 85.9927 286.658 90 288C89.8917 287.018 89.8917 287.018 89.7812 286.015C89.4759 283.013 89.2376 280.008 89 277C88.8853 275.97 88.7705 274.94 88.6523 273.879C88.1181 266.254 88.1181 266.254 90.6094 262.711C92.6875 260.687 92.6875 260.687 94.7617 259.012C97.7496 256.326 99.737 253.317 102 250C101.445 249.935 100.891 249.87 100.319 249.804C97.7929 249.496 95.272 249.155 92.75 248.812C91.8773 248.711 91.0046 248.61 90.1055 248.506C83.6434 247.593 83.6434 247.593 80.5938 244.781C78.8777 241.786 77.2528 238.795 75.75 235.687C74.9688 234.084 74.9688 234.084 74.1719 232.449C73.7852 231.641 73.3984 230.833 73 230C72.34 230 71.68 230 71 230Z" fill="#005592" fill-opacity="0.972549"/>
<path d="M443 199C447.465 201.871 448.815 204.314 450.312 209.34C454.547 223.098 454.547 223.098 464.359 232.751C471.77 234.917 479.277 235.537 486.977 235.645C490.671 236.079 493.351 237.351 496 240C496.812 243.746 497.028 245.381 496 249C494.272 251.333 492.609 253.349 490.625 255.438C490.091 256.006 489.557 256.575 489.007 257.161C486.4 259.842 483.966 262.023 480.836 264.106C477.32 266.61 475.745 268 474 272C473.922 280.094 475.837 288.011 477.458 295.898C478.331 300.898 479.121 306.002 476.562 310.563C472.723 312.717 469.238 312.739 465 312C460.881 310.17 457.125 307.832 453.312 305.438C451.318 304.192 449.314 302.961 447.301 301.746C446.426 301.197 445.551 300.647 444.65 300.08C441.262 298.7 439.494 299.015 436 300C433.467 301.165 433.467 301.165 431.066 302.688C430.17 303.221 429.273 303.755 428.35 304.305C426.494 305.433 424.64 306.564 422.787 307.696C417.776 310.674 413.886 312.846 408 313C404.602 311.898 404.053 311.079 402 308C401.593 302.584 402.138 297.881 403.227 292.567C406.614 280.184 406.614 280.184 404.285 268.297C401.674 265.8 399.043 263.936 396 262C393.938 259.836 393.938 259.836 392.188 257.688C390.212 255.338 388.453 253.546 386.062 251.563C383.445 248.311 383.441 246.248 383.434 242.184C384.234 239.1 385.513 237.976 388 236C391.094 235.532 391.094 235.532 394.715 235.5C403.108 235.127 411.344 234.719 419 231C425.348 224.036 428.173 214.87 430.731 205.945C433.15 200.332 436.97 197.995 443 199ZM440 229C439.06 230.698 439.06 230.698 438.102 232.43C437.276 233.912 436.451 235.394 435.625 236.875C435.213 237.622 434.8 238.368 434.375 239.137C433.776 240.21 433.776 240.21 433.164 241.305C432.614 242.295 432.614 242.295 432.053 243.305C430.653 245.559 429.647 246.835 427.029 247.503C426.243 247.618 425.458 247.733 424.648 247.852C423.798 247.981 422.947 248.11 422.07 248.243C420.736 248.432 420.736 248.432 419.375 248.625C418.478 248.759 417.581 248.893 416.656 249.032C414.438 249.362 412.22 249.684 410 250C413.75 254.419 417.573 258.724 421.582 262.91C424.762 267.598 423.999 272.297 423.021 277.571C422.87 278.331 422.719 279.092 422.562 279.875C422.415 280.659 422.267 281.443 422.115 282.25C421.753 284.169 421.378 286.085 421 288C425.167 286.426 428.817 284.415 432.621 282.121C436.247 280.413 439.119 279.385 443.071 280.677C445.385 281.688 447.628 282.786 449.875 283.938C450.659 284.324 451.442 284.71 452.25 285.108C454.174 286.058 456.088 287.027 458 288C457.892 287.018 457.892 287.018 457.781 286.016C457.584 284.078 457.417 282.138 457.273 280.196C457.051 277.03 457.051 277.03 456.477 274.055C455.982 269.934 455.742 266.733 458.28 263.237C461.045 260.137 464.044 257.363 467.156 254.618C468.095 253.754 469.033 252.89 470 252C470 251.34 470 250.68 470 250C468.747 249.83 467.494 249.66 466.203 249.485C464.552 249.241 462.901 248.996 461.25 248.75C460.425 248.641 459.6 248.531 458.75 248.418C455.188 247.872 452.629 247.445 449.656 245.344C447.507 242.303 445.839 239.106 444.25 235.75C443.934 235.101 443.618 234.451 443.293 233.782C442.521 232.191 441.76 230.596 441 229C440.67 229 440.34 229 440 229Z" fill="#005592" fill-opacity="0.972549"/>
<path d="M283.312 295.313C293.951 303.326 301.352 312.688 304 326C305.489 340.78 303.998 353.633 294.844 365.754C287.353 374.88 277.965 382.189 266 384C251.859 385.281 238.975 384.381 227.125 375.75C217.391 367.373 209.086 357.003 207.779 343.76C206.977 327.021 209.674 315.064 220.656 302.035C236.546 284.909 264.092 282.557 283.312 295.313ZM231.625 315.313C224.992 324 223.874 332.14 225 343C226.848 351.136 231.396 357.874 238.312 362.57C246.936 367.535 256.041 368.578 265.859 366.352C274.278 363.293 280.047 358.242 284.5 350.5C288.439 341.913 288.57 332.469 285.437 323.563C280.795 313.876 273.978 308.775 264 305C252.125 301.763 239.838 306.44 231.625 315.313Z" fill="#005592" fill-opacity="0.972549"/>
<path d="M432 152C437.28 152 442.56 152 448 152C448 162.56 448 173.12 448 184C442.72 184 437.44 184 432 184C432 173.44 432 162.88 432 152Z" fill="#005592" fill-opacity="0.972549"/>
<path d="M64 152C69.28 152 74.56 152 80 152C80 162.56 80 173.12 80 184C74.72 184 69.44 184 64 184C64 173.44 64 162.88 64 152Z" fill="#005592" fill-opacity="0.972549"/>
<path d="M448 136C458.56 136 469.12 136 480 136C480 141.28 480 146.56 480 152C469.44 152 458.88 152 448 152C448 146.72 448 141.44 448 136Z" fill="#005592" fill-opacity="0.972549"/>
<path d="M400 136C410.56 136 421.12 136 432 136C432 141.28 432 146.56 432 152C421.44 152 410.88 152 400 152C400 146.72 400 141.44 400 136Z" fill="#005592" fill-opacity="0.972549"/>
<path d="M80 136C90.56 136 101.12 136 112 136C112 141.28 112 146.56 112 152C101.44 152 90.88 152 80 152C80 146.72 80 141.44 80 136Z" fill="#005592" fill-opacity="0.972549"/>
<path d="M32 136C42.56 136 53.12 136 64 136C64 141.28 64 146.56 64 152C53.44 152 42.88 152 32 152C32 146.72 32 141.44 32 136Z" fill="#005592" fill-opacity="0.972549"/>
<path d="M432 104C437.28 104 442.56 104 448 104C448 114.56 448 125.12 448 136C442.72 136 437.44 136 432 136C432 125.44 432 114.88 432 104Z" fill="#005592" fill-opacity="0.972549"/>
<path d="M64 104C69.28 104 74.56 104 80 104C80 114.56 80 125.12 80 136C74.72 136 69.44 136 64 136C64 125.44 64 114.88 64 104Z" fill="#005592" fill-opacity="0.972549"/>
</svg>
