<svg width="80" height="80" viewBox="0 0 80 80" fill="none" xmlns="http://www.w3.org/2000/svg">
<path d="M24.6875 51.4062C25.9669 51.3933 27.2463 51.3804 28.5645 51.3671C29.165 51.3586 29.165 51.3586 29.7777 51.3499C30.1002 51.348 30.4227 51.3464 30.7452 51.3451C30.9085 51.3419 31.0718 51.3387 31.24 51.3354C32.961 51.3346 34.3256 51.9594 35.8105 52.7734C36.0682 52.9113 36.326 53.049 36.5839 53.1866C36.711 53.2548 36.8382 53.323 36.9692 53.3933C37.5345 53.6957 38.1015 53.9942 38.6719 54.287C38.7652 54.3366 38.8585 54.3862 38.9546 54.4373C41.0478 55.5038 43.2099 55.3838 45.5003 55.3923C45.9576 55.3948 46.4147 55.3999 46.8719 55.4052C47.0105 55.4047 47.149 55.4043 47.2918 55.4038C48.2924 55.4157 49.2131 55.5414 50.0092 56.206C50.0803 56.2978 50.1514 56.3897 50.2246 56.4843C50.2985 56.5761 50.3724 56.668 50.4486 56.7626C50.9056 57.4584 50.8688 58.2627 50.7812 59.0624C50.5197 59.8159 50.052 60.3657 49.375 60.7812C48.5332 61.0301 47.8052 61.1322 46.9217 61.1292C46.8087 61.1292 46.6958 61.1292 46.5794 61.1293C46.2108 61.1291 45.8422 61.1267 45.4736 61.1242C45.2162 61.1236 44.9587 61.1232 44.7013 61.1229C44.0273 61.1217 43.3533 61.1186 42.6792 61.1151C41.99 61.1119 41.3008 61.1105 40.6116 61.1089C39.2619 61.1056 37.9122 61.1003 36.5625 61.0937C36.6141 61.1968 36.6656 61.2999 36.7188 61.4062C38.186 61.4466 39.6531 61.4769 41.1208 61.4952C41.8029 61.5041 42.4847 61.516 43.1666 61.5358C46.7099 61.6363 49.5253 61.3649 52.7826 59.9078C53.5092 59.5867 54.2511 59.3119 54.9951 59.0343C55.2478 58.9371 55.5003 58.8395 55.7526 58.7414C55.8732 58.6945 55.9939 58.6476 56.1182 58.5993C56.2391 58.5523 56.3599 58.5054 56.4844 58.457C57.4469 58.0832 58.41 57.7111 59.375 57.3437C59.4818 57.3028 59.5886 57.2619 59.6987 57.2198C59.9971 57.1063 60.2964 56.9952 60.5957 56.8841C60.7627 56.8217 60.9296 56.7594 61.1017 56.6951C62.0458 56.4232 62.7929 56.5465 63.6523 56.9921C64.3071 57.5533 64.796 58.0601 64.8755 58.9483C64.8909 59.7847 64.8725 60.3875 64.375 61.0937C63.6655 61.8093 62.9214 62.2529 61.9983 62.6391C61.875 62.6925 61.7518 62.746 61.6248 62.8011C61.2206 62.9759 60.8154 63.148 60.4102 63.3202C60.1252 63.4431 59.8403 63.5662 59.5554 63.6895C58.9619 63.9463 58.368 64.2021 57.7737 64.4571C56.345 65.0709 54.9202 65.6939 53.4961 66.3183C53.3613 66.3774 53.2264 66.4364 53.0875 66.4973C49.4535 68.0807 49.4535 68.0807 45.9331 69.8973C43.1998 71.4247 40.1063 71.9875 37.0312 71.2499C35.7036 70.8266 34.59 70.1422 33.4375 69.3749C30.6666 67.5666 27.8319 66.2043 24.6875 65.1562C24.6875 60.6187 24.6875 56.0812 24.6875 51.4062Z" fill="black"/>
<path d="M43.2813 28.75C45.4469 28.75 47.6125 28.75 49.8438 28.75C49.6817 29.1552 49.5187 29.5602 49.3457 29.9609C48.9916 31.3773 49.5918 32.5415 50.3125 33.75C51.0326 34.7638 52.051 35.3672 53.1836 35.8496C54.944 36.1228 56.186 35.9535 57.6758 35C59.4004 33.4287 59.7952 30.9161 60.1563 28.75C61.7031 28.75 63.25 28.75 64.8438 28.75C64.8438 31.3237 64.8438 31.3237 64.5996 32.5293C64.5721 32.6677 64.5445 32.8061 64.5161 32.9487C63.8108 36.2715 62.3002 39.1114 60.1563 41.7187C60.0695 41.8277 59.9826 41.9367 59.8932 42.0489C59.3201 42.7494 58.6648 43.3302 57.9688 43.9062C57.8465 44.011 57.7242 44.1157 57.5983 44.2236C57.4143 44.3759 57.4143 44.3759 57.2266 44.5312C57.1146 44.6247 57.0026 44.7182 56.8872 44.8145C56.5625 45 56.5625 45 56.2549 44.9908C55.8313 44.7945 55.5415 44.5223 55.1953 44.209C53.8434 43.0776 51.8273 41.7711 50 41.875C49.4487 42.0027 48.9141 42.1825 48.3769 42.3591C46.5992 42.9234 44.9816 42.7342 43.2167 42.2459C41.4973 41.7834 40.1207 42.2885 38.5991 43.1408C37.4507 43.8096 36.3378 44.4836 35.4181 45.4559C35.1563 45.625 35.1563 45.625 34.7937 45.6183C34.2549 45.4258 33.8488 45.1202 33.4082 44.7656C33.2749 44.6602 33.2749 44.6602 33.1389 44.5526C30.5975 42.5232 28.5804 40.0956 27.1484 37.168C27.0753 37.0238 27.0753 37.0238 27.0007 36.8767C26.8021 36.4483 26.7057 36.1649 26.792 35.6958C27.1107 35.1852 27.502 34.7738 27.9297 34.3555C28.0099 34.2735 28.09 34.1915 28.1726 34.1071C28.791 33.4933 29.4013 33.0592 30.2734 32.8809C31.845 33.1529 32.8593 34.3933 33.9218 35.4829C34.9442 36.5253 35.9753 37.5688 37.475 37.8094C38.347 37.8173 39.1297 37.407 39.7669 36.825C41.7606 34.5806 42.5034 31.56 43.2813 28.75Z" fill="black"/>
<path d="M15.1562 48.4375C22.0312 48.4375 22.0312 48.4375 23.2812 49.0625C23.8046 49.7201 24.0805 50.2645 24.0855 51.104C24.0866 51.233 24.0877 51.3619 24.0889 51.4949C24.0893 51.6358 24.0897 51.7768 24.0902 51.9221C24.0917 52.1455 24.0917 52.1455 24.0933 52.3734C24.0964 52.8671 24.0982 53.3607 24.0997 53.8544C24.1004 54.023 24.101 54.1917 24.1017 54.3655C24.1049 55.2585 24.1072 56.1514 24.1086 57.0444C24.1103 57.9658 24.1157 58.8871 24.1219 59.8085C24.126 60.5177 24.1273 61.227 24.1279 61.9362C24.1286 62.2758 24.1305 62.6154 24.1334 62.9549C24.1372 63.431 24.137 63.9069 24.1359 64.383C24.1379 64.5225 24.1399 64.6619 24.142 64.8055C24.1345 65.7174 23.9683 66.4322 23.4375 67.1875C21.1871 69.0159 17.7479 67.9687 15.1562 67.9687C15.1562 61.5234 15.1562 55.0781 15.1562 48.4375Z" fill="black"/>
<path d="M25.4688 28.75C31.1922 28.75 36.9156 28.75 42.8125 28.75C42.263 31.3145 42.263 31.3145 41.9043 32.2949C41.864 32.4064 41.8237 32.5179 41.7822 32.6328C41.1521 34.3262 40.2824 35.892 38.9355 37.1191C38.2149 37.4442 37.6512 37.4999 36.875 37.3438C35.4839 36.7986 34.4714 35.6131 33.4671 34.5517C32.5364 33.5788 31.5947 32.6983 30.1892 32.6288C28.744 32.7437 27.8066 34.012 26.875 35C26.7719 35.1031 26.6688 35.2063 26.5625 35.3125C25.5495 33.2383 25.4688 31.0215 25.4688 28.75Z" fill="black"/>
<path d="M52.8125 42.9689C53.8838 43.6014 54.8614 44.3202 55.7812 45.1564C55.5568 45.8298 55.061 45.9884 54.4629 46.2989C54.3444 46.3608 54.2259 46.4227 54.1038 46.4864C49.4211 48.8552 43.9353 49.1996 38.9479 47.6222C37.7489 47.2089 36.598 46.6684 35.4688 46.0939C35.7097 45.3988 36.2626 45.0514 36.8359 44.6388C36.9394 44.5636 37.0429 44.4884 37.1495 44.4109C38.9954 43.1027 40.6722 42.3393 42.9688 42.5001C43.3502 42.6051 43.3502 42.6051 43.7012 42.7345C45.3563 43.2988 47.183 43.1031 48.7823 42.4855C50.1672 42.0361 51.5409 42.3331 52.8125 42.9689Z" fill="black"/>
<path d="M48.8867 23.6329C50.4861 25.0122 51.171 26.164 51.4062 28.2814C47.2812 28.2814 43.1562 28.2814 38.9062 28.2814C39.1113 26.4363 39.6583 25.1617 41.0272 23.8917C43.2725 22.1273 46.543 21.8941 48.8867 23.6329Z" fill="black"/>
<path d="M51.0068 28.7124C51.2473 28.7134 51.2473 28.7134 51.4926 28.7145C51.7647 28.7145 51.7647 28.7145 52.0423 28.7146C52.239 28.7162 52.4356 28.7178 52.6382 28.7195C52.8389 28.7199 53.0396 28.7203 53.2464 28.7208C53.7802 28.722 54.3139 28.7251 54.8477 28.7285C55.3923 28.7317 55.9369 28.7331 56.4815 28.7347C57.5503 28.7381 58.619 28.7434 59.6877 28.75C59.6652 29.0493 59.642 29.3485 59.6185 29.6478C59.6056 29.8144 59.5928 29.9811 59.5795 30.1528C59.4066 31.8519 58.6702 33.4464 57.5002 34.6875C56.3905 35.5898 55.3133 35.753 53.9065 35.625C52.5363 35.313 51.3232 34.6567 50.4916 33.5046C49.7685 32.3264 49.5504 31.3865 49.6877 30C49.9273 29.4039 50.3419 28.7779 51.0068 28.7124Z" fill="black"/>
<path d="M54.958 13.064C55.0753 13.0649 55.1925 13.0658 55.3133 13.0667C55.6875 13.0702 56.0615 13.078 56.4357 13.086C56.6895 13.0891 56.9433 13.092 57.1971 13.0945C57.819 13.1014 58.4408 13.1122 59.0626 13.1251C59.0626 13.6407 59.0626 14.1563 59.0626 14.6876C57.6704 14.6876 56.2783 14.6876 54.8439 14.6876C54.8439 16.286 54.8439 17.8844 54.8439 19.5313C56.2361 19.5313 57.6283 19.5313 59.0626 19.5313C59.0626 19.9954 59.0626 20.4594 59.0626 20.9376C58.3146 20.9491 57.5667 20.9576 56.8186 20.9633C56.5642 20.9657 56.3097 20.9689 56.0552 20.9729C55.6895 20.9786 55.3238 20.9813 54.958 20.9833C54.8442 20.9857 54.7304 20.9882 54.6132 20.9907C54.1587 20.9908 53.8312 20.9899 53.4431 20.7395C53.2477 20.4124 53.227 20.2216 53.2356 19.842C53.2374 19.6819 53.2374 19.6819 53.2392 19.5187C53.2434 19.3843 53.2477 19.2499 53.2521 19.1114C53.2618 18.6828 53.2714 18.2542 53.2814 17.8126C52.1986 17.8126 51.1158 17.8126 50.0001 17.8126C50.0001 19.8235 50.0001 21.8344 50.0001 23.9063C49.7939 23.8032 49.5876 23.7001 49.3751 23.5938C49.1269 23.4721 49.1269 23.4721 48.8737 23.3479C48.4105 22.9452 48.3734 22.912 48.3262 22.3459C48.3243 22.0943 48.3275 21.8427 48.3351 21.5912C48.3357 21.458 48.3363 21.3247 48.3369 21.1874C48.339 20.9062 48.3433 20.625 48.3497 20.3439C48.3595 19.9131 48.3625 19.4827 48.3644 19.0519C48.3673 18.7785 48.3705 18.5052 48.3742 18.2319C48.3755 18.103 48.3768 17.974 48.3782 17.8412C48.3934 17.2348 48.4065 16.9217 48.7501 16.4063C49.2016 16.3531 49.2016 16.3531 49.7719 16.3605C50.077 16.3628 50.077 16.3628 50.3883 16.3651C50.604 16.369 50.8196 16.373 51.0353 16.377C51.2522 16.3794 51.469 16.3815 51.6859 16.3834C52.2178 16.389 52.7496 16.3967 53.2814 16.4063C53.2759 16.2218 53.2705 16.0373 53.2649 15.8472C53.2605 15.6039 53.2562 15.3606 53.2521 15.1172C53.2482 14.9958 53.2442 14.8743 53.2402 14.7492C53.2387 14.6314 53.2372 14.5135 53.2356 14.3921C53.2331 14.2841 53.2307 14.1761 53.2282 14.0648C53.4007 13.0445 54.0629 13.0386 54.958 13.064Z" fill="black"/>
<path d="M31.25 13.125C31.9729 13.1095 32.6957 13.0982 33.4187 13.0907C33.6645 13.0875 33.9103 13.0833 34.1561 13.0779C34.5099 13.0703 34.8635 13.0667 35.2173 13.064C35.3268 13.0607 35.4364 13.0575 35.5493 13.0542C36.0728 13.054 36.36 13.0916 36.7892 13.4012C37.0516 13.7793 37.106 13.9395 37.0923 14.3921C37.0907 14.4984 37.0892 14.6047 37.0876 14.7142C37.079 14.9137 37.079 14.9137 37.0703 15.1172C37.0574 15.5426 37.0445 15.968 37.0312 16.4063C38.5266 16.4063 40.0219 16.4063 41.5625 16.4063C41.9042 17.0897 41.9356 17.6147 41.9495 18.3582C41.952 18.4868 41.9545 18.6155 41.9571 18.7481C41.9614 19.02 41.9648 19.2918 41.9672 19.5637C41.9708 19.841 41.9772 20.1184 41.9865 20.3956C42.063 22.6975 42.063 22.6975 41.6008 23.3644C41.1827 23.6865 40.848 23.9063 40.3125 23.9063C40.3125 21.8953 40.3125 19.8844 40.3125 17.8125C39.2297 17.8125 38.1469 17.8125 37.0312 17.8125C37.0374 18.6142 37.0374 18.6142 37.0453 19.4158C37.0473 19.9131 37.0333 20.3063 36.875 20.7813C36.3959 21.0208 35.8951 20.9565 35.3699 20.9528C35.1937 20.9524 35.1937 20.9524 35.0139 20.9521C34.6382 20.9512 34.2624 20.9493 33.8867 20.9473C33.6322 20.9465 33.3777 20.9458 33.1232 20.9451C32.4988 20.9434 31.8744 20.9407 31.25 20.9375C31.25 20.4734 31.25 20.0094 31.25 19.5313C32.6422 19.5313 34.0344 19.5313 35.4688 19.5313C35.4688 17.9328 35.4688 16.3344 35.4688 14.6875C34.0766 14.6875 32.6844 14.6875 31.25 14.6875C31.25 14.1719 31.25 13.6563 31.25 13.125Z" fill="black"/>
<path d="M44.375 12.8125C44.8906 12.8125 45.4062 12.8125 45.9375 12.8125C45.9375 15.8547 45.9375 18.8969 45.9375 22.0312C45.4219 22.0312 44.9062 22.0312 44.375 22.0312C44.375 18.9891 44.375 15.9469 44.375 12.8125Z" fill="black"/>
<path d="M62.3439 18.4375C62.8304 18.6859 63.0458 18.8734 63.2576 19.3781C63.432 19.991 63.4946 20.472 63.2619 21.0742C62.8294 21.7951 62.8294 21.7951 62.3439 22.0313C61.6206 22.1946 61.2709 22.2543 60.5763 21.9922C60.0087 21.6226 59.7472 21.4287 59.5314 20.7813C59.4611 19.8322 59.6226 19.3468 60.2345 18.6328C60.857 18.1141 61.6098 18.2762 62.3439 18.4375Z" fill="black"/>
<path d="M29.8438 18.4375C30.3501 18.8383 30.5774 19.076 30.7812 19.6875C30.8425 20.3363 30.8211 20.7015 30.5273 21.289C30.105 21.778 29.833 21.9867 29.2188 22.1875C28.5724 22.2179 28.0922 22.0956 27.5195 21.7968C27.0494 21.2438 26.9018 20.7223 26.875 20C26.9916 19.427 27.2256 19.017 27.6562 18.6132C28.3913 18.1998 29.0453 18.2301 29.8438 18.4375Z" fill="black"/>
<path d="M57.0899 22.7735C57.7139 23.3084 57.796 23.5409 57.8614 24.3653C57.8408 25.1052 57.592 25.5332 57.0704 26.0548C56.5661 26.335 56.204 26.3967 55.6251 26.4064C55.0455 26.2198 54.5286 26.0148 54.1865 25.4945C53.9581 24.8712 53.9759 24.2463 54.0626 23.5939C54.7484 22.4183 55.8993 22.1562 57.0899 22.7735Z" fill="black"/>
<path d="M62.1873 12.0312C62.7082 12.2977 63.0351 12.6778 63.3592 13.164C63.4797 13.8266 63.3778 14.3782 63.1248 14.9999C62.7314 15.4702 62.4561 15.7274 61.8462 15.8496C61.0087 15.8947 60.4874 15.7215 59.8436 15.1562C59.4768 14.6893 59.4657 14.1845 59.481 13.5986C59.5645 13.0696 59.8135 12.7434 60.1561 12.3437C60.811 11.945 61.4395 11.9042 62.1873 12.0312Z" fill="black"/>
<path d="M29.5312 12.0313C30.0674 12.2945 30.3661 12.5002 30.6933 12.9981C30.8216 13.6395 30.8055 14.2131 30.625 14.8438C30.2215 15.3403 29.8773 15.7329 29.226 15.824C28.5762 15.8528 28.1126 15.8528 27.5878 15.4395C27.0329 14.8305 26.8697 14.5069 26.8847 13.6817C27.0684 12.9837 27.3119 12.7003 27.8125 12.1876C28.3553 11.9161 28.9376 11.9595 29.5312 12.0313Z" fill="black"/>
<path d="M46.2498 8.74994C46.7201 9.14341 46.9772 9.4187 47.0994 10.0286C47.134 10.669 47.0534 11.0483 46.7674 11.6308C46.2347 12.221 45.8668 12.3173 45.0877 12.4023C44.4194 12.3319 44.1056 12.1474 43.5936 11.7187C43.1941 11.0647 43.1542 10.4347 43.2811 9.68744C43.5475 9.1666 43.9277 8.83969 44.4139 8.51556C45.0765 8.39509 45.628 8.49695 46.2498 8.74994Z" fill="black"/>
<path d="M35.0002 22.4999C35.6299 22.8326 35.9849 23.0915 36.2502 23.7499C36.3812 24.5082 36.3271 25.024 35.9377 25.6933C35.3816 26.1683 34.9533 26.3895 34.219 26.4062C33.5919 26.2109 33.0584 26.0046 32.6565 25.4687C32.4068 24.7196 32.3847 24.0386 32.676 23.3105C33.3158 22.564 34.043 22.3803 35.0002 22.4999Z" fill="black"/>
<path d="M36.5625 25.4688C36.8306 25.6936 37.0968 25.9202 37.3608 26.1499C37.6095 26.3656 37.8619 26.5769 38.1152 26.7871C38.5333 27.3065 38.5012 27.6318 38.4375 28.2812C37.93 28.3752 37.6772 28.4142 37.1875 28.2812C36.6069 27.8125 36.1146 27.2806 35.625 26.7188C35.8675 26.1988 36.1416 25.8616 36.5625 25.4688Z" fill="black"/>
<path d="M53.7848 25.6334C54.1565 25.8311 54.4069 26.0955 54.6875 26.4061C54.3408 27.1835 53.8104 27.7796 53.125 28.2811C52.6577 28.3857 52.3573 28.35 51.875 28.2811C51.7462 27.8704 51.7462 27.8704 51.7188 27.3436C51.9822 26.9758 52.2048 26.7177 52.5293 26.4159C52.6067 26.3368 52.6842 26.2578 52.764 26.1763C53.3361 25.6224 53.3361 25.6224 53.7848 25.6334Z" fill="black"/>
</svg>
