<svg width="256" height="256" viewBox="0 0 256 256" fill="none" xmlns="http://www.w3.org/2000/svg">
<path d="M34.4248 27.4917C35.6757 27.4823 35.6757 27.4823 36.9519 27.4728C39.7387 27.4569 42.5247 27.4695 45.3115 27.4821C47.3125 27.4766 49.3135 27.4695 51.3145 27.4608C56.7442 27.4426 62.1736 27.4497 67.6033 27.4623C73.286 27.4725 78.9687 27.4631 84.6514 27.4568C94.1944 27.4495 103.737 27.4591 113.28 27.4782C124.313 27.4999 135.345 27.4929 146.378 27.4708C155.85 27.4527 165.323 27.4501 174.796 27.4606C180.453 27.4668 186.111 27.4677 191.768 27.4545C197.087 27.4429 202.405 27.4509 207.724 27.474C209.676 27.4793 211.628 27.4778 213.58 27.469C216.245 27.458 218.908 27.4718 221.573 27.4917C222.732 27.4783 222.732 27.4783 223.913 27.4647C230.374 27.5584 233.898 29.8789 238.342 34.3639C240.968 40.126 240.556 45.9334 240.517 52.1715C240.522 53.6208 240.529 55.07 240.538 56.5193C240.556 60.445 240.549 64.3702 240.536 68.2959C240.526 72.4091 240.536 76.5222 240.542 80.6354C240.549 87.542 240.54 94.4485 240.521 101.355C240.499 109.334 240.506 117.312 240.528 125.291C240.546 132.148 240.549 139.005 240.538 145.862C240.532 149.955 240.531 154.047 240.544 158.14C240.556 161.988 240.548 165.835 240.525 169.683C240.519 171.093 240.521 172.504 240.53 173.914C240.591 184.701 240.591 184.701 238.342 189.635C233.922 194.096 230.627 196.445 224.176 196.497C223.086 196.476 223.086 196.476 221.974 196.454C221.193 196.454 220.412 196.455 219.607 196.456C217.042 196.453 214.478 196.422 211.913 196.39C210.128 196.383 208.343 196.377 206.558 196.373C201.872 196.358 197.187 196.319 192.502 196.274C187.716 196.233 182.93 196.215 178.144 196.195C168.762 196.152 159.381 196.082 149.999 196C151.979 203.59 153.959 211.18 155.999 219C159.629 219.33 163.259 219.66 166.999 220C167.999 221 167.999 221 168.124 224C167.999 227 167.999 227 166.999 228C164.57 228.1 162.17 228.136 159.741 228.129C158.982 228.131 158.223 228.133 157.44 228.134C154.918 228.139 152.396 228.136 149.874 228.132C148.129 228.133 146.384 228.134 144.639 228.135C140.977 228.137 137.315 228.135 133.653 228.13C128.949 228.124 124.244 228.128 119.539 228.134C115.934 228.137 112.33 228.136 108.725 228.133C106.99 228.133 105.255 228.134 103.519 228.136C101.099 228.138 98.6777 228.135 96.2568 228.129C95.5327 228.131 94.8085 228.133 94.0623 228.135C89.1133 228.114 89.1133 228.114 87.999 227C87.874 224 87.874 224 87.999 221C90.8665 218.132 95.9605 219.367 99.999 219C101.979 211.41 103.959 203.82 105.999 196C102.411 196.031 102.411 196.031 98.7505 196.063C90.8397 196.129 82.9288 196.174 75.0178 196.207C70.2222 196.228 65.4268 196.256 60.6314 196.301C56.0018 196.345 51.3726 196.369 46.7429 196.379C44.9782 196.387 43.2136 196.401 41.4491 196.423C38.9737 196.452 36.4995 196.456 34.0239 196.454C33.2974 196.468 32.571 196.482 31.8225 196.497C26.7223 196.456 23.8618 195.298 19.999 192C15.1629 186.721 15.4449 181.75 15.5291 174.961C15.5269 173.86 15.5247 172.758 15.5224 171.624C15.5201 167.992 15.5463 164.361 15.5732 160.73C15.5782 158.208 15.5815 155.685 15.5832 153.163C15.5908 147.883 15.6109 142.603 15.6423 137.323C15.6827 130.539 15.7 123.755 15.7096 116.971C15.7188 110.516 15.7395 104.06 15.7607 97.6051C15.7641 96.3656 15.7675 95.1262 15.771 93.8491C15.7826 90.363 15.8011 86.877 15.822 83.391C15.8247 82.3474 15.8274 81.3038 15.8302 80.2285C15.8373 79.285 15.8445 78.3415 15.8519 77.3694C15.8561 76.5448 15.8604 75.7203 15.8648 74.8707C15.999 72.9996 15.999 72.9996 16.999 71.9996C19.999 71.8746 19.999 71.8746 22.999 71.9996C24.8431 73.8437 24.119 76.4409 24.1235 78.8942C24.1199 79.7431 24.1163 80.592 24.1126 81.4667C24.1127 82.3688 24.1128 83.2709 24.1129 84.2004C24.1122 87.1348 24.1045 90.0692 24.0967 93.0035C24.0952 94.8095 24.0942 96.6154 24.0936 98.4214C24.0884 105.135 24.0744 111.849 24.0615 118.562C24.0409 133.557 24.0203 148.551 23.999 164C62.279 164 100.559 164 139.999 164C139.999 150.14 139.999 136.28 139.999 122C144.967 110.076 147.887 104.674 157.999 97.9996C157.505 97.1798 157.012 96.36 156.503 95.5153C155.862 94.4376 155.222 93.36 154.562 92.2496C153.604 90.6486 153.604 90.6486 152.628 89.0153C149.23 82.7243 149.127 76.2998 151.124 69.4996C154.04 61.6092 158.467 56.6208 165.999 52.9996C166.989 52.5046 166.989 52.5046 167.999 51.9996C177.254 51.1899 185.278 51.2887 192.999 56.9996C198.722 61.9071 201.265 67.8426 202.315 75.2223C202.729 82.7911 200.053 89.8079 195.249 95.6246C194.135 96.8003 194.135 96.8003 192.999 97.9996C193.886 98.5565 194.773 99.1134 195.687 99.6871C198.848 101.8 201.408 104.204 203.999 107C204.68 107.722 205.36 108.443 206.062 109.187C211.037 116.409 212.596 123.517 212.39 132.164C212.384 133.082 212.378 134 212.372 134.946C212.35 137.839 212.3 140.732 212.249 143.625C212.229 145.602 212.211 147.58 212.194 149.558C212.154 154.373 212.076 159.185 211.999 164C218.599 164 225.199 164 231.999 164C231.915 148.44 231.82 132.88 231.712 117.321C231.661 110.096 231.615 102.871 231.577 95.6464C231.544 89.3489 231.504 83.0514 231.456 76.754C231.431 73.42 231.41 70.0859 231.396 66.7518C231.379 63.0287 231.35 59.3059 231.318 55.5829C231.316 54.4788 231.314 53.3747 231.311 52.2371C231.3 51.2205 231.289 50.204 231.277 49.1566C231.272 48.2763 231.266 47.396 231.261 46.489C230.955 43.5787 230.438 41.5584 228.999 38.9996C224.973 36.5531 220.722 36.7176 216.142 36.7457C215.358 36.7425 214.573 36.7394 213.764 36.7362C211.138 36.7282 208.512 36.7346 205.886 36.7408C204.002 36.7381 202.117 36.7346 200.233 36.7302C195.117 36.7211 190.002 36.7246 184.886 36.731C179.534 36.736 174.182 36.7314 168.83 36.7282C159.842 36.7246 150.853 36.7294 141.865 36.7389C131.472 36.7498 121.079 36.7463 110.685 36.7352C101.764 36.7262 92.842 36.7249 83.9204 36.7301C78.5911 36.7332 73.2618 36.7337 67.9325 36.727C62.9223 36.7213 57.9123 36.7253 52.9022 36.7368C51.0627 36.7395 49.2233 36.7387 47.3838 36.7343C44.8744 36.7289 42.3652 36.7357 39.8557 36.7457C39.1266 36.7412 38.3975 36.7367 37.6464 36.7322C33.6746 36.7628 30.5262 37.1119 26.999 38.9996C24.6343 42.9626 24.6146 47.2414 24.4365 51.7496C24.1211 58.8776 24.1211 58.8776 22.999 59.9996C19.999 60.1246 19.999 60.1246 16.999 59.9996C14.6486 57.6492 15.7181 51.9643 15.6865 48.8121C15.6575 47.8653 15.6285 46.9185 15.5986 45.943C15.5458 40.1193 15.8975 36.4821 19.999 31.9996C24.7358 28.1512 28.4878 27.4231 34.4248 27.4917ZM161.624 67.7496C158.942 73.1134 158.262 77.5366 160.124 83.1871C162.113 87.7898 164.933 90.8271 169.312 93.3121C174.338 94.5979 178.383 94.6017 183.187 92.8121C188.138 89.6209 191.026 87.0417 192.499 81.2496C193.322 75.9397 192.662 71.6883 189.999 66.9996C186.884 63.4533 183.538 61.2704 178.765 60.7614C171.127 60.536 166.79 61.7682 161.624 67.7496ZM162.999 106C162.669 106.66 162.339 107.32 161.999 108C172.864 112.156 179.199 111.893 189.999 108C186.12 103.748 181.75 103.141 176.124 102.687C171.533 102.804 167.14 104.024 162.999 106ZM152.999 115C152.342 116.348 151.699 117.704 151.062 119.062C150.702 119.816 150.342 120.57 149.972 121.347C147.892 127.018 147.856 132.925 147.901 138.902C147.902 139.544 147.903 140.185 147.904 140.846C147.91 143.21 147.924 145.574 147.937 147.937C147.957 153.238 147.978 158.538 147.999 164C162.189 164.33 176.379 164.66 190.999 165C190.999 166.98 190.999 168.96 190.999 171C108.334 171.495 108.334 171.495 23.999 172C23.7459 179.807 23.7459 179.807 26.999 186C31.172 188.256 35.2166 188.284 39.849 188.26C40.6331 188.264 41.4172 188.268 42.225 188.272C44.8489 188.282 47.4725 188.278 50.0964 188.274C51.979 188.279 53.8616 188.284 55.7443 188.29C60.8558 188.303 65.9672 188.304 71.0788 188.301C75.3458 188.3 79.6128 188.305 83.8798 188.31C93.9458 188.321 104.012 188.321 114.078 188.315C124.463 188.309 134.849 188.322 145.234 188.343C154.151 188.36 163.067 188.366 171.984 188.363C177.309 188.361 182.634 188.364 187.96 188.378C192.968 188.391 197.975 188.389 202.983 188.376C204.82 188.373 206.658 188.376 208.495 188.384C211.004 188.395 213.513 188.387 216.022 188.374C216.748 188.381 217.474 188.389 218.223 188.396C222.868 188.347 226.057 187.458 229.999 185C232.78 180.576 231.999 177.638 231.999 172C223.089 171.67 214.179 171.34 204.999 171C204.95 168.228 204.901 165.457 204.851 162.601C204.796 159.887 204.739 157.173 204.682 154.459C204.644 152.587 204.609 150.716 204.577 148.844C204.531 146.138 204.473 143.432 204.413 140.726C204.396 139.491 204.396 139.491 204.378 138.231C204.174 130.017 203.172 122.207 198.999 115C192.817 115.537 187.672 117.545 181.999 120C182.456 121.542 182.915 123.083 183.374 124.625C183.646 125.541 183.918 126.458 184.198 127.402C184.799 129.351 185.475 131.276 186.187 133.187C187.584 138.023 187.6 141.708 185.46 146.308C184.427 147.857 184.427 147.857 183.374 149.437C182.701 150.488 182.028 151.538 181.335 152.621C178.999 155 178.999 155 175.999 155.695C171.836 154.73 170.901 152.992 168.624 149.437C167.936 148.405 167.247 147.372 166.538 146.308C164.171 141.219 164.484 137.66 166.128 132.359C166.838 130.572 166.838 130.572 167.562 128.75C169.741 123.936 169.741 123.936 168.999 119C166.353 117.741 166.353 117.741 163.187 116.812C162.128 116.468 161.07 116.124 159.979 115.769C156.867 114.833 156.867 114.833 152.999 115ZM174.999 132C174.628 133.258 174.257 134.516 173.874 135.812C173.665 136.52 173.456 137.228 173.241 137.957C172.738 140.311 172.738 140.311 174.999 143C175.659 143 176.319 143 176.999 143C178.76 139.674 179.107 138.408 178.124 134.687C177.753 133.8 177.382 132.913 176.999 132C176.339 132 175.679 132 174.999 132ZM115.999 196C114.258 201.087 112.607 206.152 111.312 211.375C111.06 212.372 110.809 213.37 110.55 214.398C109.895 217.046 109.895 217.046 109.999 220C121.879 220 133.759 220 145.999 220C144.412 211.122 144.412 211.122 142.437 202.375C142.188 201.372 141.939 200.369 141.683 199.336C141.22 197.06 141.22 197.06 139.999 196C138.218 195.912 136.434 195.893 134.651 195.902C133.572 195.905 132.492 195.908 131.38 195.912C129.675 195.924 129.675 195.924 127.937 195.937C126.796 195.942 125.656 195.946 124.481 195.951C121.654 195.963 118.827 195.979 115.999 196Z" fill="white"/>
<path d="M89.0009 51.9998C91.0009 53.9998 91.0009 53.9998 91.1884 57.0623C91.0009 59.9998 91.0009 59.9998 90.0009 60.9998C88.3551 61.0207 86.7085 60.9904 85.0634 60.9373C75.02 60.8984 67.0497 62.7025 59.0009 68.9998C56.6131 71.4781 54.766 74.0522 53.0009 76.9998C52.3822 78.0104 51.7634 79.021 51.1259 80.0623C48.2735 87.5094 48.9469 97.207 51.6884 104.562C55.5551 112.657 61.092 117.052 69.0009 121C77.1948 123.804 87.1735 122.828 94.8915 119.183C101.858 115.274 107.27 108.888 109.558 101.104C109.998 99.0119 110.188 97.0598 110.282 94.9256C110.32 94.176 110.357 93.4264 110.395 92.6541C110.466 91.0812 110.537 89.5083 110.606 87.9353C110.899 82.1019 110.899 82.1019 112.001 80.9998C114.938 80.8123 114.938 80.8123 118.001 80.9998C120.594 83.5933 120.312 85.4761 120.382 89.0176C120.352 101.889 118.152 111.414 109.001 121C99.7738 129.808 90.1505 132.626 77.6362 132.47C65.8089 132.002 57.1598 127.451 49.0283 118.933C40.2 108.456 38.8994 97.3798 39.7778 84.1214C40.8539 73.8898 47.5983 65.6215 55.2509 59.1873C65.6783 51.6768 76.5206 50.8806 89.0009 51.9998Z" fill="white"/>
<path d="M105.669 61.6055C107.999 61.9995 107.999 61.9995 109.999 63.9995C110.48 66.2249 110.48 66.2249 109.999 68.9995C108.168 71.3394 106.402 73.3214 104.304 75.394C103.719 75.9863 103.134 76.5785 102.531 77.1886C101.291 78.4361 100.045 79.6772 98.7931 80.9124C96.8824 82.8038 95.0028 84.7228 93.1242 86.646C91.915 87.8555 90.7041 89.0632 89.4913 90.269C88.9317 90.844 88.3721 91.4189 87.7955 92.0112C85.1388 94.5907 83.4773 95.9282 79.7689 96.4812C75.9167 95.8113 74.2937 94.1268 71.5617 91.3745C70.6761 90.516 69.7905 89.6575 68.8781 88.7729C66.9992 85.9995 66.9992 85.9995 67.214 82.6636C67.4731 81.7844 67.7322 80.9053 67.9992 79.9995C70.6867 79.187 70.6867 79.187 73.9992 78.9995C76.8742 81.437 76.8742 81.437 78.9992 83.9995C82.6606 82.4728 84.8741 80.2904 87.589 77.4292C88.8893 76.0854 88.8893 76.0854 90.216 74.7144C92.0318 72.819 93.8417 70.9179 95.6456 69.0112C96.5138 68.1179 97.382 67.2246 98.2765 66.3042C99.0627 65.479 99.849 64.6539 100.659 63.8037C102.999 61.9995 102.999 61.9995 105.669 61.6055Z" fill="white"/>
</svg>
