<svg width="49" height="49" viewBox="0 0 49 49" fill="none" xmlns="http://www.w3.org/2000/svg">
<path d="M27.5205 2.50307C28.1179 3.01116 28.5802 3.54419 28.9263 4.25374C28.9629 4.32576 28.9994 4.39777 29.0371 4.47197C29.845 6.16102 29.5872 8.14517 29.0083 9.8658C28.6124 10.8752 28.1054 11.7324 27.3193 12.478C27.3782 12.4841 27.4372 12.4902 27.4979 12.4965C30.5394 12.8229 32.2385 14.0664 34.3382 16.1824C34.4469 16.2915 34.5556 16.4007 34.6643 16.5098C34.9261 16.7726 35.1876 17.0357 35.449 17.2991C35.7321 17.1724 35.924 17.0345 36.1384 16.8112C36.1972 16.7506 36.2559 16.6899 36.3165 16.6275C36.3792 16.562 36.4419 16.4965 36.5065 16.4291C36.6423 16.29 36.778 16.1511 36.9138 16.0122C37.1262 15.794 37.3382 15.5754 37.549 15.3557C39.4752 13.3533 39.4752 13.3533 40.9318 13.2992C41.9074 13.3187 42.6912 13.6503 43.3807 14.3342C44.0312 15.0685 44.2892 15.7919 44.2636 16.7721C44.1215 18.2591 43.0564 19.1886 42.058 20.1841C41.9271 20.3155 41.7962 20.4469 41.6653 20.5783C41.392 20.8525 41.1181 21.1261 40.8439 21.3994C40.4936 21.7487 40.1448 22.0994 39.7963 22.4506C39.5268 22.7219 39.2564 22.9923 38.9857 23.2624C38.8567 23.3914 38.728 23.5206 38.5997 23.6501C38.4199 23.8313 38.239 24.0112 38.0577 24.1909C38.0056 24.2439 37.9535 24.2969 37.8999 24.3515C37.1579 25.0797 36.3914 25.27 35.3742 25.269C33.8923 25.2384 33.0888 24.2051 32.1086 23.2235C32.0388 23.1536 31.9689 23.0837 31.897 23.0117C31.726 22.8406 31.5551 22.6694 31.3841 22.4983C31.3839 22.6086 31.3839 22.6086 31.3837 22.7212C31.382 23.4152 31.3781 24.1092 31.3716 24.8033C31.3684 25.1601 31.366 25.5168 31.3656 25.8736C31.3652 26.2181 31.3625 26.5626 31.3583 26.907C31.3571 27.0383 31.3567 27.1696 31.3571 27.3008C31.3575 27.485 31.3548 27.6692 31.3519 27.8534C31.3513 27.9581 31.3507 28.0629 31.35 28.1708C31.2698 28.5463 31.1131 28.6895 30.8169 28.9264C30.4861 28.9855 30.4861 28.9855 30.1552 28.9264C29.8031 28.6631 29.6937 28.5232 29.6232 28.0843C29.6207 27.9375 29.6208 27.7907 29.6229 27.6439C29.6219 27.5233 29.6219 27.5233 29.6209 27.4002C29.6193 27.1349 29.6211 26.8698 29.6231 26.6045C29.623 26.4198 29.6228 26.2351 29.6224 26.0504C29.6222 25.6635 29.6235 25.2767 29.6261 24.8899C29.6294 24.3943 29.6288 23.8988 29.627 23.4032C29.626 23.0219 29.6269 22.6406 29.6283 22.2593C29.6288 22.0766 29.6287 21.8938 29.6281 21.7111C29.6276 21.4556 29.6296 21.2003 29.6321 20.9448C29.6312 20.8318 29.6312 20.8318 29.6303 20.7165C29.6363 20.3668 29.6704 20.1548 29.8548 19.8543C30.1432 19.5854 30.3314 19.5611 30.7224 19.5678C31.2971 19.8785 31.7269 20.3588 32.1817 20.8203C32.2981 20.9368 32.2981 20.9368 32.4168 21.0556C32.8269 21.4686 33.2237 21.8883 33.6021 22.3306C34.3151 23.1683 34.3151 23.1683 35.3027 23.5706C35.945 23.5937 36.3583 23.4501 36.8529 23.0203C36.9476 22.927 37.0416 22.8329 37.1349 22.7382C37.2127 22.6609 37.2127 22.6609 37.2921 22.582C37.4624 22.4125 37.6316 22.242 37.8008 22.0714C37.9196 21.9525 38.0385 21.8337 38.1574 21.715C38.4062 21.4662 38.6544 21.217 38.9023 20.9674C39.2189 20.6486 39.5366 20.3309 39.8546 20.0135C40.1001 19.7683 40.3451 19.5226 40.59 19.2768C40.7069 19.1596 40.824 19.0424 40.9411 18.9254C41.1053 18.7612 41.2689 18.5965 41.4324 18.4315C41.4801 18.3839 41.5279 18.3364 41.5772 18.2874C42.0509 17.8066 42.5001 17.3155 42.5684 16.6196C42.5214 16.0466 42.3328 15.6591 41.9066 15.2725C41.5207 15.0905 41.1708 14.9776 40.7427 15.0303C40.0327 15.315 39.5886 15.7638 39.0641 16.3105C38.9331 16.444 38.8022 16.5775 38.6711 16.7109C38.3968 16.9908 38.1241 17.2723 37.8515 17.5538C37.6259 17.7867 37.3999 18.0191 37.1727 18.2504C37.0028 18.4233 36.834 18.5973 36.6664 18.7724C36.5894 18.8507 36.5124 18.9289 36.433 19.0095C36.3325 19.1133 36.3325 19.1133 36.23 19.2192C35.9661 19.4161 35.7753 19.4524 35.449 19.4733C34.9956 19.3072 34.6852 19.0328 34.3534 18.6923C34.3054 18.6441 34.2574 18.596 34.208 18.5463C34.107 18.4447 34.0063 18.3428 33.906 18.2405C33.7547 18.0863 33.6025 17.9331 33.45 17.78C32.982 17.3084 32.5274 16.8299 32.0945 16.3255C30.8874 14.9697 29.3363 14.3285 27.5385 14.2215C27.1819 14.2036 26.8254 14.1904 26.4685 14.1795C26.4845 14.2377 26.5005 14.2958 26.517 14.3557C26.5705 14.5905 26.5489 14.7426 26.498 14.9771C26.484 15.0472 26.47 15.1173 26.4556 15.1895C26.374 15.4084 26.374 15.4084 26.1792 15.6213C25.9505 15.9453 25.9637 16.0857 26.006 16.475C26.0181 16.5922 26.0302 16.7094 26.0427 16.8301C26.0585 16.9537 26.0742 17.0772 26.0904 17.2045C26.1058 17.3264 26.1212 17.4483 26.137 17.5739C26.1801 17.9006 26.2271 18.2266 26.2754 18.5526C26.3073 18.7672 26.3385 18.9819 26.3696 19.1967C26.4355 19.6513 26.5022 20.1059 26.5689 20.5604C26.6467 21.0904 26.7242 21.6205 26.801 22.1507C26.8317 22.3613 26.8628 22.5719 26.894 22.7825C26.9128 22.912 26.9316 23.0414 26.9504 23.1709C26.9669 23.2832 26.9834 23.3955 27.0004 23.5112C27.0897 24.2973 27.0897 24.2973 26.8969 24.6245C26.8335 24.6988 26.7701 24.7732 26.7048 24.8497C26.6357 24.9311 26.5667 25.0125 26.4955 25.0964C26.2414 25.3761 25.9785 25.6435 25.7075 25.9066C25.5187 26.095 25.3432 26.2906 25.1687 26.4922C25.1145 26.5541 25.0603 26.616 25.0044 26.6798C24.892 26.8111 24.7842 26.9464 24.6783 27.083C24.4306 27.2632 24.2204 27.2839 23.9173 27.2666C23.3895 27.1508 23.0402 26.627 22.7068 26.2348C22.3748 25.8546 22.0273 25.4886 21.681 25.1214C21.6033 25.0384 21.6033 25.0384 21.5241 24.9539C21.4773 24.9042 21.4305 24.8546 21.3823 24.8034C21.0669 24.4381 21.1486 23.994 21.1748 23.5381C21.2304 23.0518 21.3003 22.5682 21.3731 22.0842C21.4095 21.8419 21.445 21.5995 21.4802 21.357C21.5803 20.6683 21.682 19.9799 21.7846 19.2915C21.8475 18.8689 21.9093 18.4461 21.9703 18.0232C21.9938 17.8625 22.0177 17.7019 22.042 17.5413C22.076 17.3175 22.1084 17.0935 22.1406 16.8695C22.1562 16.7703 22.1562 16.7703 22.1721 16.6692C22.2215 16.3132 22.23 16.0886 22.0255 15.7866C21.9577 15.6709 21.8907 15.5547 21.8247 15.438C21.7746 15.3526 21.7746 15.3526 21.7235 15.2655C21.6076 14.9073 21.6339 14.5529 21.6474 14.1795C18.8741 14.2707 17.3044 15.092 15.3914 17.0398C15.3244 17.1079 15.2575 17.1761 15.1885 17.2462C14.9111 17.5288 14.6339 17.8115 14.3584 18.0959C14.1543 18.3063 13.9488 18.5151 13.743 18.7237C13.6504 18.8204 13.6504 18.8204 13.5559 18.9191C13.2148 19.2621 12.9875 19.4717 12.4779 19.4733C12.0831 19.3473 11.866 19.1537 11.6055 18.8445C11.2677 18.4516 10.9134 18.0796 10.5492 17.7111C10.4848 17.646 10.4204 17.5808 10.354 17.5136C10.2189 17.3772 10.0836 17.2409 9.94818 17.1047C9.81073 16.9662 9.6737 16.8272 9.5371 16.6878C9.33775 16.4844 9.13717 16.2823 8.93628 16.0805C8.87609 16.0186 8.8159 15.9568 8.75389 15.8931C8.3129 15.4542 7.83834 15.0666 7.20038 15.0041C7.08705 15.02 7.08705 15.02 6.97144 15.0362C6.89491 15.0451 6.81838 15.054 6.73954 15.0632C6.49139 15.1336 6.34519 15.25 6.14429 15.4084C6.0819 15.4084 6.01951 15.4084 5.95522 15.4084C5.92598 15.4825 5.89673 15.5566 5.8666 15.6329C5.76616 15.8811 5.76616 15.8811 5.67163 16.0701C5.64927 16.2815 5.64927 16.2815 5.648 16.5192C5.64556 16.5986 5.64312 16.6781 5.64061 16.7599C5.71491 17.372 6.09184 17.7602 6.51076 18.1734C6.56643 18.2294 6.62211 18.2854 6.67948 18.3431C6.86264 18.5271 7.0468 18.7099 7.23103 18.8928C7.35905 19.0208 7.48702 19.1488 7.61495 19.2769C7.88269 19.5446 8.15092 19.8118 8.41952 20.0787C8.76374 20.4208 9.1069 20.7639 9.44973 21.1074C9.71366 21.3716 9.97806 21.6354 10.2426 21.899C10.3693 22.0254 10.4959 22.1519 10.6224 22.2785C10.7991 22.4552 10.9764 22.6313 11.1539 22.8073C11.232 22.8858 11.232 22.8858 11.3118 22.9659C11.7356 23.3839 12.0121 23.5652 12.6079 23.5736C12.6944 23.5762 12.7809 23.5789 12.87 23.5817C13.5634 23.4696 14.0513 22.8388 14.5206 22.3613C14.597 22.2844 14.6734 22.2075 14.7521 22.1283C14.9949 21.8838 15.2371 21.6387 15.4792 21.3934C15.7228 21.1473 15.9665 20.9013 16.2104 20.6555C16.362 20.5028 16.5133 20.3498 16.6643 20.1966C16.7666 20.0934 16.7666 20.0934 16.8709 19.9881C16.9309 19.9274 16.9909 19.8666 17.0527 19.8039C17.2603 19.6102 17.375 19.5703 17.6594 19.5324C17.9607 19.5678 17.9607 19.5678 18.2121 19.7546C18.5083 20.1374 18.4997 20.3982 18.493 20.8691C18.494 20.9928 18.494 20.9928 18.4951 21.1189C18.4967 21.3908 18.4948 21.6625 18.4928 21.9344C18.4929 22.1236 18.4931 22.3127 18.4935 22.5019C18.4938 22.898 18.4924 23.2941 18.4898 23.6903C18.4866 24.1982 18.4871 24.706 18.4889 25.2139C18.4899 25.6043 18.4891 25.9948 18.4876 26.3853C18.4871 26.5726 18.4872 26.7598 18.4878 26.9471C18.4883 27.2088 18.4864 27.4702 18.4838 27.7319C18.4847 27.848 18.4847 27.848 18.4856 27.9666C18.4799 28.3101 18.4642 28.5078 18.253 28.7852C17.9787 28.9811 17.8061 28.9801 17.4788 28.9637C17.2015 28.9062 17.0821 28.7741 16.9209 28.5483C16.82 28.2457 16.8115 28.0214 16.8069 27.7031C16.805 27.5877 16.8031 27.4723 16.8012 27.3534C16.7988 27.1664 16.7988 27.1664 16.7964 26.9756C16.7945 26.8467 16.7925 26.7178 16.7905 26.5889C16.7852 26.25 16.7806 25.9111 16.776 25.5721C16.7713 25.2261 16.766 24.8802 16.7608 24.5342C16.7506 23.8556 16.741 23.1769 16.7318 22.4983C16.6889 22.5443 16.646 22.5903 16.6019 22.6377C16.405 22.8487 16.2078 23.0594 16.0106 23.27C15.9432 23.3424 15.8757 23.4148 15.8063 23.4894C14.9083 24.4473 14.1446 25.2162 12.778 25.2772C11.412 25.3037 10.7458 24.7985 9.78834 23.879C9.43472 23.536 9.08543 23.1887 8.73651 22.8409C8.68177 22.7865 8.62703 22.732 8.57062 22.6759C8.28164 22.3883 7.99291 22.1004 7.70442 21.8124C7.40865 21.5171 7.11201 21.2228 6.81516 20.9286C6.58468 20.6999 6.35484 20.4705 6.12516 20.241C6.01611 20.1322 5.90683 20.0237 5.79729 19.9154C4.79492 18.9237 3.95278 18.0237 3.92871 16.5546C3.9379 15.5801 4.20513 14.8937 4.87587 14.184C5.57097 13.5955 6.40473 13.2855 7.31153 13.3036C9.03998 13.4767 10.0589 14.8669 11.2135 16.0288C11.3458 16.1616 11.4781 16.2943 11.6105 16.427C11.9314 16.749 12.252 17.0712 12.5724 17.3936C12.6776 17.304 12.7827 17.2144 12.8878 17.1247C12.9756 17.0499 12.9756 17.0499 13.0651 16.9735C13.5779 16.5272 14.0556 16.0352 14.4926 15.5148C15.3307 14.5474 16.2438 13.7966 17.3935 13.2342C17.486 13.1877 17.5785 13.1411 17.6738 13.0932C18.6595 12.6553 19.7341 12.5873 20.7966 12.478C20.7454 12.4243 20.6941 12.3707 20.6413 12.3155C19.2213 10.8126 18.6559 8.8554 18.587 6.82381C18.6397 5.28389 19.2415 3.99047 20.2294 2.83577C22.2895 0.999011 25.3277 0.764635 27.5205 2.50307ZM20.9661 4.48379C20.2608 5.4933 20.114 6.62363 20.307 7.81604C20.5718 9.30691 21.1184 10.6416 22.3091 11.6272C23.1257 12.1409 24.0086 12.2364 24.9542 12.0419C25.9286 11.7299 26.5599 11.0793 27.0767 10.2147C27.7782 8.84505 28.1819 7.15419 27.7801 5.63035C27.3967 4.55606 26.5613 3.68995 25.5391 3.20282C23.8595 2.51888 22.1086 3.13603 20.9661 4.48379ZM23.349 14.1795C23.3178 14.3355 23.2866 14.4915 23.2544 14.6522C23.3285 14.7009 23.4026 14.7497 23.479 14.7999C23.792 15.0906 23.8322 15.2751 23.9162 15.692C23.9134 15.9627 23.8748 16.2231 23.832 16.4901C23.8152 16.6055 23.8152 16.6055 23.7981 16.7232C23.7611 16.9758 23.7221 17.2281 23.6832 17.4804C23.6571 17.6565 23.6312 17.8327 23.6054 18.0089C23.5374 18.4716 23.4678 18.934 23.3978 19.3964C23.2857 20.1374 23.1755 20.8786 23.0663 21.6201C23.0278 21.8788 22.9884 22.1375 22.9489 22.3961C22.9253 22.5545 22.9017 22.7129 22.8782 22.8713C22.8613 22.9791 22.8613 22.9791 22.8441 23.089C22.7713 23.558 22.7713 23.558 22.8763 24.0108C23.059 24.2278 23.059 24.2278 23.284 24.4362C23.3577 24.5073 23.4314 24.5785 23.5074 24.6518C23.5799 24.721 23.6524 24.7902 23.7271 24.8616C23.8535 24.9873 23.9796 25.1132 24.1052 25.2397C24.2926 25.0565 24.4782 24.8721 24.6613 24.6847C24.8615 24.4834 24.8615 24.4834 25.0203 24.3501C25.1804 24.214 25.1804 24.214 25.3341 23.9162C25.3508 23.064 25.1796 22.1973 25.0545 21.355C25.0227 21.1408 24.9915 20.9264 24.9604 20.712C24.8832 20.1806 24.8052 19.6492 24.727 19.1179C24.6605 18.6663 24.5944 18.2146 24.529 17.7628C24.4984 17.5529 24.4672 17.343 24.436 17.1332C24.2472 15.8452 24.2472 15.8452 24.2943 15.3139C24.5188 15.0598 24.5188 15.0598 24.7669 14.8412C24.9017 14.5995 24.9017 14.5995 24.956 14.3686C24.9248 14.3062 24.8936 14.2438 24.8615 14.1795C24.3624 14.1795 23.8632 14.1795 23.349 14.1795Z" fill="#F15E3E"/>
<path d="M12.4492 29.8787C13.3905 30.6837 13.991 31.6589 14.1796 32.8966C14.3194 34.7881 13.9754 36.7495 12.7143 38.2377C12.6363 38.3156 12.5583 38.3936 12.478 38.474C12.5808 38.489 12.6837 38.504 12.7897 38.5194C14.4597 38.7779 15.6523 39.3117 16.7319 40.6482C16.8226 40.5546 16.8226 40.5546 16.9151 40.4591C17.0112 40.3643 17.1078 40.2698 17.2046 40.1755C17.2643 40.1162 17.324 40.0569 17.3855 39.9957C18.4259 39.0101 19.6752 38.6091 21.0803 38.474C21.0392 38.4257 20.998 38.3775 20.9555 38.3278C19.7318 36.8339 19.2673 34.9994 19.3788 33.0857C19.5635 31.8223 20.1405 30.6686 21.1394 29.8657C22.3336 29.0157 23.5941 28.6505 25.0514 28.8757C26.3005 29.1513 27.3782 29.7372 28.1248 30.7859C29.079 32.2866 29.2002 33.734 28.8297 35.4556C28.5622 36.5883 28.054 37.5767 27.3194 38.474C27.4244 38.4901 27.5295 38.5062 27.6377 38.5227C29.277 38.7845 30.5184 39.2944 31.5733 40.6482C31.6338 40.5858 31.6942 40.5234 31.7565 40.4591C31.8527 40.3643 31.9492 40.2698 32.046 40.1755C32.1057 40.1162 32.1654 40.0569 32.2269 39.9957C33.2674 39.0101 34.5166 38.6091 35.9217 38.474C35.8048 38.357 35.8048 38.357 35.6854 38.2377C34.4757 36.81 34.0931 34.9146 34.2027 33.0921C34.2418 32.655 34.3412 32.2632 34.5038 31.8568C34.5338 31.7789 34.5637 31.7011 34.5946 31.6208C35.1228 30.4204 36.074 29.6365 37.2452 29.1154C38.5902 28.653 39.9341 28.7323 41.2273 29.3163C42.4371 29.9639 43.2667 31.0348 43.6733 32.3295C44.0729 34.03 43.7543 35.8476 42.9318 37.381C42.6937 37.7604 42.4308 38.1168 42.1608 38.474C42.2568 38.489 42.3529 38.504 42.4518 38.5194C43.8794 38.7557 45.0343 39.1865 46.0366 40.2701C46.1536 40.3958 46.1536 40.3958 46.2729 40.5241C46.9696 41.3768 47.2005 42.3324 47.1994 43.4055C47.1998 43.496 47.2002 43.5865 47.2006 43.6797C47.2012 43.87 47.2012 44.0602 47.2008 44.2505C47.2005 44.5418 47.2027 44.833 47.2051 45.1242C47.2053 45.3095 47.2054 45.4948 47.2053 45.6801C47.2062 45.7671 47.2071 45.8541 47.208 45.9436C47.2036 46.5402 47.2036 46.5402 47.047 46.8449C46.7875 47.0674 46.5603 47.0706 46.2257 47.0763C45.9598 46.9759 45.9598 46.9759 45.753 46.7927C45.5556 46.3377 45.5401 45.9122 45.5447 45.4242C45.5437 45.2676 45.5426 45.1109 45.5414 44.9542C45.5404 44.7103 45.5403 44.4664 45.5422 44.2225C45.5488 43.1087 45.5029 42.1612 44.7123 41.2896C43.9248 40.5362 42.9688 40.2479 41.8944 40.2441C41.7901 40.2434 41.7901 40.2434 41.6836 40.2427C41.4559 40.2413 41.2283 40.2414 41.0006 40.2416C40.8407 40.2413 40.6809 40.2409 40.521 40.2404C40.1868 40.2397 39.8527 40.2397 39.5185 40.2402C39.0924 40.2408 38.6663 40.2392 38.2402 40.237C37.9103 40.2356 37.5803 40.2355 37.2504 40.2358C37.0934 40.2358 36.9364 40.2353 36.7794 40.2343C35.5391 40.2277 34.4786 40.3395 33.4639 41.1209C32.8014 41.7821 32.4902 42.5352 32.4818 43.4688C32.4827 43.5809 32.4827 43.5809 32.4835 43.6954C32.4819 43.8585 32.4802 44.0215 32.4786 44.1846C32.4776 44.4381 32.4773 44.6916 32.4774 44.9451C32.4771 45.1922 32.4745 45.4393 32.4717 45.6864C32.4725 45.762 32.4733 45.8375 32.4741 45.9153C32.4692 46.2831 32.4482 46.4696 32.2524 46.791C31.9666 47.0552 31.7693 47.0763 31.3843 47.0763C31.1056 46.9491 30.9548 46.8792 30.8171 46.6037C30.8056 46.346 30.7995 46.0904 30.7971 45.8327C30.7945 45.6739 30.7918 45.5151 30.789 45.3563C30.7851 45.1066 30.7816 44.8569 30.7791 44.6072C30.7641 43.2318 30.7046 42.1918 29.7211 41.1504C29.0207 40.4897 28.124 40.257 27.1848 40.2533C27.0796 40.2524 27.0796 40.2524 26.9722 40.2515C26.7404 40.2496 26.5085 40.2485 26.2766 40.2476C26.197 40.2472 26.1174 40.2468 26.0354 40.2464C25.6137 40.2444 25.1919 40.2431 24.7701 40.2422C24.337 40.2411 23.9039 40.2379 23.4709 40.2341C23.1357 40.2316 22.8006 40.2309 22.4655 40.2305C22.306 40.2301 22.1465 40.229 21.9871 40.2272C20.7272 40.2141 19.5889 40.3117 18.6225 41.2154C17.9235 41.9065 17.671 42.62 17.6618 43.603C17.6612 43.7154 17.6612 43.7154 17.6606 43.8301C17.6584 43.9906 17.6561 44.151 17.6538 44.3115C17.6504 44.5631 17.6477 44.8147 17.6464 45.0664C17.6449 45.3102 17.6411 45.5538 17.637 45.7976C17.6371 45.8727 17.6373 45.9479 17.6375 46.0253C17.6301 46.3607 17.6123 46.5635 17.4105 46.8372C17.116 47.044 16.9009 47.0763 16.5428 47.0763C16.278 46.9093 16.116 46.7899 15.9757 46.5091C15.9642 46.2435 15.9581 45.9798 15.9557 45.7141C15.9531 45.5506 15.9503 45.3871 15.9476 45.2236C15.9437 44.9662 15.9402 44.7088 15.9377 44.4514C15.9351 44.2026 15.9307 43.954 15.9262 43.7053C15.9257 43.5918 15.9257 43.5918 15.9252 43.4761C15.9052 42.54 15.6014 41.7852 14.9358 41.1209C13.8562 40.2894 12.7142 40.2259 11.4038 40.2291C11.2449 40.2287 11.086 40.2282 10.9271 40.2276C10.5952 40.2267 10.2634 40.227 9.93149 40.2279C9.50943 40.229 9.08744 40.2271 8.66539 40.2243C8.33748 40.2226 8.00959 40.2226 7.68167 40.2232C7.52623 40.2232 7.37078 40.2226 7.21534 40.2214C5.99988 40.2135 4.83729 40.2942 3.86975 41.1212C3.00756 42.0095 2.82857 42.9536 2.81587 44.1532C2.81322 44.2955 2.81051 44.4378 2.80775 44.5801C2.80383 44.8012 2.80034 45.0223 2.79787 45.2435C2.79526 45.4591 2.79093 45.6747 2.78633 45.8903C2.78602 45.9562 2.78571 46.0222 2.7854 46.0902C2.77815 46.3764 2.75491 46.5787 2.61661 46.8318C2.36235 47.0718 2.13738 47.0704 1.79597 47.0763C1.5301 46.9759 1.5301 46.9759 1.32331 46.7927C1.15436 46.3847 1.11001 46.0358 1.10914 45.5963C1.10889 45.4762 1.10865 45.356 1.1084 45.2322C1.10913 45.1077 1.10986 44.9832 1.11061 44.8548C1.10988 44.7332 1.10915 44.6116 1.1084 44.4863C1.11154 42.9253 1.26108 41.5936 2.26862 40.3646C2.32321 40.2847 2.37781 40.2047 2.43405 40.1224C3.44525 39.0269 4.82577 38.6946 6.23893 38.474C6.19665 38.4167 6.15437 38.3594 6.1108 38.3004C4.98207 36.7361 4.34543 34.8337 4.57504 32.8874C4.75504 32.0189 5.12029 31.2263 5.67175 30.5334C5.72159 30.4695 5.77143 30.4057 5.82278 30.3399C7.50835 28.4283 10.5031 28.381 12.4492 29.8787ZM6.81794 31.7032C6.11498 32.6763 6.08421 33.6392 6.25887 34.8013C6.50961 36.0252 7.07113 37.1928 8.12956 37.9068C8.85295 38.2628 9.51201 38.2823 10.2683 38.0309C11.2315 37.6461 11.6824 36.9706 12.1246 36.052C12.5887 34.9461 12.8003 33.7069 12.4366 32.5362C12.1227 31.7878 11.5007 31.0919 10.7764 30.7224C9.31174 30.1461 7.83561 30.4658 6.81794 31.7032ZM21.7125 31.6027C21.095 32.3764 20.9138 33.2514 20.9858 34.2201C21.2074 35.6428 21.6423 36.8646 22.7934 37.7916C23.3224 38.1348 23.9525 38.2877 24.578 38.1904C25.4031 38.0065 25.9562 37.6317 26.4686 36.9615C27.1779 35.8083 27.6161 34.392 27.3704 33.034C27.1405 32.1634 26.6567 31.414 25.9014 30.9115C24.4286 30.1205 22.8619 30.3612 21.7125 31.6027ZM36.4889 31.6677C35.8233 32.5307 35.7301 33.4414 35.8272 34.5037C35.9977 35.6377 36.4736 36.9435 37.4195 37.6609C38.0348 38.0703 38.6723 38.2832 39.4194 38.1904C40.2672 37.9716 40.8989 37.4782 41.4046 36.7724C42.0706 35.5876 42.4233 34.1997 42.1346 32.8557C41.8938 32.0004 41.4093 31.3565 40.6601 30.8819C39.1651 30.0439 37.6171 30.4112 36.4889 31.6677Z" fill="#F15E3E"/>
<path d="M34.1955 1.29755C34.2866 1.29707 34.3777 1.29659 34.4715 1.29609C34.7717 1.29478 35.0718 1.29487 35.372 1.29508C35.5813 1.29472 35.7907 1.29431 36 1.29386C36.4385 1.29315 36.8769 1.29318 37.3154 1.29368C37.8763 1.29422 38.4372 1.29262 38.9982 1.29043C39.4304 1.28904 39.8627 1.28895 40.2949 1.28925C40.5017 1.2892 40.7084 1.28871 40.9152 1.28775C41.2048 1.28658 41.4943 1.28723 41.7839 1.28832C41.8686 1.2876 41.9534 1.28688 42.0408 1.28613C42.6864 1.2915 43.1792 1.4224 43.7388 1.76072C44.4862 2.52832 44.4994 3.3405 44.4895 4.3607C44.4896 4.50815 44.4898 4.65561 44.4902 4.80306C44.4905 5.1108 44.4891 5.41848 44.4865 5.72621C44.4832 6.11898 44.4838 6.51163 44.4856 6.90441C44.4866 7.20846 44.4857 7.51249 44.4843 7.81654C44.4838 7.96129 44.4839 8.10605 44.4845 8.2508C44.4867 9.11761 44.4788 9.80932 43.8869 10.4953C43.8341 10.5374 43.7813 10.5796 43.727 10.623C43.6744 10.6667 43.6219 10.7103 43.5678 10.7552C43.041 11.0991 42.5755 11.0777 41.9667 11.0628C41.7761 11.0615 41.5855 11.0605 41.3949 11.0597C41.0967 11.0578 40.7989 11.0544 40.5008 11.0463C39.3803 11.0183 38.5126 11.0083 37.6511 11.7904C37.5142 11.9233 37.3799 12.0589 37.2457 12.1946C37.066 12.3491 36.8817 12.496 36.6962 12.6436C36.4541 12.8403 36.2149 13.0372 35.9824 13.2452C35.5579 13.611 35.264 13.7807 34.6974 13.7765C34.3772 13.6614 34.291 13.5344 34.1261 13.2345C34.0805 12.861 34.0906 12.4933 34.1025 12.1178C34.1042 12.0162 34.1059 11.9147 34.1077 11.81C34.1121 11.56 34.1183 11.3102 34.1261 11.0602C34.0206 11.0628 34.0206 11.0628 33.913 11.0654C33.8202 11.0668 33.7273 11.0681 33.6317 11.0695C33.494 11.072 33.494 11.072 33.3536 11.0747C32.8642 11.0483 32.5141 10.8588 32.1642 10.523C31.7162 10.0209 31.5505 9.67198 31.5463 8.98655C31.5457 8.92132 31.5451 8.8561 31.5444 8.7889C31.5426 8.57361 31.5422 8.35835 31.542 8.14306C31.5414 7.99282 31.5408 7.84257 31.5401 7.69233C31.539 7.37733 31.5386 7.06234 31.5388 6.74734C31.5388 6.34514 31.5362 5.943 31.5329 5.54081C31.5308 5.23036 31.5305 4.91992 31.5306 4.60946C31.5303 4.46127 31.5295 4.31309 31.528 4.16491C31.5134 2.53954 31.5134 2.53954 32.1343 1.88849C32.195 1.84633 32.2557 1.80416 32.3182 1.76072C32.3784 1.7171 32.4386 1.67348 32.5006 1.62853C33.0593 1.31639 33.5722 1.29584 34.1955 1.29755ZM33.1808 3.21414C33.1246 3.48506 33.1246 3.48506 33.1349 3.79871C33.1343 3.9192 33.1337 4.0397 33.1331 4.16384C33.1344 4.29544 33.1358 4.42703 33.1373 4.55863C33.1375 4.69341 33.1376 4.8282 33.1375 4.96298C33.1378 5.24534 33.1394 5.52765 33.1419 5.80999C33.1451 6.17229 33.1458 6.53453 33.1457 6.89684C33.1458 7.17508 33.1468 7.45331 33.1482 7.73155C33.1488 7.86516 33.1491 7.99877 33.1493 8.13239C33.1497 8.31887 33.1515 8.50534 33.1534 8.69181C33.1541 8.79801 33.1548 8.90421 33.1555 9.01364C33.1556 9.27881 33.1556 9.27881 33.3699 9.45321C33.7256 9.48095 34.0777 9.49247 34.4343 9.49844C34.9212 9.51479 35.2767 9.56396 35.6386 9.92586C35.6609 10.148 35.6778 10.3707 35.6918 10.5935C35.6997 10.7155 35.7077 10.8374 35.7158 10.9631C35.7215 11.0576 35.7273 11.152 35.7332 11.2493C36.1013 10.9769 36.4662 10.7016 36.8243 10.4162C36.883 10.3696 36.9417 10.323 37.0021 10.2749C37.1202 10.1808 37.238 10.0864 37.3556 9.99166C37.7576 9.67173 38.0217 9.53687 38.532 9.53283C38.62 9.53186 38.708 9.53089 38.7987 9.52989C38.8935 9.5292 38.9884 9.52851 39.0861 9.5278C39.2863 9.52514 39.4866 9.52244 39.6869 9.51967C40.003 9.51577 40.3192 9.51228 40.6354 9.5098C40.9402 9.50719 41.245 9.50286 41.5498 9.49826C41.692 9.4978 41.692 9.4978 41.8372 9.49732C41.9252 9.49576 42.0132 9.49419 42.1039 9.49258C42.1813 9.49181 42.2588 9.49105 42.3386 9.49026C42.5435 9.46575 42.5435 9.46575 42.706 9.34485C42.8747 9.09212 42.8597 8.89765 42.8612 8.59522C42.8624 8.47693 42.8636 8.35863 42.8648 8.23675C42.8646 8.10754 42.8644 7.97834 42.864 7.84913C42.8644 7.71669 42.8649 7.58425 42.8655 7.45181C42.8663 7.17432 42.8661 6.89684 42.8652 6.61935C42.8641 6.26361 42.866 5.90796 42.8688 5.55223C42.8705 5.27877 42.8705 5.00533 42.8699 4.73187C42.8699 4.60071 42.8705 4.46954 42.8717 4.33839C42.8731 4.15511 42.8718 3.97181 42.8704 3.78853C42.8704 3.68422 42.8704 3.5799 42.8704 3.47243C42.8434 3.21181 42.8434 3.21181 42.6843 3.03874C42.3228 2.87536 41.9847 2.89108 41.5923 2.89385C41.5061 2.89336 41.42 2.89286 41.3313 2.89235C41.0467 2.8911 40.7621 2.89193 40.4775 2.89288C40.2797 2.89269 40.0819 2.89242 39.8841 2.89206C39.4696 2.89164 39.0551 2.89225 38.6407 2.89358C38.1091 2.89519 37.5777 2.89426 37.0462 2.89256C36.6378 2.89154 36.2294 2.89186 35.821 2.8926C35.625 2.89279 35.429 2.89256 35.233 2.8919C34.9592 2.89118 34.6854 2.89227 34.4116 2.89385C34.3304 2.89328 34.2493 2.89271 34.1657 2.89211C33.6065 2.88751 33.6065 2.88751 33.1808 3.21414Z" fill="#F15E3E"/>
<path d="M35.5675 6.59143C35.687 6.59053 35.8066 6.58963 35.9298 6.5887C36.06 6.58872 36.1902 6.58881 36.3204 6.58896C36.4544 6.58859 36.5884 6.58818 36.7223 6.58773C37.0029 6.58703 37.2835 6.58706 37.5641 6.58755C37.9231 6.5881 38.282 6.5865 38.641 6.58431C38.9176 6.58291 39.1942 6.58283 39.4709 6.58313C39.6032 6.58308 39.7355 6.58258 39.8678 6.58163C40.0531 6.58046 40.2384 6.58129 40.4236 6.5822C40.5289 6.58214 40.6342 6.58208 40.7427 6.58202C41.0631 6.62194 41.2413 6.70997 41.4993 6.90099C41.6472 7.19682 41.6598 7.52592 41.5939 7.8463C41.3841 8.11913 41.2724 8.21494 40.9288 8.27244C40.8166 8.27274 40.7043 8.27304 40.5887 8.27335C40.5266 8.27402 40.4644 8.27468 40.4004 8.27536C40.1956 8.27702 39.9908 8.27592 39.786 8.27465C39.6433 8.2749 39.5006 8.27527 39.3579 8.27574C39.0591 8.2763 38.7604 8.27549 38.4616 8.27372C38.0788 8.27157 37.6962 8.27281 37.3134 8.27507C37.0189 8.27644 36.7244 8.276 36.4298 8.27502C36.2887 8.27477 36.1476 8.27508 36.0065 8.27596C35.8091 8.27692 35.612 8.27546 35.4146 8.27335C35.2463 8.2729 35.2463 8.2729 35.0746 8.27244C34.7299 8.21477 34.6211 8.1187 34.4095 7.8463C34.2823 7.52408 34.305 7.40033 34.4272 7.07233C34.727 6.60707 35.0347 6.59364 35.5675 6.59143Z" fill="#F15E3E"/>
<path d="M37.2632 4.14432C37.345 4.14341 37.4267 4.14251 37.5109 4.14157C37.6437 4.14097 37.6437 4.14097 37.7792 4.14035C37.8701 4.13981 37.961 4.13928 38.0547 4.13872C38.2474 4.13783 38.4401 4.13721 38.6328 4.13685C38.9272 4.13593 39.2216 4.133 39.516 4.13001C39.7031 4.1294 39.8903 4.1289 40.0775 4.12854C40.1654 4.12737 40.2534 4.1262 40.344 4.125C40.8047 4.12658 41.1289 4.13585 41.4995 4.44315C41.6474 4.73898 41.6599 5.06808 41.594 5.38846C41.4645 5.58641 41.4645 5.58641 41.2159 5.76659C40.8858 5.82563 40.5583 5.8218 40.2237 5.82013C40.1267 5.82072 40.0298 5.8213 39.9299 5.8219C39.7249 5.82258 39.52 5.82228 39.3151 5.82108C39.0017 5.81977 38.6887 5.82298 38.3753 5.82659C38.1761 5.82668 37.9769 5.82651 37.7777 5.82604C37.6373 5.82792 37.6373 5.82792 37.4942 5.82984C37.0531 5.82388 36.84 5.81625 36.4771 5.54759C36.2451 5.21477 36.2352 5.02985 36.3003 4.63221C36.589 4.2665 36.8069 4.14841 37.2632 4.14432Z" fill="#F15E3E"/>
<path d="M35.6386 4.25406C35.8502 4.42477 35.9079 4.54555 35.9517 4.81202C35.9714 5.14331 35.9533 5.33662 35.7804 5.62477C35.4474 5.82454 35.1666 5.84357 34.7878 5.76656C34.5243 5.58416 34.4345 5.45772 34.327 5.15802C34.3124 4.85895 34.354 4.70253 34.5042 4.44313C34.8842 4.11743 35.1646 4.12242 35.6386 4.25406Z" fill="#F15E3E"/>
</svg>
