<svg width="361" height="241" viewBox="0 0 361 241" fill="none" xmlns="http://www.w3.org/2000/svg">
<g clip-path="url(#clip0_1_36)">
<path d="M231.496 0.241505C236.116 2.42993 238.21 4.74293 240.496 9.24151C241.859 17.6706 239.789 24.54 236.274 32.1087C235.826 33.1203 235.379 34.1319 234.918 35.1742C233.949 37.3555 232.971 39.5323 231.984 41.705C230.399 45.194 228.84 48.6937 227.287 52.1973C225.66 55.8689 224.032 59.5402 222.395 63.2072C217.284 74.6573 212.356 86.1823 207.467 97.7285C205.091 103.34 202.705 108.947 200.321 114.554C199.844 115.675 199.368 116.795 198.877 117.95C192.412 133.154 185.903 148.34 179.378 163.519C174.882 173.984 170.397 184.454 165.979 194.952C164.053 199.527 162.119 204.099 160.184 208.67C159.276 210.822 158.373 212.975 157.474 215.13C156.239 218.092 154.988 221.048 153.735 224.003C153.377 224.871 153.02 225.739 152.652 226.634C150.049 232.712 147.083 236.517 141.496 240.242C135.942 240.931 131.025 240.966 125.934 238.554C122.743 235.527 120.767 232.913 120.055 228.51C120.029 220.885 121.524 215.253 124.719 208.374C125.167 207.363 125.614 206.351 126.075 205.309C127.044 203.128 128.022 200.951 129.009 198.778C130.594 195.289 132.153 191.789 133.706 188.286C135.333 184.614 136.961 180.943 138.598 177.276C143.709 165.826 148.637 154.301 153.526 142.754C155.902 137.143 158.287 131.536 160.672 125.929C161.387 124.248 161.387 124.248 162.116 122.533C168.581 107.329 175.09 92.1431 181.615 76.9637C186.111 66.4985 190.596 56.0293 195.014 45.5308C196.94 40.9556 198.874 36.3841 200.809 31.8127C201.717 29.6614 202.62 27.5082 203.519 25.3532C204.754 22.3907 206.005 19.4347 207.258 16.4798C207.615 15.6117 207.973 14.7437 208.341 13.8493C213.116 2.70032 219.504 -1.04344 231.496 0.241505Z" fill="#005592" fill-opacity="0.972549"/>
<path d="M276.496 45.2418C280.024 46.9872 282.891 49.2784 285.866 51.8419C287.711 53.4264 289.589 54.9657 291.473 56.5035C294.402 58.8988 297.32 61.3075 300.23 63.7261C303.96 66.8143 307.739 69.829 311.559 72.8043C316.588 76.7234 321.557 80.7098 326.496 84.7418C331.607 88.9116 336.744 93.0446 341.934 97.1168C342.508 97.5687 343.083 98.0207 343.675 98.4864C346.184 100.454 348.706 102.398 351.262 104.304C352.061 104.902 352.86 105.501 353.684 106.117C354.358 106.609 355.032 107.102 355.727 107.609C358.778 110.424 360.314 113.025 360.93 117.144C360.931 118.146 360.932 119.147 360.934 120.179C360.953 121.178 360.972 122.177 360.992 123.207C359.91 129.826 355.388 133.494 350.246 137.304C348.99 138.262 347.735 139.222 346.48 140.183C345.501 140.93 345.501 140.93 344.502 141.691C341.114 144.31 337.808 147.029 334.496 149.742C328.974 154.25 323.404 158.69 317.785 163.078C313.312 166.58 308.898 170.15 304.496 173.742C299.316 177.965 294.118 182.163 288.871 186.304C288.316 186.745 287.76 187.186 287.188 187.64C280.278 193.071 276.235 195.948 267.344 195.628C263.475 195.103 261.32 193.921 258.496 191.242C255.829 187.511 255.064 184.878 255.059 180.304C255.039 179.305 255.02 178.306 255 177.277C256.082 170.657 260.604 166.989 265.746 163.179C267.002 162.221 268.258 161.261 269.512 160.3C270.491 159.554 270.491 159.554 271.49 158.792C274.878 156.174 278.184 153.455 281.496 150.742C287.034 146.221 292.615 141.762 298.247 137.36C305.042 132.044 311.768 126.642 318.496 121.242C316.957 117.024 313.84 114.9 310.371 112.304C309.097 111.328 307.823 110.35 306.551 109.371C305.885 108.86 305.22 108.35 304.534 107.824C301.14 105.189 297.821 102.464 294.496 99.7418C289.489 95.6557 284.457 91.6049 279.371 87.6168C278.809 87.1751 278.248 86.7334 277.669 86.2784C274.669 83.9252 271.653 81.596 268.617 79.2886C267.661 78.5551 267.661 78.5551 266.686 77.8067C265.471 76.8748 264.251 75.9496 263.025 75.0323C258.664 71.6736 255.891 68.8844 255.062 63.3394C255.055 57.1911 255.05 52.9286 259.496 48.2418C265 44.3784 269.956 44.0373 276.496 45.2418Z" fill="#005592" fill-opacity="0.972549"/>
<path d="M96.4961 45.2412C101.112 47.4277 103.225 49.7372 105.496 54.2412C105.93 57.1436 105.93 57.1436 105.934 60.1787C105.953 61.1778 105.972 62.1768 105.992 63.2061C104.91 69.8258 100.388 73.4937 95.2461 77.3037C93.9898 78.2619 92.7346 79.2216 91.4805 80.1826C90.8276 80.6804 90.1747 81.1781 89.502 81.6909C86.1139 84.3095 82.8084 87.028 79.4961 89.7412C73.9579 94.2616 68.3776 98.7205 62.7456 103.123C55.9503 108.439 49.2246 113.841 42.4961 119.241C44.0353 123.459 47.1523 125.583 50.6211 128.179C51.8956 129.155 53.169 130.133 54.4414 131.112C55.1069 131.623 55.7724 132.133 56.458 132.659C59.852 135.294 63.1715 138.019 66.4961 140.741C71.5037 144.827 76.5351 148.878 81.6211 152.866C82.1829 153.308 82.7447 153.75 83.3235 154.205C86.3234 156.558 89.3396 158.887 92.375 161.194C93.0123 161.683 93.6496 162.172 94.3062 162.676C95.5211 163.608 96.7412 164.533 97.9673 165.451C102.328 168.809 105.101 171.599 105.93 177.144C105.938 183.292 105.943 187.554 101.496 192.241C96.8424 195.508 93.2596 196.007 87.6562 195.823C82.4288 194.86 79.09 192.057 75.126 188.641C73.2812 187.057 71.4034 185.517 69.5195 183.98C66.5899 181.584 63.6721 179.176 60.7617 176.757C57.0326 173.669 53.2531 170.654 49.4336 167.679C44.4041 163.76 39.4356 159.773 34.4961 155.741C29.3847 151.571 24.2482 147.438 19.0586 143.366C18.4839 142.914 17.9092 142.462 17.3171 141.997C14.8083 140.029 12.2864 138.085 9.73047 136.179C8.93125 135.581 8.13203 134.982 7.30859 134.366C6.63441 133.874 5.96023 133.381 5.26562 132.874C2.21442 130.059 0.677916 127.458 0.0625 123.339C0.0612109 122.337 0.0599219 121.336 0.0585938 120.304C0.0392578 119.305 0.0199219 118.306 0 117.276C1.08198 110.657 5.60422 106.989 10.7461 103.179C12.0024 102.221 13.2576 101.261 14.5117 100.3C15.1646 99.8021 15.8175 99.3044 16.4902 98.7915C19.8783 96.173 23.1838 93.4545 26.4961 90.7412C32.0186 86.2325 37.588 81.7928 43.207 77.4053C47.6805 73.9035 52.0945 70.3329 56.4961 66.7412C61.6766 62.5182 66.8745 58.3196 72.1211 54.1787C72.6767 53.7379 73.2323 53.297 73.8047 52.8428C81.6617 46.6681 86.3786 43.8673 96.4961 45.2412Z" fill="#005592" fill-opacity="0.972549"/>
</g>
<defs>
<clipPath id="clip0_1_36">
<rect width="361" height="241" fill="white"/>
</clipPath>
</defs>
</svg>
